<svg width="219" height="72" viewBox="0 0 219 72" fill="none" xmlns="http://www.w3.org/2000/svg">
<path d="M105.65 51.3109L101.969 41.8537H89.8591L86.2218 51.3109H82.3276L94.2668 20.6285H97.733L109.629 51.3109H105.65ZM100.814 38.4303L97.3907 29.1871C97.3051 28.9588 97.1624 28.5452 96.9627 27.9461C96.763 27.347 96.5633 26.7336 96.3636 26.106C96.1925 25.4498 96.0498 24.9506 95.9357 24.6083C95.736 25.4926 95.5078 26.3628 95.251 27.2186C94.9943 28.0459 94.7803 28.7021 94.6091 29.1871L91.1429 38.4303H100.814Z" fill="#022211"/>
<path d="M115.093 51.3109V20.7569H118.944V47.8875H132.295V51.3109H115.093Z" fill="#022211"/>
<path d="M155.892 51.3109H138.818V20.7569H155.892V24.1375H142.669V33.6803H155.122V37.0181H142.669V47.9303H155.892V51.3109Z" fill="#022211"/>
<path d="M172.31 20.7569C176.104 20.7569 178.9 21.4844 180.697 22.9393C182.523 24.3658 183.436 26.5339 183.436 29.4438C183.436 31.07 183.137 32.4251 182.537 33.5091C181.938 34.5932 181.168 35.4633 180.227 36.1195C179.314 36.7471 178.344 37.2464 177.317 37.6172L185.704 51.3109H181.211L173.808 38.6871H167.731V51.3109H163.88V20.7569H172.31ZM172.096 24.0947H167.731V35.4348H172.31C174.792 35.4348 176.604 34.9498 177.745 33.9799C178.886 32.9814 179.456 31.5264 179.456 29.615C179.456 27.618 178.857 26.2058 177.659 25.3785C176.461 24.5227 174.607 24.0947 172.096 24.0947Z" fill="#022211"/>
<path d="M218.444 35.9911C218.444 39.1578 217.902 41.925 216.817 44.2929C215.762 46.6322 214.193 48.4581 212.11 49.7704C210.028 51.0827 207.446 51.7388 204.365 51.7388C201.198 51.7388 198.559 51.0827 196.448 49.7704C194.366 48.4581 192.811 46.618 191.784 44.2501C190.757 41.8822 190.243 39.115 190.243 35.9483C190.243 32.8102 190.757 30.0715 191.784 27.7321C192.811 25.3928 194.366 23.567 196.448 22.2547C198.559 20.9423 201.212 20.2862 204.408 20.2862C207.46 20.2862 210.028 20.9423 212.11 22.2547C214.193 23.5384 215.762 25.3643 216.817 27.7321C217.902 30.0715 218.444 32.8245 218.444 35.9911ZM194.308 35.9911C194.308 39.8425 195.122 42.8807 196.748 45.106C198.374 47.3027 200.913 48.401 204.365 48.401C207.845 48.401 210.384 47.3027 211.982 45.106C213.579 42.8807 214.378 39.8425 214.378 35.9911C214.378 32.1398 213.579 29.13 211.982 26.9619C210.384 24.7652 207.859 23.6668 204.408 23.6668C200.956 23.6668 198.402 24.7652 196.748 26.9619C195.122 29.13 194.308 32.1398 194.308 35.9911Z" fill="#022211"/>
<path fill-rule="evenodd" clip-rule="evenodd" d="M105.269 51.8672L101.589 42.41H90.2409L86.6035 51.8672H81.5139L93.886 20.0722H98.1137L110.441 51.8672H105.269ZM89.8591 41.8537H101.969L105.65 51.3109H109.629L97.733 20.6285H94.2668L82.3276 51.3109H86.2218L89.8591 41.8537ZM95.6757 25.6876C95.544 26.2029 95.4026 26.7132 95.251 27.2186C94.9943 28.0459 94.7803 28.7021 94.6091 29.1871L91.1429 38.4303H100.814L97.3907 29.1871C97.3051 28.9588 97.1624 28.5452 96.9627 27.9461C96.763 27.347 96.5633 26.7336 96.3636 26.106C96.3247 25.9567 96.2869 25.8155 96.2509 25.6825C96.1287 25.2308 96.0239 24.8727 95.9357 24.6083C95.8539 24.9704 95.7671 25.3302 95.6757 25.6876ZM95.9752 26.7185C95.9132 26.9394 95.8493 27.1594 95.7836 27.3785L95.7821 27.3835C95.5244 28.2137 95.308 28.8775 95.1334 29.3722L95.1298 29.3824L91.9454 37.874H100.015L96.8695 29.3824C96.8694 29.3821 96.8696 29.3827 96.8695 29.3824C96.7798 29.1431 96.6339 28.7198 96.4347 28.122C96.2815 27.6624 96.1283 27.1946 95.9752 26.7185ZM114.536 51.8672V20.2006H119.5V47.3312H132.851V51.8672H114.536ZM118.944 47.8875V20.7569H115.093V51.3109H132.295V47.8875H118.944ZM156.448 51.8672H138.261V20.2006H156.448V24.6938H143.225V33.124H155.678V37.5745H143.225V47.374H156.448V51.8672ZM142.669 47.9303V37.0181H155.122V33.6803H142.669V24.1375H155.892V20.7569H138.818V51.3109H155.892V47.9303H142.669ZM181.211 51.3109L173.808 38.6871H167.731V51.3109H163.88V20.7569H172.31C176.104 20.7569 178.9 21.4844 180.697 22.9393C182.523 24.3658 183.436 26.5339 183.436 29.4438C183.436 31.07 183.137 32.4251 182.537 33.5091C181.938 34.5932 181.168 35.4633 180.227 36.1195C179.472 36.6386 178.677 37.0699 177.844 37.4134C177.67 37.4852 177.494 37.5531 177.317 37.6172L185.704 51.3109H181.211ZM178.138 37.8936L186.697 51.8672H180.892L173.489 39.2434H168.287V51.8672H163.323V20.2006H172.31C176.153 20.2006 179.101 20.9336 181.043 22.5039C183.035 24.0623 183.992 26.4128 183.992 29.4438C183.992 31.1356 183.681 32.59 183.024 33.7782C182.387 34.9308 181.561 35.8673 180.544 36.5759L180.542 36.5779C179.779 37.102 178.978 37.5407 178.138 37.8936ZM177.335 25.8312C176.277 25.0755 174.564 24.6511 172.096 24.6511H168.287V34.8785H172.31C174.738 34.8785 176.388 34.4008 177.381 33.5586C178.369 32.6922 178.9 31.4092 178.9 29.615C178.9 27.7268 178.338 26.5238 177.343 25.8363L177.335 25.8312ZM177.745 33.9799C176.604 34.9498 174.792 35.4348 172.31 35.4348H167.731V24.0947H172.096C174.607 24.0947 176.461 24.5227 177.659 25.3785C178.857 26.2058 179.456 27.618 179.456 29.615C179.456 31.5264 178.886 32.9814 177.745 33.9799ZM196.154 50.2428L196.151 50.241C193.969 48.866 192.342 46.9368 191.273 44.4715C190.21 42.0198 189.687 39.1743 189.687 35.9483C189.687 32.7503 190.21 29.9325 191.274 27.5085C192.344 25.0715 193.971 23.1579 196.151 21.784L196.154 21.7822C198.375 20.4015 201.137 19.7299 204.407 19.7299C207.538 19.7299 210.214 20.4032 212.404 21.7826C214.586 23.1279 216.226 25.041 217.324 27.502C218.447 29.9286 219 32.7634 219 35.9911C219 39.2206 218.447 42.0696 217.323 44.524C216.225 46.9573 214.585 48.8684 212.407 50.241C210.215 51.6218 207.524 52.2951 204.364 52.2951C201.122 52.2951 198.375 51.6231 196.154 50.2428ZM216.817 44.2929L217.324 44.5217C217.324 44.5225 217.324 44.5232 217.323 44.524C217.323 44.5241 217.323 44.5238 217.323 44.524L216.817 44.2929ZM196.448 49.7704C194.366 48.4581 192.811 46.618 191.784 44.2501C190.757 41.8822 190.243 39.115 190.243 35.9483C190.243 32.8102 190.757 30.0715 191.784 27.7321C192.811 25.3928 194.366 23.567 196.448 22.2547C198.559 20.9423 201.212 20.2862 204.408 20.2862C207.46 20.2862 210.028 20.9423 212.11 22.2547C214.193 23.5384 215.762 25.3643 216.817 27.7321C217.902 30.0715 218.444 32.8245 218.444 35.9911C218.444 39.1578 217.902 41.925 216.817 44.2929C215.762 46.6322 214.193 48.4581 212.11 49.7704C210.028 51.0827 207.446 51.7388 204.365 51.7388C201.198 51.7388 198.559 51.0827 196.448 49.7704ZM211.534 27.2919L211.532 27.2891C210.067 25.2747 207.735 24.2231 204.407 24.2231C201.081 24.2231 198.715 25.2746 197.192 27.2966C195.663 29.3353 194.864 32.2115 194.864 35.9911C194.864 39.7695 195.663 42.6781 197.196 44.7767C198.69 46.7938 201.038 47.8447 204.364 47.8447C207.721 47.8447 210.066 46.7925 211.531 44.7803C213.037 42.6811 213.822 39.7711 213.822 35.9911C213.822 32.2092 213.036 29.3312 211.534 27.2919ZM196.748 45.106C195.122 42.8807 194.308 39.8425 194.308 35.9911C194.308 32.1398 195.122 29.13 196.748 26.9619C198.402 24.7652 200.956 23.6668 204.408 23.6668C207.859 23.6668 210.384 24.7652 211.982 26.9619C213.579 29.13 214.378 32.1398 214.378 35.9911C214.378 39.8425 213.579 42.8807 211.982 45.106C210.384 47.3027 207.845 48.401 204.365 48.401C200.913 48.401 198.374 47.3027 196.748 45.106Z" fill="#022211"/>
<path fill-rule="evenodd" clip-rule="evenodd" d="M39.2286 4.53275C36.558 1.86213 32.2287 1.86213 29.5581 4.53275L2.00206 32.0888C-0.668087 34.759 -0.668574 39.0887 2.00206 41.7593L29.5581 69.3154C32.2283 71.9855 36.5585 71.9855 39.2286 69.3154L66.7847 41.7593C69.4553 39.0887 69.4548 34.759 66.7847 32.0888L39.2286 4.53275ZM30.6698 5.64448C32.7232 3.59117 36.064 3.59161 38.1169 5.64448L65.673 33.2005C67.7258 35.2534 67.7258 38.5947 65.673 40.6476L38.1169 68.2036C36.064 70.2565 32.7227 70.2565 30.6698 68.2036L3.11379 40.6476C1.06048 38.5943 1.06092 35.2534 3.11379 33.2005L30.6698 5.64448Z" fill="#022211"/>
<path fill-rule="evenodd" clip-rule="evenodd" d="M34.2998 15.6534L33.9241 15.4372L27.7292 19.102L27.7285 19.1024L27.3189 19.347V26.1596L21.7323 29.4413L21.7316 29.4417L21.3196 29.686V36.5909L15.3099 40.1166V47.7682L22.0563 51.7334L22.4824 51.4936L28.1303 48.293L33.7545 51.5986L34.1737 51.8462L34.5986 51.607L40.3802 48.3314L45.767 51.4974L46.1862 51.745L46.6111 51.5058L52.622 48.1003L52.623 48.0997L53.0037 47.8871V40.1024L52.5782 39.8656L46.7494 36.5989V29.6571L46.3281 29.4194L40.7855 26.2631V19.3189L40.3667 19.0783L34.3012 15.6542L34.2998 15.6534ZM37.5906 28.9207L40.0025 27.543L44.4973 30.1025L40.037 32.6923L35.6018 30.1063L37.5906 28.9207ZM31.9024 29.7086L32.5868 30.114L28.0718 32.6958L23.5644 30.1069L27.9837 27.5108L31.9024 29.7086ZM29.5542 19.7638L33.9381 17.1675L38.5218 19.76L34.0255 22.3514L29.5542 19.7638ZM34.7756 28.7998V23.6585L39.2912 21.0568V26.161L36.92 27.5748L34.7756 28.7998ZM33.2787 23.657L28.8184 21.0767V26.133L32.8211 28.5046L33.2787 28.7612V23.657ZM33.3784 31.3964L28.8218 34.0028V39.1487L33.3784 36.5646V31.3964ZM40.9912 46.9554L45.4475 49.5745V44.4461L40.9912 41.8888V46.9554ZM39.4422 41.9686L34.9286 44.548V49.6995L39.4422 47.1421V41.9686ZM40.7863 39.1403V33.9999L45.2565 31.4042V36.5667L40.7863 39.1403ZM39.2914 33.9986L34.874 31.4239V36.4793L39.2914 39.1162V33.9986ZM17.5557 40.539L21.9792 37.9433L26.6047 40.5353L22.0673 43.128L17.5557 40.539ZM22.818 49.5819V44.435L27.3811 41.8273V46.9964L22.818 49.5819ZM21.3198 44.4356L16.8126 41.8497V46.9091L21.3198 49.558V44.4356ZM41.676 40.5522L46.1046 37.9538L50.7346 40.5483L46.1921 43.1438L41.676 40.5522ZM46.9411 49.5983V44.4468L51.5088 41.8365V47.0103L46.9411 49.5983ZM29.6635 40.6534L34.0921 38.055L38.7221 40.6495L34.1796 43.245L29.6635 40.6534ZM33.435 44.5473L28.9233 41.9582V47.024L33.435 49.6757V44.5473ZM27.3212 34.0014L22.8197 31.4156V36.4739L27.3237 39.1242L27.3212 34.0014Z" fill="#022211"/>
</svg>
