<svg width="96" height="96" viewBox="0 0 96 96" fill="none" xmlns="http://www.w3.org/2000/svg">
<path fill-rule="evenodd" clip-rule="evenodd" d="M54.6131 3.32232C50.9144 -0.376321 44.9187 -0.376321 41.22 3.32232L3.0567 41.4857C-0.641284 45.1836 -0.641958 51.18 3.0567 54.8787L41.22 93.042C44.918 96.74 50.9151 96.74 54.6131 93.042L92.7764 54.8787C96.4751 51.18 96.4744 45.1836 92.7764 41.4857L54.6131 3.32232ZM42.7597 4.86199C45.6034 2.01829 50.2303 2.0189 53.0734 4.86199L91.2367 43.0253C94.0798 45.8684 94.0798 50.4959 91.2367 53.339L53.0734 91.5023C50.2303 94.3454 45.6028 94.3454 42.7597 91.5023L4.59637 53.339C1.75267 50.4953 1.75328 45.8684 4.59637 43.0253L42.7597 4.86199Z" fill="#264C2D"/>
<path fill-rule="evenodd" clip-rule="evenodd" d="M47.7878 18.7213L47.2674 18.4219L38.688 23.4973L38.687 23.4979L38.1197 23.8366V33.2717L30.3826 37.8166L30.3816 37.8171L29.811 38.1554V47.7184L21.488 52.6012V63.1981L30.8314 68.6897L31.4214 68.3576L39.2434 63.925L47.0326 68.5031L47.6131 68.8459L48.2016 68.5147L56.2088 63.9781L63.6691 68.3629L64.2497 68.7058L64.8381 68.3745L73.1627 63.6581L73.1642 63.6573L73.6914 63.3629V52.5815L73.1021 52.2536L65.0297 47.7295V38.1155L64.4462 37.7863L56.77 33.4149V23.7977L56.19 23.4645L47.7897 18.7224L47.7878 18.7213ZM52.3453 37.0956L55.6857 35.1876L61.9106 38.7323L55.7334 42.319L49.591 38.7376L52.3453 37.0956ZM44.4676 38.1867L45.4154 38.7483L39.1624 42.3239L32.9199 38.7384L39.0403 35.1429L44.4676 38.1867ZM41.2154 24.4139L47.2869 20.8181L53.6349 24.4087L47.4079 27.9976L41.2154 24.4139ZM48.4467 36.9281V29.8078L54.7006 26.2047V33.2735L51.4166 35.2316L48.4467 36.9281ZM46.3736 29.8058L40.1963 26.2322V33.2348L45.7399 36.5193L46.3736 36.8747V29.8058ZM46.5117 40.5243L40.201 44.1339V51.2607L46.5117 47.6819V40.5243ZM57.0549 62.0725L63.2266 65.6997V58.5972L57.0549 55.0556V62.0725ZM54.9096 55.1662L48.6586 58.7384V65.8729L54.9096 62.3311V55.1662ZM56.7712 51.249V44.13L62.962 40.5351V47.6848L56.7712 51.249ZM54.7009 44.1281L48.583 40.5623V47.5637L54.7009 51.2157V44.1281ZM24.5983 53.1862L30.7245 49.5914L37.1305 53.181L30.8466 56.7718L24.5983 53.1862ZM31.8862 65.71V58.5819L38.2058 54.9704V62.1293L31.8862 65.71ZM29.8113 58.5827L23.5692 55.0014V62.0083L29.8113 65.6769V58.5827ZM58.0034 53.2045L64.1366 49.6059L70.5489 53.1991L64.2578 56.7937L58.0034 53.2045ZM65.2952 65.7327V58.5983L71.6211 54.9832V62.1485L65.2952 65.7327ZM41.3668 53.3447L47.5 49.7461L53.9124 53.3393L47.6213 56.9338L41.3668 53.3447ZM46.5901 58.7374L40.3416 55.1518V62.1676L46.5901 65.8399V58.7374ZM38.1228 44.1321L31.8885 40.5509V47.5564L38.1263 51.2268L38.1228 44.1321Z" fill="#264C2D"/>
</svg>
