<svg width="16" height="9" viewBox="0 0 16 9" fill="none" xmlns="http://www.w3.org/2000/svg">
<path opacity="0.3" fill-rule="evenodd" clip-rule="evenodd" d="M4.2342 0.790815C4.29866 0.818083 4.35721 0.858048 4.4065 0.908419C4.45591 0.958664 4.49511 1.01835 4.52186 1.08407C4.5486 1.14978 4.56237 1.22023 4.56237 1.29137C4.56237 1.36252 4.5486 1.43297 4.52186 1.49868C4.49511 1.56439 4.45591 1.62408 4.4065 1.67433L2.12855 3.99573H15.1582C15.2989 3.99573 15.4338 4.05272 15.5333 4.15416C15.6328 4.25559 15.6887 4.39317 15.6887 4.53662C15.6887 4.68007 15.6328 4.81765 15.5333 4.91909C15.4338 5.02052 15.2989 5.07751 15.1582 5.07751H2.12833L4.4065 7.39914C4.50612 7.50071 4.56209 7.63846 4.56209 7.7821C4.56209 7.92573 4.50612 8.06349 4.4065 8.16505C4.30687 8.26662 4.17175 8.32367 4.03086 8.32367C3.88996 8.32367 3.75484 8.26662 3.65522 8.16505L0.471821 4.91969C0.422412 4.86944 0.383211 4.80975 0.356463 4.74404C0.329716 4.67833 0.315948 4.60788 0.315948 4.53674C0.315948 4.46559 0.329716 4.39514 0.356463 4.32943C0.383211 4.26371 0.422412 4.20403 0.471821 4.15378L3.65522 0.908419C3.7045 0.858048 3.76305 0.818083 3.82751 0.790815C3.89197 0.763547 3.96107 0.749512 4.03086 0.749512C4.10064 0.749512 4.16975 0.763547 4.2342 0.790815Z" fill="red"/>
</svg>
