<svg width="26" height="13" viewBox="0 0 26 13" fill="none" xmlns="http://www.w3.org/2000/svg">
<path fill-rule="evenodd" clip-rule="evenodd" d="M19.0599 0.42952C18.9548 0.473975 18.8593 0.539128 18.779 0.621249C18.6984 0.703162 18.6345 0.800471 18.5909 0.907604C18.5473 1.01474 18.5249 1.12959 18.5249 1.24558C18.5249 1.36156 18.5473 1.47641 18.5909 1.58355C18.6345 1.69068 18.6984 1.78799 18.779 1.8699L22.493 5.65474H1.25066C1.02126 5.65474 0.801244 5.74765 0.639029 5.91302C0.476813 6.0784 0.385681 6.3027 0.385681 6.53658C0.385681 6.77045 0.476813 6.99475 0.639029 7.16013C0.801244 7.3255 1.02126 7.41841 1.25066 7.41841H22.4928L18.779 11.203C18.6166 11.3686 18.5253 11.5932 18.5253 11.8274C18.5253 12.0615 18.6166 12.2861 18.779 12.4517C18.9414 12.6173 19.1617 12.7103 19.3914 12.7103C19.6211 12.7103 19.8414 12.6173 20.0038 12.4517L25.1937 7.1608C25.2742 7.07889 25.3382 6.98158 25.3818 6.87445C25.4254 6.76731 25.4478 6.65246 25.4478 6.53647C25.4478 6.42049 25.4254 6.30563 25.3818 6.1985C25.3382 6.09137 25.2742 5.99406 25.1937 5.91215L20.0038 0.621249C19.9234 0.539128 19.828 0.473975 19.7229 0.42952C19.6178 0.385065 19.5052 0.362183 19.3914 0.362183C19.2776 0.362183 19.165 0.385065 19.0599 0.42952Z" fill="#264D2D"/>
</svg>
