<svg width="72" height="72" viewBox="0 0 72 72" fill="none" xmlns="http://www.w3.org/2000/svg">
<g clip-path="url(#clip0)">
<path d="M51.9411 24.8709L51.9148 24.8597C51.8988 24.8549 51.884 24.8466 51.8717 24.8353C51.8502 24.8123 51.8343 24.7847 51.8252 24.7545C51.8162 24.7244 51.8141 24.6925 51.8193 24.6615L53.2659 15.828L60.0489 22.6055L52.9946 25.6035C52.975 25.6114 52.9541 25.6152 52.933 25.6147H52.9047C52.8909 25.6057 52.8783 25.595 52.8672 25.5828C52.6046 25.2909 52.2907 25.0496 51.9411 24.8709ZM61.7799 24.3325L69.0325 31.5773C70.5387 33.0837 71.2932 33.8351 71.5681 34.7064C71.6092 34.8351 71.6428 34.9642 71.6691 35.0969L54.3361 27.7643C54.3268 27.7604 54.3175 27.7567 54.3081 27.7531C54.2387 27.7251 54.1584 27.6931 54.1584 27.6223C54.1584 27.5512 54.2407 27.5176 54.3098 27.4896L54.3322 27.4801L61.7799 24.3325ZM71.3735 37.4222C70.9992 38.1249 70.2694 38.8539 69.0345 40.0894L60.8572 48.2558L50.2812 46.0558L50.2252 46.0446C50.1314 46.0295 50.0323 46.0127 50.0323 45.9287C49.9921 45.4928 49.8625 45.0699 49.6516 44.6862C49.4408 44.3026 49.1531 43.9665 48.8067 43.6989C48.7636 43.6558 48.7751 43.5886 48.7879 43.5267C48.7879 43.5175 48.7879 43.5082 48.7919 43.5007L50.7809 31.3026L50.7882 31.2615C50.7994 31.168 50.8162 31.0596 50.9005 31.0596C51.3267 31.0068 51.7381 30.8696 52.1108 30.6562C52.4834 30.4428 52.81 30.1574 53.0713 29.8166C53.0881 29.7979 53.0993 29.7774 53.1217 29.7662C53.1816 29.7382 53.2527 29.7662 53.3146 29.7923L71.3718 37.4222H71.3735ZM58.977 50.1343L45.5303 63.5661L47.8316 49.4352L47.8355 49.4165C47.8373 49.3981 47.841 49.38 47.8467 49.3624C47.8655 49.3176 47.9139 49.2989 47.9609 49.2801L47.9833 49.2706C48.4873 49.0559 48.9329 48.7247 49.284 48.3045C49.3288 48.2521 49.3831 48.2014 49.4523 48.1922C49.4702 48.1894 49.4887 48.1894 49.5066 48.1922L58.9747 50.1362L58.9767 50.1343H58.977ZM42.684 66.409L41.1683 67.923L24.4117 43.7325C24.4057 43.7236 24.3994 43.7148 24.393 43.7062C24.3669 43.6706 24.3387 43.6353 24.3446 43.5942C24.3462 43.5642 24.365 43.5382 24.3857 43.5158L24.4042 43.4914C24.4546 43.4164 24.498 43.3417 24.5447 43.2613L24.582 43.1961L24.5876 43.1905C24.6139 43.1457 24.6379 43.1026 24.683 43.0782C24.7222 43.0595 24.7768 43.067 24.8196 43.0763L43.3839 46.9005C43.436 46.9089 43.4847 46.9299 43.5261 46.9621C43.5505 46.9867 43.5561 47.0127 43.5617 47.0427C43.6913 47.5323 43.9324 47.9853 44.2661 48.3662C44.5998 48.7472 45.017 49.0459 45.4853 49.239C45.5376 49.265 45.5152 49.3229 45.4909 49.3845C45.4787 49.4116 45.4694 49.4399 45.4629 49.4688C45.2291 50.8893 43.2232 63.11 42.684 66.409ZM39.518 69.5698C38.4009 70.6745 37.7422 71.2593 36.9975 71.495C36.2632 71.7269 35.4753 71.7269 34.7411 71.495C33.869 71.2181 33.1148 70.467 31.6083 68.9603L14.7806 52.1511L19.176 45.3417C19.1946 45.3075 19.2202 45.2775 19.251 45.2538C19.2978 45.2202 19.3652 45.2353 19.4212 45.2538C20.4301 45.5578 21.5132 45.503 22.4862 45.0987C22.5366 45.0802 22.5873 45.067 22.6267 45.1026C22.6463 45.1205 22.664 45.1404 22.6791 45.1622L39.518 69.5717V69.5698ZM13.1583 50.5304L9.29795 46.6745L16.9212 43.4259C16.9407 43.4174 16.9618 43.4129 16.9831 43.4128C17.0466 43.4128 17.0841 43.4763 17.1177 43.5343C17.1944 43.6518 17.2756 43.7666 17.3613 43.8783L17.3854 43.908C17.4078 43.9399 17.3929 43.9716 17.3705 44.0015L13.16 50.5304H13.1583ZM7.58965 44.9679L2.70579 40.0894C1.87488 39.2596 1.27241 38.6577 0.853311 38.14L15.7031 41.2168L15.7591 41.226C15.8509 41.2409 15.9523 41.2577 15.9523 41.3436C15.9523 41.4371 15.8417 41.4802 15.7479 41.5155L15.7051 41.5342L7.58965 44.9679ZM0 35.6313C0.0169877 35.3172 0.0736145 35.0064 0.168534 34.7064C0.445413 33.8351 1.19766 33.0837 2.70579 31.5773L8.95556 25.3342C11.8332 29.506 14.7186 33.6725 17.6119 37.8335C17.6622 37.9007 17.7182 37.9754 17.6606 38.0314C17.3873 38.3324 17.1141 38.6613 16.9215 39.0185C16.9005 39.0642 16.8683 39.1042 16.8277 39.1342C16.8033 39.1493 16.7773 39.1437 16.7493 39.1381H16.7454L0 35.6297V35.6316V35.6313ZM10.6286 23.6632L19.0321 15.2689C19.8216 15.6147 22.6959 16.8277 25.2667 17.9117C27.213 18.7345 28.9868 19.4823 29.5445 19.725C29.6005 19.7474 29.6511 19.7698 29.6755 19.8258C29.6903 19.8594 29.6831 19.9025 29.6755 19.938C29.5425 20.5441 29.5623 21.1737 29.7332 21.7701C29.904 22.3666 30.2205 22.9112 30.6542 23.3549C30.7102 23.4109 30.6542 23.4913 30.6055 23.5604L30.5792 23.5996L22.0467 36.8016C22.0243 36.8391 22.0035 36.8707 21.966 36.8951C21.9212 36.9231 21.8577 36.9099 21.8051 36.897C21.4732 36.8102 21.1321 36.7638 20.7891 36.7587C20.4823 36.7587 20.1491 36.8147 19.8123 36.8763H19.8104C19.7731 36.8819 19.7393 36.8895 19.7096 36.8671C19.6765 36.8401 19.648 36.808 19.6253 36.7719L10.6286 23.6632ZM20.7295 13.5735L31.6086 2.70637C33.1148 1.2016 33.869 0.448517 34.7408 0.173599C35.4751 -0.0583545 36.2632 -0.0583545 36.9975 0.173599C37.8696 0.448517 38.6235 1.2016 40.13 2.70637L42.4878 5.06166L34.7503 17.0315C34.7311 17.0663 34.705 17.0968 34.6736 17.1211C34.6268 17.153 34.5613 17.1399 34.5051 17.1211C33.895 16.9362 33.2492 16.9025 32.6232 17.0231C31.9973 17.1436 31.4101 17.4147 30.9124 17.8129C30.862 17.8652 30.7869 17.8353 30.7234 17.8073C29.7127 17.368 21.8538 14.0503 20.7292 13.5738L20.7295 13.5735ZM44.1306 6.70277L51.2751 13.8389L49.5533 24.4896V24.5176C49.5518 24.5419 49.5468 24.5658 49.5385 24.5887C49.5197 24.6259 49.4822 24.6335 49.4447 24.6447C49.0768 24.7561 48.7302 24.9286 48.4195 25.1551C48.4061 25.1645 48.3936 25.1751 48.382 25.1867C48.3613 25.2091 48.3408 25.2298 48.3072 25.2334C48.2798 25.2343 48.2524 25.2298 48.2266 25.2203L37.3399 20.5999L37.3195 20.5903C37.25 20.5623 37.1677 20.5288 37.1677 20.4576C37.1037 19.8516 36.9056 19.2673 36.5877 18.7474C36.5353 18.6614 36.4774 18.5718 36.5221 18.4839L44.1306 6.70277ZM36.773 22.7883L46.9786 27.1061C47.0346 27.1321 47.0964 27.1565 47.1208 27.2144C47.1305 27.2492 47.1305 27.286 47.1208 27.3208C47.0908 27.4706 47.0648 27.6405 47.0648 27.8127V28.0985C47.0648 28.1696 46.9917 28.1993 46.9243 28.2273L46.9038 28.2349C45.2871 28.9247 24.206 37.904 24.1741 37.904C24.1424 37.904 24.1085 37.904 24.0769 37.8724C24.0209 37.8164 24.0769 37.738 24.1273 37.6666L24.1536 37.6294L32.5403 24.6576L32.5551 24.6352C32.6039 24.5565 32.6601 24.4686 32.75 24.4686L32.834 24.4818C33.0249 24.5078 33.1935 24.5321 33.3637 24.5321C34.6361 24.5321 35.815 23.9134 36.5261 22.8555C36.5429 22.8275 36.5644 22.8023 36.5896 22.7807C36.64 22.7435 36.715 22.7623 36.773 22.7883ZM25.0853 39.9564L48.064 30.1677C48.064 30.1677 48.0976 30.1677 48.1295 30.1996C48.2546 30.3247 48.3613 30.4087 48.4643 30.4874L48.5147 30.519C48.5617 30.5454 48.6085 30.575 48.6121 30.6237C48.6121 30.6425 48.6121 30.6537 48.6085 30.6705L46.6398 42.749L46.6323 42.7977C46.6194 42.8909 46.6062 42.9976 46.5183 42.9976C45.9937 43.0329 45.4855 43.1955 45.0379 43.4713C44.5902 43.7472 44.2165 44.128 43.9491 44.5807L43.9396 44.5956C43.9136 44.6387 43.8892 44.6796 43.8461 44.702C43.8069 44.721 43.7565 44.7134 43.7151 44.7042L25.3905 40.9284C25.3717 40.9248 25.106 39.9584 25.0853 39.9564Z" fill="url(#paint0_radial)"/>
</g>
<defs>
<radialGradient id="paint0_radial" cx="0" cy="0" r="1" gradientUnits="userSpaceOnUse" gradientTransform="translate(35.8346 -35.835) scale(71.6691 71.6693)">
<stop stop-color="#20C6B7"/>
<stop offset="1" stop-color="#4D9ABF"/>
</radialGradient>
<clipPath id="clip0">
<rect width="71.6691" height="71.6691" fill="white"/>
</clipPath>
</defs>
</svg>
