<svg width="57" height="57" viewBox="0 0 57 57" fill="none" xmlns="http://www.w3.org/2000/svg">
<g clip-path="url(#clip0)">
<path d="M12.5004 36.1897C12.5004 39.4586 9.85825 42.1012 6.58884 42.1012C5.81234 42.1019 5.04331 41.9495 4.32578 41.6527C3.60825 41.3559 2.9563 40.9205 2.40725 40.3714C1.8582 39.8223 1.42283 39.1703 1.12605 38.4528C0.829283 37.7352 0.676937 36.9662 0.677738 36.1897C0.677738 32.9207 3.31987 30.2786 6.58884 30.2786H12.5004V36.1897ZM15.4559 36.1897C15.4559 32.9207 18.0981 30.2786 21.367 30.2786C24.636 30.2786 27.2786 32.9207 27.2786 36.1897V50.9679C27.2786 54.2368 24.6364 56.8794 21.367 56.8794C20.5906 56.8801 19.8216 56.7276 19.1041 56.4308C18.3866 56.1339 17.7347 55.6985 17.1857 55.1494C16.6367 54.6003 16.2014 53.9484 15.9046 53.2309C15.6079 52.5133 15.4556 51.7443 15.4564 50.9679V36.1897H15.4559Z" fill="#E01E5A"/>
<path d="M21.3669 12.4557C20.5904 12.4564 19.8214 12.3039 19.104 12.0071C18.3865 11.7102 17.7346 11.2748 17.1856 10.7257C16.6366 10.1766 16.2012 9.52468 15.9045 8.80715C15.6077 8.08963 15.4554 7.32063 15.4562 6.54416C15.4558 3.27519 18.0979 0.633057 21.3669 0.633057C24.6359 0.633057 27.2784 3.27519 27.2784 6.54416V12.4557H21.3669ZM21.3669 15.456C24.6359 15.456 27.2784 18.0982 27.2784 21.3671C27.2784 24.6361 24.6363 27.2787 21.3669 27.2787H6.54392C5.76742 27.2794 4.99839 27.127 4.28086 26.8302C3.56333 26.5334 2.91138 26.0979 2.36233 25.5488C1.81328 24.9998 1.3779 24.3478 1.08113 23.6302C0.784361 22.9127 0.632015 22.1436 0.632816 21.3671C0.632816 18.0982 3.27495 15.4565 6.54392 15.4565H21.3673L21.3669 15.456Z" fill="#36C5F0"/>
<path d="M45.0565 21.3669C45.0565 18.0979 47.6986 15.4558 50.9676 15.4558C54.2366 15.4558 56.8792 18.0979 56.8792 21.3669C56.8792 24.6359 54.237 27.2784 50.9676 27.2784H45.0565V21.3669ZM42.1005 21.3669C42.1005 24.6359 39.4588 27.2784 36.1894 27.2784C35.4129 27.2792 34.6439 27.1268 33.9264 26.8299C33.2088 26.5331 32.5569 26.0977 32.0078 25.5486C31.4588 24.9995 31.0234 24.3475 30.7266 23.63C30.4299 22.9124 30.2775 22.1434 30.2783 21.3669V6.54392C30.2783 3.27494 32.9205 0.632812 36.1894 0.632812C39.4584 0.632812 42.101 3.27494 42.101 6.54392V21.3673L42.1005 21.3669Z" fill="#2EB67D"/>
<path d="M36.1894 45.0568C39.4584 45.0568 42.101 47.6989 42.101 50.9679C42.101 54.2368 39.4588 56.8794 36.1894 56.8794C35.4129 56.8801 34.6439 56.7277 33.9264 56.4309C33.2088 56.1341 32.5569 55.6987 32.0078 55.1496C31.4588 54.6005 31.0234 53.9485 30.7266 53.231C30.4299 52.5134 30.2775 51.7444 30.2783 50.9679V45.0568H36.1894ZM36.1894 42.1008C35.413 42.1015 34.644 41.9491 33.9265 41.6523C33.209 41.3555 32.557 40.9202 32.008 40.3711C31.4589 39.8221 31.0236 39.1701 30.7268 38.4526C30.43 37.7351 30.2776 36.9661 30.2783 36.1897C30.2783 32.9207 32.9205 30.2786 36.1894 30.2786H51.0128C54.2818 30.2786 56.9239 32.9207 56.9239 36.1897C56.9239 39.4586 54.2818 42.1012 51.0124 42.1012H36.1894V42.1008Z" fill="#ECB22E"/>
</g>
<defs>
<clipPath id="clip0">
<rect width="55.899" height="55.899" fill="white" transform="translate(0.632812 0.633057)"/>
</clipPath>
</defs>
</svg>
