<svg width="48" height="72" viewBox="0 0 48 72" fill="none" xmlns="http://www.w3.org/2000/svg">
<g clip-path="url(#clip0)">
<path d="M12 72C18.624 72 24 66.624 24 60V48H12C5.376 48 0 53.376 0 60C0 66.624 5.376 72 12 72Z" fill="#0ACF83"/>
<path d="M0 35.9998C0 29.3758 5.376 23.9998 12 23.9998H24V47.9998H12C5.376 47.9998 0 42.6238 0 35.9998Z" fill="#A259FF"/>
<path d="M0 12C0 5.376 5.376 0 12 0H24V24H12C5.376 24 0 18.624 0 12Z" fill="#F24E1E"/>
<path d="M24 -0.000244141H36C42.624 -0.000244141 48 5.37576 48 11.9998C48 18.6238 42.624 23.9998 36 23.9998H24V-0.000244141Z" fill="#FF7262"/>
<path d="M48 35.9998C48 42.6238 42.624 47.9998 36 47.9998C29.376 47.9998 24 42.6238 24 35.9998C24 29.3758 29.376 23.9998 36 23.9998C42.624 23.9998 48 29.3758 48 35.9998Z" fill="#1ABCFE"/>
</g>
<defs>
<clipPath id="clip0">
<rect width="48" height="72" fill="white"/>
</clipPath>
</defs>
</svg>
