<svg width="52" height="60" viewBox="0 0 52 60" fill="none" xmlns="http://www.w3.org/2000/svg">
<g clip-path="url(#clip0)">
<path d="M16.5306 0.250569C16.2395 0.252443 15.9535 0.326775 15.6984 0.466852C14.8607 0.931196 14.5534 2.00745 15.0176 2.84458L16.9089 6.25983C12.352 9.07907 9.33262 13.8949 9.33262 19.3914V20.4126C8.45736 19.4057 7.17098 18.7699 5.73366 18.7699C3.10012 18.7699 0.961914 20.9081 0.961914 23.5415V38.2402C0.961914 40.8733 3.10032 43.0117 5.73366 43.0117C7.17098 43.0117 8.45736 42.3758 9.33242 41.3689V43.4278C9.33242 46.2038 11.6039 48.475 14.3798 48.475H15.6605V55.0138C15.6605 57.6473 17.7989 59.7855 20.4322 59.7855C23.0655 59.7855 25.2037 57.6471 25.2037 55.0138V48.475H27.4194V55.0138C27.4194 57.6473 29.5578 59.7855 32.1911 59.7855C34.8245 59.7855 36.9627 57.6471 36.9627 55.0138V48.475H38.2435C41.0192 48.475 43.2907 46.2038 43.2907 43.4278V41.3689C44.1658 42.3758 45.4524 43.0117 46.8897 43.0117C49.523 43.0117 51.6612 40.8733 51.6612 38.2402V23.5415C51.6612 20.9081 49.523 18.7699 46.8897 18.7699C45.4524 18.7699 44.1658 19.4057 43.2907 20.4126V19.5641V19.5155C43.2911 19.4639 43.2907 19.4225 43.2907 19.3914C43.2907 13.8959 40.2643 9.08482 35.7091 6.26539L37.6058 2.84458C38.0697 2.00745 37.7627 0.931196 36.925 0.466852C36.6698 0.326775 36.3838 0.252443 36.0928 0.250569C35.4741 0.24461 34.867 0.570724 34.5472 1.14768L32.5639 4.73056C30.6247 4.01497 28.5147 3.62272 26.3118 3.62272C24.1108 3.62272 21.9968 4.0108 20.0592 4.725L18.0761 1.14768C17.7562 0.570724 17.1492 0.245008 16.5306 0.250569Z" fill="white"/>
<path d="M5.73374 20.0127C3.76871 20.0127 2.20508 21.5763 2.20508 23.5414V38.2401C2.20508 40.2051 3.76871 41.7687 5.73374 41.7687C7.69876 41.7687 9.26259 40.2051 9.26259 38.2401V23.5414C9.26259 21.5763 7.69876 20.0127 5.73374 20.0127ZM46.89 20.0127C44.9247 20.0127 43.3611 21.5763 43.3611 23.5414V38.2401C43.3611 40.2051 44.9247 41.7687 46.89 41.7687C48.855 41.7687 50.4186 40.2051 50.4186 38.2401V23.5414C50.4186 21.5763 48.855 20.0127 46.89 20.0127Z" fill="#A4C639"/>
<path d="M20.4322 36.7864C18.4672 36.7864 16.9033 38.35 16.9033 40.3152V55.0138C16.9033 56.9788 18.4672 58.5424 20.4322 58.5424C22.3972 58.5424 23.9608 56.9788 23.9608 55.0138V40.3152C23.9608 38.35 22.3972 36.7864 20.4322 36.7864ZM32.1911 36.7864C30.2259 36.7864 28.6623 38.35 28.6623 40.3152V55.0138C28.6623 56.9788 30.2259 58.5424 32.1911 58.5424C34.1561 58.5424 35.7198 56.9788 35.7198 55.0138V40.3152C35.7198 38.35 34.1561 36.7864 32.1911 36.7864Z" fill="#A4C639"/>
<path d="M16.541 1.49384C16.4575 1.49485 16.3757 1.51713 16.3032 1.55859C16.0516 1.69801 15.969 1.98718 16.1086 2.23942L18.5946 6.73013C13.8121 9.21868 10.5816 13.9477 10.5752 19.3753H42.0475C42.041 13.9477 38.8106 9.21848 34.0282 6.73013L36.5139 2.23961C36.6537 1.98738 36.5709 1.69801 36.3193 1.55859C36.2469 1.51711 36.165 1.49482 36.0816 1.49384C35.9028 1.49186 35.7338 1.58123 35.6385 1.75323L33.1201 6.2924C31.0602 5.3788 28.7496 4.8658 26.3113 4.8658C23.873 4.8658 21.5626 5.37861 19.5024 6.2924L16.9841 1.75323C16.9411 1.67355 16.8771 1.60721 16.799 1.56146C16.7209 1.51572 16.6317 1.49233 16.5412 1.49384H16.541ZM10.5752 20.6181V43.4282C10.5741 43.9281 10.6718 44.4233 10.8626 44.8853C11.0534 45.3473 11.3336 45.7671 11.6871 46.1206C12.0406 46.4741 12.4604 46.7542 12.9224 46.945C13.3845 47.1358 13.8796 47.2334 14.3795 47.2323H38.2432C38.7431 47.2334 39.2383 47.1358 39.7004 46.945C40.1624 46.7542 40.5822 46.474 40.9357 46.1205C41.2892 45.767 41.5694 45.3472 41.7602 44.8852C41.951 44.4231 42.0486 43.9279 42.0475 43.428V20.6183H10.5752V20.6181Z" fill="#A4C639"/>
<path d="M19.0485 10.9883C18.3302 10.9883 17.7354 11.5829 17.7354 12.3013C17.7354 13.0198 18.3302 13.6145 19.0485 13.6145C19.7671 13.6145 20.3617 13.0198 20.3617 12.3013C20.3617 11.5829 19.7671 10.9883 19.0485 10.9883ZM33.5743 10.9883C32.8557 10.9883 32.2611 11.5829 32.2611 12.3013C32.2611 13.0198 32.8557 13.6145 33.5743 13.6145C34.2927 13.6145 34.8875 13.0198 34.8875 12.3013C34.8875 11.5829 34.2927 10.9883 33.5743 10.9883Z" fill="white"/>
</g>
<defs>
<clipPath id="clip0">
<rect width="50.8435" height="59.7808" fill="white" transform="translate(0.961914 0.0802002)"/>
</clipPath>
</defs>
</svg>
