<svg width="58" height="58" viewBox="0 0 58 58" fill="none" xmlns="http://www.w3.org/2000/svg">
<g clip-path="url(#clip0)">
<path d="M51.7734 0.633057H6.16751C3.11078 0.633057 0.632812 3.11103 0.632812 6.16776V51.7737C0.632812 54.8304 3.11078 57.3084 6.16751 57.3084H51.7734C54.8302 57.3084 57.3081 54.8304 57.3081 51.7737V6.16776C57.3081 3.11103 54.8302 0.633057 51.7734 0.633057Z" fill="url(#paint0_linear)"/>
<path d="M47.2836 8.00073H35.311C33.8437 8.00073 32.6543 9.19016 32.6543 10.6574V30.1395C32.6543 31.6068 33.8437 32.7962 35.311 32.7962H47.2836C48.7508 32.7962 49.9403 31.6068 49.9403 30.1395V10.6574C49.9403 9.19016 48.7508 8.00073 47.2836 8.00073Z" fill="white"/>
<path d="M22.6303 8.00073H10.6576C9.1904 8.00073 8.00098 9.19016 8.00098 10.6574V44.3084C8.00098 45.7756 9.1904 46.965 10.6576 46.965H22.6303C24.0975 46.965 25.287 45.7756 25.287 44.3084V10.6574C25.287 9.19016 24.0975 8.00073 22.6303 8.00073Z" fill="white"/>
</g>
<defs>
<linearGradient id="paint0_linear" x1="28.9705" y1="0.633057" x2="28.9705" y2="57.3084" gradientUnits="userSpaceOnUse">
<stop stop-color="#0091E6"/>
<stop offset="1" stop-color="#0079BF"/>
</linearGradient>
<clipPath id="clip0">
<rect width="56.6753" height="56.6753" fill="white" transform="translate(0.632812 0.633057)"/>
</clipPath>
</defs>
</svg>
