<svg width="45" height="23" viewBox="0 0 45 23" fill="none" xmlns="http://www.w3.org/2000/svg">
<g clip-path="url(#clip0)">
<path d="M1.15745 21.7967H4.72288V6.61879H1.15745V21.7967ZM2.93309 4.62842C4.04987 4.62842 4.92329 3.76931 4.92329 2.69547C4.92329 1.60698 4.04987 0.748047 2.93309 0.748047C1.83045 0.748047 0.957031 1.60715 0.957031 2.69547C0.957031 3.76931 1.83045 4.62842 2.93309 4.62842ZM16.5935 0.790825C10.5655 0.790825 6.78516 4.90041 6.78516 11.473C6.78516 18.0453 10.5652 22.1406 16.5937 22.1406C22.6074 22.1406 26.3878 18.0453 26.3878 11.473C26.3878 4.90041 22.6078 0.790825 16.5937 0.790825H16.5935ZM16.5935 3.9411C20.2735 3.9411 22.6218 6.86215 22.6218 11.4728C22.6218 16.0691 20.2735 18.9903 16.5937 18.9903C12.8994 18.9903 10.5655 16.0693 10.5655 11.4728C10.5655 6.86215 12.8996 3.9411 16.5937 3.9411H16.5935ZM27.8919 15.9832C28.0494 19.7922 31.1709 22.1403 35.9246 22.1403C40.922 22.1403 44.0722 19.6775 44.0722 15.754C44.0722 12.6755 42.2968 10.9429 38.1013 9.98363L35.7244 9.43964C33.1899 8.83821 32.1447 8.03637 32.1447 6.66174C32.1447 4.94336 33.7197 3.79794 36.0537 3.79794C38.4162 3.79794 40.0342 4.95784 40.2062 6.89079H43.7285C43.6426 3.25378 40.6357 0.790825 36.0823 0.790825C31.5862 0.790825 28.3931 3.26793 28.3931 6.93373C28.3931 9.88342 30.1972 11.7162 34.0059 12.5897L36.6835 13.2196C39.2895 13.8355 40.3492 14.6946 40.3492 16.1838C40.3492 17.902 38.6165 19.1335 36.1252 19.1335C33.6052 19.1335 31.7009 17.8877 31.4718 15.9832H27.8919Z" fill="black"/>
</g>
<defs>
<clipPath id="clip0">
<rect width="43.2836" height="21.5576" fill="white" transform="translate(0.84375 0.748047)"/>
</clipPath>
</defs>
</svg>
