<svg width="97" height="59" viewBox="0 0 97 59" fill="none" xmlns="http://www.w3.org/2000/svg">
<g clip-path="url(#clip0)">
<path d="M47.8786 58.6389C47.5541 58.6389 47.251 58.5524 46.9695 58.4009L44.0907 56.6909C43.6577 56.4527 43.8742 56.3662 44.0042 56.3229C44.5885 56.1281 44.6968 56.0847 45.3029 55.7386C45.3679 55.6951 45.4546 55.7169 45.5194 55.7601L47.7273 57.0805C47.8138 57.1238 47.9221 57.1238 47.9869 57.0805L56.6237 52.0803C56.7102 52.037 56.7537 51.9503 56.7537 51.8422V41.8635C56.7537 41.7551 56.7102 41.6687 56.6237 41.6253L47.9869 36.6468C47.9004 36.6033 47.7921 36.6033 47.7273 36.6468L39.0905 41.6253C39.004 41.6685 38.9605 41.7768 38.9605 41.8633V51.842C38.9605 51.9288 39.004 52.0368 39.0905 52.0803L41.45 53.4439C42.7271 54.0932 43.5279 53.3357 43.5279 52.5781V42.7292C43.5279 42.5994 43.6362 42.4694 43.7877 42.4694H44.8916C45.0216 42.4694 45.1514 42.5776 45.1514 42.7292V52.5781C45.1514 54.288 44.2205 55.2838 42.5971 55.2838C42.0993 55.2838 41.7097 55.2838 40.6057 54.7426L38.3329 53.4439C37.7701 53.1194 37.4238 52.5131 37.4238 51.8638V41.885C37.4238 41.2357 37.7701 40.6295 38.3329 40.3049L46.9695 35.3047C47.5108 35.0016 48.2469 35.0016 48.7879 35.3047L57.4245 40.3049C57.9874 40.6295 58.3338 41.2357 58.3338 41.885V51.8638C58.3338 52.5131 57.9874 53.1194 57.4245 53.4439L48.7879 58.4441C48.5064 58.5741 48.1819 58.6389 47.8788 58.6389H47.8786ZM50.5411 51.7772C46.7532 51.7772 45.9739 50.0456 45.9739 48.5737C45.9739 48.4437 46.0822 48.3139 46.2337 48.3139H47.3593C47.4891 48.3139 47.5973 48.4004 47.5973 48.5304C47.7706 49.6776 48.2684 50.2404 50.5629 50.2404C52.3811 50.2404 53.1606 49.8291 53.1606 48.855C53.1606 48.2922 52.9439 47.8811 50.1083 47.5996C47.7489 47.3614 46.277 46.842 46.277 44.9588C46.277 43.2054 47.749 42.1664 50.2166 42.1664C52.9871 42.1664 54.351 43.1189 54.5242 45.1967C54.5242 45.2619 54.5025 45.3267 54.4592 45.3916C54.4158 45.4349 54.351 45.4782 54.286 45.4782H53.1604C53.0521 45.4782 52.9439 45.3916 52.9223 45.2834C52.6626 44.093 51.9915 43.7032 50.2166 43.7032C48.2251 43.7032 47.9869 44.396 47.9869 44.9154C47.9869 45.5432 48.2684 45.7379 50.9524 46.0842C53.6149 46.4307 54.8705 46.9285 54.8705 48.79C54.8488 50.6949 53.2903 51.7772 50.5411 51.7772Z" fill="#539E43"/>
<path d="M21.0813 19.6114C21.0813 19.2218 20.8648 18.8536 20.5185 18.6588L11.3406 13.3773C11.1889 13.2906 11.0158 13.2473 10.8428 13.2256H10.7561C10.583 13.2256 10.4098 13.2906 10.2583 13.3773L1.08038 18.6588C0.733896 18.8536 0.517578 19.2216 0.517578 19.6114L0.539304 33.811C0.539304 34.0058 0.647556 34.2006 0.820611 34.2873C0.993853 34.3955 1.21017 34.3955 1.36187 34.2873L6.81665 31.1702C7.16295 30.9755 7.37945 30.6074 7.37945 30.2179V23.5725C7.37945 23.183 7.59577 22.8149 7.94225 22.6202L10.2583 21.2781C10.4315 21.1698 10.6263 21.1263 10.8211 21.1263C11.0158 21.1263 11.2106 21.1698 11.3623 21.2781L13.6783 22.6202C14.0248 22.8149 14.2411 23.1828 14.2411 23.5725V30.2179C14.2411 30.6074 14.4576 30.9755 14.8039 31.1702L20.2587 34.2873C20.432 34.3955 20.6483 34.3955 20.8215 34.2873C20.9948 34.2006 21.103 34.0058 21.103 33.811L21.0813 19.6114Z" fill="#333333"/>
<path d="M65.1955 0.0650359C65.0225 -0.0216786 64.806 -0.0216786 64.6543 0.0650359C64.4812 0.173289 64.373 0.346343 64.373 0.541123V14.6112C64.373 14.741 64.3082 14.8707 64.1782 14.9575C64.0484 15.0223 63.9184 15.0223 63.7886 14.9575L61.4942 13.6371C61.326 13.5413 61.1357 13.4909 60.9421 13.4909C60.7486 13.4909 60.5583 13.5413 60.3901 13.6371L51.2122 18.9403C50.8659 19.1351 50.6494 19.5031 50.6494 19.8927V30.4775C50.6494 30.867 50.8659 31.2353 51.2122 31.43L60.3901 36.7333C60.5583 36.8291 60.7486 36.8794 60.9421 36.8794C61.1357 36.8794 61.326 36.8291 61.4942 36.7333L70.6721 31.43C71.0183 31.2353 71.2348 30.8672 71.2348 30.4775V4.09117C71.2348 3.67989 71.0183 3.31205 70.6721 3.11709L65.1957 0.0650359H65.1955ZM64.3514 26.9926C64.3514 27.1009 64.3082 27.1874 64.2215 27.2307L61.0829 29.0489C61.039 29.0702 60.9909 29.0814 60.9421 29.0814C60.8934 29.0814 60.8452 29.0702 60.8014 29.0489L57.6628 27.2307C57.5761 27.1874 57.5328 27.0791 57.5328 26.9926V23.356C57.5328 23.2478 57.5761 23.1613 57.6628 23.118L60.8014 21.2996C60.8452 21.2782 60.8934 21.2671 60.9421 21.2671C60.9909 21.2671 61.039 21.2782 61.0829 21.2996L64.2215 23.118C64.3082 23.1611 64.3514 23.2695 64.3514 23.356V26.9926Z" fill="#333333"/>
<path d="M95.7377 23.2694C96.0842 23.0746 96.279 22.7066 96.279 22.3168V19.7411C96.279 19.3515 96.0625 18.9835 95.7377 18.7887L86.6248 13.5072C86.4566 13.4114 86.2664 13.3611 86.0729 13.3611C85.8794 13.3611 85.6891 13.4114 85.521 13.5072L76.3431 18.8102C75.9966 19.005 75.7803 19.373 75.7803 19.7628V30.3476C75.7803 30.7371 75.9966 31.1052 76.3431 31.2999L85.456 36.495C85.8024 36.6897 86.2135 36.6897 86.5383 36.495L92.0579 33.4216C92.2311 33.3348 92.3394 33.1401 92.3394 32.9453C92.3394 32.7505 92.2311 32.5557 92.0579 32.469L82.8367 27.1657C82.6637 27.0577 82.5554 26.8844 82.5554 26.6897V23.3778C82.5554 23.1831 82.6637 22.9883 82.8367 22.9016L85.7157 21.2564C85.8 21.2034 85.8976 21.1752 85.9971 21.1752C86.0967 21.1752 86.1943 21.2034 86.2785 21.2564L89.1573 22.9016C89.3306 23.0098 89.4388 23.1829 89.4388 23.3778V25.9753C89.4388 26.1701 89.5471 26.3649 89.7201 26.4514C89.8934 26.5597 90.1097 26.5597 90.283 26.4514L95.7377 23.2694Z" fill="#333333"/>
<path d="M85.9329 22.7717C85.965 22.7505 86.0027 22.7393 86.0411 22.7393C86.0795 22.7393 86.1171 22.7505 86.1493 22.7717L87.9026 23.789C87.9676 23.8321 88.0109 23.8971 88.0109 23.9838V26.0185C88.0109 26.105 87.9676 26.17 87.9026 26.2133L86.1493 27.2306C86.1171 27.2518 86.0795 27.2631 86.0411 27.2631C86.0027 27.2631 85.965 27.2518 85.9329 27.2306L84.1795 26.2133C84.1146 26.17 84.0713 26.105 84.0713 26.0185V23.9838C84.0713 23.8971 84.1146 23.8321 84.1795 23.789L85.9329 22.7717Z" fill="#539E43"/>
<mask id="mask0" mask-type="alpha" maskUnits="userSpaceOnUse" x="25" y="13" width="22" height="24">
<path d="M36.428 13.5506C36.2598 13.4549 36.0696 13.4045 35.876 13.4045C35.6825 13.4045 35.4923 13.4549 35.3241 13.5506L26.2112 18.8103C25.8647 19.005 25.6699 19.3731 25.6699 19.7626V30.3043C25.6699 30.6939 25.8864 31.0619 26.2112 31.2567L35.3241 36.5167C35.4923 36.6124 35.6825 36.6628 35.876 36.6628C36.0696 36.6628 36.2598 36.6124 36.428 36.5167L45.541 31.2567C45.8873 31.0619 46.0823 30.6939 46.0823 30.3043V19.7628C46.0823 19.3732 45.8656 19.0052 45.541 18.8104L36.428 13.5506Z" fill="white"/>
</mask>
<g mask="url(#mask0)">
<path d="M36.428 13.5506C36.2598 13.4549 36.0696 13.4045 35.876 13.4045C35.6825 13.4045 35.4923 13.4549 35.3241 13.5506L26.2112 18.8103C25.8647 19.005 25.6699 19.3731 25.6699 19.7626V30.3043C25.6699 30.6939 25.8864 31.0619 26.2112 31.2567L35.3241 36.5167C35.4923 36.6124 35.6825 36.6628 35.876 36.6628C36.0696 36.6628 36.2598 36.6124 36.428 36.5167L45.541 31.2567C45.8873 31.0619 46.0823 30.6939 46.0823 30.3043V19.7628C46.0823 19.3732 45.8656 19.0052 45.541 18.8104L36.428 13.5506Z" fill="url(#paint0_linear)"/>
<path d="M45.5631 18.8102L36.4069 13.5504C36.317 13.505 36.2227 13.4687 36.1255 13.4421L25.8652 31.0188C25.9502 31.1226 26.0529 31.2105 26.1685 31.2786L35.3246 36.5385C35.5844 36.6901 35.8874 36.7333 36.1687 36.6466L45.8013 19.0269C45.7363 18.9404 45.6496 18.8752 45.5631 18.8104V18.8102Z" fill="url(#paint1_linear)"/>
<path fill-rule="evenodd" clip-rule="evenodd" d="M45.5842 31.2568C45.844 31.1053 46.0388 30.8455 46.1255 30.5642L36.0814 13.4206C35.8216 13.3773 35.5401 13.3989 35.3023 13.5504L26.2109 18.7888L36.0164 36.6683C36.159 36.645 36.2975 36.6013 36.4277 36.5385L45.5841 31.257L45.5842 31.2568Z" fill="url(#paint2_linear)"/>
<path fill-rule="evenodd" clip-rule="evenodd" d="M45.584 31.2568L36.4494 36.5168C36.3204 36.5826 36.1814 36.6264 36.0381 36.6466L36.2113 36.9713L46.3416 31.1055V30.9755L46.0818 30.5425C46.0385 30.8455 45.8438 31.1053 45.584 31.2568Z" fill="url(#paint3_linear)"/>
<path fill-rule="evenodd" clip-rule="evenodd" d="M45.584 31.2568L36.4494 36.5168C36.3204 36.5826 36.1814 36.6264 36.0381 36.6466L36.2113 36.9713L46.3416 31.1055V30.9755L46.0818 30.5425C46.0385 30.8455 45.8438 31.1053 45.584 31.2568Z" fill="url(#paint4_linear)"/>
</g>
</g>
<defs>
<linearGradient id="paint0_linear" x1="39.5887" y1="17.4717" x2="29.6001" y2="33.1668" gradientUnits="userSpaceOnUse">
<stop stop-color="#41873F"/>
<stop offset="0.3288" stop-color="#418B3D"/>
<stop offset="0.6352" stop-color="#419637"/>
<stop offset="0.9319" stop-color="#3FA92D"/>
<stop offset="1" stop-color="#3FAE2A"/>
</linearGradient>
<linearGradient id="paint1_linear" x1="34.493" y1="26.2682" x2="59.509" y2="12.6769" gradientUnits="userSpaceOnUse">
<stop offset="0.1376" stop-color="#41873F"/>
<stop offset="0.4032" stop-color="#54A044"/>
<stop offset="0.7136" stop-color="#66B848"/>
<stop offset="0.9081" stop-color="#6CC04A"/>
</linearGradient>
<linearGradient id="paint2_linear" x1="25.3369" y1="25.0339" x2="46.424" y2="25.0339" gradientUnits="userSpaceOnUse">
<stop offset="0.09192" stop-color="#6CC04A"/>
<stop offset="0.2864" stop-color="#66B848"/>
<stop offset="0.5968" stop-color="#54A044"/>
<stop offset="0.8624" stop-color="#41873F"/>
</linearGradient>
<linearGradient id="paint3_linear" x1="25.3368" y1="33.7746" x2="46.4237" y2="33.7746" gradientUnits="userSpaceOnUse">
<stop offset="0.09192" stop-color="#6CC04A"/>
<stop offset="0.2864" stop-color="#66B848"/>
<stop offset="0.5968" stop-color="#54A044"/>
<stop offset="0.8624" stop-color="#41873F"/>
</linearGradient>
<linearGradient id="paint4_linear" x1="49.4958" y1="16.9731" x2="44.1536" y2="44.9658" gradientUnits="userSpaceOnUse">
<stop stop-color="#41873F"/>
<stop offset="0.3288" stop-color="#418B3D"/>
<stop offset="0.6352" stop-color="#419637"/>
<stop offset="0.9319" stop-color="#3FA92D"/>
<stop offset="1" stop-color="#3FAE2A"/>
</linearGradient>
<clipPath id="clip0">
<rect width="95.8917" height="58.8086" fill="white" transform="translate(0.474609)"/>
</clipPath>
</defs>
</svg>
