<svg width="79" height="70" viewBox="0 0 79 70" fill="none" xmlns="http://www.w3.org/2000/svg">
<g clip-path="url(#clip0)">
<path d="M64.622 22.6655C63.7855 22.3785 62.942 22.1126 62.0921 21.8681C62.2349 21.2848 62.3663 20.7085 62.483 20.1424C64.3982 10.8456 63.1461 3.35589 58.8697 0.889927C54.7695 -1.47411 48.0639 0.990936 41.2917 6.88475C40.6243 7.46665 39.9717 8.06532 39.3345 8.68019C38.9079 8.27132 38.4738 7.87039 38.0324 7.4776C30.9348 1.17576 23.8206 -1.48025 19.5487 0.992778C15.4522 3.36418 14.2392 10.405 15.9634 19.2158C16.1349 20.0884 16.3286 20.9565 16.5443 21.8193C15.5372 22.1055 14.5655 22.41 13.6356 22.7342C5.31417 25.6355 0 30.1822 0 34.8983C0 39.7691 5.705 44.6547 14.3721 47.6171C15.0748 47.8563 15.7833 48.0779 16.497 48.2818C16.2652 49.211 16.0594 50.1466 15.8799 51.0873C14.2361 59.7452 15.5197 66.6196 19.6052 68.976C23.8249 71.4094 30.9071 68.9084 37.8031 62.8801C38.3623 62.3901 38.9091 61.8861 39.4432 61.3687C40.1332 62.0345 40.8417 62.6809 41.5677 63.3072C48.2478 69.0552 54.845 71.3762 58.9265 69.0134C63.1422 66.573 64.5124 59.188 62.7335 50.2031C62.5934 49.4992 62.4362 48.7988 62.2622 48.1025C62.7596 47.9551 63.2478 47.8034 63.7236 47.6456C72.734 44.6605 78.5965 39.8342 78.5965 34.8983C78.5965 30.165 73.1107 25.5876 64.622 22.6655ZM62.6678 44.4588C62.238 44.6009 61.7971 44.7382 61.3476 44.8717C60.3529 41.7226 59.0106 38.3743 57.3678 34.9145C58.9354 31.5373 60.2261 28.2317 61.1929 25.1032C61.997 25.3359 62.7771 25.5812 63.5293 25.84C70.8025 28.344 75.2389 32.0458 75.2389 34.8983C75.2389 37.9365 70.4476 41.8808 62.6678 44.4588ZM59.4398 50.8552C60.2264 54.828 60.3385 58.4201 59.8175 61.2284C59.3496 63.7518 58.4082 65.4339 57.244 66.1078C54.7673 67.5416 49.4703 65.678 43.7577 60.762C43.0823 60.1797 42.4233 59.5788 41.7814 58.9598C43.9962 56.5378 46.2095 53.7221 48.3697 50.5948C52.1693 50.2577 55.759 49.7063 59.0143 48.9538C59.1746 49.6007 59.317 50.235 59.4398 50.8552ZM26.7953 65.8601C24.3754 66.7145 22.4479 66.7391 21.2828 66.0673C18.8036 64.6375 17.7729 59.1176 19.1788 51.7136C19.3459 50.8387 19.5372 49.9686 19.7526 49.1043C22.972 49.8166 26.5355 50.3287 30.3441 50.6375C32.519 53.6976 34.7961 56.5101 37.0911 58.973C36.6034 59.445 36.1041 59.9048 35.5938 60.3522C32.5442 63.0177 29.4884 64.9089 26.7953 65.8601ZM15.4583 44.4401C11.6258 43.13 8.46079 41.4276 6.2914 39.5698C4.34184 37.9006 3.35785 36.243 3.35785 34.8983C3.35785 32.0362 7.62447 28.3858 14.7408 25.9048C15.6045 25.6039 16.5083 25.3199 17.4463 25.0534C18.43 28.2526 19.72 31.5975 21.2769 34.9799C19.6998 38.4124 18.3913 41.8108 17.3981 45.0476C16.7466 44.861 16.0998 44.6584 15.4583 44.4401ZM19.2586 18.5708C17.7815 11.0221 18.7625 5.32787 21.2312 3.8987C23.8605 2.37651 29.6748 4.54681 35.8032 9.98839C36.2028 10.344 36.5959 10.7069 36.9824 11.0768C34.6988 13.5289 32.4425 16.3206 30.287 19.3626C26.5905 19.7052 23.0521 20.2554 19.7989 20.9925C19.5985 20.19 19.4183 19.3826 19.2586 18.5711V18.5708ZM53.1616 26.9425C52.3932 25.6153 51.5963 24.3047 50.7715 23.0118C53.2792 23.3289 55.6819 23.7498 57.9382 24.2644C57.2609 26.4356 56.4166 28.7054 55.4228 31.0326C54.6964 29.6543 53.9425 28.2907 53.1616 26.9425ZM39.336 13.4764C40.8846 15.1543 42.4357 17.0274 43.9612 19.0598C40.8665 18.9137 37.7666 18.9131 34.6718 19.058C36.1989 17.0443 37.7632 15.1736 39.336 13.4764ZM25.4217 26.9655C24.6505 28.3029 23.9107 29.658 23.2028 31.0298C22.2253 28.7109 21.3887 26.4307 20.7056 24.2288C22.948 23.7271 25.3394 23.3169 27.8311 23.0056C26.9971 24.3065 26.1937 25.6267 25.4217 26.9652V26.9655ZM27.9027 47.0298C25.3283 46.7424 22.9011 46.3534 20.6592 45.8652C21.3531 43.624 22.2081 41.2953 23.2068 38.9266C23.9175 40.2995 24.6604 41.6555 25.4349 42.9934C26.2313 44.3688 27.0559 45.716 27.9027 47.0298ZM39.4287 56.5565C37.8372 54.8397 36.2499 52.9401 34.6997 50.8973C36.2047 50.9562 37.7389 50.9863 39.2982 50.9863C40.9003 50.9863 42.4839 50.9504 44.0426 50.881C42.5121 52.9607 40.9669 54.863 39.4287 56.5565ZM55.4544 38.8057C56.505 41.2004 57.3905 43.5169 58.0935 45.7197C55.8149 46.2398 53.3544 46.6586 50.762 46.9696C51.5927 45.6526 52.3971 44.3193 53.1748 42.9704C53.9655 41.5992 54.7256 40.2106 55.4544 38.8057ZM50.2664 41.2928C49.0759 43.361 47.8184 45.3899 46.496 47.3764C44.1005 47.546 41.6997 47.6303 39.2982 47.6291C36.8522 47.6291 34.4732 47.5529 32.1822 47.4043C30.8252 45.4225 29.5438 43.39 28.3405 41.3112H28.3408C27.1432 39.2435 26.0245 37.131 24.9872 34.9784C26.0219 32.8252 27.1371 30.7118 28.3307 28.6425L28.3304 28.6428C29.5234 26.5729 30.7947 24.5491 32.1414 22.5758C34.4787 22.399 36.8756 22.3069 39.2979 22.3069H39.2982C41.7317 22.3069 44.1316 22.3999 46.4683 22.578C47.8014 24.5483 49.0646 26.5652 50.2554 28.6247C51.4529 30.6894 52.5829 32.7926 53.6436 34.9308C52.5938 37.0909 51.4674 39.2129 50.2664 41.2928ZM57.1928 3.79861C59.8245 5.31651 60.8481 11.4375 59.1945 19.4645C59.0889 19.9766 58.9704 20.4982 58.8414 21.0272C55.5803 20.2744 52.0395 19.7147 48.3322 19.3669C46.1727 16.2915 43.9348 13.4955 41.6884 11.0749C42.2771 10.5074 42.8799 9.95461 43.4961 9.41703C49.2987 4.36752 54.7219 2.37374 57.1928 3.79861ZM39.2982 27.8798C43.1743 27.8798 46.3167 31.0222 46.3167 34.8983C46.3167 38.7744 43.1743 41.9167 39.2982 41.9167C35.4221 41.9167 32.2798 38.7744 32.2798 34.8983C32.2798 31.0222 35.4221 27.8798 39.2982 27.8798Z" fill="#00D8FF"/>
</g>
<defs>
<clipPath id="clip0">
<rect width="78.5965" height="70" fill="white"/>
</clipPath>
</defs>
</svg>
