<svg width="62" height="62" viewBox="0 0 62 62" fill="none" xmlns="http://www.w3.org/2000/svg">
<path fill-rule="evenodd" clip-rule="evenodd" d="M35.2885 1.80176C32.8862 -0.600586 28.9918 -0.600586 26.5895 1.80176L1.8016 26.5896C-0.600314 28.9915 -0.600752 32.8863 1.8016 35.2887L26.5895 60.0765C28.9914 62.4785 32.8866 62.4785 35.2885 60.0765L60.0764 35.2887C62.4787 32.8863 62.4783 28.9915 60.0764 26.5896L35.2885 1.80176ZM27.5895 2.8018C29.4366 0.954763 32.4418 0.955159 34.2885 2.8018L59.0763 27.5897C60.923 29.4363 60.923 32.442 59.0763 34.2886L34.2885 59.0765C32.4418 60.9231 29.4361 60.9231 27.5895 59.0765L2.80165 34.2886C0.954607 32.4416 0.955003 29.4363 2.80165 27.5897L27.5895 2.8018Z" fill="#264C2D"/>
<path fill-rule="evenodd" clip-rule="evenodd" d="M30.8552 11.8038L30.5173 11.6094L24.9447 14.906L24.9441 14.9063L24.5756 15.1264V21.2546L19.5502 24.2066L19.5496 24.207L19.1789 24.4267V30.6381L13.773 33.8095V40.6925L19.8417 44.2593L20.2249 44.0436L25.3055 41.1646L30.3647 44.1381L30.7418 44.3608L31.124 44.1457L36.3248 41.1991L41.1705 44.0471L41.5476 44.2698L41.9298 44.0546L47.3368 40.9912L47.3378 40.9907L47.6802 40.7995V33.7967L47.2974 33.5838L42.0542 30.6453V24.4008L41.6752 24.187L36.6894 21.3477V15.1011L36.3126 14.8846L30.8565 11.8046L30.8552 11.8038ZM33.8154 23.7384L35.9851 22.4991L40.0283 24.8014L36.0161 27.1311L32.0264 24.8049L33.8154 23.7384ZM28.6987 24.4471L29.3143 24.8118L25.2529 27.1342L21.1983 24.8054L25.1736 22.4701L28.6987 24.4471ZM26.5864 15.5013L30.5299 13.1658L34.6531 15.4979L30.6085 17.829L26.5864 15.5013ZM31.2832 23.6296V19.0047L35.3452 16.6645V21.2558L33.2123 22.5277L31.2832 23.6296ZM29.9367 19.0035L25.9244 16.6823V21.2307L29.5251 23.364L29.9367 23.5948V19.0035ZM30.0264 25.9654L25.9275 28.3099V32.9389L30.0264 30.6143V25.9654ZM36.8744 39.9613L40.8831 42.3173V37.7041L36.8744 35.4037V39.9613ZM35.481 35.4755L31.4209 37.7958V42.4298L35.481 40.1293V35.4755ZM36.6902 32.9313V28.3073L40.7112 25.9724V30.6163L36.6902 32.9313ZM35.3454 28.3061L31.3717 25.9901V30.5376L35.3454 32.9096V28.3061ZM15.7932 34.1895L19.7723 31.8546L23.9331 34.1861L19.8516 36.5185L15.7932 34.1895ZM20.5268 42.324V37.6941L24.6315 35.3484V39.9983L20.5268 42.324ZM19.1792 37.6946L15.1248 35.3685V39.9197L19.1792 42.3025V37.6946ZM37.4905 34.2014L41.4741 31.8641L45.6391 34.1979L41.5529 36.5326L37.4905 34.2014ZM42.2267 42.3387V37.7048L46.3354 35.3567V40.0107L42.2267 42.3387ZM26.6847 34.2924L30.6684 31.9551L34.8333 34.289L30.7471 36.6237L26.6847 34.2924ZM30.0773 37.7951L26.0188 35.4662V40.0231L30.0773 42.4083V37.7951ZM24.5777 28.3087L20.5283 25.9827V30.5328L24.5799 32.9169L24.5777 28.3087Z" fill="#264C2D"/>
</svg>
