<svg width="369" height="544" viewBox="0 0 369 544" fill="none" xmlns="http://www.w3.org/2000/svg">
<g clip-path="url(#clip0)" filter="url(#filter0_d)">
<rect x="21.084" y="21" width="316" height="476"/>
<path d="M130.617 451H117.054V427.438H130.617V431.53H122.037V436.711H130.023V440.803H122.037V446.875H130.617V451ZM140.833 451.33C138.831 451.33 137.192 450.549 135.916 448.987C134.662 447.403 134.035 445.082 134.035 442.024C134.035 438.944 134.673 436.612 135.949 435.028C137.225 433.444 138.897 432.652 140.965 432.652C142.263 432.652 143.33 432.905 144.166 433.411C145.002 433.917 145.662 434.544 146.146 435.292H146.311C146.245 434.94 146.168 434.434 146.08 433.774C145.992 433.092 145.948 432.399 145.948 431.695V425.92H150.865V451H147.103L146.146 448.657H145.948C145.464 449.405 144.815 450.043 144.001 450.571C143.187 451.077 142.131 451.33 140.833 451.33ZM142.549 447.403C143.913 447.403 144.87 447.007 145.42 446.215C145.97 445.401 146.256 444.191 146.278 442.585V442.057C146.278 440.297 146.003 438.955 145.453 438.031C144.925 437.107 143.935 436.645 142.483 436.645C141.405 436.645 140.558 437.118 139.942 438.064C139.326 438.988 139.018 440.33 139.018 442.09C139.018 443.85 139.326 445.181 139.942 446.083C140.558 446.963 141.427 447.403 142.549 447.403ZM165.478 451H160.495V431.596H154.093V427.438H171.88V431.596H165.478V451ZM180.222 432.652C182.708 432.652 184.677 433.367 186.129 434.797C187.581 436.205 188.307 438.218 188.307 440.836V443.212H176.691C176.735 444.598 177.142 445.687 177.912 446.479C178.704 447.271 179.793 447.667 181.179 447.667C182.345 447.667 183.401 447.557 184.347 447.337C185.293 447.095 186.272 446.732 187.284 446.248V450.043C186.404 450.483 185.469 450.802 184.479 451C183.511 451.22 182.334 451.33 180.948 451.33C179.144 451.33 177.549 451 176.163 450.34C174.777 449.658 173.688 448.635 172.896 447.271C172.104 445.907 171.708 444.191 171.708 442.123C171.708 440.011 172.06 438.262 172.764 436.876C173.49 435.468 174.491 434.412 175.767 433.708C177.043 433.004 178.528 432.652 180.222 432.652ZM180.255 436.15C179.309 436.15 178.517 436.458 177.879 437.074C177.263 437.69 176.9 438.647 176.79 439.945H183.687C183.665 438.845 183.379 437.943 182.829 437.239C182.279 436.513 181.421 436.15 180.255 436.15ZM199.62 451.33C196.936 451.33 194.857 450.593 193.383 449.119C191.931 447.623 191.205 445.28 191.205 442.09C191.205 439.89 191.579 438.097 192.327 436.711C193.075 435.325 194.109 434.302 195.429 433.642C196.771 432.982 198.311 432.652 200.049 432.652C201.281 432.652 202.348 432.773 203.25 433.015C204.174 433.257 204.977 433.543 205.659 433.873L204.207 437.668C203.437 437.36 202.711 437.107 202.029 436.909C201.369 436.711 200.709 436.612 200.049 436.612C197.497 436.612 196.221 438.427 196.221 442.057C196.221 443.861 196.551 445.192 197.211 446.05C197.893 446.908 198.839 447.337 200.049 447.337C201.083 447.337 201.996 447.205 202.788 446.941C203.58 446.655 204.35 446.27 205.098 445.786V449.977C204.35 450.461 203.558 450.802 202.722 451C201.908 451.22 200.874 451.33 199.62 451.33ZM214.162 431.035C214.162 431.915 214.129 432.762 214.063 433.576C214.019 434.39 213.975 434.962 213.931 435.292H214.195C214.767 434.368 215.504 433.697 216.406 433.279C217.308 432.861 218.309 432.652 219.409 432.652C221.367 432.652 222.929 433.18 224.095 434.236C225.283 435.27 225.877 436.942 225.877 439.252V451H220.96V440.473C220.96 437.877 219.992 436.579 218.056 436.579C216.582 436.579 215.559 437.096 214.987 438.13C214.437 439.142 214.162 440.605 214.162 442.519V451H209.245V425.92H214.162V431.035Z" fill="white"/>
</g>
<defs>
<filter id="filter0_d" x="0.0839844" y="0" width="368" height="544.133" filterUnits="userSpaceOnUse" color-interpolation-filters="sRGB">
<feFlood flood-opacity="0" result="BackgroundImageFix"/>
<feColorMatrix in="SourceAlpha" type="matrix" values="0 0 0 0 0 0 0 0 0 0 0 0 0 0 0 0 0 0 127 0"/>
<feOffset dx="13" dy="13"/>
<feGaussianBlur stdDeviation="17"/>
<feColorMatrix type="matrix" values="0 0 0 0 0 0 0 0 0 0 0 0 0 0 0 0 0 0 0.129 0"/>
<feBlend mode="normal" in2="BackgroundImageFix" result="effect1_dropShadow"/>
<feBlend mode="normal" in="SourceGraphic" in2="effect1_dropShadow" result="shape"/>
</filter>
<clipPath id="clip0">
<rect width="300" height="476.133" fill="white" transform="translate(21.084 21)"/>
</clipPath>
</defs>
</svg>
