<svg width="369" height="544" viewBox="0 0 369 544" fill="none" xmlns="http://www.w3.org/2000/svg">
<g clip-path="url(#clip0)" filter="url(#filter0_d)">
<rect x="21.084" y="21" width="316" height="476"/>
<path d="M100.359 451H95.376V440.836H86.037V451H81.054V427.438H86.037V436.678H95.376V427.438H100.359V451ZM113.316 432.652C115.802 432.652 117.771 433.367 119.223 434.797C120.675 436.205 121.401 438.218 121.401 440.836V443.212H109.785C109.829 444.598 110.236 445.687 111.006 446.479C111.798 447.271 112.887 447.667 114.273 447.667C115.439 447.667 116.495 447.557 117.441 447.337C118.387 447.095 119.366 446.732 120.378 446.248V450.043C119.498 450.483 118.563 450.802 117.573 451C116.605 451.22 115.428 451.33 114.042 451.33C112.238 451.33 110.643 451 109.257 450.34C107.871 449.658 106.782 448.635 105.99 447.271C105.198 445.907 104.802 444.191 104.802 442.123C104.802 440.011 105.154 438.262 105.858 436.876C106.584 435.468 107.585 434.412 108.861 433.708C110.137 433.004 111.622 432.652 113.316 432.652ZM113.349 436.15C112.403 436.15 111.611 436.458 110.973 437.074C110.357 437.69 109.994 438.647 109.884 439.945H116.781C116.759 438.845 116.473 437.943 115.923 437.239C115.373 436.513 114.515 436.15 113.349 436.15ZM132.78 432.619C135.2 432.619 137.048 433.147 138.324 434.203C139.622 435.237 140.271 436.832 140.271 438.988V451H136.839L135.882 448.558H135.75C134.98 449.526 134.166 450.23 133.308 450.67C132.45 451.11 131.273 451.33 129.777 451.33C128.171 451.33 126.84 450.868 125.784 449.944C124.728 448.998 124.2 447.557 124.2 445.621C124.2 443.707 124.871 442.299 126.213 441.397C127.555 440.473 129.568 439.967 132.252 439.879L135.387 439.78V438.988C135.387 438.042 135.134 437.349 134.628 436.909C134.144 436.469 133.462 436.249 132.582 436.249C131.702 436.249 130.844 436.381 130.008 436.645C129.172 436.887 128.336 437.195 127.5 437.569L125.883 434.236C126.851 433.73 127.918 433.334 129.084 433.048C130.272 432.762 131.504 432.619 132.78 432.619ZM133.473 442.717C131.889 442.761 130.789 443.047 130.173 443.575C129.557 444.103 129.249 444.796 129.249 445.654C129.249 446.402 129.469 446.941 129.909 447.271C130.349 447.579 130.921 447.733 131.625 447.733C132.681 447.733 133.572 447.425 134.298 446.809C135.024 446.171 135.387 445.28 135.387 444.136V442.651L133.473 442.717ZM150.221 451H145.304V425.92H150.221V451ZM162.949 447.403C163.499 447.403 164.027 447.348 164.533 447.238C165.039 447.128 165.545 446.996 166.051 446.842V450.505C165.523 450.725 164.863 450.912 164.071 451.066C163.301 451.242 162.454 451.33 161.53 451.33C160.452 451.33 159.484 451.154 158.626 450.802C157.79 450.45 157.119 449.845 156.613 448.987C156.129 448.107 155.887 446.897 155.887 445.357V436.678H153.544V434.599L156.25 432.949L157.669 429.154H160.804V432.982H165.853V436.678H160.804V445.357C160.804 446.039 161.002 446.556 161.398 446.908C161.794 447.238 162.311 447.403 162.949 447.403ZM174.585 431.035C174.585 431.915 174.552 432.762 174.486 433.576C174.442 434.39 174.398 434.962 174.354 435.292H174.618C175.19 434.368 175.927 433.697 176.829 433.279C177.731 432.861 178.732 432.652 179.832 432.652C181.79 432.652 183.352 433.18 184.518 434.236C185.706 435.27 186.3 436.942 186.3 439.252V451H181.383V440.473C181.383 437.877 180.415 436.579 178.479 436.579C177.005 436.579 175.982 437.096 175.41 438.13C174.86 439.142 174.585 440.605 174.585 442.519V451H169.668V425.92H174.585V431.035ZM200.827 451H195.844V431.596H189.442V427.438H207.229V431.596H200.827V451ZM215.571 432.652C218.057 432.652 220.026 433.367 221.478 434.797C222.93 436.205 223.656 438.218 223.656 440.836V443.212H212.04C212.084 444.598 212.491 445.687 213.261 446.479C214.053 447.271 215.142 447.667 216.528 447.667C217.694 447.667 218.75 447.557 219.696 447.337C220.642 447.095 221.621 446.732 222.633 446.248V450.043C221.753 450.483 220.818 450.802 219.828 451C218.86 451.22 217.683 451.33 216.297 451.33C214.493 451.33 212.898 451 211.512 450.34C210.126 449.658 209.037 448.635 208.245 447.271C207.453 445.907 207.057 444.191 207.057 442.123C207.057 440.011 207.409 438.262 208.113 436.876C208.839 435.468 209.84 434.412 211.116 433.708C212.392 433.004 213.877 432.652 215.571 432.652ZM215.604 436.15C214.658 436.15 213.866 436.458 213.228 437.074C212.612 437.69 212.249 438.647 212.139 439.945H219.036C219.014 438.845 218.728 437.943 218.178 437.239C217.628 436.513 216.77 436.15 215.604 436.15ZM234.969 451.33C232.285 451.33 230.206 450.593 228.732 449.119C227.28 447.623 226.554 445.28 226.554 442.09C226.554 439.89 226.928 438.097 227.676 436.711C228.424 435.325 229.458 434.302 230.778 433.642C232.12 432.982 233.66 432.652 235.398 432.652C236.63 432.652 237.697 432.773 238.599 433.015C239.523 433.257 240.326 433.543 241.008 433.873L239.556 437.668C238.786 437.36 238.06 437.107 237.378 436.909C236.718 436.711 236.058 436.612 235.398 436.612C232.846 436.612 231.57 438.427 231.57 442.057C231.57 443.861 231.9 445.192 232.56 446.05C233.242 446.908 234.188 447.337 235.398 447.337C236.432 447.337 237.345 447.205 238.137 446.941C238.929 446.655 239.699 446.27 240.447 445.786V449.977C239.699 450.461 238.907 450.802 238.071 451C237.257 451.22 236.223 451.33 234.969 451.33ZM249.512 431.035C249.512 431.915 249.479 432.762 249.413 433.576C249.369 434.39 249.325 434.962 249.281 435.292H249.545C250.117 434.368 250.854 433.697 251.756 433.279C252.658 432.861 253.659 432.652 254.759 432.652C256.717 432.652 258.279 433.18 259.445 434.236C260.633 435.27 261.227 436.942 261.227 439.252V451H256.31V440.473C256.31 437.877 255.342 436.579 253.406 436.579C251.932 436.579 250.909 437.096 250.337 438.13C249.787 439.142 249.512 440.605 249.512 442.519V451H244.595V425.92H249.512V431.035Z" fill="white"/>
</g>
<defs>
<filter id="filter0_d" x="0.0839844" y="0" width="368" height="544.133" filterUnits="userSpaceOnUse" color-interpolation-filters="sRGB">
<feFlood flood-opacity="0" result="BackgroundImageFix"/>
<feColorMatrix in="SourceAlpha" type="matrix" values="0 0 0 0 0 0 0 0 0 0 0 0 0 0 0 0 0 0 127 0"/>
<feOffset dx="13" dy="13"/>
<feGaussianBlur stdDeviation="17"/>
<feColorMatrix type="matrix" values="0 0 0 0 0 0 0 0 0 0 0 0 0 0 0 0 0 0 0.129 0"/>
<feBlend mode="normal" in2="BackgroundImageFix" result="effect1_dropShadow"/>
<feBlend mode="normal" in="SourceGraphic" in2="effect1_dropShadow" result="shape"/>
</filter>
<clipPath id="clip0">
<rect width="300" height="476.133" fill="white" transform="translate(21.084 21)"/>
</clipPath>
</defs>
</svg>
