<svg width="316" height="83" viewBox="0 0 316 83" fill="none" xmlns="http://www.w3.org/2000/svg">
<path fill-rule="evenodd" clip-rule="evenodd" d="M42.0769 3.80662L40.15 2.71289L6.78125 22.2895V60.6627L38.4536 79.2779L40.6116 80.5525L42.8026 79.3192L42.8086 79.3158L72.8329 62.3051L72.8353 62.3038L72.84 62.3011L72.8416 62.3002L74.8122 61.1998V22.144L72.6191 20.9239L72.6175 20.923L72.6147 20.9214L42.0845 3.81093L42.0829 3.80999L42.0787 3.80764L42.0769 3.80662ZM67.0668 56.657L44.5233 69.4302V44.0109L67.0668 31.1278V56.657ZM40.15 2.71289L63.0566 24.4547L40.6429 37.2611L18.3558 24.4715L40.15 2.71289ZM14.5202 56.2218V31.2307L36.7844 44.0069V69.3068L14.5202 56.2218Z" fill="url(#paint0_linear)"/>
<path d="M106.362 61.2087C110.698 61.2087 113.967 59.6372 116.169 56.4943V60.4523H120.833V43.6872C120.833 42.5443 120.782 41.4771 120.681 40.4854C120.58 39.4938 120.312 38.5526 119.875 37.6618C119.034 35.8635 117.706 34.5525 115.891 33.729C114.093 32.8886 111.975 32.4684 109.538 32.4684C106.395 32.4684 103.874 33.1575 101.975 34.5357C100.076 35.9139 98.7984 37.7711 98.1429 40.1073L103.059 41.6199C103.53 40.1073 104.362 39.0148 105.555 38.3425C106.748 37.6703 108.059 37.3341 109.488 37.3341C111.605 37.3341 113.135 37.7879 114.076 38.6955C115.034 39.5863 115.555 40.9729 115.639 42.8553C113.421 43.1578 111.252 43.4771 109.135 43.8133C107.017 44.1326 105.168 44.5192 103.588 44.973C101.488 45.6452 99.8908 46.6453 98.7984 47.973C97.7059 49.3008 97.1597 50.9899 97.1597 53.0404C97.1597 54.5194 97.5042 55.8808 98.1933 57.1245C98.8992 58.3514 99.9328 59.3431 101.294 60.0994C102.672 60.8389 104.362 61.2087 106.362 61.2087ZM107.294 56.8976C105.614 56.8976 104.37 56.5111 103.563 55.7379C102.773 54.9648 102.378 54.0488 102.378 52.99C102.378 51.9143 102.731 51.0655 103.437 50.4437C104.16 49.8218 105.059 49.326 106.135 48.9562C107.278 48.6201 108.622 48.326 110.168 48.0739C111.731 47.8218 113.538 47.5444 115.589 47.2419C115.572 47.8806 115.53 48.5949 115.463 49.3848C115.395 50.1748 115.253 50.8807 115.034 51.5025C114.832 52.3933 114.404 53.2505 113.748 54.074C113.11 54.8976 112.244 55.5783 111.152 56.1161C110.076 56.6371 108.79 56.8976 107.294 56.8976Z" fill="#015F9D"/>
<path d="M127.883 60.4523H133.152V23.3926H127.883V60.4523Z" fill="#015F9D"/>
<path d="M152.799 61.2087C155.438 61.2087 157.833 60.5448 159.984 59.217C162.135 57.8724 163.74 55.9816 164.799 53.5446L159.631 51.9059C158.253 54.7967 155.891 56.2421 152.547 56.2421C150.261 56.2421 148.463 55.5531 147.152 54.1749C145.841 52.7967 145.076 50.8471 144.858 48.326H165.152C165.337 45.0654 164.951 42.2502 163.993 39.8804C163.034 37.5106 161.581 35.687 159.631 34.4097C157.681 33.1155 155.32 32.4684 152.547 32.4684C149.891 32.4684 147.564 33.0651 145.563 34.2584C143.563 35.4517 142 37.1408 140.874 39.3258C139.765 41.5107 139.21 44.0906 139.21 47.0654C139.21 49.8722 139.773 52.3429 140.899 54.4774C142.042 56.5951 143.631 58.2506 145.664 59.4439C147.715 60.6204 150.093 61.2087 152.799 61.2087ZM152.749 37.1324C156.866 37.1324 159.202 39.4938 159.757 44.2166H144.984C145.32 41.9141 146.135 40.1577 147.429 38.9476C148.723 37.7375 150.496 37.1324 152.749 37.1324Z" fill="#015F9D"/>
<path d="M170.808 60.4523H176.128V46.7125C176.128 45.1158 176.38 43.6368 176.884 42.2754C177.388 40.914 178.279 39.8216 179.557 38.998C180.464 38.4098 181.464 38.0652 182.557 37.9644C183.649 37.8635 184.632 37.9308 185.506 38.1661V33.2248C184.279 32.9895 182.977 32.9979 181.599 33.25C180.237 33.5021 179.044 34.0063 178.019 34.7626C177.01 35.4349 176.17 36.3677 175.498 37.561V33.2248H170.808V60.4523Z" fill="#015F9D"/>
<path d="M201.639 61.2087C204.345 61.2087 206.698 60.6036 208.698 59.3935C210.698 58.1666 212.244 56.4774 213.337 54.3261C214.446 52.158 215.001 49.6537 215.001 46.8133C215.001 44.0065 214.454 41.5275 213.362 39.3762C212.269 37.2081 210.723 35.5189 208.723 34.3088C206.723 33.0819 204.362 32.4684 201.639 32.4684C198.966 32.4684 196.63 33.0735 194.63 34.2836C192.63 35.4937 191.076 37.1744 189.966 39.3258C188.857 41.4771 188.302 43.9729 188.302 46.8133C188.302 49.6201 188.849 52.1076 189.941 54.2757C191.033 56.4438 192.571 58.1414 194.555 59.3683C196.555 60.5952 198.916 61.2087 201.639 61.2087ZM201.639 56.2421C199.101 56.2421 197.177 55.3934 195.866 53.6959C194.555 51.9815 193.899 49.6874 193.899 46.8133C193.899 44.0402 194.529 41.788 195.79 40.0569C197.05 38.3089 199 37.4349 201.639 37.4349C204.21 37.4349 206.143 38.2837 207.437 39.9812C208.748 41.6788 209.404 43.9561 209.404 46.8133C209.404 49.6033 208.757 51.8723 207.462 53.6202C206.185 55.3682 204.244 56.2421 201.639 56.2421Z" fill="#015F9D"/>
<path d="M231.139 60.4523H236.408V23.3926H231.139V60.4523Z" fill="#015F9D"/>
<path d="M243.953 60.4523H249.248V43.4351C249.248 41.5863 249.752 40.0905 250.76 38.9476C251.786 37.8047 253.13 37.2333 254.794 37.2333C256.475 37.2333 257.811 37.8047 258.803 38.9476C259.811 40.0737 260.315 41.6199 260.315 43.5864L260.29 60.4523H265.559L265.584 43.4351C265.584 41.3846 266.13 39.8384 267.223 38.7963C268.332 37.7543 269.635 37.2333 271.131 37.2333C272.778 37.2333 274.105 37.7879 275.114 38.8972C276.122 40.0064 276.627 41.5359 276.627 43.4855L276.601 60.4523H281.87L281.896 42.225C281.896 39.3005 281.08 36.9559 279.45 35.1912C277.837 33.4264 275.568 32.5441 272.643 32.5441C270.862 32.5441 269.248 32.939 267.803 33.729C266.357 34.5021 265.214 35.5778 264.374 36.9559C263.651 35.5778 262.618 34.5021 261.273 33.729C259.945 32.939 258.34 32.5441 256.458 32.5441C254.828 32.5441 253.332 32.8718 251.97 33.5273C250.626 34.166 249.517 35.0399 248.643 36.1492V33.2248H243.953V60.4523Z" fill="#015F9D"/>
<path d="M298.854 61.1834C302.3 61.1834 304.997 60.4187 306.947 58.8893C308.913 57.3598 309.896 55.2505 309.896 52.5614C309.896 51.1496 309.602 49.9563 309.014 48.9815C308.443 48.0066 307.485 47.1663 306.14 46.4604C304.795 45.7377 302.98 45.0822 300.695 44.494C298.56 43.9561 296.947 43.4939 295.854 43.1074C294.778 42.704 294.047 42.3006 293.661 41.8972C293.274 41.4771 293.081 40.9645 293.081 40.3594C293.081 39.3174 293.577 38.5022 294.568 37.914C295.56 37.3089 296.854 37.04 298.451 37.1072C300.115 37.1744 301.468 37.5946 302.51 38.3677C303.552 39.1241 304.165 40.1493 304.35 41.4435L309.745 40.4602C309.443 38.04 308.258 36.1072 306.19 34.6618C304.123 33.1995 301.526 32.4684 298.4 32.4684C295.207 32.4684 292.644 33.2164 290.711 34.7122C288.778 36.1912 287.812 38.1661 287.812 40.6367C287.812 41.9645 288.098 43.099 288.669 44.0402C289.257 44.9646 290.232 45.7713 291.593 46.4604C292.972 47.1495 294.829 47.805 297.165 48.4268C299.3 48.9983 300.888 49.4773 301.93 49.8638C302.972 50.2504 303.653 50.6622 303.972 51.0992C304.308 51.5193 304.476 52.074 304.476 52.7631C304.476 53.9396 304.006 54.864 303.064 55.5362C302.14 56.2085 300.854 56.5447 299.207 56.5447C297.392 56.5447 295.871 56.1413 294.644 55.3346C293.434 54.5278 292.661 53.4101 292.325 51.9815L286.929 52.8135C287.4 55.469 288.677 57.5279 290.761 58.9901C292.846 60.4523 295.543 61.1834 298.854 61.1834Z" fill="#015F9D"/>
<defs>
<linearGradient id="paint0_linear" x1="14.6318" y1="84.4444" x2="44.2818" y2="9.74016" gradientUnits="userSpaceOnUse">
<stop stop-color="#1E9AEF"/>
<stop offset="1" stop-color="#03E06B"/>
</linearGradient>
</defs>
</svg>
