<svg width="73" height="70" viewBox="0 0 73 70" fill="none" xmlns="http://www.w3.org/2000/svg">
<path d="M40.5361 53.8164L39.0863 54.597C42.2089 60.2846 46.7812 65.0799 52.1342 68.537L53.0263 67.0873C47.8964 63.8532 43.5471 59.2809 40.5361 53.8164Z" fill="#151515"/>
<path d="M39.3075 29.3906H37.6347C37.6347 59.1664 56.2585 69.7608 72.2058 69.7608V68.088C57.0391 68.088 39.3075 57.9397 39.3075 29.3906Z" fill="#151515"/>
<path d="M43.6562 29.3906H41.9834C41.9834 56.0439 58.2653 65.4116 72.2053 65.4116V63.7388C59.0459 63.7388 43.6562 54.7056 43.6562 29.3906Z" fill="#151515"/>
<path d="M48.0071 29.3906H46.3343C46.3343 52.8098 59.7167 61.1738 72.2069 61.1738V59.501C66.5194 59.3895 48.0071 57.2706 48.0071 29.3906Z" fill="#151515"/>
<path d="M20.0139 67.0873L20.9061 68.537C26.3705 65.1914 30.8313 60.3961 33.9539 54.597L32.5041 53.8164C29.4931 59.2809 25.1438 63.8532 20.0139 67.0873Z" fill="#151515"/>
<path d="M0.833122 68.088V69.7608C16.7805 69.7608 35.4043 59.1664 35.4043 29.3906H33.7315C33.7315 57.9397 15.9998 68.088 0.833122 68.088Z" fill="#151515"/>
<path d="M31.055 29.3906H29.3822C29.3822 54.8172 13.9925 63.7388 0.833122 63.7388V65.4116C14.7731 65.4116 31.055 56.0439 31.055 29.3906Z" fill="#151515"/>
<path d="M26.7057 29.3906H25.0329C25.0329 57.2706 6.52064 59.501 0.833122 59.501V61.1738C13.3234 61.0623 26.7057 52.8098 26.7057 29.3906Z" fill="#151515"/>
<path d="M42.6525 16.7901L49.7898 10.2104L40.1991 9.09523L36.1844 0.285156L32.1697 9.09523L22.5789 10.2104L29.7162 16.7901L27.8204 26.2693L36.1844 21.4739L44.5484 26.2693L42.6525 16.7901ZM36.1844 19.5781L30.1623 23.0352L31.5005 16.2325L26.3706 11.5487L33.2849 10.768L36.1844 4.41139L39.0839 10.768L45.9981 11.5487L40.8682 16.2325L42.2064 23.0352L36.1844 19.5781Z" fill="#151515"/>
</svg>
