<svg width="254" height="211" viewBox="0 0 254 211" fill="none" xmlns="http://www.w3.org/2000/svg">
<path d="M56.2853 144.066H64.6202C66.8642 144.066 68.5419 144.525 69.6532 145.444C70.7645 146.342 71.3202 147.784 71.3202 149.772C71.3202 151.075 71.1065 152.101 70.6791 152.849C70.273 153.597 69.6212 154.217 68.7236 154.709C70.818 155.521 71.8652 157.22 71.8652 159.806C71.8652 163.952 69.5357 166.025 64.8767 166.025H56.2853V144.066ZM64.6202 156.44H59.8437V162.947H64.6843C65.8598 162.947 66.736 162.701 67.313 162.21C67.9114 161.718 68.2107 160.874 68.2107 159.677C68.2107 158.481 67.8687 157.647 67.1848 157.177C66.5009 156.685 65.6461 156.44 64.6202 156.44ZM64.4279 147.143H59.8437V153.426H64.5561C66.6505 153.426 67.6977 152.347 67.6977 150.188C67.6977 148.158 66.6078 147.143 64.4279 147.143Z" fill="#797E82"/>
<path d="M79.4725 158.203V166.025H75.9142V144.066H84.2491C89.2073 144.066 91.6863 146.395 91.6863 151.054C91.6863 154.174 90.4895 156.29 88.0959 157.401L91.7184 166.025H87.8074L84.6337 158.203H79.4725ZM88.0318 151.086C88.0318 148.457 86.7709 147.143 84.2491 147.143H79.4725V155.125H84.3132C85.5955 155.125 86.5358 154.762 87.1342 154.035C87.7326 153.287 88.0318 152.304 88.0318 151.086Z" fill="#797E82"/>
<path d="M95.7308 166.025V144.066H99.2892V166.025H95.7308Z" fill="#797E82"/>
<path d="M111.713 166.377C108.507 166.377 106.328 165.49 105.173 163.717C104.041 161.943 103.474 159.026 103.474 154.965C103.474 150.904 104.051 148.019 105.206 146.31C106.36 144.578 108.529 143.713 111.713 143.713C113.615 143.713 115.71 143.98 117.996 144.514L117.868 147.399C115.945 147.058 114.021 146.887 112.098 146.887C110.174 146.887 108.871 147.464 108.187 148.618C107.503 149.75 107.161 151.898 107.161 155.061C107.161 158.203 107.492 160.351 108.155 161.505C108.817 162.637 110.11 163.204 112.034 163.204C113.957 163.204 115.902 163.043 117.868 162.723L117.964 165.672C115.763 166.142 113.679 166.377 111.713 166.377Z" fill="#797E82"/>
<path d="M125.336 166.025H121.777V144.066H125.336V153.971L128.606 153.715L133.094 144.066H137.165L131.747 155.093L137.389 166.025H133.254L128.606 156.856L125.336 157.081V166.025Z" fill="#797E82"/>
<path d="M147.558 166.377C144.353 166.377 142.173 165.49 141.019 163.717C139.886 161.943 139.32 159.026 139.32 154.965C139.32 150.904 139.897 148.019 141.051 146.31C142.205 144.578 144.374 143.713 147.558 143.713C149.461 143.713 151.555 143.98 153.842 144.514L153.713 147.399C151.79 147.058 149.867 146.887 147.943 146.887C146.02 146.887 144.716 147.464 144.032 148.618C143.348 149.75 143.006 151.898 143.006 155.061C143.006 158.203 143.338 160.351 144 161.505C144.663 162.637 145.956 163.204 147.879 163.204C149.802 163.204 151.747 163.043 153.713 162.723L153.81 165.672C151.608 166.142 149.525 166.377 147.558 166.377Z" fill="#797E82"/>
<path d="M161.187 161.376C161.914 162.637 163.303 163.268 165.354 163.268C167.406 163.268 168.785 162.648 169.49 161.409C170.217 160.169 170.58 158.096 170.58 155.189C170.58 152.261 170.206 150.135 169.458 148.81C168.731 147.485 167.363 146.822 165.354 146.822C163.346 146.822 161.967 147.485 161.219 148.81C160.471 150.135 160.097 152.251 160.097 155.157C160.097 158.042 160.46 160.116 161.187 161.376ZM172.279 163.685C170.975 165.48 168.667 166.377 165.354 166.377C162.042 166.377 159.723 165.48 158.398 163.685C157.073 161.868 156.41 159.026 156.41 155.157C156.41 151.289 157.073 148.415 158.398 146.534C159.744 144.653 162.063 143.713 165.354 143.713C168.646 143.713 170.954 144.653 172.279 146.534C173.604 148.393 174.266 151.268 174.266 155.157C174.266 159.047 173.604 161.889 172.279 163.685Z" fill="#797E82"/>
<path d="M178.41 166.025V144.066H184.597L189.502 161.216L194.406 144.066H200.626V166.025H197.035V148.009H196.554L191.361 165.127H187.642L182.449 148.009H181.968V166.025H178.41Z" fill="#797E82"/>
<path d="M43.848 202.4H31.538V180.441H35.0964V199.226H43.848V202.4Z" fill="#797E82"/>
<path d="M50.1918 197.752C50.9185 199.013 52.3076 199.643 54.3593 199.643C56.4109 199.643 57.7894 199.023 58.4947 197.784C59.2213 196.544 59.5846 194.471 59.5846 191.565C59.5846 188.637 59.2106 186.51 58.4626 185.185C57.736 183.86 56.3682 183.198 54.3593 183.198C52.3503 183.198 50.9719 183.86 50.2239 185.185C49.4759 186.51 49.1019 188.626 49.1019 191.533C49.1019 194.418 49.4652 196.491 50.1918 197.752ZM61.2836 200.06C59.98 201.855 57.6719 202.753 54.3593 202.753C51.0467 202.753 48.7279 201.855 47.4028 200.06C46.0778 198.243 45.4153 195.401 45.4153 191.533C45.4153 187.664 46.0778 184.79 47.4028 182.909C48.7492 181.028 51.0681 180.088 54.3593 180.088C57.6505 180.088 59.9586 181.028 61.2836 182.909C62.6087 184.768 63.2712 187.643 63.2712 191.533C63.2712 195.422 62.6087 198.265 61.2836 200.06Z" fill="#797E82"/>
<path d="M74.0168 194.001V190.859H82.6098V202.015C82.0327 202.165 80.8573 202.325 79.0835 202.496C77.331 202.667 76.0594 202.753 75.2686 202.753C71.9347 202.753 69.6372 201.834 68.3763 199.996C67.1154 198.158 66.4849 195.283 66.4849 191.372C66.4849 187.44 67.1261 184.576 68.4084 182.781C69.712 180.986 71.9561 180.088 75.1404 180.088C77.0211 180.088 79.1369 180.302 81.4877 180.729L82.6098 180.954L82.4815 183.775C79.8956 183.433 77.5768 183.262 75.5251 183.262C73.4734 183.262 72.0629 183.839 71.2935 184.993C70.5455 186.147 70.1715 188.284 70.1715 191.404C70.1715 194.525 70.5242 196.683 71.2294 197.88C71.956 199.055 73.4093 199.643 75.5892 199.643C77.1493 199.643 78.3141 199.547 79.0835 199.355V194.001H74.0168Z" fill="#797E82"/>
<path d="M87.0747 202.4V180.441H90.6331V202.4H87.0747Z" fill="#797E82"/>
<path d="M102.127 183.198C99.4132 183.198 98.0561 184.149 98.0561 186.051C98.0561 187.034 98.3767 187.739 99.0178 188.167C99.659 188.573 101.069 189.086 103.249 189.705C105.451 190.304 107 191.03 107.898 191.885C108.795 192.719 109.244 194.044 109.244 195.86C109.244 198.168 108.582 199.899 107.257 201.054C105.953 202.186 104.168 202.753 101.903 202.753C100.086 202.753 98.0775 202.539 95.8762 202.111L94.7221 201.887L95.0748 199.034C97.9599 199.419 100.161 199.611 101.679 199.611C104.329 199.611 105.654 198.436 105.654 196.085C105.654 195.166 105.354 194.493 104.756 194.065C104.158 193.616 102.811 193.135 100.717 192.623C98.6224 192.088 97.0623 191.362 96.0365 190.443C95.0107 189.524 94.4977 188.07 94.4977 186.083C94.4977 184.095 95.1389 182.599 96.4212 181.595C97.7249 180.569 99.52 180.056 101.807 180.056C103.452 180.056 105.397 180.248 107.641 180.633L108.763 180.825L108.475 183.711C105.483 183.369 103.367 183.198 102.127 183.198Z" fill="#797E82"/>
<path d="M110.974 183.614V180.441H127.003V183.614H120.816V202.4H117.225V183.614H110.974Z" fill="#797E82"/>
<path d="M129.964 202.4V180.441H133.522V202.4H129.964Z" fill="#797E82"/>
<path d="M145.946 202.753C142.74 202.753 140.561 201.866 139.407 200.092C138.274 198.318 137.707 195.401 137.707 191.34C137.707 187.28 138.284 184.394 139.439 182.685C140.593 180.954 142.762 180.088 145.946 180.088C147.848 180.088 149.943 180.355 152.229 180.89L152.101 183.775C150.178 183.433 148.254 183.262 146.331 183.262C144.407 183.262 143.104 183.839 142.42 184.993C141.736 186.126 141.394 188.273 141.394 191.436C141.394 194.578 141.725 196.726 142.388 197.88C143.05 199.013 144.343 199.579 146.267 199.579C148.19 199.579 150.135 199.419 152.101 199.098L152.197 202.047C149.996 202.518 147.912 202.753 145.946 202.753Z" fill="#797E82"/>
<path d="M162.454 183.198C159.74 183.198 158.383 184.149 158.383 186.051C158.383 187.034 158.703 187.739 159.344 188.167C159.986 188.573 161.396 189.086 163.576 189.705C165.777 190.304 167.327 191.03 168.224 191.885C169.122 192.719 169.571 194.044 169.571 195.86C169.571 198.168 168.908 199.899 167.583 201.054C166.279 202.186 164.495 202.753 162.23 202.753C160.413 202.753 158.404 202.539 156.203 202.111L155.049 201.887L155.401 199.034C158.286 199.419 160.488 199.611 162.005 199.611C164.655 199.611 165.98 198.436 165.98 196.085C165.98 195.166 165.681 194.493 165.083 194.065C164.484 193.616 163.138 193.135 161.043 192.623C158.949 192.088 157.389 191.362 156.363 190.443C155.337 189.524 154.824 188.07 154.824 186.083C154.824 184.095 155.465 182.599 156.748 181.595C158.051 180.569 159.847 180.056 162.133 180.056C163.779 180.056 165.724 180.248 167.968 180.633L169.09 180.825L168.801 183.711C165.809 183.369 163.693 183.198 162.454 183.198Z" fill="#797E82"/>
<path d="M192.77 202.4H180.46V180.441H184.019V199.226H192.77V202.4Z" fill="#797E82"/>
<path d="M190.867 183.614V180.441H206.896V183.614H200.709V202.4H197.118V183.614H190.867Z" fill="#797E82"/>
<path d="M217.454 202.4H209.857V180.441H217.454C220.831 180.441 223.139 181.296 224.379 183.005C225.618 184.715 226.238 187.397 226.238 191.052C226.238 192.911 226.11 194.493 225.853 195.796C225.618 197.078 225.191 198.243 224.571 199.29C223.353 201.363 220.981 202.4 217.454 202.4ZM222.551 191.052C222.551 188.402 222.22 186.489 221.558 185.313C220.895 184.138 219.527 183.55 217.454 183.55H213.415V199.258H217.454C219.57 199.258 220.981 198.478 221.686 196.918C222.028 196.127 222.252 195.283 222.359 194.386C222.487 193.488 222.551 192.377 222.551 191.052Z" fill="#797E82"/>
<path fill-rule="evenodd" clip-rule="evenodd" d="M176.811 21.168C176.811 21.168 180.405 94.6993 125.442 115.826H125.404C70.4414 94.6993 74.0355 21.168 74.0355 21.168C74.0355 21.168 119.421 -14.9771 176.811 21.168Z" fill="#797E82"/>
<mask id="mask0" mask-type="alpha" maskUnits="userSpaceOnUse" x="111" y="20" width="38" height="80">
<path d="M111.811 99.1641V20.4163C145.767 34.7132 148.159 77.9889 148.236 88.3314C136.342 95.4122 124.102 99.0482 111.811 99.1641Z" fill="#FFCC00"/>
</mask>
<g mask="url(#mask0)">
<path fill-rule="evenodd" clip-rule="evenodd" d="M125.762 101.917L123.998 103.682L42.6489 22.3341L44.4134 20.5695L125.762 101.917Z" fill="#DDDDDD"/>
<path fill-rule="evenodd" clip-rule="evenodd" d="M132.244 101.917L130.479 103.682L49.1302 22.3341L50.8947 20.5695L132.244 101.917Z" fill="#DDDDDD"/>
<path fill-rule="evenodd" clip-rule="evenodd" d="M119.483 101.917L117.719 103.682L36.37 22.3341L38.1346 20.5695L119.483 101.917Z" fill="#DDDDDD"/>
<path fill-rule="evenodd" clip-rule="evenodd" d="M138.724 101.917L136.96 103.682L55.6107 22.3341L57.3752 20.5695L138.724 101.917Z" fill="#DDDDDD"/>
<path fill-rule="evenodd" clip-rule="evenodd" d="M145.207 101.917L143.443 103.682L62.094 22.3341L63.8585 20.5695L145.207 101.917Z" fill="#DDDDDD"/>
<path fill-rule="evenodd" clip-rule="evenodd" d="M151.688 101.917L149.924 103.682L68.575 22.3341L70.3395 20.5695L151.688 101.917Z" fill="#DDDDDD"/>
<path fill-rule="evenodd" clip-rule="evenodd" d="M158.17 101.918L156.606 103.482L68.6984 15.5758L70.262 14.0114L158.17 101.918Z" fill="#DDDDDD"/>
<path fill-rule="evenodd" clip-rule="evenodd" d="M164.65 101.918L163.087 103.482L75.1787 15.5758L76.7423 14.0114L164.65 101.918Z" fill="#DDDDDD"/>
<path fill-rule="evenodd" clip-rule="evenodd" d="M171.551 101.917L169.786 103.682L88.4373 22.3341L90.2019 20.5695L171.551 101.917Z" fill="#DDDDDD"/>
<path fill-rule="evenodd" clip-rule="evenodd" d="M178.033 101.917L176.268 103.682L94.9194 22.3341L96.684 20.5695L178.033 101.917Z" fill="#DDDDDD"/>
<path fill-rule="evenodd" clip-rule="evenodd" d="M184.515 101.917L182.751 103.682L101.402 22.3341L103.166 20.5695L184.515 101.917Z" fill="#DDDDDD"/>
<path fill-rule="evenodd" clip-rule="evenodd" d="M190.996 101.917L189.233 103.682L107.883 22.3341L109.648 20.5695L190.996 101.917Z" fill="#DDDDDD"/>
<path fill-rule="evenodd" clip-rule="evenodd" d="M197.477 101.918L195.914 103.482L108.005 15.5758L109.569 14.0113L197.477 101.918Z" fill="#DDDDDD"/>
</g>
<mask id="mask1" mask-type="alpha" maskUnits="userSpaceOnUse" x="111" y="13" width="38" height="79">
<path d="M111.811 13.2363V91.9841C145.767 77.6872 148.159 34.4115 148.236 24.069C136.342 16.9882 124.102 13.3522 111.811 13.2363Z" fill="#CC3300"/>
</mask>
<g mask="url(#mask1)">
<path fill-rule="evenodd" clip-rule="evenodd" d="M125.762 10.4872L123.998 8.72266L42.6489 90.0702L44.4134 91.8348L125.762 10.4872Z" fill="#DDDDDD"/>
<path fill-rule="evenodd" clip-rule="evenodd" d="M132.244 10.4872L130.479 8.72266L49.1302 90.0702L50.8947 91.8348L132.244 10.4872Z" fill="#DDDDDD"/>
<path fill-rule="evenodd" clip-rule="evenodd" d="M119.483 10.4872L117.719 8.72266L36.37 90.0702L38.1346 91.8348L119.483 10.4872Z" fill="#DDDDDD"/>
<path fill-rule="evenodd" clip-rule="evenodd" d="M138.724 10.4872L136.96 8.72266L55.6107 90.0702L57.3752 91.8348L138.724 10.4872Z" fill="#DDDDDD"/>
<path fill-rule="evenodd" clip-rule="evenodd" d="M145.207 10.4872L143.443 8.72266L62.094 90.0702L63.8585 91.8348L145.207 10.4872Z" fill="#DDDDDD"/>
<path fill-rule="evenodd" clip-rule="evenodd" d="M151.688 10.4872L149.924 8.72266L68.575 90.0702L70.3395 91.8348L151.688 10.4872Z" fill="#DDDDDD"/>
<path fill-rule="evenodd" clip-rule="evenodd" d="M158.17 10.4863L156.606 8.92188L68.6984 96.8285L70.262 98.3929L158.17 10.4863Z" fill="#DDDDDD"/>
<path fill-rule="evenodd" clip-rule="evenodd" d="M164.65 10.4863L163.087 8.92188L75.1787 96.8285L76.7423 98.3929L164.65 10.4863Z" fill="#DDDDDD"/>
<path fill-rule="evenodd" clip-rule="evenodd" d="M171.551 10.4872L169.786 8.72266L88.4373 90.0702L90.2019 91.8348L171.551 10.4872Z" fill="#DDDDDD"/>
<path fill-rule="evenodd" clip-rule="evenodd" d="M178.033 10.4872L176.268 8.72266L94.9194 90.0702L96.684 91.8348L178.033 10.4872Z" fill="#DDDDDD"/>
<path fill-rule="evenodd" clip-rule="evenodd" d="M184.515 10.4872L182.751 8.72266L101.402 90.0702L103.166 91.8348L184.515 10.4872Z" fill="#DDDDDD"/>
<path fill-rule="evenodd" clip-rule="evenodd" d="M190.996 10.4872L189.233 8.72266L107.883 90.0702L109.648 91.8348L190.996 10.4872Z" fill="#DDDDDD"/>
<path fill-rule="evenodd" clip-rule="evenodd" d="M197.477 10.4863L195.914 8.92188L108.005 96.8285L109.569 98.3929L197.477 10.4863Z" fill="#DDDDDD"/>
</g>
<path fill-rule="evenodd" clip-rule="evenodd" d="M126.507 33.2598H109.645V79.2721H127.348C131.912 79.2721 135.504 78.2859 138.029 76.2199C140.603 74.1135 141.816 70.6805 141.816 66.0978C141.816 63.3117 141.202 60.9547 139.93 59.0692C138.882 57.5161 137.411 56.3195 135.546 55.4677C136.956 54.6008 138.072 53.512 138.877 52.1959C139.953 50.464 140.457 48.1348 140.457 45.2698C140.457 41.232 139.301 38.1534 136.866 36.1842C134.507 34.1979 131.016 33.2598 126.507 33.2598ZM134.624 62.0607L134.628 62.0688L134.632 62.0767C135.212 63.0807 135.519 64.3462 135.519 65.9038C135.519 68.9252 134.762 70.8709 133.424 71.9491C132.07 73.0316 130.013 73.6222 127.154 73.6222H115.877V58.7028H126.83C128.765 58.7028 130.638 59.1136 132.456 59.9398C133.353 60.3508 134.076 61.0447 134.624 62.0607ZM134.096 45.8519C134.096 48.3876 133.473 50.1885 132.332 51.3676C131.249 52.4875 129.445 53.1176 126.766 53.1176H115.877V38.9097H126.313C129.136 38.9097 131.063 39.503 132.232 40.5594L132.24 40.5665L132.248 40.5733C133.43 41.5707 134.096 43.2722 134.096 45.8519Z" fill="#797E82"/>
<path fill-rule="evenodd" clip-rule="evenodd" d="M71.6428 19.4745C71.9446 19.2618 72.313 19.0076 72.7459 18.7184C74.1743 17.7639 76.3027 16.4287 79.0596 14.9399C84.577 11.9602 92.5864 8.37843 102.519 5.99118C122.053 1.29609 149.134 1.18545 179.564 19.615C179.572 20.1286 179.577 20.7758 179.574 21.5448C179.564 23.7211 179.484 26.8703 179.201 30.7267C178.635 38.4474 177.259 48.9608 174.031 60.1586C167.634 82.347 154.103 106.809 125.602 118.031C97.1011 106.809 83.5702 82.347 77.173 60.1586C73.9446 48.9608 72.569 38.4474 72.0029 30.7267C71.7201 26.8703 71.6401 23.7211 71.6303 21.5448C71.6265 20.7038 71.6332 20.0086 71.6428 19.4745ZM125.581 120.944C64.9573 97.9853 68.9216 18.0785 68.9216 18.0785C68.9216 18.0785 118.982 -21.2006 182.282 18.0785C182.282 18.0785 186.247 97.9853 125.623 120.944H125.581Z" fill="#797E82"/>
</svg>
