<svg width="311" height="259" viewBox="0 0 311 259" fill="none" xmlns="http://www.w3.org/2000/svg">
<path d="M68.8903 176.799H79.1422C81.9023 176.799 83.9659 177.364 85.3328 178.494C86.6997 179.599 87.3832 181.373 87.3832 183.818C87.3832 185.421 87.1203 186.683 86.5946 187.603C86.0951 188.523 85.2934 189.285 84.1893 189.89C86.7654 190.889 88.0535 192.979 88.0535 196.159C88.0535 201.259 85.1882 203.809 79.4577 203.809H68.8903V176.799ZM79.1422 192.019H73.2671V200.023H79.2211C80.6669 200.023 81.7446 199.721 82.4544 199.117C83.1904 198.512 83.5584 197.474 83.5584 196.002C83.5584 194.529 83.1378 193.504 82.2966 192.926C81.4555 192.321 80.404 192.019 79.1422 192.019ZM78.9056 180.584H73.2671V188.313H79.0634C81.6395 188.313 82.9275 186.985 82.9275 184.33C82.9275 181.833 81.5869 180.584 78.9056 180.584Z" fill="black"/>
<path d="M97.4105 194.188V203.809H93.0337V176.799H103.286C109.384 176.799 112.433 179.664 112.433 185.395C112.433 189.233 110.961 191.835 108.017 193.202L112.473 203.809H107.662L103.759 194.188H97.4105ZM107.938 185.434C107.938 182.201 106.387 180.584 103.286 180.584H97.4105V190.402H103.364C104.942 190.402 106.098 189.956 106.834 189.062C107.57 188.142 107.938 186.933 107.938 185.434Z" fill="black"/>
<path d="M117.408 203.809V176.799H121.785V203.809H117.408Z" fill="black"/>
<path d="M137.066 204.242C133.123 204.242 130.442 203.152 129.023 200.97C127.629 198.788 126.933 195.2 126.933 190.205C126.933 185.211 127.642 181.662 129.062 179.559C130.481 177.43 133.15 176.365 137.066 176.365C139.406 176.365 141.982 176.694 144.795 177.351L144.637 180.9C142.271 180.479 139.905 180.269 137.539 180.269C135.174 180.269 133.57 180.979 132.729 182.398C131.888 183.791 131.467 186.433 131.467 190.324C131.467 194.188 131.875 196.83 132.69 198.249C133.504 199.642 135.095 200.339 137.461 200.339C139.826 200.339 142.219 200.142 144.637 199.747L144.755 203.375C142.048 203.953 139.485 204.242 137.066 204.242Z" fill="black"/>
<path d="M153.822 203.809H149.445V176.799H153.822V188.983L157.844 188.668L163.364 176.799H168.372L161.708 190.363L168.648 203.809H163.561L157.844 192.532L153.822 192.808V203.809Z" fill="black"/>
<path d="M181.156 204.242C177.213 204.242 174.532 203.152 173.112 200.97C171.719 198.788 171.022 195.2 171.022 190.205C171.022 185.211 171.732 181.662 173.152 179.559C174.571 177.43 177.239 176.365 181.156 176.365C183.495 176.365 186.072 176.694 188.884 177.351L188.727 180.9C186.361 180.479 183.995 180.269 181.629 180.269C179.263 180.269 177.66 180.979 176.819 182.398C175.977 183.791 175.557 186.433 175.557 190.324C175.557 194.188 175.964 196.83 176.779 198.249C177.594 199.642 179.184 200.339 181.55 200.339C183.916 200.339 186.308 200.142 188.727 199.747L188.845 203.375C186.137 203.953 183.574 204.242 181.156 204.242Z" fill="black"/>
<path d="M197.919 198.091C198.813 199.642 200.521 200.418 203.045 200.418C205.569 200.418 207.264 199.655 208.132 198.131C209.025 196.606 209.472 194.056 209.472 190.481C209.472 186.88 209.012 184.264 208.092 182.635C207.198 181.005 205.516 180.19 203.045 180.19C200.574 180.19 198.879 181.005 197.958 182.635C197.038 184.264 196.578 186.867 196.578 190.442C196.578 193.991 197.025 196.54 197.919 198.091ZM211.562 200.93C209.958 203.138 207.119 204.242 203.045 204.242C198.971 204.242 196.118 203.138 194.489 200.93C192.859 198.696 192.044 195.2 192.044 190.442C192.044 185.684 192.859 182.148 194.489 179.835C196.145 177.522 198.997 176.365 203.045 176.365C207.093 176.365 209.932 177.522 211.562 179.835C213.192 182.122 214.007 185.658 214.007 190.442C214.007 195.226 213.192 198.722 211.562 200.93Z" fill="black"/>
<path d="M219.103 203.809V176.799H226.713L232.746 197.894L238.779 176.799H246.428V203.809H242.012V181.649H241.421L235.033 202.705H230.459L224.071 181.649H223.48V203.809H219.103Z" fill="black"/>
<path d="M53.5924 248.55H38.4512V221.54H42.8279V244.647H53.5924V248.55Z" fill="black"/>
<path d="M61.3953 242.833C62.2891 244.384 63.9977 245.159 66.5213 245.159C69.0448 245.159 70.7403 244.397 71.6078 242.872C72.5015 241.348 72.9484 238.798 72.9484 235.223C72.9484 231.621 72.4884 229.006 71.5684 227.376C70.6746 225.746 68.9922 224.931 66.5213 224.931C64.0503 224.931 62.3548 225.746 61.4348 227.376C60.5147 229.006 60.0547 231.608 60.0547 235.183C60.0547 238.732 60.5016 241.282 61.3953 242.833ZM75.0382 245.672C73.4347 247.88 70.5957 248.984 66.5213 248.984C62.4468 248.984 59.5947 247.88 57.9649 245.672C56.3351 243.437 55.5202 239.941 55.5202 235.183C55.5202 230.425 56.3351 226.89 57.9649 224.576C59.621 222.263 62.4731 221.107 66.5213 221.107C70.5695 221.107 73.4084 222.263 75.0382 224.576C76.668 226.863 77.4829 230.399 77.4829 235.183C77.4829 239.967 76.668 243.464 75.0382 245.672Z" fill="black"/>
<path d="M90.7 238.219V234.355H101.269V248.077C100.56 248.261 99.1137 248.458 96.9319 248.668C94.7764 248.879 93.2123 248.984 92.2397 248.984C88.139 248.984 85.3131 247.854 83.7622 245.593C82.2113 243.332 81.4358 239.797 81.4358 234.986C81.4358 230.149 82.2244 226.627 83.8016 224.419C85.4051 222.211 88.1653 221.107 92.082 221.107C94.3953 221.107 96.9977 221.369 99.8892 221.895L101.269 222.171L101.112 225.641C97.9308 225.221 95.0787 225.01 92.5552 225.01C90.0316 225.01 88.2967 225.72 87.3504 227.139C86.4303 228.559 85.9703 231.188 85.9703 235.026C85.9703 238.863 86.404 241.518 87.2715 242.99C88.1652 244.436 89.9528 245.159 92.634 245.159C94.553 245.159 95.9856 245.041 96.9319 244.804V238.219H90.7Z" fill="black"/>
<path d="M106.761 248.55V221.54H111.138V248.55H106.761Z" fill="black"/>
<path d="M125.276 224.931C121.937 224.931 120.268 226.101 120.268 228.441C120.268 229.65 120.663 230.517 121.451 231.043C122.24 231.543 123.975 232.173 126.656 232.936C129.364 233.672 131.269 234.566 132.373 235.617C133.477 236.642 134.029 238.272 134.029 240.506C134.029 243.345 133.215 245.475 131.585 246.894C129.981 248.287 127.786 248.984 125 248.984C122.765 248.984 120.295 248.721 117.587 248.195L116.167 247.919L116.601 244.41C120.15 244.883 122.857 245.12 124.724 245.12C127.983 245.12 129.613 243.674 129.613 240.782C129.613 239.652 129.245 238.824 128.509 238.298C127.773 237.746 126.117 237.155 123.541 236.524C120.965 235.867 119.046 234.973 117.784 233.843C116.522 232.712 115.891 230.925 115.891 228.48C115.891 226.035 116.68 224.195 118.257 222.96C119.861 221.698 122.069 221.067 124.882 221.067C126.906 221.067 129.298 221.304 132.058 221.777L133.438 222.014L133.083 225.562C129.403 225.142 126.801 224.931 125.276 224.931Z" fill="black"/>
<path d="M136.157 225.444V221.54H155.873V225.444H148.263V248.55H143.846V225.444H136.157Z" fill="black"/>
<path d="M159.515 248.55V221.54H163.891V248.55H159.515Z" fill="black"/>
<path d="M179.173 248.984C175.23 248.984 172.549 247.893 171.129 245.711C169.736 243.529 169.039 239.941 169.039 234.947C169.039 229.952 169.749 226.403 171.169 224.3C172.588 222.171 175.256 221.107 179.173 221.107C181.512 221.107 184.089 221.435 186.901 222.092L186.743 225.641C184.378 225.221 182.012 225.01 179.646 225.01C177.28 225.01 175.677 225.72 174.836 227.139C173.994 228.533 173.574 231.175 173.574 235.065C173.574 238.929 173.981 241.571 174.796 242.99C175.611 244.384 177.201 245.08 179.567 245.08C181.933 245.08 184.325 244.883 186.743 244.489L186.862 248.116C184.154 248.695 181.591 248.984 179.173 248.984Z" fill="black"/>
<path d="M199.477 224.931C196.139 224.931 194.47 226.101 194.47 228.441C194.47 229.65 194.864 230.517 195.653 231.043C196.441 231.543 198.176 232.173 200.857 232.936C203.565 233.672 205.471 234.566 206.575 235.617C207.679 236.642 208.231 238.272 208.231 240.506C208.231 243.345 207.416 245.475 205.786 246.894C204.183 248.287 201.988 248.984 199.201 248.984C196.967 248.984 194.496 248.721 191.788 248.195L190.369 247.919L190.803 244.41C194.351 244.883 197.059 245.12 198.925 245.12C202.185 245.12 203.815 243.674 203.815 240.782C203.815 239.652 203.447 238.824 202.711 238.298C201.975 237.746 200.319 237.155 197.742 236.524C195.166 235.867 193.247 234.973 191.986 233.843C190.724 232.712 190.093 230.925 190.093 228.48C190.093 226.035 190.882 224.195 192.459 222.96C194.062 221.698 196.27 221.067 199.083 221.067C201.107 221.067 203.499 221.304 206.259 221.777L207.639 222.014L207.285 225.562C203.604 225.142 201.002 224.931 199.477 224.931Z" fill="black"/>
<path d="M236.766 248.55H221.625V221.54H226.002V244.647H236.766V248.55Z" fill="black"/>
<path d="M234.425 225.444V221.54H254.14V225.444H246.53V248.55H242.114V225.444H234.425Z" fill="black"/>
<path d="M267.128 248.55H257.783V221.54H267.128C271.281 221.54 274.12 222.592 275.644 224.695C277.169 226.798 277.931 230.097 277.931 234.592C277.931 236.879 277.774 238.824 277.458 240.428C277.169 242.005 276.643 243.437 275.881 244.725C274.383 247.275 271.465 248.55 267.128 248.55ZM273.397 234.592C273.397 231.332 272.99 228.98 272.175 227.534C271.36 226.088 269.677 225.365 267.128 225.365H262.159V244.686H267.128C269.73 244.686 271.465 243.727 272.332 241.808C272.753 240.835 273.029 239.797 273.16 238.693C273.318 237.589 273.397 236.222 273.397 234.592Z" fill="black"/>
<path fill-rule="evenodd" clip-rule="evenodd" d="M217.136 25.2886C217.136 25.2886 221.557 115.732 153.952 141.718H153.906C86.302 115.732 90.7227 25.2886 90.7227 25.2886C90.7227 25.2886 146.547 -19.1698 217.136 25.2886Z" fill="#262AA3"/>
<mask id="mask0" mask-type="alpha" maskUnits="userSpaceOnUse" x="137" y="24" width="45" height="98">
<path d="M137.185 121.225V24.3651C178.95 41.9503 181.893 95.1792 181.987 107.9C167.358 116.61 152.303 121.082 137.185 121.225Z" fill="#FFCC00"/>
</mask>
<g mask="url(#mask0)">
<path fill-rule="evenodd" clip-rule="evenodd" d="M154.346 124.609L152.176 126.779L52.1167 26.722L54.2871 24.5516L154.346 124.609Z" fill="#FFCC00"/>
<path fill-rule="evenodd" clip-rule="evenodd" d="M162.317 124.609L160.147 126.779L60.0879 26.722L62.2583 24.5516L162.317 124.609Z" fill="#FFCC00"/>
<path fill-rule="evenodd" clip-rule="evenodd" d="M146.622 124.609L144.452 126.779L44.3931 26.722L46.5635 24.5516L146.622 124.609Z" fill="#FFCC00"/>
<path fill-rule="evenodd" clip-rule="evenodd" d="M170.289 124.609L168.118 126.779L68.0596 26.722L70.23 24.5516L170.289 124.609Z" fill="#FFCC00"/>
<path fill-rule="evenodd" clip-rule="evenodd" d="M178.263 124.609L176.093 126.779L76.0337 26.722L78.2041 24.5516L178.263 124.609Z" fill="#FFCC00"/>
<path fill-rule="evenodd" clip-rule="evenodd" d="M186.234 124.609L184.064 126.779L84.0049 26.722L86.1753 24.5516L186.234 124.609Z" fill="#FFCC00"/>
<path fill-rule="evenodd" clip-rule="evenodd" d="M194.207 124.609L192.283 126.533L84.1567 18.4083L86.08 16.4841L194.207 124.609Z" fill="#FFCC00"/>
<path fill-rule="evenodd" clip-rule="evenodd" d="M202.178 124.609L200.255 126.533L92.1284 18.4083L94.0517 16.4841L202.178 124.609Z" fill="#FFCC00"/>
<path fill-rule="evenodd" clip-rule="evenodd" d="M210.666 124.609L208.496 126.779L108.437 26.722L110.607 24.5516L210.666 124.609Z" fill="#FFCC00"/>
<path fill-rule="evenodd" clip-rule="evenodd" d="M218.638 124.609L216.468 126.779L116.409 26.722L118.579 24.5516L218.638 124.609Z" fill="#FFCC00"/>
<path fill-rule="evenodd" clip-rule="evenodd" d="M226.611 124.609L224.442 126.779L124.382 26.722L126.552 24.5516L226.611 124.609Z" fill="#FFCC00"/>
<path fill-rule="evenodd" clip-rule="evenodd" d="M234.583 124.609L232.414 126.779L132.354 26.722L134.524 24.5516L234.583 124.609Z" fill="#FFCC00"/>
<path fill-rule="evenodd" clip-rule="evenodd" d="M242.556 124.609L240.632 126.533L132.506 18.4083L134.429 16.4841L242.556 124.609Z" fill="#FFCC00"/>
</g>
<mask id="mask1" mask-type="alpha" maskUnits="userSpaceOnUse" x="137" y="15" width="45" height="98">
<path d="M137.185 15.5352V112.395C178.95 94.8095 181.893 41.5806 181.987 28.8593C167.358 20.1499 152.303 15.6777 137.185 15.5352Z" fill="#CC3300"/>
</mask>
<g mask="url(#mask1)">
<path fill-rule="evenodd" clip-rule="evenodd" d="M154.346 12.1508L152.176 9.98047L52.1167 110.038L54.2871 112.208L154.346 12.1508Z" fill="#CC3300"/>
<path fill-rule="evenodd" clip-rule="evenodd" d="M162.317 12.1508L160.147 9.98047L60.0879 110.038L62.2583 112.208L162.317 12.1508Z" fill="#CC3300"/>
<path fill-rule="evenodd" clip-rule="evenodd" d="M146.622 12.1508L144.452 9.98047L44.3931 110.038L46.5635 112.208L146.622 12.1508Z" fill="#CC3300"/>
<path fill-rule="evenodd" clip-rule="evenodd" d="M170.289 12.1508L168.118 9.98047L68.0596 110.038L70.23 112.208L170.289 12.1508Z" fill="#CC3300"/>
<path fill-rule="evenodd" clip-rule="evenodd" d="M178.263 12.1508L176.093 9.98047L76.0337 110.038L78.2041 112.208L178.263 12.1508Z" fill="#CC3300"/>
<path fill-rule="evenodd" clip-rule="evenodd" d="M186.234 12.1508L184.064 9.98047L84.0049 110.038L86.1753 112.208L186.234 12.1508Z" fill="#CC3300"/>
<path fill-rule="evenodd" clip-rule="evenodd" d="M194.207 12.1508L192.283 10.2266L84.1567 118.351L86.08 120.276L194.207 12.1508Z" fill="#CC3300"/>
<path fill-rule="evenodd" clip-rule="evenodd" d="M202.178 12.1508L200.255 10.2266L92.1284 118.351L94.0517 120.276L202.178 12.1508Z" fill="#CC3300"/>
<path fill-rule="evenodd" clip-rule="evenodd" d="M210.666 12.1508L208.496 9.98047L108.437 110.038L110.607 112.208L210.666 12.1508Z" fill="#CC3300"/>
<path fill-rule="evenodd" clip-rule="evenodd" d="M218.638 12.1508L216.468 9.98047L116.409 110.038L118.579 112.208L218.638 12.1508Z" fill="#CC3300"/>
<path fill-rule="evenodd" clip-rule="evenodd" d="M226.611 12.1508L224.442 9.98047L124.382 110.038L126.552 112.208L226.611 12.1508Z" fill="#CC3300"/>
<path fill-rule="evenodd" clip-rule="evenodd" d="M234.583 12.1508L232.414 9.98047L132.354 110.038L134.524 112.208L234.583 12.1508Z" fill="#CC3300"/>
<path fill-rule="evenodd" clip-rule="evenodd" d="M242.556 12.1508L240.632 10.2266L132.506 118.351L134.429 120.276L242.556 12.1508Z" fill="#CC3300"/>
</g>
<path fill-rule="evenodd" clip-rule="evenodd" d="M155.263 40.1641H134.523V96.7591H156.297C161.911 96.7591 166.329 95.5461 169.435 93.0049C172.602 90.4141 174.093 86.1915 174.093 80.5548C174.093 77.1278 173.339 74.2287 171.774 71.9096C170.484 69.9993 168.675 68.5274 166.381 67.4798C168.115 66.4135 169.488 65.0743 170.478 63.4554C171.801 61.3253 172.422 58.4603 172.422 54.9363C172.422 49.9698 171 46.1833 168.005 43.7611C165.103 41.318 160.81 40.1641 155.263 40.1641ZM165.247 75.5891L165.252 75.599L165.258 75.6088C165.97 76.8437 166.348 78.4002 166.348 80.3161C166.348 84.0325 165.417 86.4256 163.771 87.7518C162.106 89.0832 159.576 89.8097 156.059 89.8097H142.189V71.4589H155.661C158.04 71.4589 160.345 71.9642 162.581 72.9805C163.684 73.486 164.574 74.3394 165.247 75.5891ZM164.598 55.6524C164.598 58.7713 163.831 60.9864 162.427 62.4367C161.096 63.8141 158.877 64.5891 155.581 64.5891H142.189V47.1134H155.024C158.497 47.1134 160.867 47.8432 162.306 49.1426L162.315 49.1513L162.325 49.1597C163.779 50.3864 164.598 52.4793 164.598 55.6524Z" fill="#262AA3"/>
<path fill-rule="evenodd" clip-rule="evenodd" d="M87.779 23.2092C88.1503 22.9475 88.6034 22.6349 89.1358 22.2791C90.8927 21.1051 93.5107 19.4629 96.9016 17.6316C103.688 13.9666 113.54 9.56102 125.756 6.62472C149.783 0.849774 183.093 0.713686 220.521 23.382C220.531 24.0137 220.538 24.8097 220.534 25.7556C220.522 28.4325 220.423 32.306 220.075 37.0493C219.379 46.5458 217.687 59.4772 213.716 73.2505C205.848 100.542 189.205 130.63 154.149 144.433C119.093 130.63 102.45 100.542 94.5812 73.2505C90.6102 59.4772 88.9183 46.5458 88.222 37.0493C87.8742 32.306 87.7757 28.4325 87.7637 25.7556C87.759 24.7213 87.7673 23.8661 87.779 23.2092ZM154.123 148.016C79.5558 119.777 84.4319 21.4921 84.4319 21.4921C84.4319 21.4921 146.006 -26.8211 223.866 21.4921C223.866 21.4921 228.742 119.777 154.174 148.016H154.123Z" fill="#1F1C3A"/>
</svg>
