<svg width="316" height="83" viewBox="0 0 316 83" fill="none" xmlns="http://www.w3.org/2000/svg">
<path fill-rule="evenodd" clip-rule="evenodd" d="M288.703 0.958861L287.096 0.046875L259.272 16.3705V48.3673L285.681 63.8893L287.481 64.952L289.308 63.9237L289.313 63.9208L314.348 49.7368L314.35 49.7357L314.354 49.7334L314.355 49.7327L315.998 48.8151V16.2492L314.17 15.2318L314.168 15.231L314.166 15.2297L288.709 0.962452L288.708 0.961675L288.704 0.959709L288.703 0.958861ZM309.54 45.0272L290.742 55.6779V34.4825L309.54 23.7402V45.0272ZM287.143 7.49951L306.196 18.1759L287.507 28.8543L268.923 18.1899L287.143 7.49951ZM265.725 44.6643V23.826L284.29 34.4791V55.575L265.725 44.6643Z" fill="url(#paint0_linear)"/>
<path d="M27.7066 77.267C24.8753 80.7725 20.6508 82.5252 15.033 82.5252C10.7186 82.5252 7.16822 80.9747 4.38183 77.8738C1.46061 74.593 0 70.2786 0 64.9305C0 59.7173 1.37073 55.5152 4.11218 52.3243C6.98846 49.0436 10.9883 47.4032 16.1116 47.4032C18.6733 47.4032 22.044 48.2121 26.2236 49.83V58.7285H23.5271C22.8979 58.7285 22.5159 58.4139 22.381 57.7848C22.3361 57.6499 22.2462 56.796 22.1114 55.2231L21.9091 52.9984C21.4148 52.8187 20.9204 52.6839 20.4261 52.594C19.9766 52.5041 19.6621 52.4367 19.4823 52.3917C18.2689 52.212 17.0105 52.1221 15.7072 52.1221C14.5387 52.1221 13.3028 52.4142 11.9995 52.9984C10.786 53.5378 9.72991 54.3692 8.83107 55.4927C7.12328 57.7398 6.26939 60.8857 6.26939 64.9305C6.26939 68.9753 7.16822 72.1661 8.9659 74.5031C10.7186 76.7502 13.123 77.8738 16.1791 77.8738C19.0104 77.8738 21.5047 76.93 23.6619 75.0424C24.0214 74.6829 24.4708 74.5031 25.0101 74.5031C25.5045 74.5031 25.864 74.6829 26.0887 75.0424L27.7066 77.267Z" fill="#007CCE"/>
<path d="M48.6394 47.4032C51.1112 47.4032 53.3582 47.8077 55.3806 48.6166C57.3581 49.4256 59.0883 50.5941 60.5714 52.1221C61.9646 53.5602 63.0432 55.4028 63.8072 57.6499C64.5712 59.8521 64.9532 62.2789 64.9532 64.9305C64.9532 67.5821 64.5712 70.0089 63.8072 72.2111C63.0432 74.4582 61.9646 76.3008 60.5714 77.7389C59.0883 79.267 57.3581 80.4354 55.3806 81.2444C53.3582 82.0533 51.1112 82.4578 48.6394 82.4578C46.1675 82.4578 43.9205 82.0533 41.8981 81.2444C39.9206 80.4354 38.1904 79.267 36.7073 77.7389C35.359 76.3457 34.258 74.5031 33.4041 72.2111C32.685 70.2786 32.3255 67.8517 32.3255 64.9305C32.3255 62.0093 32.685 59.5824 33.4041 57.6499C34.258 55.3579 35.359 53.5153 36.7073 52.1221C38.1904 50.5941 39.9206 49.4256 41.8981 48.6166C43.9205 47.8077 46.1675 47.4032 48.6394 47.4032ZM48.6394 77.8738C52.0999 77.8738 54.6166 76.7502 56.1896 74.5031C57.8524 72.1661 58.6839 68.9977 58.6839 64.9979C58.6839 60.9981 57.8524 57.8297 56.1896 55.4927C54.6166 53.2456 52.0999 52.1221 48.6394 52.1221C46.8866 52.1221 45.4035 52.3917 44.1901 52.931C43.0216 53.4703 41.988 54.3242 41.0891 55.4927C40.2352 56.6612 39.606 58.0095 39.2016 59.5375C38.7522 61.3352 38.5274 63.1778 38.5274 65.0653C38.5274 66.863 38.7522 68.6607 39.2016 70.4584C39.606 71.9864 40.2352 73.3346 41.0891 74.5031C41.8531 75.5368 42.8868 76.3457 44.1901 76.93C45.6282 77.5592 47.1113 77.8738 48.6394 77.8738Z" fill="#007CCE"/>
<path d="M84.8126 47.2684C88.5877 47.2684 91.6887 48.6166 94.1156 51.3131V37.2913L89.5989 36.4823C88.9248 36.3475 88.5877 35.943 88.5877 35.2689V32.3027H100.048V77.0648C102.295 77.4693 103.598 77.7389 103.958 77.8738C104.587 78.0086 104.902 78.4131 104.902 79.0872V82.0533H96.5424C95.7335 82.0533 95.1942 81.6264 94.9245 80.7725L94.3852 76.6603C91.1944 80.5253 87.3743 82.4578 82.925 82.4578C78.9252 82.4578 75.7793 80.9747 73.4873 78.0086C71.1503 74.9076 69.9818 70.5932 69.9818 65.0653C69.9818 59.897 71.3076 55.6725 73.9592 52.3917C76.7006 48.9762 80.3184 47.2684 84.8126 47.2684ZM84.9474 77.6715C88.4978 77.6715 91.5539 75.9412 94.1156 72.4807V56.032C92.0932 53.3355 89.4641 51.9873 86.2283 51.9873C82.9475 51.9873 80.4533 53.1108 78.7455 55.3579C77.0377 57.605 76.1838 60.8408 76.1838 65.0653C76.1838 71.492 77.8466 75.4469 81.1723 76.93C82.206 77.3794 83.4419 77.6041 84.88 77.6041L84.9474 77.6715Z" fill="#007CCE"/>
<path d="M123.875 47.4032C125.853 47.4032 127.718 47.7403 129.47 48.4144C131.268 49.0885 132.751 50.0548 133.92 51.3131C135.268 52.7513 136.257 54.3467 136.886 56.0994C137.605 58.1218 137.964 60.279 137.964 62.5711C137.964 63.6047 137.875 64.2339 137.695 64.4586C137.47 64.7732 137.066 64.9305 136.481 64.9305H113.831C113.831 67.0877 114.1 68.9753 114.64 70.5932C115.089 71.9864 115.853 73.2897 116.932 74.5031C117.92 75.6267 119.044 76.4356 120.302 76.93C121.651 77.4693 123.089 77.7389 124.617 77.7389C126.235 77.7389 127.538 77.5816 128.527 77.267C129.47 76.9524 130.414 76.5704 131.358 76.121C132.347 75.6267 133.021 75.2671 133.38 75.0424C133.965 74.6829 134.414 74.5031 134.729 74.5031C135.223 74.5031 135.605 74.7054 135.875 75.1098L137.56 77.3345C136.931 78.1434 136.032 78.9074 134.863 79.6265C133.515 80.4804 132.414 81.0422 131.56 81.3118C130.212 81.7612 128.999 82.0758 127.92 82.2556C126.572 82.4803 125.336 82.5926 124.212 82.5926C121.875 82.5926 119.696 82.1882 117.673 81.3792C115.741 80.6152 114.01 79.4242 112.482 77.8063C111.044 76.3233 109.921 74.4132 109.112 72.0763C108.303 69.7842 107.898 67.1776 107.898 64.2564C107.898 61.9194 108.28 59.7173 109.044 57.6499C109.808 55.5377 110.864 53.74 112.213 52.2569C113.606 50.7289 115.291 49.5379 117.269 48.684C119.246 47.8301 121.448 47.4032 123.875 47.4032ZM124.01 51.785C121.089 51.785 118.819 52.6164 117.201 54.2793C115.538 56.032 114.505 58.369 114.1 61.2902H132.639C132.639 59.897 132.437 58.6386 132.032 57.5151C131.538 56.1219 130.998 55.1107 130.414 54.4815C129.65 53.6726 128.729 53.0209 127.65 52.5266C126.617 52.0771 125.381 51.8524 123.943 51.8524L124.01 51.785Z" fill="#007CCE"/>
<path d="M176.402 64.9979C176.402 67.8293 175.998 70.3235 175.189 72.4807C174.335 74.7278 173.256 76.5704 171.953 78.0086C170.65 79.4467 169.077 80.5703 167.234 81.3792C165.437 82.1882 163.459 82.5926 161.302 82.5926C157.482 82.5926 152.448 81.9635 146.201 80.7051V37.2913L144.718 37.089L141.887 36.6172C141.572 36.5722 141.325 36.4374 141.145 36.2127C140.966 35.943 140.876 35.6509 140.876 35.3363V32.4376H152.269V52.8636C153.707 51.2008 155.325 49.875 157.122 48.8863C158.92 47.8976 160.987 47.4032 163.324 47.4032C165.347 47.4032 167.144 47.7627 168.717 48.4818C170.29 49.2009 171.638 50.3244 172.762 51.8524C173.886 53.4254 174.739 55.2231 175.324 57.2454C175.953 59.4925 176.267 62.0093 176.267 64.7957H176.402V64.9979ZM167.571 74.3683C168.425 73.2447 169.077 71.8965 169.526 70.3235C169.976 68.6607 170.2 66.9529 170.2 65.2002V64.6609C170.2 62.3239 170.021 60.4363 169.661 58.9982C169.257 57.4702 168.672 56.1668 167.908 55.0882C167.099 54.0096 166.201 53.2456 165.212 52.7962C164.178 52.3468 162.942 52.1221 161.504 52.1221C159.437 52.1221 157.707 52.5715 156.313 53.4703C154.83 54.4141 153.482 55.695 152.269 57.3129V76.7952C152.898 76.9749 153.842 77.1996 155.1 77.4693C156.403 77.694 157.707 77.8288 159.01 77.8738H160.763C162.246 77.7839 163.459 77.5142 164.403 77.0648C165.571 76.5255 166.605 75.6716 167.504 74.5031L167.571 74.3683Z" fill="#007CCE"/>
<path d="M197.421 47.4032C199.893 47.4032 202.14 47.8077 204.163 48.6166C206.14 49.4256 207.87 50.5941 209.353 52.1221C210.747 53.5602 211.825 55.4028 212.589 57.6499C213.353 59.8521 213.735 62.2789 213.735 64.9305C213.735 67.5821 213.353 70.0089 212.589 72.2111C211.825 74.4582 210.747 76.3008 209.353 77.7389C207.87 79.267 206.14 80.4354 204.163 81.2444C202.14 82.0533 199.893 82.4578 197.421 82.4578C194.95 82.4578 192.702 82.0533 190.68 81.2444C188.703 80.4354 186.972 79.267 185.489 77.7389C184.141 76.3457 183.04 74.5031 182.186 72.2111C181.467 70.2786 181.107 67.8517 181.107 64.9305C181.107 62.0093 181.467 59.5824 182.186 57.6499C183.04 55.3579 184.141 53.5153 185.489 52.1221C186.972 50.5941 188.703 49.4256 190.68 48.6166C192.702 47.8077 194.95 47.4032 197.421 47.4032ZM197.421 77.8738C200.882 77.8738 203.399 76.7502 204.972 74.5031C206.634 72.1661 207.466 68.9977 207.466 64.9979C207.466 60.9981 206.634 57.8297 204.972 55.4927C203.399 53.2456 200.882 52.1221 197.421 52.1221C195.669 52.1221 194.186 52.3917 192.972 52.931C191.804 53.4703 190.77 54.3242 189.871 55.4927C189.017 56.6612 188.388 58.0095 187.984 59.5375C187.534 61.3352 187.309 63.1778 187.309 65.0653C187.309 66.863 187.534 68.6607 187.984 70.4584C188.388 71.9864 189.017 73.3346 189.871 74.5031C190.635 75.5368 191.669 76.3457 192.972 76.93C194.41 77.5592 195.893 77.8738 197.421 77.8738Z" fill="#007CCE"/>
<path d="M245.288 77.3345C245.827 77.4693 246.816 77.649 248.254 77.8738C249.063 78.0086 249.467 78.458 249.467 79.222V82.1208H236.052V79.222C236.052 78.5479 236.389 78.1434 237.063 78.0086C237.153 78.0086 237.333 77.9861 237.603 77.9412C237.872 77.8513 238.277 77.7614 238.816 77.6715L232.21 67.4922C232.12 67.9416 231.895 68.5259 231.535 69.2449L225.873 77.6041C226.052 77.6041 226.322 77.649 226.682 77.7389L227.895 78.0086C228.569 78.1434 228.906 78.5479 228.906 79.222V82.1208H215.491V79.222C215.491 78.5479 215.828 78.1434 216.502 78.0086C216.592 78.0086 216.772 77.9636 217.042 77.8738C217.356 77.7389 217.716 77.649 218.12 77.6041C219.199 77.4243 219.738 77.3345 219.738 77.3345L228.434 64.6609L220.277 52.7962C219.379 52.6164 218.615 52.4816 217.985 52.3917C217.401 52.3018 216.974 52.212 216.705 52.1221C216.075 51.9873 215.761 51.5828 215.761 50.9087V47.9425H229.109V50.9087C229.109 51.5828 228.749 51.9873 228.03 52.1221C227.985 52.1221 227.873 52.1446 227.693 52.1895C227.513 52.2344 227.176 52.3018 226.682 52.3917L232.681 61.6947C232.861 61.1104 233.153 60.4813 233.558 59.8071L238.546 52.4591L237.468 52.2569L236.726 52.1221C236.052 51.9873 235.715 51.5603 235.715 50.8412V47.9425H249.063V50.8412C249.063 51.5603 248.726 51.9873 248.052 52.1221C246.479 52.4367 245.288 52.6614 244.479 52.7962L236.389 64.2564L245.153 77.267L245.288 77.3345Z" fill="#007CCE"/>
<defs>
<linearGradient id="paint0_linear" x1="265.818" y1="68.1973" x2="290.541" y2="5.90644" gradientUnits="userSpaceOnUse">
<stop stop-color="#1E9AEF"/>
<stop offset="1" stop-color="#03E06B"/>
</linearGradient>
</defs>
</svg>
