<svg width="258" height="68" viewBox="0 0 258 68" fill="none" xmlns="http://www.w3.org/2000/svg">
<path fill-rule="evenodd" clip-rule="evenodd" d="M235.369 1.552L234.062 0.810547L211.441 14.0818V40.0954L232.912 52.715L234.375 53.579L235.86 52.7429L235.865 52.7406L256.218 41.2088L256.22 41.2079L256.223 41.2061L256.224 41.2055L257.56 40.4595V13.9832L256.073 13.156L256.072 13.1554L256.07 13.1543L235.374 1.55492L235.373 1.55429L235.37 1.55269L235.369 1.552ZM252.309 37.3799L237.027 46.039V28.807L252.309 20.0734V37.3799ZM234.101 6.8696L249.591 15.5496L234.396 24.2312L219.288 15.561L234.101 6.8696ZM216.687 37.0849V20.1432L231.781 28.8042V45.9554L216.687 37.0849Z" fill="#797E82"/>
<path d="M23.1765 63.5915C20.8746 66.4415 17.4401 67.8665 12.8728 67.8665C9.36514 67.8665 6.47863 66.6059 4.21327 64.0848C1.8383 61.4175 0.65081 57.9098 0.65081 53.5618C0.65081 49.3234 1.76522 45.9071 3.99404 43.3129C6.33248 40.6456 9.58437 39.312 13.7497 39.312C15.8324 39.312 18.5727 39.9696 21.9708 41.285V48.5195H19.7785C19.267 48.5195 18.9564 48.2638 18.8468 47.7522C18.8102 47.6426 18.7372 46.9484 18.6275 45.6696L18.4631 43.8609C18.0612 43.7148 17.6593 43.6052 17.2574 43.5321C16.892 43.459 16.6362 43.4042 16.4901 43.3677C15.5035 43.2215 14.4805 43.1484 13.4209 43.1484C12.4709 43.1484 11.4661 43.3859 10.4065 43.8609C9.41995 44.2994 8.5613 44.9754 7.83054 45.8888C6.4421 47.7157 5.74787 50.2734 5.74787 53.5618C5.74787 56.8502 6.47863 59.4444 7.94016 61.3444C9.36514 63.1713 11.3199 64.0848 13.8045 64.0848C16.1064 64.0848 18.1343 63.3175 19.8881 61.7829C20.1804 61.4906 20.5458 61.3444 20.9843 61.3444C21.3862 61.3444 21.6785 61.4906 21.8612 61.7829L23.1765 63.5915Z" fill="#797E82"/>
<path d="M40.195 39.312C42.2046 39.312 44.0315 39.6408 45.6757 40.2985C47.2834 40.9562 48.6901 41.9062 49.8959 43.1484C51.0285 44.3177 51.9055 45.8157 52.5266 47.6426C53.1478 49.433 53.4583 51.4061 53.4583 53.5618C53.4583 55.7176 53.1478 57.6906 52.5266 59.481C51.9055 61.3079 51.0285 62.8059 49.8959 63.9752C48.6901 65.2175 47.2834 66.1674 45.6757 66.8251C44.0315 67.4828 42.2046 67.8117 40.195 67.8117C38.1854 67.8117 36.3585 67.4828 34.7143 66.8251C33.1066 66.1674 31.6999 65.2175 30.4941 63.9752C29.398 62.8425 28.5028 61.3444 27.8086 59.481C27.224 57.9098 26.9317 55.9368 26.9317 53.5618C26.9317 51.1868 27.224 49.2138 27.8086 47.6426C28.5028 45.7792 29.398 44.2811 30.4941 43.1484C31.6999 41.9062 33.1066 40.9562 34.7143 40.2985C36.3585 39.6408 38.1854 39.312 40.195 39.312ZM40.195 64.0848C43.0084 64.0848 45.0546 63.1713 46.3334 61.3444C47.6853 59.4444 48.3613 56.8685 48.3613 53.6166C48.3613 50.3647 47.6853 47.7888 46.3334 45.8888C45.0546 44.0619 43.0084 43.1484 40.195 43.1484C38.77 43.1484 37.5643 43.3677 36.5777 43.8061C35.6277 44.2446 34.7874 44.9388 34.0566 45.8888C33.3624 46.8388 32.8508 47.9349 32.522 49.1772C32.1566 50.6388 31.9739 52.1368 31.9739 53.6714C31.9739 55.1329 32.1566 56.5945 32.522 58.056C32.8508 59.2983 33.3624 60.3944 34.0566 61.3444C34.6778 62.1848 35.5181 62.8425 36.5777 63.3175C37.747 63.829 38.9527 64.0848 40.195 64.0848Z" fill="#797E82"/>
<path d="M69.6042 39.2023C72.6734 39.2023 75.1945 40.2985 77.1675 42.4908V31.0909L73.4955 30.4332C72.9474 30.3236 72.6734 29.9947 72.6734 29.4467V27.0352H81.9906V63.4271C83.8175 63.7559 84.8771 63.9752 85.1694 64.0848C85.6809 64.1944 85.9367 64.5232 85.9367 65.0713V67.4828H79.1406C78.4829 67.4828 78.0445 67.1357 77.8252 66.4415L77.3868 63.0982C74.7926 66.2405 71.6868 67.8117 68.0696 67.8117C64.8177 67.8117 62.26 66.6059 60.3966 64.1944C58.4966 61.6733 57.5466 58.1656 57.5466 53.6714C57.5466 49.4695 58.6245 46.035 60.7802 43.3677C63.009 40.5908 65.9503 39.2023 69.6042 39.2023ZM69.7138 63.9203C72.6003 63.9203 75.0849 62.5136 77.1675 59.7002V46.3273C75.5233 44.135 73.3858 43.0388 70.7551 43.0388C68.0878 43.0388 66.06 43.9523 64.6715 45.7792C63.2831 47.6061 62.5888 50.2368 62.5888 53.6714C62.5888 58.8964 63.9408 62.1117 66.6446 63.3175C67.4849 63.6828 68.4897 63.8655 69.659 63.8655L69.7138 63.9203Z" fill="#797E82"/>
<path d="M101.362 39.312C102.97 39.312 104.486 39.586 105.911 40.1341C107.373 40.6821 108.579 41.4677 109.529 42.4908C110.625 43.66 111.429 44.9571 111.94 46.3821C112.525 48.0263 112.817 49.7801 112.817 51.6436C112.817 52.4839 112.744 52.9955 112.598 53.1782C112.415 53.4339 112.086 53.5618 111.611 53.5618H93.1961C93.1961 55.3156 93.4153 56.8502 93.8537 58.1656C94.2191 59.2983 94.8403 60.3579 95.7172 61.3444C96.521 62.2579 97.4345 62.9156 98.4575 63.3175C99.5537 63.7559 100.723 63.9752 101.965 63.9752C103.281 63.9752 104.34 63.8473 105.144 63.5915C105.911 63.3357 106.679 63.0252 107.446 62.6598C108.25 62.2579 108.798 61.9656 109.09 61.7829C109.565 61.4906 109.931 61.3444 110.186 61.3444C110.588 61.3444 110.899 61.5088 111.118 61.8377L112.488 63.6463C111.977 64.304 111.246 64.9251 110.296 65.5098C109.2 66.204 108.305 66.6607 107.61 66.8799C106.514 67.2453 105.528 67.5011 104.651 67.6472C103.555 67.8299 102.55 67.9213 101.636 67.9213C99.7364 67.9213 97.9643 67.5924 96.3201 66.9347C94.7489 66.3136 93.3422 65.3453 92.0999 64.03C90.9307 62.8242 90.0173 61.2713 89.3596 59.3714C88.7019 57.5079 88.373 55.3887 88.373 53.0137C88.373 51.1138 88.6836 49.3234 89.3048 47.6426C89.9259 45.9253 90.7845 44.4638 91.8807 43.2581C93.0134 42.0158 94.3836 41.0475 95.9912 40.3533C97.5989 39.6591 99.3893 39.312 101.362 39.312ZM101.472 42.8744C99.097 42.8744 97.2518 43.5504 95.9364 44.9023C94.5845 46.3273 93.7441 48.2272 93.4153 50.6022H108.487C108.487 49.4695 108.323 48.4465 107.994 47.533C107.592 46.4003 107.154 45.5782 106.679 45.0667C106.057 44.409 105.308 43.8792 104.432 43.4773C103.591 43.1119 102.586 42.9292 101.417 42.9292L101.472 42.8744Z" fill="#797E82"/>
<path d="M144.067 53.6166C144.067 55.9185 143.739 57.9464 143.081 59.7002C142.387 61.5271 141.51 63.0252 140.45 64.1944C139.39 65.3636 138.112 66.2771 136.614 66.9347C135.152 67.5924 133.544 67.9213 131.791 67.9213C128.685 67.9213 124.593 67.4097 119.514 66.3867V31.0909L118.308 30.9265L116.006 30.5428C115.75 30.5063 115.549 30.3967 115.403 30.214C115.257 29.9947 115.184 29.7572 115.184 29.5015V27.1448H124.446V43.7513C125.616 42.3994 126.931 41.3215 128.393 40.5177C129.854 39.7139 131.535 39.312 133.435 39.312C135.079 39.312 136.54 39.6043 137.819 40.1889C139.098 40.7735 140.194 41.6869 141.108 42.9292C142.021 44.2081 142.715 45.6696 143.19 47.3138C143.702 49.1407 143.958 51.1868 143.958 53.4522H144.067V53.6166ZM136.888 61.2348C137.582 60.3214 138.112 59.2252 138.477 57.9464C138.842 56.5945 139.025 55.206 139.025 53.781V53.3426C139.025 51.4426 138.879 49.908 138.587 48.7388C138.258 47.4965 137.783 46.4369 137.162 45.56C136.504 44.683 135.773 44.0619 134.969 43.6965C134.129 43.3311 133.124 43.1484 131.955 43.1484C130.274 43.1484 128.868 43.5138 127.735 44.2446C126.529 45.0119 125.433 46.0532 124.446 47.3686V63.2079C124.958 63.354 125.725 63.5367 126.748 63.7559C127.808 63.9386 128.868 64.0482 129.927 64.0848H131.352C132.558 64.0117 133.544 63.7925 134.312 63.4271C135.262 62.9886 136.102 62.2944 136.833 61.3444L136.888 61.2348Z" fill="#797E82"/>
<path d="M161.156 39.312C163.166 39.312 164.993 39.6408 166.637 40.2985C168.244 40.9562 169.651 41.9062 170.857 43.1484C171.99 44.3177 172.866 45.8157 173.488 47.6426C174.109 49.433 174.419 51.4061 174.419 53.5618C174.419 55.7176 174.109 57.6906 173.488 59.481C172.866 61.3079 171.99 62.8059 170.857 63.9752C169.651 65.2175 168.244 66.1674 166.637 66.8251C164.993 67.4828 163.166 67.8117 161.156 67.8117C159.146 67.8117 157.32 67.4828 155.675 66.8251C154.068 66.1674 152.661 65.2175 151.455 63.9752C150.359 62.8425 149.464 61.3444 148.77 59.481C148.185 57.9098 147.893 55.9368 147.893 53.5618C147.893 51.1868 148.185 49.2138 148.77 47.6426C149.464 45.7792 150.359 44.2811 151.455 43.1484C152.661 41.9062 154.068 40.9562 155.675 40.2985C157.32 39.6408 159.146 39.312 161.156 39.312ZM161.156 64.0848C163.969 64.0848 166.016 63.1713 167.294 61.3444C168.646 59.4444 169.322 56.8685 169.322 53.6166C169.322 50.3647 168.646 47.7888 167.294 45.8888C166.016 44.0619 163.969 43.1484 161.156 43.1484C159.731 43.1484 158.525 43.3677 157.539 43.8061C156.589 44.2446 155.748 44.9388 155.018 45.8888C154.323 46.8388 153.812 47.9349 153.483 49.1772C153.118 50.6388 152.935 52.1368 152.935 53.6714C152.935 55.1329 153.118 56.5945 153.483 58.056C153.812 59.2983 154.323 60.3944 155.018 61.3444C155.639 62.1848 156.479 62.8425 157.539 63.3175C158.708 63.829 159.914 64.0848 161.156 64.0848Z" fill="#797E82"/>
<path d="M200.072 63.6463C200.51 63.7559 201.314 63.9021 202.483 64.0848C203.141 64.1944 203.47 64.5598 203.47 65.1809V67.5376H192.563V65.1809C192.563 64.6328 192.837 64.304 193.385 64.1944C193.458 64.1944 193.604 64.1761 193.824 64.1396C194.043 64.0665 194.372 63.9934 194.81 63.9203L189.439 55.6445C189.366 56.0099 189.183 56.4848 188.891 57.0695L184.287 63.8655C184.433 63.8655 184.653 63.9021 184.945 63.9752L185.931 64.1944C186.479 64.304 186.754 64.6328 186.754 65.1809V67.5376H175.847V65.1809C175.847 64.6328 176.121 64.304 176.669 64.1944C176.742 64.1944 176.888 64.1578 177.107 64.0848C177.363 63.9752 177.656 63.9021 177.984 63.8655C178.861 63.7194 179.3 63.6463 179.3 63.6463L186.37 53.3426L179.738 43.6965C179.007 43.5504 178.386 43.4408 177.875 43.3677C177.4 43.2946 177.053 43.2215 176.833 43.1484C176.322 43.0388 176.066 42.71 176.066 42.1619V39.7504H186.918V42.1619C186.918 42.71 186.626 43.0388 186.041 43.1484C186.004 43.1484 185.913 43.1667 185.767 43.2033C185.621 43.2398 185.347 43.2946 184.945 43.3677L189.823 50.9311C189.969 50.4561 190.206 49.9445 190.535 49.3965L194.591 43.4225L193.714 43.2581L193.111 43.1484C192.563 43.0388 192.289 42.6917 192.289 42.1071V39.7504H203.141V42.1071C203.141 42.6917 202.867 43.0388 202.319 43.1484C201.04 43.4042 200.072 43.5869 199.414 43.6965L192.837 53.0137L199.962 63.5915L200.072 63.6463Z" fill="#797E82"/>
</svg>
