<svg width="74" height="60" viewBox="0 0 74 60" fill="none" xmlns="http://www.w3.org/2000/svg">
<path d="M42.162 17.2527C41.2699 19.3716 39.2625 26.1743 42.9427 40.5604C43.0542 41.0065 43.6118 42.0101 44.8385 42.0101C46.0652 42.0101 46.6228 41.118 46.7344 40.5604C50.6376 25.9513 48.6302 19.2601 47.6265 17.1412C48.6302 16.249 49.0763 15.2454 49.0763 15.2454C50.8606 12.0113 48.4072 9.22328 47.6265 8.33112C46.6228 7.21592 47.1804 5.43161 47.1804 5.43161L47.515 4.31641H46.3998C46.1768 4.31641 41.4929 4.42793 40.0432 10.0039C39.0395 13.9071 40.7123 16.249 42.162 17.2527ZM41.6044 10.45C42.3851 7.55048 44.1694 6.5468 45.2846 6.21224C45.1731 7.1044 45.2846 8.44264 46.2883 9.44632C47.9611 11.3422 48.4072 12.9034 47.515 14.4647C47.515 14.4647 47.0689 15.4684 46.0652 16.1375L45.2846 16.5836L45.7307 17.3642C45.7307 17.4758 49.5224 23.2748 44.95 40.1143C44.95 40.3373 44.727 40.3373 44.727 40.3373C44.6155 40.3373 44.504 40.2258 44.504 40.1143C40.1547 23.2748 43.8348 17.4758 43.8348 17.3642L44.3924 16.5836L43.5003 16.249C43.3888 16.1375 40.4892 14.7993 41.6044 10.45Z" fill="#151515"/>
<path d="M45.619 28.6309H43.9462V30.3037H45.619V28.6309Z" fill="#151515"/>
<path d="M45.619 24.7305H43.9462V26.4033H45.619V24.7305Z" fill="#151515"/>
<path d="M70.041 0.859375H3.12905C1.45625 0.859375 0.118011 2.30913 0.118011 3.98193V48.4784C0.118011 50.1512 1.45625 51.6009 3.24057 51.6009H27.4404L23.2026 57.9576H18.7418V59.6304H54.7628V57.9576H50.302L46.0642 51.6009H70.264C71.9368 51.6009 73.3866 50.2627 73.3866 48.4784V3.98193C73.1635 2.30913 71.7138 0.859375 70.041 0.859375ZM3.12905 2.53217H70.041C70.8216 2.53217 71.4907 3.20129 71.4907 3.98193V43.5715H1.79081V3.98193C1.79081 3.20129 2.34841 2.53217 3.12905 2.53217ZM48.0716 57.846H25.0985L29.3362 51.4894H43.8338L48.0716 57.846ZM70.041 49.8166H3.12905C2.34841 49.8166 1.79081 49.1475 1.79081 48.3668V45.2443H71.4907V48.4784C71.4907 49.259 70.8216 49.8166 70.041 49.8166Z" fill="#151515"/>
<path d="M53.0907 35.8801C53.0907 38.222 54.5404 40.4524 56.6593 41.4561L57.886 42.0136V38.222L59.2243 37.1068L60.5625 38.222V41.9021L61.7892 41.3445C63.9081 40.3409 65.2463 38.222 65.2463 35.8801C65.2463 33.8727 64.2427 31.9769 62.4583 30.8617V15.5834C64.1311 14.4682 65.2463 12.5724 65.2463 10.565C65.2463 8.22312 63.9081 6.10425 61.7892 5.10057L60.5625 4.54297V8.22313L59.2243 9.33832L57.886 8.22313V4.54297L56.6593 5.10057C54.4289 6.10425 53.0907 8.22312 53.0907 10.6766C53.0907 12.6839 54.0944 14.5798 55.8787 15.695V30.7501C54.0944 31.8653 53.0907 33.7612 53.0907 35.8801ZM57.1054 14.4682C55.6556 13.6876 54.7635 12.2378 54.7635 10.6766C54.7635 9.44984 55.3211 8.22313 56.2132 7.44249V9.11528L59.2243 11.6802L62.2353 9.11528V7.55401C63.0159 8.33464 63.5735 9.44984 63.5735 10.6766C63.5735 12.2378 62.6814 13.7991 61.2316 14.4682L60.7855 14.6913V31.7538L61.2316 31.9769C62.6814 32.7575 63.5735 34.2073 63.5735 35.7685C63.5735 36.9953 63.1275 38.1105 62.2353 38.8911V37.3298L59.2243 34.7649L56.2132 37.3298V39.0026C55.3211 38.222 54.7635 36.9953 54.7635 35.7685C54.7635 34.2073 55.6556 32.646 57.1054 31.9769L57.5515 31.7538V14.6913L57.1054 14.4682Z" fill="#151515"/>
<path d="M32.5696 5.6582H4.80119V22.2747H32.4581V5.6582H32.5696ZM16.9569 13.9107L6.47398 19.9328V8.00012L16.9569 13.9107ZM8.8159 7.331H28.5549L18.7412 13.0185L8.8159 7.331ZM18.7412 14.9144L28.5549 20.6019H8.8159L18.7412 14.9144ZM20.414 13.9107L30.8968 7.8886V19.9328L20.414 13.9107Z" fill="#151515"/>
<path d="M17.626 24.3906H4.80119V40.338H17.5145V24.3906H17.626ZM15.9532 38.6652H6.47398V26.0634H15.9532V38.6652Z" fill="#151515"/>
<path d="M19.8568 40.338H32.5701V24.3906H19.8568V40.338ZM21.5296 26.0634H30.8973V38.6652H21.5296V26.0634Z" fill="#151515"/>
</svg>
