<svg width="74" height="73" viewBox="0 0 74 73" fill="none" xmlns="http://www.w3.org/2000/svg">
<path d="M73.2765 37.2449C73.2765 36.4643 72.9419 35.6836 72.3843 35.126C71.2691 34.0108 69.2618 34.0108 68.0351 35.126L64.578 38.5832V4.012H56.9946C56.66 2.00464 54.8757 0.443359 52.7568 0.443359C50.638 0.443359 48.8537 2.00464 48.5191 4.012H46.5117C46.1772 2.00464 44.3929 0.443359 42.274 0.443359C40.1551 0.443359 38.3708 2.00464 38.0362 4.012H36.0289C35.6943 2.00464 33.91 0.443359 31.7911 0.443359C29.6722 0.443359 27.8879 2.00464 27.5534 4.012H25.546C25.2114 2.00464 23.4271 0.443359 21.3082 0.443359C19.1894 0.443359 17.405 2.00464 17.0705 4.012H9.37561V36.1297L0.788582 28.6579V63.1175H9.37561V72.8198H64.578V47.1702L72.3843 39.3638C72.9419 38.8062 73.2765 38.0256 73.2765 37.2449ZM54.7642 50.7388L56.7716 52.7462L55.7679 53.7499L52.7568 54.7535L53.7605 51.7425L54.7642 50.7388ZM57.8868 51.631L55.8794 49.6236L66.3623 39.1408L68.3696 41.1481L57.8868 51.631ZM52.7568 2.22768C53.9836 2.22768 54.9872 3.00832 55.3218 4.12352H50.1919C50.638 3.00832 51.6416 2.22768 52.7568 2.22768ZM42.274 2.22768C43.5007 2.22768 44.5044 3.00832 44.8389 4.12352H39.709C40.0436 3.00832 41.0473 2.22768 42.274 2.22768ZM31.6796 2.22768C32.9063 2.22768 33.91 3.00832 34.2445 4.12352H29.1146C29.5607 3.00832 30.5644 2.22768 31.6796 2.22768ZM21.1967 2.22768C22.4234 2.22768 23.4271 3.00832 23.7617 4.12352H18.6318C18.9663 3.00832 19.97 2.22768 21.1967 2.22768ZM2.46138 57.43H5.13786V55.7572H2.46138V52.5231H4.13418V50.8503H2.46138V47.6163H5.13786V45.9435H2.46138V42.8209H4.13418V41.1481H2.46138V37.914H5.13786V36.2412H2.46138V32.338L36.1404 61.5563H30.6759V58.8798H29.0031V61.5563H24.8769V59.8835H23.0926V61.5563H18.9663V58.8798H17.2935V61.5563H13.1673V59.8835H11.4945V61.5563H7.36826V58.8798H5.69546V61.5563H2.34986V57.43H2.46138ZM62.9052 71.147H11.0484V63.1175H40.6012L11.0484 37.468V5.68479H23.7617C23.4271 6.79999 22.4234 7.58063 21.1967 7.58063V9.25343C23.3156 9.25343 25.0999 7.69215 25.4345 5.68479H34.2445C33.91 6.79999 32.9063 7.58063 31.6796 7.58063V9.25343C33.7985 9.25343 35.5828 7.69215 35.9173 5.68479H44.7274C44.3929 6.79999 43.3892 7.58063 42.1625 7.58063V9.25343C44.2813 9.25343 46.0657 7.69215 46.4002 5.68479H55.2103C54.8757 6.79999 53.872 7.58063 52.6453 7.58063V9.25343C54.7642 9.25343 56.5485 7.69215 56.8831 5.68479H62.7936V40.256L52.1992 50.8503L50.1919 57.3185L56.66 55.1996L62.9052 48.9545V71.147ZM71.2691 38.2486L69.4848 40.0329L67.4775 38.0256L69.2618 36.2412C69.8194 35.6836 70.7115 35.6836 71.2691 36.2412C71.4922 36.4643 71.7152 36.9104 71.7152 37.2449C71.6037 37.5795 71.4922 38.0256 71.2691 38.2486Z" fill="#151515"/>
<path d="M7.03188 41.3711V56.4263H24.3175L7.03188 41.3711ZM8.70467 44.9397L19.8567 54.642H8.70467V44.9397Z" fill="#151515"/>
<path d="M24.6533 13.3828C19.5234 13.3828 15.3971 17.509 15.3971 22.639C15.3971 27.7689 19.5234 31.8951 24.6533 31.8951C25.88 31.8951 27.1067 31.6721 28.2219 31.226V42.8241H48.407V22.639H34.021C33.9094 17.509 29.7832 13.3828 24.6533 13.3828ZM24.6533 30.2223C20.4155 30.2223 17.0699 26.7652 17.0699 22.639C17.0699 18.4012 20.527 15.0556 24.6533 15.0556C28.891 15.0556 32.2366 18.4012 32.2366 22.639H28.1104V29.4417C27.1067 29.9993 25.88 30.2223 24.6533 30.2223ZM46.7342 41.1513H29.8947V30.3338V24.3118H33.7979H46.7342V41.1513Z" fill="#151515"/>
</svg>
