<svg width="74" height="51" viewBox="0 0 74 51" fill="none" xmlns="http://www.w3.org/2000/svg">
<path d="M69.7978 42.9584V0.134766H4.67022V42.9584H0.767029V46.304L3.88959 50.6533H70.8015L73.9241 46.304V42.9584H69.7978ZM68.125 1.80756V6.60292H6.34302V1.80756H68.125ZM6.34302 8.38724H68.125V42.9584H6.34302V8.38724ZM72.1398 45.7464L69.9094 48.869H4.67022L2.43983 45.7464V44.6312H72.1398V45.7464Z" fill="#151515"/>
<path d="M17.8319 3.36914H16.1591V5.04194H17.8319V3.36914Z" fill="#151515"/>
<path d="M10.4692 3.36914H8.79639V5.04194H10.4692V3.36914Z" fill="#151515"/>
<path d="M14.1496 3.36914H12.4768V5.04194H14.1496V3.36914Z" fill="#151515"/>
<path d="M32.3276 11.5098H9.57754V27.1225H32.3276V11.5098ZM19.3913 19.3162L11.2503 24.7806V13.9632L19.3913 19.3162ZM13.1462 13.1826H28.6474L20.9526 18.3125L13.1462 13.1826ZM20.9526 20.3198L28.6474 25.4498H13.1462L20.9526 20.3198ZM22.4023 19.3162L30.5433 13.8517V24.6691L22.4023 19.3162Z" fill="#151515"/>
<path d="M34.7824 27.1225H64.8928V11.5098H34.7824V27.1225ZM36.4552 13.1826H63.22V25.4498H36.4552V13.1826Z" fill="#151515"/>
<path d="M9.57754 38.8323H64.8914V29.5762H9.57754V38.8323ZM11.2503 31.249H63.2186V37.1595H11.2503V31.249Z" fill="#151515"/>
</svg>
