<svg width="282" height="229" viewBox="0 0 282 229" fill="none" xmlns="http://www.w3.org/2000/svg">
<g opacity="0.9" filter="url(#filter0_di)">
<path d="M85.129 170.488L74.8114 168.888V140.967H85.129L85.6344 137.219H74.8114L74.8956 132.671C74.9798 128.796 75.4712 126.101 76.3696 124.585C77.2961 123.041 78.6156 122.269 80.3282 122.269C81.5073 122.269 82.7707 122.788 84.1183 123.827C85.4659 124.866 86.6732 126.045 87.74 127.364C88.5542 127.055 89.3824 126.438 90.2247 125.511C91.0669 124.557 91.4881 123.602 91.4881 122.648C91.4881 121.047 90.7581 119.84 89.2982 119.026C87.8664 118.212 85.9713 117.805 83.613 117.805C81.4793 117.805 79.2754 118.535 77.0013 119.995C74.7272 121.454 72.7338 123.63 71.0213 126.522C69.3367 129.414 68.2699 132.895 67.8207 136.966L62.0091 137.892L61.5038 140.967H67.7786V169.098L61.3774 170.909L60.8721 173.983H84.8342L85.129 170.488Z" fill="#6A442E"/>
<path d="M98.8578 174.994C101.89 174.994 104.361 174.306 106.27 172.93C108.207 171.527 109.583 170.039 110.397 168.466H110.86V169.098C110.86 170.025 111.07 170.923 111.492 171.793C111.941 172.636 112.657 173.337 113.639 173.899C114.622 174.46 115.871 174.741 117.387 174.741C118.567 174.741 119.83 174.587 121.178 174.278C122.048 174.109 122.694 173.997 123.115 173.941L123.662 170.319L121.557 169.94C120.237 169.716 119.24 169.421 118.567 169.056C117.921 168.663 117.472 168.115 117.219 167.414C116.966 166.684 116.84 165.645 116.84 164.297V149.01C116.84 144.518 116.026 141.247 114.397 139.198C112.797 137.12 110.144 136.082 106.438 136.082C104.473 136.082 102.353 136.489 100.079 137.303C97.805 138.117 95.8959 139.198 94.3517 140.546C92.8076 141.865 92.0355 143.255 92.0355 144.715C92.0355 146.54 92.597 147.719 93.72 148.252C94.843 148.786 96.2328 149.052 97.8892 149.052C98.1419 146.217 98.3524 144.266 98.5209 143.199C98.7174 142.132 99.1105 141.332 99.7 140.798C100.29 140.265 101.244 139.998 102.564 139.998C105.231 139.998 107.14 141.065 108.291 143.199C109.442 145.304 110.018 147.986 110.018 151.242V153.558C105.638 153.867 101.988 154.681 99.0683 156.001C96.1766 157.292 94.0429 158.893 92.6672 160.802C91.2915 162.711 90.6037 164.746 90.6037 166.908C90.6037 168.565 90.9687 170.011 91.6986 171.246C92.4567 172.453 93.4674 173.38 94.7308 174.025C95.9941 174.671 97.3698 174.994 98.8578 174.994ZM110.018 166.066C109.175 166.992 108.08 167.849 106.733 168.635C105.385 169.421 104.038 169.814 102.69 169.814C101.707 169.814 100.851 169.561 100.121 169.056C99.4193 168.551 98.8859 167.919 98.5209 167.161C98.1559 166.403 97.9734 165.659 97.9734 164.929C97.9734 162.767 98.8859 160.956 100.711 159.496C102.536 158.008 105.638 156.829 110.018 155.959V166.066Z" fill="#6A442E"/>
<path d="M148.93 170.319L139.118 168.888V152.758C139.398 150.765 139.946 149.08 140.76 147.705C141.602 146.329 142.529 145.304 143.539 144.631C144.55 143.929 145.477 143.578 146.319 143.578C147.133 143.578 147.989 143.732 148.888 144.041C149.786 144.322 150.642 144.715 151.457 145.22C153.057 143.873 153.857 142.314 153.857 140.546C153.857 139.282 153.422 138.187 152.552 137.261C151.681 136.306 150.558 135.829 149.183 135.829C147.919 135.829 146.642 136.264 145.35 137.134C144.059 137.977 142.838 139.254 141.686 140.967C140.535 142.679 139.595 144.757 138.865 147.199H138.065L138.907 137.513L137.938 136.503L125.852 138.061L125.263 141.262L132.127 143.325V169.182L125.684 170.867L125.263 173.983H148.509L148.93 170.319Z" fill="#6A442E"/>
<path d="M176.261 170.656L170.239 169.182V145.641C171.278 144.462 172.527 143.564 173.987 142.946C175.447 142.3 176.963 141.977 178.535 141.977C179.883 141.977 181.104 142.286 182.199 142.904C183.294 143.522 184.15 144.392 184.768 145.515C185.414 146.638 185.736 147.915 185.736 149.347V169.182L180.22 170.867L179.756 173.983H198.412L198.834 170.656L192.601 169.182V146.189C193.836 144.869 195.057 143.844 196.265 143.114C197.5 142.356 198.96 141.977 200.644 141.977C202.834 141.977 204.561 142.679 205.824 144.083C207.088 145.487 207.719 147.242 207.719 149.347V169.224L202.455 170.909L202.16 173.983H220.058L220.606 170.656L214.794 169.14V148.336C214.794 140.503 211.481 136.587 204.856 136.587C202.357 136.587 200.027 137.219 197.865 138.482C195.731 139.717 193.92 141.29 192.432 143.199H191.927C191.309 140.812 190.13 139.058 188.39 137.935C186.677 136.812 184.754 136.25 182.62 136.25C180.149 136.25 177.791 136.882 175.545 138.145C173.327 139.409 171.474 140.967 169.986 142.82H169.607L170.365 137.513L169.607 136.629L156.805 138.398L156.384 141.556L163.122 143.704V169.182L156.805 170.867L156.384 173.983H175.798L176.261 170.656Z" fill="#6A442E"/>
</g>
<g filter="url(#filter1_i)">
<path fill-rule="evenodd" clip-rule="evenodd" d="M223.371 106.61C260.167 110.803 282.474 113.344 281.989 96.5422C282.772 70.9135 244.079 0.794922 141 0.794922C37.9212 0.794922 -0.741205 70.9135 0.0107375 96.5422C-0.455211 113.355 21.8765 110.811 58.7087 106.615C81.3158 104.04 109.386 100.842 141 101.117C172.648 100.83 200.748 104.032 223.371 106.61ZM173.75 43.5595C174.553 43.5595 175.305 43.3589 176.008 42.9576C176.735 42.5311 177.299 41.9668 177.701 41.2644C178.127 40.5621 178.34 39.7971 178.34 38.9693C178.34 37.7653 177.889 36.7494 176.986 35.9217C176.083 35.0939 175.004 34.6801 173.75 34.6801C172.546 34.6801 171.493 35.0939 170.59 35.9217C169.712 36.7244 169.273 37.7151 169.273 38.8941C169.273 39.7218 169.473 40.4994 169.875 41.2268C170.276 41.9291 170.815 42.4935 171.493 42.9199C172.195 43.3463 172.947 43.5595 173.75 43.5595ZM182.855 83.8182L183.269 80.8082L177.249 79.4537V51.4608L176.309 50.5202L165.736 51.3855L165.247 54.245L170.928 56.3144V79.4537L165.247 80.8458L164.795 83.8182H182.855ZM145.644 80.8082L145.193 83.8182H127.208L127.622 80.8458L133.379 79.4537V41.0011L127.434 39.0069L127.885 36.1474L138.721 35.2821L139.662 36.2227V79.4537L145.644 80.8082ZM150.009 79.9804C148.629 78.4253 146.798 76.1051 144.516 73.0198L140.565 67.5642V66.8117L150.31 54.5836L145.306 53.0786L145.682 50.2192H161.71L161.183 53.0034L155.577 54.5836L146.66 65.4949L149.633 69.295C150.134 69.897 151 71.0257 152.229 72.6812C153.734 74.6628 154.913 76.1427 155.765 77.1209C156.643 78.0992 157.559 78.9019 158.512 79.5289C159.49 80.156 160.607 80.5448 161.861 80.6953L163.366 80.9211L162.952 83.8182C161.171 84.2948 159.678 84.533 158.474 84.533C156.844 84.533 155.364 84.1693 154.035 83.4419C152.73 82.6894 151.388 81.5356 150.009 79.9804ZM54.6674 89.1609C52.7359 91.2428 49.8263 93.5505 45.9384 96.0839L43.9066 92.7353C46.9668 89.8507 49.2118 87.1292 50.6415 84.5707C52.0963 82.0373 52.8237 79.3157 52.8237 76.4061V41.4526L46.0136 39.8723L46.3899 37.0128H66.8954L66.5192 39.8723L60.123 41.3021V69.3326C60.0979 74.4747 59.6589 78.5507 58.8061 81.5607C57.9783 84.5456 56.5988 87.079 54.6674 89.1609ZM82.0959 82.8775C80.3902 84.1066 78.1829 84.7212 75.4739 84.7212C74.1445 84.7212 72.9154 84.4327 71.7867 83.8558C70.6579 83.2789 69.7549 82.4511 69.0777 81.3726C68.4255 80.2689 68.0994 78.9771 68.0994 77.4972C68.0994 75.5658 68.714 73.7472 69.9431 72.0416C71.1721 70.3359 73.0785 68.9062 75.662 67.7523C78.2707 66.5734 81.5315 65.846 85.4445 65.5701V63.5007C85.4445 60.5911 84.9303 58.1956 83.9019 56.3144C82.8735 54.4081 81.1678 53.4549 78.7849 53.4549C77.606 53.4549 76.7532 53.6932 76.2264 54.1698C75.6997 54.6463 75.3485 55.3612 75.1729 56.3144C75.0224 57.2675 74.8343 59.0108 74.6085 61.5442C73.1286 61.5442 71.887 61.306 70.8837 60.8294C69.8804 60.3528 69.3787 59.2993 69.3787 57.6689C69.3787 56.3646 70.0685 55.1229 71.4481 53.944C72.8276 52.74 74.5333 51.7743 76.565 51.0469C78.5968 50.3195 80.4906 49.9558 82.2464 49.9558C85.5574 49.9558 87.9278 50.8839 89.3575 52.74C90.8123 54.5711 91.5397 57.4933 91.5397 61.5066V75.1645C91.5397 76.3684 91.6526 77.2965 91.8784 77.9487C92.1041 78.5758 92.5055 79.0649 93.0824 79.4161C93.6844 79.7421 94.5748 80.0055 95.7537 80.2062L97.635 80.5448L97.1459 83.7805C96.7696 83.8307 96.1927 83.931 95.4151 84.0816C94.2111 84.3575 93.0824 84.4954 92.0289 84.4954C90.6744 84.4954 89.5582 84.2446 88.6803 83.7429C87.8023 83.2413 87.1627 82.6142 86.7614 81.8617C86.3851 81.0841 86.197 80.2814 86.197 79.4537V78.8893H85.7831C85.0557 80.294 83.8266 81.6234 82.0959 82.8775ZM82.5098 79.0398C83.7138 78.3375 84.692 77.5724 85.4445 76.7447V67.7147C81.5315 68.4923 78.7598 69.5458 77.1294 70.8752C75.499 72.1795 74.6838 73.7974 74.6838 75.7288C74.6838 76.381 74.8468 77.0457 75.1729 77.7229C75.499 78.4002 75.9756 78.9646 76.6027 79.4161C77.2548 79.8676 78.0199 80.0933 78.8978 80.0933C80.1018 80.0933 81.3058 79.7421 82.5098 79.0398ZM114.303 84.9469C116.636 84.9469 118.893 84.4954 121.075 83.5924C123.283 82.6643 124.913 81.5732 125.967 80.3191L125.026 78.1368C123.897 78.8642 122.768 79.4286 121.64 79.8299C120.511 80.2313 119.106 80.4319 117.426 80.4319C114.993 80.4319 112.936 79.6042 111.255 77.9487C109.575 76.2932 108.32 74.2489 107.493 71.8158C106.665 69.3828 106.251 67.0249 106.251 64.7424C106.251 62.4849 106.552 60.5158 107.154 58.8353C107.781 57.1296 108.647 55.8127 109.75 54.8846C110.879 53.9566 112.183 53.4925 113.663 53.4925C115.118 53.4925 116.297 54.082 117.2 55.2609C118.128 56.4147 118.968 57.8821 119.721 59.663C121.251 59.5627 122.43 59.1613 123.258 58.459C124.085 57.7567 124.499 56.8411 124.499 55.7124C124.499 54.684 124.161 53.7308 123.483 52.8529C122.831 51.975 121.828 51.2727 120.473 50.7459C119.119 50.2192 117.438 49.9558 115.432 49.9558C112.672 49.9558 110.064 50.7208 107.606 52.2509C105.173 53.7559 103.203 55.9005 101.698 58.6848C100.193 61.4439 99.441 64.6169 99.441 68.2038C99.441 71.2138 100.056 73.9981 101.285 76.5566C102.514 79.1151 104.257 81.1593 106.514 82.6894C108.772 84.1944 111.368 84.9469 114.303 84.9469ZM206.747 83.6301C204.615 84.508 202.32 84.9469 199.862 84.9469C197.429 84.9469 195.121 84.2948 192.939 82.9904C190.782 81.661 189.038 79.692 187.709 77.0833C186.38 74.4747 185.715 71.3518 185.715 67.7147C185.715 64.1278 186.467 60.9924 187.972 58.3085C189.502 55.6246 191.459 53.5678 193.842 52.138C196.225 50.7083 198.67 49.9934 201.179 49.9934C203.035 49.9934 204.728 50.4574 206.258 51.3855C207.788 52.2885 208.992 53.643 209.87 55.449C210.773 57.2299 211.225 59.3996 211.225 61.9581C211.225 62.535 211.162 63.3377 211.036 64.3661C210.911 65.3694 210.773 66.1972 210.623 66.8493L192.412 67.0751C192.512 69.1821 192.964 71.2264 193.767 73.208C194.569 75.1895 195.736 76.8199 197.266 78.0992C198.821 79.3534 200.702 79.9804 202.909 79.9804C204.113 79.9804 205.067 79.9554 205.769 79.9052C206.471 79.8299 207.286 79.6418 208.215 79.3408C209.143 79.0398 210.221 78.5632 211.45 77.9111L212.24 79.9052C210.735 81.4854 208.904 82.7271 206.747 83.6301ZM204.527 60.6789C204.527 56.0134 202.797 53.6806 199.335 53.6806C198.282 53.6806 197.253 54.0694 196.25 54.847C195.246 55.5995 194.394 56.7659 193.691 58.3461C193.014 59.9013 192.613 61.8327 192.487 64.1404L204.302 63.275C204.377 62.9991 204.427 62.5977 204.452 62.071C204.502 61.5192 204.527 61.0551 204.527 60.6789ZM217.809 50.2568L221.308 49.8429L222.662 35.4326L215.777 34.8306L217.809 50.2568ZM243.168 83.8558C241.387 84.6835 239.531 85.0974 237.6 85.0974C235.442 85.0974 233.536 84.8215 231.881 84.2697C230.225 83.7429 228.946 83.028 228.043 82.125C227.14 81.2221 226.688 80.2689 226.688 79.2656C226.688 77.8609 227.102 76.6569 227.93 75.6536C228.758 74.6502 229.874 74.0984 231.279 73.9981C232.106 76.4562 233.172 78.3124 234.477 79.5666C235.781 80.7956 237.211 81.4102 238.766 81.4102C240.221 81.4102 241.412 81.1092 242.34 80.5072C243.268 79.8801 243.732 78.9144 243.732 77.6101C243.732 76.8074 243.457 76.0674 242.905 75.3902C242.353 74.6879 241.651 74.0608 240.798 73.509C239.97 72.932 238.804 72.2172 237.299 71.3643C235.242 70.1854 233.561 69.1319 232.257 68.2038C230.978 67.2507 229.874 66.0843 228.946 64.7047C228.043 63.3252 227.591 61.7324 227.591 59.9264C227.591 58.3712 228.018 56.8286 228.871 55.2985C229.723 53.7684 230.99 52.5017 232.671 51.4984C234.376 50.47 236.421 49.9558 238.804 49.9558C240.61 49.9558 242.215 50.2568 243.62 50.8588C245.024 51.4357 246.103 52.2384 246.855 53.2668C247.633 54.2701 248.022 55.3988 248.022 56.653C248.022 58.0828 247.545 59.2491 246.592 60.1521C245.664 61.0551 244.385 61.5568 242.754 61.6571C242.303 58.7976 241.575 56.6656 240.572 55.2609C239.569 53.8311 238.34 53.1163 236.885 53.1163C235.605 53.1163 234.577 53.5552 233.799 54.4331C233.047 55.3111 232.671 56.3771 232.671 57.6313C232.671 58.6346 232.984 59.5501 233.611 60.3779C234.238 61.1805 235.016 61.8954 235.944 62.5225C236.872 63.1496 238.164 63.9272 239.819 64.8552C241.826 65.9589 243.444 66.9497 244.673 67.8276C245.927 68.7055 246.993 69.7966 247.871 71.101C248.749 72.3802 249.188 73.8601 249.188 75.5407C249.188 77.3216 248.636 78.952 247.533 80.4319C246.429 81.8868 244.974 83.0281 243.168 83.8558Z" fill="url(#paint0_radial)"/>
</g>
<path d="M25.8907 224.773V216.837L25.0498 216.705C24.8671 216.674 24.7191 216.611 24.6057 216.516C24.4987 216.422 24.4451 216.289 24.4451 216.119V215.165H25.8907V214.447C25.8907 213.893 25.9725 213.395 26.1363 212.954C26.3064 212.513 26.5457 212.139 26.8543 211.83C27.1693 211.521 27.5503 211.285 27.9975 211.121C28.4447 210.958 28.9486 210.876 29.5092 210.876C29.9564 210.876 30.3721 210.936 30.7563 211.055L30.709 212.227C30.6964 212.409 30.6114 212.523 30.4539 212.567C30.2965 212.611 30.1138 212.633 29.906 212.633C29.6288 212.633 29.38 212.664 29.1596 212.727C28.9454 212.784 28.7628 212.888 28.6116 213.039C28.4605 213.184 28.3439 213.379 28.2621 213.625C28.1865 213.864 28.1487 214.164 28.1487 214.523V215.165H30.6712V216.828H28.2243V224.773H25.8907ZM35.8597 214.929C36.5841 214.929 37.2391 215.045 37.8249 215.278C38.4169 215.511 38.9208 215.842 39.3365 216.27C39.7522 216.699 40.0735 217.221 40.3002 217.839C40.5269 218.456 40.6403 219.146 40.6403 219.908C40.6403 220.676 40.5269 221.369 40.3002 221.986C40.0735 222.604 39.7522 223.13 39.3365 223.564C38.9208 223.999 38.4169 224.333 37.8249 224.566C37.2391 224.799 36.5841 224.915 35.8597 224.915C35.1354 224.915 34.4772 224.799 33.8851 224.566C33.2931 224.333 32.786 223.999 32.364 223.564C31.9483 223.13 31.624 222.604 31.3909 221.986C31.1642 221.369 31.0508 220.676 31.0508 219.908C31.0508 219.146 31.1642 218.456 31.3909 217.839C31.624 217.221 31.9483 216.699 32.364 216.27C32.786 215.842 33.2931 215.511 33.8851 215.278C34.4772 215.045 35.1354 214.929 35.8597 214.929ZM35.8597 223.12C36.6659 223.12 37.2612 222.849 37.6454 222.308C38.0359 221.766 38.2311 220.972 38.2311 219.927C38.2311 218.881 38.0359 218.084 37.6454 217.536C37.2612 216.988 36.6659 216.714 35.8597 216.714C35.0409 216.714 34.4363 216.992 34.0457 217.546C33.6552 218.094 33.46 218.887 33.46 219.927C33.46 220.966 33.6552 221.76 34.0457 222.308C34.4363 222.849 35.0409 223.12 35.8597 223.12ZM42.0832 224.773V215.08H43.4531C43.6925 215.08 43.8594 215.124 43.9538 215.212C44.0483 215.3 44.1113 215.452 44.1428 215.666L44.2845 216.837C44.6309 216.239 45.0372 215.767 45.5033 215.42C45.9694 215.074 46.4922 214.9 47.0716 214.9C47.5503 214.9 47.9471 215.011 48.2621 215.231L47.9597 216.979C47.9408 217.092 47.8999 217.174 47.8369 217.225C47.7739 217.269 47.6889 217.291 47.5818 217.291C47.4873 217.291 47.3582 217.269 47.1944 217.225C47.0307 217.181 46.8134 217.158 46.5425 217.158C46.0576 217.158 45.6419 217.294 45.2954 217.565C44.949 217.829 44.6561 218.22 44.4168 218.736V224.773H42.0832ZM53.11 224.773V216.837L52.2691 216.705C52.0864 216.674 51.9384 216.611 51.8251 216.516C51.718 216.422 51.6644 216.289 51.6644 216.119V215.165H53.11V214.447C53.11 213.893 53.1918 213.395 53.3556 212.954C53.5257 212.513 53.765 212.139 54.0736 211.83C54.3886 211.521 54.7696 211.285 55.2168 211.121C55.664 210.958 56.1679 210.876 56.7285 210.876C57.1757 210.876 57.5914 210.936 57.9756 211.055L57.9284 212.227C57.9158 212.409 57.8307 212.523 57.6733 212.567C57.5158 212.611 57.3331 212.633 57.1253 212.633C56.8482 212.633 56.5994 212.664 56.3789 212.727C56.1648 212.784 55.9821 212.888 55.8309 213.039C55.6798 213.184 55.5632 213.379 55.4814 213.625C55.4058 213.864 55.368 214.164 55.368 214.523V215.165H57.8906V216.828H55.4436V224.773H53.11ZM58.9409 224.773V215.08H60.3108C60.5502 215.08 60.7171 215.124 60.8116 215.212C60.906 215.3 60.969 215.452 61.0005 215.666L61.1422 216.837C61.4887 216.239 61.8949 215.767 62.361 215.42C62.8271 215.074 63.3499 214.9 63.9293 214.9C64.408 214.9 64.8048 215.011 65.1198 215.231L64.8174 216.979C64.7985 217.092 64.7576 217.174 64.6946 217.225C64.6316 217.269 64.5466 217.291 64.4395 217.291C64.345 217.291 64.2159 217.269 64.0522 217.225C63.8884 217.181 63.6711 217.158 63.4003 217.158C62.9153 217.158 62.4996 217.294 62.1531 217.565C61.8067 217.829 61.5138 218.22 61.2745 218.736V224.773H58.9409ZM70.2821 214.929C70.8931 214.929 71.4536 215.026 71.9638 215.222C72.4803 215.417 72.9243 215.704 73.296 216.081C73.6676 216.453 73.9573 216.913 74.1652 217.461C74.373 218.003 74.4769 218.623 74.4769 219.322C74.4769 219.498 74.4675 219.646 74.4486 219.766C74.436 219.879 74.4077 219.971 74.3636 220.04C74.3258 220.103 74.2722 220.15 74.203 220.182C74.1337 220.207 74.0455 220.22 73.9384 220.22H67.9485C68.0178 221.215 68.2855 221.945 68.7516 222.411C69.2177 222.878 69.8349 223.111 70.6033 223.111C70.9812 223.111 71.3056 223.067 71.5765 222.978C71.8536 222.89 72.0929 222.793 72.2945 222.685C72.5023 222.578 72.6819 222.481 72.833 222.393C72.9905 222.304 73.1416 222.26 73.2865 222.26C73.381 222.26 73.4629 222.279 73.5322 222.317C73.6014 222.355 73.6613 222.408 73.7117 222.478L74.3919 223.328C74.1337 223.63 73.8439 223.885 73.5227 224.093C73.2015 224.295 72.8645 224.459 72.5118 224.584C72.1654 224.704 71.8095 224.789 71.4442 224.84C71.0852 224.89 70.7356 224.915 70.3955 224.915C69.7215 224.915 69.0948 224.805 68.5154 224.584C67.9359 224.358 67.432 224.027 67.0037 223.592C66.5754 223.152 66.2384 222.61 65.9928 221.967C65.7472 221.319 65.6243 220.569 65.6243 219.719C65.6243 219.058 65.7314 218.437 65.9456 217.858C66.1597 217.272 66.4652 216.765 66.862 216.337C67.2651 215.902 67.7532 215.559 68.3264 215.307C68.9059 215.055 69.5578 214.929 70.2821 214.929ZM70.3293 216.601C69.6491 216.601 69.1169 216.793 68.7327 217.177C68.3485 217.562 68.1028 218.106 67.9957 218.812H72.3795C72.3795 218.51 72.3386 218.226 72.2567 217.962C72.1748 217.691 72.0489 217.455 71.8788 217.253C71.7087 217.051 71.4946 216.894 71.2363 216.781C70.9781 216.661 70.6758 216.601 70.3293 216.601ZM81.7457 216.97C81.6827 217.07 81.6166 217.143 81.5473 217.187C81.478 217.225 81.3898 217.244 81.2828 217.244C81.1694 217.244 81.0466 217.212 80.9143 217.149C80.7883 217.086 80.6403 217.017 80.4703 216.941C80.3002 216.859 80.1049 216.787 79.8845 216.724C79.6703 216.661 79.4152 216.629 79.1192 216.629C78.6594 216.629 78.2973 216.727 78.0327 216.922C77.7682 217.118 77.6359 217.373 77.6359 217.688C77.6359 217.895 77.702 218.072 77.8343 218.217C77.9729 218.355 78.1524 218.478 78.3728 218.585C78.5996 218.692 78.8547 218.79 79.1381 218.878C79.4215 218.96 79.7113 219.051 80.0073 219.152C80.3033 219.253 80.5931 219.369 80.8765 219.502C81.1599 219.628 81.4119 219.791 81.6323 219.993C81.8591 220.188 82.0386 220.424 82.1709 220.701C82.3094 220.979 82.3787 221.312 82.3787 221.703C82.3787 222.169 82.2937 222.6 82.1236 222.997C81.9536 223.388 81.7048 223.728 81.3772 224.018C81.0497 224.301 80.6435 224.525 80.1585 224.688C79.6798 224.846 79.1287 224.925 78.5051 224.925C78.1713 224.925 77.8438 224.893 77.5225 224.83C77.2076 224.773 76.9021 224.692 76.6061 224.584C76.3164 224.477 76.0455 224.351 75.7936 224.207C75.5479 224.062 75.3306 223.904 75.1417 223.734L75.6802 222.846C75.7495 222.739 75.8314 222.657 75.9259 222.6C76.0203 222.544 76.14 222.515 76.2849 222.515C76.4297 222.515 76.5652 222.556 76.6911 222.638C76.8234 222.72 76.9746 222.808 77.1446 222.903C77.3147 222.997 77.5131 223.085 77.7398 223.167C77.9729 223.249 78.2658 223.29 78.6185 223.29C78.8956 223.29 79.1318 223.259 79.3271 223.196C79.5286 223.126 79.6924 223.038 79.8184 222.931C79.9506 222.824 80.0451 222.701 80.1018 222.563C80.1648 222.418 80.1963 222.27 80.1963 222.119C80.1963 221.892 80.127 221.706 79.9884 221.561C79.8561 221.416 79.6766 221.29 79.4499 221.183C79.2294 221.076 78.9744 220.982 78.6846 220.9C78.4012 220.812 78.1083 220.717 77.806 220.616C77.5099 220.516 77.2171 220.399 76.9273 220.267C76.6439 220.128 76.3888 219.955 76.162 219.747C75.9416 219.539 75.7621 219.284 75.6235 218.982C75.4913 218.68 75.4251 218.314 75.4251 217.886C75.4251 217.489 75.5039 217.111 75.6613 216.752C75.8188 216.393 76.0487 216.081 76.351 215.817C76.6596 215.546 77.0407 215.332 77.4942 215.174C77.954 215.011 78.4831 214.929 79.0814 214.929C79.7491 214.929 80.3569 215.039 80.9049 215.259C81.4528 215.48 81.9095 215.77 82.2748 216.129L81.7457 216.97ZM83.8625 224.773V210.734H86.1961V216.129C86.574 215.77 86.9897 215.48 87.4432 215.259C87.8967 215.039 88.4289 214.929 89.0399 214.929C89.5689 214.929 90.0382 215.02 90.4476 215.203C90.857 215.379 91.1971 215.631 91.468 215.959C91.7451 216.28 91.9529 216.667 92.0915 217.121C92.2364 217.568 92.3088 218.062 92.3088 218.604V224.773H89.9752V218.604C89.9752 218.012 89.8366 217.555 89.5595 217.234C89.2887 216.907 88.8793 216.743 88.3313 216.743C87.9282 216.743 87.5503 216.834 87.1975 217.017C86.8448 217.199 86.511 217.448 86.1961 217.763V224.773H83.8625ZM105.096 224.773H104.047C103.827 224.773 103.653 224.742 103.528 224.679C103.402 224.61 103.307 224.474 103.244 224.273L103.036 223.583C102.791 223.803 102.548 223.999 102.309 224.169C102.076 224.333 101.833 224.471 101.581 224.584C101.329 224.698 101.062 224.783 100.778 224.84C100.495 224.896 100.18 224.925 99.8334 224.925C99.424 224.925 99.0461 224.871 98.6997 224.764C98.3533 224.651 98.0541 224.484 97.8021 224.263C97.5565 224.043 97.3644 223.769 97.2258 223.441C97.0872 223.114 97.018 222.733 97.018 222.298C97.018 221.933 97.1124 221.574 97.3014 221.221C97.4966 220.862 97.8179 220.541 98.2651 220.257C98.7123 219.968 99.3075 219.728 100.051 219.539C100.794 219.35 101.717 219.243 102.819 219.218V218.651C102.819 218.003 102.68 217.524 102.403 217.215C102.132 216.9 101.736 216.743 101.213 216.743C100.835 216.743 100.52 216.787 100.268 216.875C100.016 216.963 99.7956 217.064 99.6067 217.177C99.424 217.284 99.2539 217.382 99.0965 217.47C98.939 217.558 98.7658 217.603 98.5768 217.603C98.4194 217.603 98.284 217.562 98.1706 217.48C98.0572 217.398 97.9659 217.297 97.8966 217.177L97.4715 216.431C98.5863 215.411 99.931 214.9 101.506 214.9C102.073 214.9 102.576 214.995 103.017 215.184C103.465 215.367 103.842 215.625 104.151 215.959C104.46 216.286 104.693 216.68 104.85 217.14C105.014 217.599 105.096 218.103 105.096 218.651V224.773ZM100.561 223.318C100.8 223.318 101.021 223.296 101.222 223.252C101.424 223.208 101.613 223.142 101.789 223.054C101.972 222.966 102.145 222.859 102.309 222.733C102.479 222.6 102.649 222.446 102.819 222.27V220.635C102.139 220.667 101.569 220.727 101.109 220.815C100.655 220.897 100.29 221.004 100.013 221.136C99.7358 221.268 99.5374 221.423 99.4177 221.599C99.3043 221.775 99.2476 221.967 99.2476 222.175C99.2476 222.585 99.3673 222.878 99.6067 223.054C99.8523 223.23 100.17 223.318 100.561 223.318ZM107.013 224.773V215.08H108.439C108.742 215.08 108.94 215.222 109.034 215.505L109.195 216.27C109.39 216.069 109.595 215.886 109.809 215.722C110.03 215.559 110.259 215.417 110.499 215.297C110.744 215.178 111.006 215.086 111.283 215.023C111.56 214.96 111.862 214.929 112.19 214.929C112.719 214.929 113.188 215.02 113.598 215.203C114.007 215.379 114.347 215.631 114.618 215.959C114.895 216.28 115.103 216.667 115.242 217.121C115.386 217.568 115.459 218.062 115.459 218.604V224.773H113.125V218.604C113.125 218.012 112.987 217.555 112.71 217.234C112.439 216.907 112.029 216.743 111.481 216.743C111.078 216.743 110.7 216.834 110.348 217.017C109.995 217.199 109.661 217.448 109.346 217.763V224.773H107.013ZM124.195 224.773C123.893 224.773 123.695 224.632 123.6 224.348L123.411 223.413C123.21 223.64 122.999 223.844 122.778 224.027C122.558 224.21 122.319 224.367 122.06 224.499C121.808 224.632 121.534 224.732 121.238 224.802C120.949 224.877 120.634 224.915 120.294 224.915C119.764 224.915 119.279 224.805 118.839 224.584C118.398 224.364 118.017 224.046 117.695 223.63C117.38 223.208 117.135 222.689 116.958 222.071C116.788 221.454 116.703 220.749 116.703 219.955C116.703 219.237 116.801 218.569 116.996 217.952C117.192 217.335 117.472 216.799 117.837 216.346C118.202 215.892 118.64 215.54 119.15 215.288C119.661 215.03 120.234 214.9 120.87 214.9C121.412 214.9 121.874 214.989 122.259 215.165C122.643 215.335 122.986 215.565 123.288 215.855V210.734H125.622V224.773H124.195ZM121.087 223.063C121.572 223.063 121.985 222.963 122.325 222.761C122.665 222.559 122.986 222.273 123.288 221.901V217.555C123.024 217.234 122.734 217.007 122.419 216.875C122.111 216.743 121.777 216.677 121.418 216.677C121.065 216.677 120.744 216.743 120.454 216.875C120.171 217.007 119.928 217.209 119.727 217.48C119.531 217.744 119.38 218.084 119.273 218.5C119.166 218.909 119.113 219.394 119.113 219.955C119.113 220.522 119.157 221.004 119.245 221.401C119.339 221.791 119.472 222.112 119.642 222.364C119.812 222.61 120.02 222.789 120.265 222.903C120.511 223.01 120.785 223.063 121.087 223.063ZM137.87 224.773C137.567 224.773 137.369 224.632 137.275 224.348L137.086 223.413C136.884 223.64 136.673 223.844 136.453 224.027C136.232 224.21 135.993 224.367 135.735 224.499C135.483 224.632 135.209 224.732 134.913 224.802C134.623 224.877 134.308 224.915 133.968 224.915C133.439 224.915 132.954 224.805 132.513 224.584C132.072 224.364 131.691 224.046 131.37 223.63C131.055 223.208 130.809 222.689 130.633 222.071C130.463 221.454 130.378 220.749 130.378 219.955C130.378 219.237 130.475 218.569 130.67 217.952C130.866 217.335 131.146 216.799 131.511 216.346C131.877 215.892 132.314 215.54 132.825 215.288C133.335 215.03 133.908 214.9 134.544 214.9C135.086 214.9 135.549 214.989 135.933 215.165C136.317 215.335 136.66 215.565 136.963 215.855V210.734H139.296V224.773H137.87ZM134.761 223.063C135.246 223.063 135.659 222.963 135.999 222.761C136.339 222.559 136.66 222.273 136.963 221.901V217.555C136.698 217.234 136.408 217.007 136.094 216.875C135.785 216.743 135.451 216.677 135.092 216.677C134.739 216.677 134.418 216.743 134.128 216.875C133.845 217.007 133.602 217.209 133.401 217.48C133.206 217.744 133.054 218.084 132.947 218.5C132.84 218.909 132.787 219.394 132.787 219.955C132.787 220.522 132.831 221.004 132.919 221.401C133.014 221.791 133.146 222.112 133.316 222.364C133.486 222.61 133.694 222.789 133.939 222.903C134.185 223.01 134.459 223.063 134.761 223.063ZM141.447 224.773V215.08H142.817C143.056 215.08 143.223 215.124 143.318 215.212C143.412 215.3 143.475 215.452 143.507 215.666L143.648 216.837C143.995 216.239 144.401 215.767 144.867 215.42C145.333 215.074 145.856 214.9 146.435 214.9C146.914 214.9 147.311 215.011 147.626 215.231L147.323 216.979C147.305 217.092 147.264 217.174 147.201 217.225C147.138 217.269 147.053 217.291 146.946 217.291C146.851 217.291 146.722 217.269 146.558 217.225C146.394 217.181 146.177 217.158 145.906 217.158C145.421 217.158 145.006 217.294 144.659 217.565C144.313 217.829 144.02 218.22 143.781 218.736V224.773H141.447ZM152.221 227.438C152.152 227.601 152.061 227.724 151.947 227.806C151.84 227.894 151.673 227.938 151.447 227.938H149.708L151.522 224.055L147.601 215.08H149.642C149.831 215.08 149.976 215.124 150.077 215.212C150.177 215.3 150.253 215.401 150.303 215.515L152.372 220.541C152.442 220.705 152.502 220.875 152.552 221.051C152.602 221.227 152.646 221.404 152.684 221.58C152.735 221.397 152.788 221.221 152.845 221.051C152.908 220.881 152.974 220.708 153.043 220.531L154.989 215.515C155.04 215.389 155.122 215.285 155.235 215.203C155.355 215.121 155.487 215.08 155.632 215.08H157.503L152.221 227.438ZM161.755 224.773V215.08H163.182C163.484 215.08 163.683 215.222 163.777 215.505L163.928 216.223C164.098 216.034 164.275 215.861 164.457 215.704C164.646 215.546 164.845 215.411 165.053 215.297C165.267 215.184 165.493 215.096 165.733 215.033C165.978 214.963 166.246 214.929 166.536 214.929C167.147 214.929 167.648 215.096 168.038 215.43C168.435 215.757 168.731 216.195 168.926 216.743C169.077 216.422 169.266 216.148 169.493 215.921C169.72 215.688 169.969 215.499 170.239 215.354C170.51 215.209 170.797 215.102 171.099 215.033C171.408 214.963 171.716 214.929 172.025 214.929C172.56 214.929 173.036 215.011 173.452 215.174C173.867 215.338 174.217 215.578 174.5 215.892C174.784 216.207 174.998 216.592 175.143 217.045C175.294 217.499 175.37 218.018 175.37 218.604V224.773H173.036V218.604C173.036 217.987 172.901 217.524 172.63 217.215C172.359 216.9 171.962 216.743 171.439 216.743C171.2 216.743 170.976 216.784 170.769 216.866C170.567 216.947 170.387 217.067 170.23 217.225C170.079 217.376 169.959 217.568 169.871 217.801C169.783 218.034 169.739 218.302 169.739 218.604V224.773H167.396V218.604C167.396 217.955 167.263 217.483 166.999 217.187C166.741 216.891 166.356 216.743 165.846 216.743C165.512 216.743 165.197 216.828 164.901 216.998C164.612 217.162 164.341 217.388 164.089 217.678V224.773H161.755ZM179.419 215.08V221.24C179.419 221.832 179.554 222.292 179.825 222.619C180.102 222.941 180.515 223.101 181.063 223.101C181.466 223.101 181.844 223.013 182.197 222.837C182.549 222.654 182.883 222.405 183.198 222.09V215.08H185.532V224.773H184.105C183.803 224.773 183.604 224.632 183.51 224.348L183.349 223.574C183.148 223.775 182.94 223.961 182.726 224.131C182.511 224.295 182.282 224.436 182.036 224.556C181.797 224.67 181.535 224.758 181.252 224.821C180.975 224.89 180.675 224.925 180.354 224.925C179.825 224.925 179.356 224.836 178.946 224.66C178.543 224.477 178.203 224.222 177.926 223.895C177.649 223.567 177.438 223.18 177.293 222.733C177.155 222.279 177.085 221.782 177.085 221.24V215.08H179.419ZM193.399 216.97C193.336 217.07 193.27 217.143 193.201 217.187C193.131 217.225 193.043 217.244 192.936 217.244C192.823 217.244 192.7 217.212 192.568 217.149C192.442 217.086 192.294 217.017 192.124 216.941C191.953 216.859 191.758 216.787 191.538 216.724C191.324 216.661 191.069 216.629 190.773 216.629C190.313 216.629 189.951 216.727 189.686 216.922C189.421 217.118 189.289 217.373 189.289 217.688C189.289 217.895 189.355 218.072 189.488 218.217C189.626 218.355 189.806 218.478 190.026 218.585C190.253 218.692 190.508 218.79 190.791 218.878C191.075 218.96 191.365 219.051 191.661 219.152C191.957 219.253 192.246 219.369 192.53 219.502C192.813 219.628 193.065 219.791 193.286 219.993C193.512 220.188 193.692 220.424 193.824 220.701C193.963 220.979 194.032 221.312 194.032 221.703C194.032 222.169 193.947 222.6 193.777 222.997C193.607 223.388 193.358 223.728 193.031 224.018C192.703 224.301 192.297 224.525 191.812 224.688C191.333 224.846 190.782 224.925 190.158 224.925C189.825 224.925 189.497 224.893 189.176 224.83C188.861 224.773 188.555 224.692 188.259 224.584C187.97 224.477 187.699 224.351 187.447 224.207C187.201 224.062 186.984 223.904 186.795 223.734L187.333 222.846C187.403 222.739 187.485 222.657 187.579 222.6C187.674 222.544 187.793 222.515 187.938 222.515C188.083 222.515 188.218 222.556 188.344 222.638C188.477 222.72 188.628 222.808 188.798 222.903C188.968 222.997 189.166 223.085 189.393 223.167C189.626 223.249 189.919 223.29 190.272 223.29C190.549 223.29 190.785 223.259 190.98 223.196C191.182 223.126 191.346 223.038 191.472 222.931C191.604 222.824 191.698 222.701 191.755 222.563C191.818 222.418 191.85 222.27 191.85 222.119C191.85 221.892 191.78 221.706 191.642 221.561C191.509 221.416 191.33 221.29 191.103 221.183C190.883 221.076 190.628 220.982 190.338 220.9C190.054 220.812 189.762 220.717 189.459 220.616C189.163 220.516 188.87 220.399 188.581 220.267C188.297 220.128 188.042 219.955 187.815 219.747C187.595 219.539 187.415 219.284 187.277 218.982C187.145 218.68 187.078 218.314 187.078 217.886C187.078 217.489 187.157 217.111 187.315 216.752C187.472 216.393 187.702 216.081 188.004 215.817C188.313 215.546 188.694 215.332 189.147 215.174C189.607 215.011 190.136 214.929 190.735 214.929C191.402 214.929 192.01 215.039 192.558 215.259C193.106 215.48 193.563 215.77 193.928 216.129L193.399 216.97ZM195.516 224.773V210.734H197.849V216.129C198.227 215.77 198.643 215.48 199.096 215.259C199.55 215.039 200.082 214.929 200.693 214.929C201.222 214.929 201.691 215.02 202.101 215.203C202.51 215.379 202.85 215.631 203.121 215.959C203.398 216.28 203.606 216.667 203.745 217.121C203.89 217.568 203.962 218.062 203.962 218.604V224.773H201.628V218.604C201.628 218.012 201.49 217.555 201.213 217.234C200.942 216.907 200.533 216.743 199.985 216.743C199.581 216.743 199.204 216.834 198.851 217.017C198.498 217.199 198.164 217.448 197.849 217.763V224.773H195.516ZM205.877 224.773V215.08H207.247C207.487 215.08 207.654 215.124 207.748 215.212C207.842 215.3 207.905 215.452 207.937 215.666L208.079 216.837C208.425 216.239 208.831 215.767 209.297 215.42C209.764 215.074 210.286 214.9 210.866 214.9C211.344 214.9 211.741 215.011 212.056 215.231L211.754 216.979C211.735 217.092 211.694 217.174 211.631 217.225C211.568 217.269 211.483 217.291 211.376 217.291C211.281 217.291 211.152 217.269 210.989 217.225C210.825 217.181 210.608 217.158 210.337 217.158C209.852 217.158 209.436 217.294 209.09 217.565C208.743 217.829 208.45 218.22 208.211 218.736V224.773H205.877ZM217.351 214.929C218.075 214.929 218.73 215.045 219.316 215.278C219.908 215.511 220.412 215.842 220.828 216.27C221.243 216.699 221.565 217.221 221.791 217.839C222.018 218.456 222.131 219.146 222.131 219.908C222.131 220.676 222.018 221.369 221.791 221.986C221.565 222.604 221.243 223.13 220.828 223.564C220.412 223.999 219.908 224.333 219.316 224.566C218.73 224.799 218.075 224.915 217.351 224.915C216.626 224.915 215.968 224.799 215.376 224.566C214.784 224.333 214.277 223.999 213.855 223.564C213.439 223.13 213.115 222.604 212.882 221.986C212.655 221.369 212.542 220.676 212.542 219.908C212.542 219.146 212.655 218.456 212.882 217.839C213.115 217.221 213.439 216.699 213.855 216.27C214.277 215.842 214.784 215.511 215.376 215.278C215.968 215.045 216.626 214.929 217.351 214.929ZM217.351 223.12C218.157 223.12 218.752 222.849 219.136 222.308C219.527 221.766 219.722 220.972 219.722 219.927C219.722 218.881 219.527 218.084 219.136 217.536C218.752 216.988 218.157 216.714 217.351 216.714C216.532 216.714 215.927 216.992 215.537 217.546C215.146 218.094 214.951 218.887 214.951 219.927C214.951 220.966 215.146 221.76 215.537 222.308C215.927 222.849 216.532 223.12 217.351 223.12ZM227.712 214.929C228.437 214.929 229.092 215.045 229.678 215.278C230.27 215.511 230.774 215.842 231.189 216.27C231.605 216.699 231.926 217.221 232.153 217.839C232.38 218.456 232.493 219.146 232.493 219.908C232.493 220.676 232.38 221.369 232.153 221.986C231.926 222.604 231.605 223.13 231.189 223.564C230.774 223.999 230.27 224.333 229.678 224.566C229.092 224.799 228.437 224.915 227.712 224.915C226.988 224.915 226.33 224.799 225.738 224.566C225.146 224.333 224.639 223.999 224.217 223.564C223.801 223.13 223.477 222.604 223.244 221.986C223.017 221.369 222.903 220.676 222.903 219.908C222.903 219.146 223.017 218.456 223.244 217.839C223.477 217.221 223.801 216.699 224.217 216.27C224.639 215.842 225.146 215.511 225.738 215.278C226.33 215.045 226.988 214.929 227.712 214.929ZM227.712 223.12C228.519 223.12 229.114 222.849 229.498 222.308C229.889 221.766 230.084 220.972 230.084 219.927C230.084 218.881 229.889 218.084 229.498 217.536C229.114 216.988 228.519 216.714 227.712 216.714C226.894 216.714 226.289 216.992 225.898 217.546C225.508 218.094 225.313 218.887 225.313 219.927C225.313 220.966 225.508 221.76 225.898 222.308C226.289 222.849 226.894 223.12 227.712 223.12ZM233.936 224.773V215.08H235.363C235.665 215.08 235.863 215.222 235.958 215.505L236.109 216.223C236.279 216.034 236.455 215.861 236.638 215.704C236.827 215.546 237.025 215.411 237.233 215.297C237.447 215.184 237.674 215.096 237.913 215.033C238.159 214.963 238.427 214.929 238.716 214.929C239.327 214.929 239.828 215.096 240.219 215.43C240.616 215.757 240.912 216.195 241.107 216.743C241.258 216.422 241.447 216.148 241.674 215.921C241.9 215.688 242.149 215.499 242.42 215.354C242.691 215.209 242.977 215.102 243.28 215.033C243.588 214.963 243.897 214.929 244.206 214.929C244.741 214.929 245.217 215.011 245.632 215.174C246.048 215.338 246.398 215.578 246.681 215.892C246.964 216.207 247.179 216.592 247.323 217.045C247.475 217.499 247.55 218.018 247.55 218.604V224.773H245.217V218.604C245.217 217.987 245.081 217.524 244.81 217.215C244.539 216.9 244.143 216.743 243.62 216.743C243.381 216.743 243.157 216.784 242.949 216.866C242.748 216.947 242.568 217.067 242.411 217.225C242.259 217.376 242.14 217.568 242.052 217.801C241.963 218.034 241.919 218.302 241.919 218.604V224.773H239.576V218.604C239.576 217.955 239.444 217.483 239.179 217.187C238.921 216.891 238.537 216.743 238.027 216.743C237.693 216.743 237.378 216.828 237.082 216.998C236.792 217.162 236.521 217.388 236.27 217.678V224.773H233.936ZM255.218 216.97C255.155 217.07 255.089 217.143 255.02 217.187C254.95 217.225 254.862 217.244 254.755 217.244C254.642 217.244 254.519 217.212 254.387 217.149C254.261 217.086 254.113 217.017 253.943 216.941C253.772 216.859 253.577 216.787 253.357 216.724C253.143 216.661 252.888 216.629 252.591 216.629C252.132 216.629 251.77 216.727 251.505 216.922C251.24 217.118 251.108 217.373 251.108 217.688C251.108 217.895 251.174 218.072 251.307 218.217C251.445 218.355 251.625 218.478 251.845 218.585C252.072 218.692 252.327 218.79 252.61 218.878C252.894 218.96 253.184 219.051 253.48 219.152C253.776 219.253 254.065 219.369 254.349 219.502C254.632 219.628 254.884 219.791 255.105 219.993C255.331 220.188 255.511 220.424 255.643 220.701C255.782 220.979 255.851 221.312 255.851 221.703C255.851 222.169 255.766 222.6 255.596 222.997C255.426 223.388 255.177 223.728 254.85 224.018C254.522 224.301 254.116 224.525 253.631 224.688C253.152 224.846 252.601 224.925 251.977 224.925C251.644 224.925 251.316 224.893 250.995 224.83C250.68 224.773 250.374 224.692 250.078 224.584C249.789 224.477 249.518 224.351 249.266 224.207C249.02 224.062 248.803 223.904 248.614 223.734L249.152 222.846C249.222 222.739 249.304 222.657 249.398 222.6C249.493 222.544 249.612 222.515 249.757 222.515C249.902 222.515 250.037 222.556 250.163 222.638C250.296 222.72 250.447 222.808 250.617 222.903C250.787 222.997 250.985 223.085 251.212 223.167C251.445 223.249 251.738 223.29 252.091 223.29C252.368 223.29 252.604 223.259 252.799 223.196C253.001 223.126 253.165 223.038 253.291 222.931C253.423 222.824 253.517 222.701 253.574 222.563C253.637 222.418 253.669 222.27 253.669 222.119C253.669 221.892 253.599 221.706 253.461 221.561C253.328 221.416 253.149 221.29 252.922 221.183C252.702 221.076 252.447 220.982 252.157 220.9C251.873 220.812 251.581 220.717 251.278 220.616C250.982 220.516 250.689 220.399 250.4 220.267C250.116 220.128 249.861 219.955 249.634 219.747C249.414 219.539 249.234 219.284 249.096 218.982C248.964 218.68 248.897 218.314 248.897 217.886C248.897 217.489 248.976 217.111 249.134 216.752C249.291 216.393 249.521 216.081 249.823 215.817C250.132 215.546 250.513 215.332 250.966 215.174C251.426 215.011 251.955 214.929 252.554 214.929C253.221 214.929 253.829 215.039 254.377 215.259C254.925 215.48 255.382 215.77 255.747 216.129L255.218 216.97Z" fill="#949494"/>
<defs>
<filter id="filter0_di" x="57.0929" y="117.805" width="164.773" height="62.228" filterUnits="userSpaceOnUse" color-interpolation-filters="sRGB">
<feFlood flood-opacity="0" result="BackgroundImageFix"/>
<feColorMatrix in="SourceAlpha" type="matrix" values="0 0 0 0 0 0 0 0 0 0 0 0 0 0 0 0 0 0 127 0"/>
<feOffset dx="-1.25971" dy="2.51942"/>
<feGaussianBlur stdDeviation="1.25971"/>
<feColorMatrix type="matrix" values="0 0 0 0 0 0 0 0 0 0 0 0 0 0 0 0 0 0 0.1 0"/>
<feBlend mode="normal" in2="BackgroundImageFix" result="effect1_dropShadow"/>
<feBlend mode="normal" in="SourceGraphic" in2="effect1_dropShadow" result="shape"/>
<feColorMatrix in="SourceAlpha" type="matrix" values="0 0 0 0 0 0 0 0 0 0 0 0 0 0 0 0 0 0 127 0" result="hardAlpha"/>
<feOffset dx="1.25971" dy="2.51942"/>
<feGaussianBlur stdDeviation="0.944782"/>
<feComposite in2="hardAlpha" operator="arithmetic" k2="-1" k3="1"/>
<feColorMatrix type="matrix" values="0 0 0 0 0 0 0 0 0 0 0 0 0 0 0 0 0 0 0.1 0"/>
<feBlend mode="normal" in2="shape" result="effect2_innerShadow"/>
</filter>
<filter id="filter1_i" x="0" y="0.794922" width="283.26" height="110.819" filterUnits="userSpaceOnUse" color-interpolation-filters="sRGB">
<feFlood flood-opacity="0" result="BackgroundImageFix"/>
<feBlend mode="normal" in="SourceGraphic" in2="BackgroundImageFix" result="shape"/>
<feColorMatrix in="SourceAlpha" type="matrix" values="0 0 0 0 0 0 0 0 0 0 0 0 0 0 0 0 0 0 127 0" result="hardAlpha"/>
<feOffset dx="1.25971" dy="1.88956"/>
<feGaussianBlur stdDeviation="0.944782"/>
<feComposite in2="hardAlpha" operator="arithmetic" k2="-1" k3="1"/>
<feColorMatrix type="matrix" values="0 0 0 0 0.411765 0 0 0 0 0.262745 0 0 0 0 0.172549 0 0 0 0.1 0"/>
<feBlend mode="normal" in2="shape" result="effect1_innerShadow"/>
</filter>
<radialGradient id="paint0_radial" cx="0" cy="0" r="1" gradientUnits="userSpaceOnUse" gradientTransform="translate(182.928 -6.96942) rotate(98.2159) scale(293.397 431.028)">
<stop stop-color="white"/>
<stop offset="0.0833333" stop-color="#FCC8C6"/>
<stop offset="0.3125" stop-color="#FF453E"/>
<stop offset="1" stop-color="#6A442E"/>
</radialGradient>
</defs>
</svg>
