<svg width="230" height="186" viewBox="0 0 230 186" fill="none" xmlns="http://www.w3.org/2000/svg">
<g opacity="0.9">
<path d="M69.6824 138.918L61.294 137.617V114.917H69.6824L70.0932 111.87H61.294L61.3625 108.172C61.431 105.022 61.8304 102.831 62.5609 101.598C63.3141 100.343 64.3869 99.7152 65.7792 99.7152C66.7379 99.7152 67.765 100.137 68.8607 100.982C69.9563 101.827 70.9378 102.785 71.8051 103.858C72.4671 103.607 73.1404 103.105 73.8252 102.351C74.5099 101.575 74.8523 100.799 74.8523 100.023C74.8523 98.7223 74.2588 97.7408 73.0719 97.0788C71.9078 96.4169 70.3671 96.0859 68.4498 96.0859C66.7151 96.0859 64.9233 96.6794 63.0744 97.8663C61.2256 99.0532 59.605 100.822 58.2126 103.173C56.8431 105.524 55.9757 108.355 55.6105 111.664L50.8857 112.417L50.4748 114.917H55.5763V137.788L50.3721 139.26L49.9613 141.759H69.4427L69.6824 138.918Z" fill="#797E82"/>
<path d="M80.844 142.581C83.3091 142.581 85.3177 142.022 86.8698 140.904C88.4448 139.762 89.5632 138.552 90.2252 137.274H90.6018V137.788C90.6018 138.541 90.773 139.271 91.1154 139.979C91.4806 140.664 92.0626 141.234 92.8615 141.691C93.6604 142.147 94.6761 142.376 95.9087 142.376C96.8673 142.376 97.8945 142.25 98.9901 141.999C99.6977 141.862 100.223 141.771 100.565 141.725L101.01 138.781L99.2982 138.473C98.2255 138.29 97.4152 138.05 96.8673 137.754C96.3424 137.434 95.9772 136.989 95.7717 136.418C95.5663 135.825 95.4636 134.98 95.4636 133.885V121.456C95.4636 117.804 94.8017 115.145 93.4778 113.479C92.1768 111.79 90.0197 110.945 87.0068 110.945C85.409 110.945 83.6857 111.276 81.8369 111.938C79.988 112.6 78.4359 113.479 77.1805 114.574C75.9251 115.647 75.2974 116.777 75.2974 117.964C75.2974 119.448 75.7539 120.406 76.6669 120.84C77.5799 121.274 78.7098 121.491 80.0565 121.491C80.2619 119.185 80.4331 117.599 80.57 116.731C80.7298 115.864 81.0494 115.214 81.5287 114.78C82.008 114.346 82.7841 114.129 83.8569 114.129C86.0253 114.129 87.5774 114.997 88.5133 116.731C89.4491 118.443 89.917 120.623 89.917 123.271V125.154C86.3563 125.405 83.389 126.067 81.0151 127.14C78.6641 128.19 76.9294 129.491 75.811 131.043C74.6925 132.595 74.1333 134.25 74.1333 136.007C74.1333 137.354 74.43 138.53 75.0235 139.534C75.6398 140.515 76.4615 141.269 77.4886 141.794C78.5158 142.319 79.6342 142.581 80.844 142.581ZM89.917 135.323C89.2323 136.076 88.3421 136.772 87.2465 137.411C86.1508 138.05 85.0552 138.37 83.9596 138.37C83.1607 138.37 82.4646 138.164 81.8711 137.754C81.3005 137.343 80.8668 136.829 80.57 136.213C80.2733 135.597 80.125 134.992 80.125 134.398C80.125 132.641 80.8668 131.168 82.3504 129.982C83.8341 128.772 86.3563 127.813 89.917 127.106V135.323Z" fill="#797E82"/>
<path d="M121.553 138.781L113.576 137.617V124.503C113.804 122.883 114.249 121.513 114.911 120.395C115.596 119.276 116.349 118.443 117.17 117.896C117.992 117.325 118.745 117.04 119.43 117.04C120.092 117.04 120.788 117.165 121.519 117.416C122.249 117.644 122.945 117.964 123.607 118.375C124.908 117.279 125.559 116.012 125.559 114.574C125.559 113.547 125.205 112.657 124.497 111.904C123.79 111.128 122.877 110.74 121.758 110.74C120.731 110.74 119.693 111.094 118.643 111.801C117.593 112.486 116.6 113.525 115.664 114.917C114.728 116.309 113.964 117.998 113.37 119.984H112.72L113.404 112.109L112.617 111.288L102.791 112.554L102.311 115.157L107.892 116.834V137.856L102.654 139.226L102.311 141.759H121.211L121.553 138.781Z" fill="#797E82"/>
<path d="M143.773 139.055L138.877 137.856V118.717C139.722 117.759 140.738 117.028 141.925 116.526C143.112 116.001 144.344 115.739 145.622 115.739C146.718 115.739 147.711 115.99 148.601 116.492C149.491 116.994 150.187 117.702 150.69 118.615C151.215 119.528 151.477 120.566 151.477 121.73V137.856L146.992 139.226L146.615 141.759H161.783L162.125 139.055L157.058 137.856V119.162C158.062 118.09 159.055 117.256 160.037 116.663C161.041 116.047 162.228 115.739 163.597 115.739C165.378 115.739 166.781 116.309 167.809 117.45C168.836 118.592 169.349 120.018 169.349 121.73V137.891L165.07 139.26L164.83 141.759H179.381L179.826 139.055L175.101 137.822V120.909C175.101 114.54 172.408 111.356 167.021 111.356C164.99 111.356 163.095 111.87 161.338 112.897C159.603 113.901 158.131 115.179 156.921 116.731H156.51C156.008 114.791 155.049 113.365 153.634 112.452C152.242 111.539 150.678 111.082 148.943 111.082C146.935 111.082 145.017 111.596 143.191 112.623C141.388 113.65 139.882 114.917 138.672 116.423H138.364L138.98 112.109L138.364 111.39L127.955 112.828L127.613 115.396L133.091 117.142V137.856L127.955 139.226L127.613 141.759H143.397L143.773 139.055Z" fill="#797E82"/>
</g>
<path fill-rule="evenodd" clip-rule="evenodd" d="M182.074 86.9855C211.99 90.3941 230.125 92.4606 229.731 78.8004C230.368 57.964 198.91 0.957031 115.106 0.957031C31.3019 0.957031 -0.130934 57.964 0.480402 78.8004C0.101581 92.4695 18.2574 90.4012 48.2023 86.99C66.5821 84.8962 89.4032 82.2965 115.106 82.5193C140.836 82.2866 163.681 84.8897 182.074 86.9855ZM141.732 35.725C142.385 35.725 142.996 35.5618 143.567 35.2355C144.159 34.8888 144.618 34.43 144.944 33.859C145.291 33.288 145.464 32.666 145.464 31.9931C145.464 31.0142 145.097 30.1883 144.363 29.5153C143.629 28.8424 142.752 28.5059 141.732 28.5059C140.753 28.5059 139.897 28.8424 139.163 29.5153C138.449 30.1679 138.092 30.9734 138.092 31.9319C138.092 32.6048 138.255 33.237 138.581 33.8284C138.908 34.3994 139.346 34.8583 139.897 35.2049C140.468 35.5516 141.079 35.725 141.732 35.725ZM149.135 68.4556L149.471 66.0084L144.577 64.9072V42.1487L143.812 41.384L135.216 42.0875L134.819 44.4123L139.438 46.0947V64.9072L134.819 66.039L134.452 68.4556H149.135ZM118.882 66.0084L118.515 68.4556H103.893L104.229 66.039L108.91 64.9072V33.6449L104.077 32.0236L104.444 29.6989L113.253 28.9953L114.018 29.76V64.9072L118.882 66.0084ZM122.43 65.3354C121.309 64.0711 119.82 62.1847 117.964 59.6764L114.752 55.241V54.6292L122.675 44.6876L118.606 43.4641L118.912 41.1393H131.943L131.515 43.4029L126.957 44.6876L119.708 53.5585L122.124 56.6481C122.532 57.1375 123.236 58.0552 124.235 59.4011C125.458 61.0121 126.417 62.2153 127.11 63.0107C127.824 63.806 128.568 64.4585 129.343 64.9684C130.139 65.4782 131.046 65.7943 132.066 65.9166L133.289 66.1002L132.953 68.4556C131.505 68.843 130.292 69.0368 129.313 69.0368C127.987 69.0368 126.784 68.7411 125.703 68.1497C124.643 67.5379 123.552 66.5998 122.43 65.3354ZM44.9168 72.7992C43.3465 74.4919 40.9809 76.368 37.82 78.4277L36.1682 75.7052C38.6561 73.36 40.4813 71.1474 41.6437 69.0673C42.8265 67.0077 43.4179 64.795 43.4179 62.4295V34.012L37.8812 32.7272L38.1871 30.4024H54.8583L54.5524 32.7272L49.3522 33.8896V56.6787C49.3318 60.8592 48.9749 64.173 48.2816 66.6202C47.6086 69.047 46.487 71.1066 44.9168 72.7992ZM67.2164 67.6908C65.8297 68.6901 64.0351 69.1897 61.8327 69.1897C60.7518 69.1897 59.7526 68.9552 58.8349 68.4861C57.9172 68.0171 57.1831 67.3441 56.6325 66.4672C56.1023 65.57 55.8372 64.5197 55.8372 63.3165C55.8372 61.7463 56.3368 60.2678 57.336 58.8811C58.3353 57.4944 59.8852 56.332 61.9856 55.3939C64.1065 54.4354 66.7576 53.844 69.9388 53.6197V51.9373C69.9388 49.5717 69.5208 47.6242 68.6847 46.0947C67.8486 44.5449 66.4619 43.77 64.5245 43.77C63.5661 43.77 62.8727 43.9637 62.4445 44.3512C62.0162 44.7386 61.7307 45.3198 61.588 46.0947C61.4656 46.8697 61.3126 48.287 61.1291 50.3467C59.9259 50.3467 58.9165 50.1529 58.1008 49.7655C57.2851 49.378 56.8772 48.5215 56.8772 47.196C56.8772 46.1355 57.438 45.1261 58.5596 44.1676C59.6812 43.1888 61.0679 42.4036 62.7198 41.8122C64.3716 41.2208 65.9112 40.9251 67.3388 40.9251C70.0306 40.9251 71.9577 41.6797 73.1201 43.1888C74.3029 44.6774 74.8943 47.0532 74.8943 50.3161V61.42C74.8943 62.3989 74.9861 63.1534 75.1696 63.6836C75.3532 64.1934 75.6794 64.5911 76.1485 64.8766C76.6379 65.1417 77.3619 65.3558 78.3203 65.519L79.8498 65.7943L79.4521 68.425C79.1462 68.4658 78.6772 68.5473 78.045 68.6697C77.0662 68.894 76.1485 69.0062 75.292 69.0062C74.1908 69.0062 73.2833 68.8022 72.5695 68.3944C71.8558 67.9865 71.3358 67.4767 71.0095 66.8649C70.7036 66.2327 70.5506 65.5802 70.5506 64.9072V64.4484H70.2141C69.6228 65.5904 68.6235 66.6712 67.2164 67.6908ZM67.5529 64.5707C68.5317 63.9997 69.3271 63.3777 69.9388 62.7048V55.3633C66.7576 55.9955 64.5041 56.852 63.1786 57.9328C61.8531 58.9933 61.1903 60.3086 61.1903 61.8788C61.1903 62.4091 61.3228 62.9495 61.588 63.5001C61.8531 64.0507 62.2405 64.5095 62.7503 64.8766C63.2806 65.2437 63.9025 65.4272 64.6163 65.4272C65.5952 65.4272 66.574 65.1417 67.5529 64.5707ZM93.4009 69.3732C95.2974 69.3732 97.1328 69.0062 98.9069 68.272C100.702 67.5175 102.027 66.6304 102.884 65.6107L102.119 63.8366C101.201 64.428 100.283 64.8868 99.3658 65.2131C98.4481 65.5394 97.3061 65.7025 95.9398 65.7025C93.9617 65.7025 92.2895 65.0295 90.9231 63.6836C89.5568 62.3377 88.5372 60.6757 87.8642 58.6976C87.1912 56.7194 86.8548 54.8025 86.8548 52.9468C86.8548 51.1114 87.0995 49.5106 87.5889 48.1442C88.0987 46.7575 88.8023 45.6869 89.6996 44.9324C90.6172 44.1778 91.6777 43.8005 92.8808 43.8005C94.0636 43.8005 95.0221 44.2798 95.7562 45.2382C96.5108 46.1763 97.1939 47.3693 97.8057 48.8172C99.0497 48.7356 100.008 48.4093 100.681 47.8383C101.354 47.2673 101.691 46.523 101.691 45.6053C101.691 44.7692 101.415 43.9943 100.865 43.2805C100.334 42.5668 99.5187 41.9958 98.4175 41.5675C97.3163 41.1393 95.95 40.9251 94.3186 40.9251C92.0753 40.9251 89.9545 41.5471 87.956 42.7911C85.9779 44.0147 84.377 45.7583 83.1534 48.0219C81.9299 50.2651 81.3181 52.8448 81.3181 55.761C81.3181 58.2081 81.8177 60.4717 82.817 62.5518C83.8162 64.6319 85.2335 66.2939 87.0689 67.5379C88.9042 68.7615 91.0149 69.3732 93.4009 69.3732ZM168.559 68.3026C166.825 69.0164 164.96 69.3732 162.961 69.3732C160.983 69.3732 159.107 68.843 157.333 67.7826C155.579 66.7018 154.161 65.1009 153.081 62.9801C152 60.8592 151.459 58.3203 151.459 55.3633C151.459 52.4471 152.071 49.898 153.295 47.716C154.539 45.5339 156.129 43.8617 158.067 42.6993C160.004 41.5369 161.992 40.9557 164.032 40.9557C165.541 40.9557 166.917 41.333 168.161 42.0875C169.405 42.8217 170.384 43.9229 171.098 45.3912C171.832 46.8391 172.199 48.6031 172.199 50.6831C172.199 51.1522 172.148 51.8048 172.046 52.6409C171.944 53.4566 171.832 54.1295 171.71 54.6598L156.904 54.8433C156.986 56.5563 157.353 58.2183 158.006 59.8294C158.658 61.4404 159.606 62.7659 160.85 63.806C162.115 64.8256 163.644 65.3354 165.439 65.3354C166.418 65.3354 167.193 65.315 167.764 65.2743C168.335 65.2131 168.997 65.0601 169.752 64.8154C170.506 64.5707 171.383 64.1832 172.383 63.653L173.025 65.2743C171.801 66.559 170.313 67.5685 168.559 68.3026ZM166.754 49.6431C166.754 45.85 165.347 43.9535 162.533 43.9535C161.676 43.9535 160.84 44.2696 160.024 44.9018C159.209 45.5135 158.515 46.4618 157.944 47.7466C157.394 49.0109 157.067 50.5812 156.966 52.4573L166.571 51.7538C166.632 51.5295 166.673 51.2032 166.693 50.7749C166.734 50.3263 166.754 49.949 166.754 49.6431ZM177.552 41.1699L180.397 40.8334L181.498 29.1177L175.9 28.6282L177.552 41.1699ZM198.169 68.4861C196.721 69.1591 195.212 69.4956 193.642 69.4956C191.888 69.4956 190.338 69.2713 188.993 68.8226C187.647 68.3944 186.607 67.8132 185.872 67.079C185.138 66.3449 184.771 65.57 184.771 64.7542C184.771 63.6122 185.108 62.6334 185.781 61.8177C186.454 61.002 187.361 60.5533 188.503 60.4717C189.176 62.4702 190.043 63.9793 191.103 64.999C192.164 65.9982 193.326 66.4978 194.59 66.4978C195.773 66.4978 196.742 66.2531 197.496 65.7637C198.251 65.2539 198.628 64.4687 198.628 63.4083C198.628 62.7557 198.404 62.1542 197.955 61.6035C197.507 61.0325 196.936 60.5227 196.242 60.0741C195.569 59.605 194.621 59.0238 193.397 58.3305C191.725 57.372 190.359 56.5155 189.298 55.761C188.258 54.986 187.361 54.0378 186.607 52.9162C185.872 51.7946 185.505 50.4996 185.505 49.0313C185.505 47.767 185.852 46.5128 186.545 45.2688C187.239 44.0249 188.269 42.995 189.635 42.1793C191.022 41.3432 192.684 40.9251 194.621 40.9251C196.089 40.9251 197.394 41.1699 198.536 41.6593C199.678 42.1283 200.555 42.7809 201.167 43.617C201.799 44.4327 202.115 45.3504 202.115 46.37C202.115 47.5324 201.728 48.4807 200.953 49.2149C200.198 49.949 199.158 50.3569 197.833 50.4384C197.466 48.1136 196.874 46.3802 196.059 45.2382C195.243 44.0758 194.244 43.4947 193.061 43.4947C192.021 43.4947 191.185 43.8515 190.553 44.5653C189.941 45.279 189.635 46.1457 189.635 47.1654C189.635 47.9811 189.89 48.7254 190.4 49.3984C190.909 50.051 191.542 50.6322 192.296 51.142C193.051 51.6518 194.101 52.284 195.447 53.0385C197.078 53.9358 198.394 54.7413 199.393 55.4551C200.413 56.1688 201.279 57.0559 201.993 58.1164C202.707 59.1564 203.064 60.3596 203.064 61.7259C203.064 63.1738 202.615 64.4993 201.718 65.7025C200.82 66.8853 199.638 67.8132 198.169 68.4861Z" fill="#797E82"/>
<path d="M23.0872 182.605V176.242L22.413 176.136C22.2666 176.111 22.1479 176.061 22.057 175.985C21.9712 175.909 21.9282 175.803 21.9282 175.667V174.902H23.0872V174.326C23.0872 173.882 23.1529 173.483 23.2842 173.129C23.4205 172.776 23.6124 172.475 23.8599 172.228C24.1124 171.98 24.4179 171.791 24.7764 171.66C25.135 171.528 25.539 171.463 25.9884 171.463C26.347 171.463 26.6803 171.511 26.9883 171.607L26.9504 172.546C26.9403 172.692 26.8722 172.783 26.7459 172.819C26.6197 172.854 26.4732 172.872 26.3066 172.872C26.0844 172.872 25.8849 172.897 25.7081 172.947C25.5364 172.993 25.39 173.076 25.2688 173.197C25.1476 173.314 25.0542 173.47 24.9885 173.667C24.9279 173.859 24.8976 174.099 24.8976 174.387V174.902H26.9201V176.235H24.9582V182.605H23.0872ZM31.0801 174.712C31.6608 174.712 32.186 174.806 32.6557 174.993C33.1304 175.179 33.5344 175.445 33.8677 175.788C34.201 176.131 34.4585 176.551 34.6403 177.045C34.8221 177.54 34.913 178.093 34.913 178.704C34.913 179.32 34.8221 179.876 34.6403 180.371C34.4585 180.866 34.201 181.287 33.8677 181.636C33.5344 181.984 33.1304 182.252 32.6557 182.439C32.186 182.626 31.6608 182.719 31.0801 182.719C30.4993 182.719 29.9716 182.626 29.4969 182.439C29.0222 182.252 28.6157 181.984 28.2774 181.636C27.9441 181.287 27.684 180.866 27.4971 180.371C27.3153 179.876 27.2244 179.32 27.2244 178.704C27.2244 178.093 27.3153 177.54 27.4971 177.045C27.684 176.551 27.9441 176.131 28.2774 175.788C28.6157 175.445 29.0222 175.179 29.4969 174.993C29.9716 174.806 30.4993 174.712 31.0801 174.712ZM31.0801 181.28C31.7265 181.28 32.2037 181.063 32.5118 180.628C32.8249 180.194 32.9814 179.558 32.9814 178.72C32.9814 177.881 32.8249 177.242 32.5118 176.803C32.2037 176.364 31.7265 176.144 31.0801 176.144C30.4236 176.144 29.9388 176.366 29.6257 176.811C29.3126 177.25 29.1561 177.886 29.1561 178.72C29.1561 179.553 29.3126 180.189 29.6257 180.628C29.9388 181.063 30.4236 181.28 31.0801 181.28ZM36.0699 182.605V174.834H37.1682C37.3601 174.834 37.494 174.869 37.5697 174.94C37.6455 175.01 37.696 175.132 37.7212 175.303L37.8348 176.242C38.1126 175.763 38.4383 175.384 38.812 175.106C39.1857 174.829 39.6048 174.69 40.0694 174.69C40.4532 174.69 40.7714 174.778 41.0239 174.955L40.7815 176.356C40.7663 176.447 40.7335 176.513 40.683 176.553C40.6325 176.588 40.5643 176.606 40.4785 176.606C40.4027 176.606 40.2992 176.588 40.1679 176.553C40.0366 176.518 39.8624 176.5 39.6452 176.5C39.2564 176.5 38.9231 176.609 38.6454 176.826C38.3676 177.038 38.1328 177.351 37.9409 177.765V182.605H36.0699ZM44.9108 182.605V176.242L44.2366 176.136C44.0902 176.111 43.9715 176.061 43.8806 175.985C43.7947 175.909 43.7518 175.803 43.7518 175.667V174.902H44.9108V174.326C44.9108 173.882 44.9764 173.483 45.1077 173.129C45.2441 172.776 45.436 172.475 45.6834 172.228C45.9359 171.98 46.2415 171.791 46.6 171.66C46.9586 171.528 47.3626 171.463 47.812 171.463C48.1706 171.463 48.5038 171.511 48.8119 171.607L48.774 172.546C48.7639 172.692 48.6957 172.783 48.5695 172.819C48.4432 172.854 48.2968 172.872 48.1302 172.872C47.908 172.872 47.7085 172.897 47.5317 172.947C47.36 172.993 47.2136 173.076 47.0924 173.197C46.9712 173.314 46.8778 173.47 46.8121 173.667C46.7515 173.859 46.7212 174.099 46.7212 174.387V174.902H48.7437V176.235H46.7818V182.605H44.9108ZM49.5858 182.605V174.834H50.6842C50.8761 174.834 51.0099 174.869 51.0857 174.94C51.1614 175.01 51.2119 175.132 51.2372 175.303L51.3508 176.242C51.6286 175.763 51.9543 175.384 52.328 175.106C52.7017 174.829 53.1208 174.69 53.5854 174.69C53.9692 174.69 54.2874 174.778 54.5399 174.955L54.2975 176.356C54.2823 176.447 54.2495 176.513 54.199 176.553C54.1485 176.588 54.0803 176.606 53.9945 176.606C53.9187 176.606 53.8152 176.588 53.6839 176.553C53.5526 176.518 53.3784 176.5 53.1612 176.5C52.7724 176.5 52.4391 176.609 52.1613 176.826C51.8836 177.038 51.6488 177.351 51.4569 177.765V182.605H49.5858ZM58.6789 174.712C59.1687 174.712 59.6182 174.791 60.0272 174.947C60.4413 175.104 60.7973 175.334 61.0953 175.637C61.3932 175.934 61.6255 176.303 61.7922 176.742C61.9588 177.177 62.0422 177.674 62.0422 178.235C62.0422 178.376 62.0346 178.495 62.0194 178.591C62.0093 178.682 61.9866 178.755 61.9513 178.81C61.921 178.861 61.878 178.899 61.8225 178.924C61.7669 178.944 61.6962 178.954 61.6104 178.954H56.8079C56.8634 179.752 57.078 180.338 57.4517 180.712C57.8254 181.085 58.3203 181.272 58.9364 181.272C59.2394 181.272 59.4995 181.237 59.7167 181.166C59.9388 181.096 60.1307 181.017 60.2923 180.931C60.459 180.846 60.6029 180.767 60.7241 180.697C60.8504 180.626 60.9716 180.591 61.0877 180.591C61.1635 180.591 61.2291 180.606 61.2847 180.636C61.3402 180.666 61.3882 180.709 61.4286 180.765L61.974 181.446C61.7669 181.689 61.5346 181.893 61.2771 182.06C61.0195 182.222 60.7494 182.353 60.4666 182.454C60.1888 182.55 59.9035 182.618 59.6106 182.658C59.3228 182.699 59.0425 182.719 58.7698 182.719C58.2294 182.719 57.727 182.631 57.2624 182.454C56.7978 182.272 56.3938 182.007 56.0504 181.659C55.707 181.305 55.4368 180.871 55.2398 180.356C55.0429 179.836 54.9444 179.235 54.9444 178.553C54.9444 178.023 55.0303 177.525 55.202 177.061C55.3737 176.591 55.6186 176.184 55.9367 175.841C56.2599 175.493 56.6513 175.217 57.1109 175.015C57.5755 174.813 58.0981 174.712 58.6789 174.712ZM58.7168 176.053C58.1714 176.053 57.7446 176.207 57.4366 176.515C57.1285 176.823 56.9316 177.26 56.8457 177.826H60.3605C60.3605 177.583 60.3277 177.356 60.262 177.144C60.1964 176.927 60.0954 176.737 59.959 176.576C59.8227 176.414 59.651 176.288 59.444 176.197C59.2369 176.101 58.9945 176.053 58.7168 176.053ZM67.87 176.349C67.8195 176.429 67.7665 176.487 67.711 176.523C67.6554 176.553 67.5847 176.568 67.4989 176.568C67.408 176.568 67.3095 176.543 67.2034 176.492C67.1024 176.442 66.9838 176.386 66.8474 176.326C66.7111 176.26 66.5545 176.202 66.3778 176.152C66.2061 176.101 66.0015 176.076 65.7642 176.076C65.3955 176.076 65.1052 176.154 64.8931 176.311C64.681 176.467 64.5749 176.672 64.5749 176.924C64.5749 177.091 64.6279 177.232 64.734 177.348C64.8451 177.46 64.989 177.558 65.1658 177.644C65.3476 177.73 65.5521 177.808 65.7793 177.879C66.0066 177.944 66.2389 178.018 66.4762 178.098C66.7136 178.179 66.9459 178.273 67.1731 178.379C67.4004 178.48 67.6024 178.611 67.7791 178.773C67.9609 178.929 68.1049 179.118 68.2109 179.341C68.322 179.563 68.3776 179.831 68.3776 180.144C68.3776 180.517 68.3094 180.863 68.173 181.181C68.0367 181.494 67.8372 181.767 67.5746 181.999C67.312 182.227 66.9863 182.406 66.5974 182.537C66.2136 182.664 65.7718 182.727 65.2718 182.727C65.0042 182.727 64.7416 182.701 64.484 182.651C64.2315 182.605 63.9866 182.54 63.7493 182.454C63.517 182.368 63.2998 182.267 63.0978 182.151C62.9009 182.035 62.7266 181.909 62.5751 181.772L63.0069 181.06C63.0625 180.974 63.1281 180.909 63.2039 180.863C63.2796 180.818 63.3756 180.795 63.4917 180.795C63.6079 180.795 63.7164 180.828 63.8174 180.894C63.9235 180.959 64.0447 181.03 64.181 181.106C64.3174 181.181 64.4764 181.252 64.6582 181.318C64.8451 181.383 65.0799 181.416 65.3627 181.416C65.5849 181.416 65.7743 181.391 65.9308 181.34C66.0924 181.285 66.2237 181.214 66.3247 181.128C66.4308 181.043 66.5065 180.944 66.552 180.833C66.6025 180.717 66.6277 180.598 66.6277 180.477C66.6277 180.295 66.5722 180.146 66.4611 180.03C66.355 179.914 66.2111 179.813 66.0293 179.727C65.8526 179.641 65.648 179.565 65.4157 179.5C65.1885 179.429 64.9537 179.353 64.7113 179.272C64.4739 179.192 64.2391 179.098 64.0068 178.992C63.7796 178.881 63.575 178.742 63.3932 178.576C63.2165 178.409 63.0726 178.204 62.9615 177.962C62.8554 177.72 62.8024 177.427 62.8024 177.083C62.8024 176.765 62.8655 176.462 62.9918 176.174C63.118 175.886 63.3023 175.637 63.5447 175.424C63.7922 175.207 64.0977 175.036 64.4613 174.909C64.8299 174.778 65.2541 174.712 65.7339 174.712C66.2692 174.712 66.7565 174.801 67.1959 174.977C67.6352 175.154 68.0013 175.387 68.2942 175.674L67.87 176.349ZM69.5672 182.605V171.349H71.4382V175.674C71.7412 175.387 72.0745 175.154 72.4381 174.977C72.8017 174.801 73.2284 174.712 73.7183 174.712C74.1425 174.712 74.5187 174.786 74.8469 174.932C75.1752 175.073 75.4479 175.275 75.665 175.538C75.8872 175.796 76.0539 176.106 76.165 176.47C76.2811 176.828 76.3392 177.225 76.3392 177.659V182.605H74.4682V177.659C74.4682 177.184 74.3571 176.818 74.1349 176.561C73.9177 176.298 73.5895 176.167 73.1501 176.167C72.8269 176.167 72.5239 176.24 72.2411 176.386C71.9583 176.533 71.6907 176.732 71.4382 176.985V182.605H69.5672ZM86.5914 182.605H85.7506C85.5739 182.605 85.435 182.58 85.334 182.53C85.233 182.474 85.1572 182.366 85.1067 182.204L84.9401 181.651C84.7431 181.828 84.5487 181.984 84.3568 182.121C84.17 182.252 83.9755 182.363 83.7735 182.454C83.5715 182.545 83.3569 182.613 83.1297 182.658C82.9024 182.704 82.6499 182.727 82.3722 182.727C82.0439 182.727 81.7409 182.684 81.4632 182.598C81.1854 182.507 80.9456 182.373 80.7436 182.196C80.5466 182.02 80.3926 181.8 80.2815 181.537C80.1704 181.275 80.1148 180.969 80.1148 180.621C80.1148 180.328 80.1906 180.04 80.3421 179.757C80.4986 179.469 80.7562 179.212 81.1147 178.985C81.4733 178.752 81.9505 178.56 82.5464 178.409C83.1423 178.257 83.8821 178.172 84.7659 178.151V177.697C84.7659 177.177 84.6548 176.793 84.4326 176.545C84.2154 176.293 83.8973 176.167 83.4781 176.167C83.1751 176.167 82.9226 176.202 82.7206 176.273C82.5186 176.343 82.3419 176.424 82.1904 176.515C82.0439 176.601 81.9076 176.679 81.7813 176.75C81.6551 176.821 81.5162 176.856 81.3647 176.856C81.2385 176.856 81.1299 176.823 81.039 176.758C80.9481 176.692 80.8749 176.611 80.8193 176.515L80.4784 175.917C81.3723 175.099 82.4505 174.69 83.7129 174.69C84.1674 174.69 84.5714 174.765 84.9249 174.917C85.2835 175.063 85.5865 175.27 85.8339 175.538C86.0814 175.801 86.2682 176.116 86.3945 176.485C86.5258 176.854 86.5914 177.258 86.5914 177.697V182.605ZM82.9554 181.439C83.1473 181.439 83.3241 181.421 83.4857 181.386C83.6473 181.351 83.7988 181.298 83.9402 181.227C84.0866 181.156 84.2255 181.07 84.3568 180.969C84.4932 180.863 84.6295 180.74 84.7659 180.598V179.288C84.2205 179.313 83.7634 179.361 83.3948 179.432C83.0312 179.497 82.7383 179.583 82.5161 179.689C82.2939 179.795 82.1348 179.919 82.0389 180.06C81.948 180.202 81.9025 180.356 81.9025 180.522C81.9025 180.851 81.9985 181.085 82.1904 181.227C82.3873 181.368 82.6424 181.439 82.9554 181.439ZM88.1282 182.605V174.834H89.272C89.5144 174.834 89.6735 174.947 89.7492 175.174L89.878 175.788C90.0346 175.626 90.1987 175.48 90.3704 175.349C90.5471 175.217 90.7315 175.104 90.9234 175.008C91.1203 174.912 91.3299 174.839 91.5521 174.788C91.7743 174.738 92.0167 174.712 92.2793 174.712C92.7035 174.712 93.0797 174.786 93.408 174.932C93.7362 175.073 94.0089 175.275 94.2261 175.538C94.4483 175.796 94.6149 176.106 94.726 176.47C94.8421 176.828 94.9002 177.225 94.9002 177.659V182.605H93.0292V177.659C93.0292 177.184 92.9181 176.818 92.6959 176.561C92.4788 176.298 92.1505 176.167 91.7112 176.167C91.388 176.167 91.085 176.24 90.8022 176.386C90.5194 176.533 90.2517 176.732 89.9992 176.985V182.605H88.1282ZM101.905 182.605C101.663 182.605 101.503 182.492 101.428 182.265L101.276 181.515C101.115 181.696 100.945 181.861 100.769 182.007C100.592 182.153 100.4 182.28 100.193 182.386C99.991 182.492 99.7713 182.573 99.534 182.628C99.3017 182.689 99.0492 182.719 98.7765 182.719C98.3523 182.719 97.9634 182.631 97.6099 182.454C97.2564 182.277 96.9509 182.022 96.6934 181.689C96.4409 181.351 96.2439 180.934 96.1025 180.439C95.9662 179.944 95.898 179.379 95.898 178.742C95.898 178.167 95.9763 177.631 96.1328 177.136C96.2894 176.641 96.5141 176.212 96.807 175.849C97.0999 175.485 97.4509 175.202 97.8599 175C98.2689 174.793 98.7285 174.69 99.2385 174.69C99.6728 174.69 100.044 174.76 100.352 174.902C100.66 175.038 100.935 175.222 101.178 175.455V171.349H103.049V182.605H101.905ZM99.4128 181.234C99.8016 181.234 100.132 181.154 100.405 180.992C100.678 180.83 100.935 180.601 101.178 180.303V176.818C100.966 176.561 100.733 176.379 100.481 176.273C100.233 176.167 99.9657 176.114 99.6779 176.114C99.3951 176.114 99.1375 176.167 98.9052 176.273C98.678 176.379 98.4836 176.54 98.322 176.758C98.1654 176.97 98.0442 177.242 97.9584 177.576C97.8725 177.904 97.8296 178.293 97.8296 178.742C97.8296 179.197 97.865 179.583 97.9357 179.901C98.0114 180.214 98.1175 180.472 98.2538 180.674C98.3901 180.871 98.5568 181.015 98.7537 181.106C98.9507 181.191 99.1704 181.234 99.4128 181.234ZM112.869 182.605C112.626 182.605 112.467 182.492 112.391 182.265L112.24 181.515C112.078 181.696 111.909 181.861 111.732 182.007C111.556 182.153 111.364 182.28 111.157 182.386C110.955 182.492 110.735 182.573 110.498 182.628C110.265 182.689 110.013 182.719 109.74 182.719C109.316 182.719 108.927 182.631 108.574 182.454C108.22 182.277 107.914 182.022 107.657 181.689C107.404 181.351 107.207 180.934 107.066 180.439C106.93 179.944 106.862 179.379 106.862 178.742C106.862 178.167 106.94 177.631 107.096 177.136C107.253 176.641 107.478 176.212 107.771 175.849C108.063 175.485 108.414 175.202 108.823 175C109.233 174.793 109.692 174.69 110.202 174.69C110.636 174.69 111.008 174.76 111.316 174.902C111.624 175.038 111.899 175.222 112.141 175.455V171.349H114.012V182.605H112.869ZM110.376 181.234C110.765 181.234 111.096 181.154 111.369 180.992C111.641 180.83 111.899 180.601 112.141 180.303V176.818C111.929 176.561 111.697 176.379 111.444 176.273C111.197 176.167 110.929 176.114 110.641 176.114C110.359 176.114 110.101 176.167 109.869 176.273C109.642 176.379 109.447 176.54 109.286 176.758C109.129 176.97 109.008 177.242 108.922 177.576C108.836 177.904 108.793 178.293 108.793 178.742C108.793 179.197 108.829 179.583 108.899 179.901C108.975 180.214 109.081 180.472 109.217 180.674C109.354 180.871 109.52 181.015 109.717 181.106C109.914 181.191 110.134 181.234 110.376 181.234ZM115.737 182.605V174.834H116.835C117.027 174.834 117.161 174.869 117.236 174.94C117.312 175.01 117.363 175.132 117.388 175.303L117.502 176.242C117.779 175.763 118.105 175.384 118.479 175.106C118.852 174.829 119.272 174.69 119.736 174.69C120.12 174.69 120.438 174.778 120.691 174.955L120.448 176.356C120.433 176.447 120.4 176.513 120.35 176.553C120.299 176.588 120.231 176.606 120.145 176.606C120.069 176.606 119.966 176.588 119.835 176.553C119.703 176.518 119.529 176.5 119.312 176.5C118.923 176.5 118.59 176.609 118.312 176.826C118.034 177.038 117.799 177.351 117.608 177.765V182.605H115.737ZM124.375 184.742C124.32 184.873 124.246 184.971 124.155 185.037C124.07 185.108 123.936 185.143 123.754 185.143H122.36L123.815 182.03L120.671 174.834H122.307C122.459 174.834 122.575 174.869 122.656 174.94C122.736 175.01 122.797 175.091 122.837 175.182L124.496 179.212C124.552 179.343 124.6 179.48 124.64 179.621C124.681 179.762 124.716 179.904 124.746 180.045C124.787 179.899 124.83 179.757 124.875 179.621C124.926 179.485 124.979 179.346 125.034 179.204L126.595 175.182C126.635 175.081 126.701 174.998 126.792 174.932C126.887 174.866 126.994 174.834 127.11 174.834H128.61L124.375 184.742ZM132.019 182.605V174.834H133.163C133.405 174.834 133.564 174.947 133.64 175.174L133.761 175.75C133.898 175.599 134.039 175.46 134.186 175.334C134.337 175.207 134.496 175.099 134.663 175.008C134.835 174.917 135.016 174.846 135.208 174.796C135.405 174.74 135.62 174.712 135.852 174.712C136.342 174.712 136.743 174.846 137.057 175.114C137.375 175.376 137.612 175.727 137.769 176.167C137.89 175.909 138.041 175.69 138.223 175.508C138.405 175.321 138.604 175.169 138.822 175.053C139.039 174.937 139.268 174.851 139.511 174.796C139.758 174.74 140.006 174.712 140.253 174.712C140.682 174.712 141.064 174.778 141.397 174.909C141.73 175.041 142.011 175.233 142.238 175.485C142.465 175.738 142.637 176.046 142.753 176.409C142.874 176.773 142.935 177.189 142.935 177.659V182.605H141.064V177.659C141.064 177.164 140.955 176.793 140.738 176.545C140.521 176.293 140.203 176.167 139.784 176.167C139.592 176.167 139.412 176.2 139.246 176.265C139.084 176.331 138.94 176.427 138.814 176.553C138.693 176.674 138.597 176.828 138.526 177.015C138.455 177.202 138.42 177.417 138.42 177.659V182.605H136.541V177.659C136.541 177.139 136.435 176.76 136.223 176.523C136.016 176.285 135.708 176.167 135.299 176.167C135.032 176.167 134.779 176.235 134.542 176.371C134.309 176.503 134.092 176.684 133.89 176.917V182.605H132.019ZM146.181 174.834V179.772C146.181 180.247 146.29 180.616 146.507 180.878C146.729 181.136 147.06 181.265 147.499 181.265C147.823 181.265 148.126 181.194 148.408 181.053C148.691 180.906 148.959 180.707 149.211 180.454V174.834H151.082V182.605H149.938C149.696 182.605 149.537 182.492 149.461 182.265L149.332 181.643C149.171 181.805 149.004 181.954 148.833 182.09C148.661 182.222 148.477 182.335 148.28 182.431C148.088 182.522 147.878 182.593 147.651 182.643C147.429 182.699 147.189 182.727 146.931 182.727C146.507 182.727 146.131 182.656 145.803 182.515C145.479 182.368 145.207 182.164 144.984 181.901C144.762 181.638 144.593 181.328 144.477 180.969C144.366 180.606 144.31 180.207 144.31 179.772V174.834H146.181ZM157.39 176.349C157.34 176.429 157.287 176.487 157.231 176.523C157.175 176.553 157.105 176.568 157.019 176.568C156.928 176.568 156.83 176.543 156.724 176.492C156.623 176.442 156.504 176.386 156.367 176.326C156.231 176.26 156.075 176.202 155.898 176.152C155.726 176.101 155.522 176.076 155.284 176.076C154.916 176.076 154.625 176.154 154.413 176.311C154.201 176.467 154.095 176.672 154.095 176.924C154.095 177.091 154.148 177.232 154.254 177.348C154.365 177.46 154.509 177.558 154.686 177.644C154.868 177.73 155.072 177.808 155.299 177.879C155.527 177.944 155.759 178.018 155.996 178.098C156.234 178.179 156.466 178.273 156.693 178.379C156.92 178.48 157.122 178.611 157.299 178.773C157.481 178.929 157.625 179.118 157.731 179.341C157.842 179.563 157.898 179.831 157.898 180.144C157.898 180.517 157.829 180.863 157.693 181.181C157.557 181.494 157.357 181.767 157.095 181.999C156.832 182.227 156.506 182.406 156.118 182.537C155.734 182.664 155.292 182.727 154.792 182.727C154.524 182.727 154.262 182.701 154.004 182.651C153.752 182.605 153.507 182.54 153.269 182.454C153.037 182.368 152.82 182.267 152.618 182.151C152.421 182.035 152.247 181.909 152.095 181.772L152.527 181.06C152.583 180.974 152.648 180.909 152.724 180.863C152.8 180.818 152.896 180.795 153.012 180.795C153.128 180.795 153.237 180.828 153.338 180.894C153.444 180.959 153.565 181.03 153.701 181.106C153.837 181.181 153.997 181.252 154.178 181.318C154.365 181.383 154.6 181.416 154.883 181.416C155.105 181.416 155.294 181.391 155.451 181.34C155.613 181.285 155.744 181.214 155.845 181.128C155.951 181.043 156.027 180.944 156.072 180.833C156.123 180.717 156.148 180.598 156.148 180.477C156.148 180.295 156.092 180.146 155.981 180.03C155.875 179.914 155.731 179.813 155.549 179.727C155.373 179.641 155.168 179.565 154.936 179.5C154.709 179.429 154.474 179.353 154.231 179.272C153.994 179.192 153.759 179.098 153.527 178.992C153.3 178.881 153.095 178.742 152.913 178.576C152.737 178.409 152.593 178.204 152.482 177.962C152.375 177.72 152.322 177.427 152.322 177.083C152.322 176.765 152.386 176.462 152.512 176.174C152.638 175.886 152.822 175.637 153.065 175.424C153.312 175.207 153.618 175.036 153.981 174.909C154.35 174.778 154.774 174.712 155.254 174.712C155.789 174.712 156.277 174.801 156.716 174.977C157.155 175.154 157.521 175.387 157.814 175.674L157.39 176.349ZM159.087 182.605V171.349H160.958V175.674C161.261 175.387 161.595 175.154 161.958 174.977C162.322 174.801 162.748 174.712 163.238 174.712C163.663 174.712 164.039 174.786 164.367 174.932C164.695 175.073 164.968 175.275 165.185 175.538C165.407 175.796 165.574 176.106 165.685 176.47C165.801 176.828 165.859 177.225 165.859 177.659V182.605H163.988V177.659C163.988 177.184 163.877 176.818 163.655 176.561C163.438 176.298 163.11 176.167 162.67 176.167C162.347 176.167 162.044 176.24 161.761 176.386C161.478 176.533 161.211 176.732 160.958 176.985V182.605H159.087ZM167.395 182.605V174.834H168.493C168.685 174.834 168.819 174.869 168.895 174.94C168.97 175.01 169.021 175.132 169.046 175.303L169.16 176.242C169.438 175.763 169.763 175.384 170.137 175.106C170.511 174.829 170.93 174.69 171.394 174.69C171.778 174.69 172.096 174.778 172.349 174.955L172.107 176.356C172.091 176.447 172.059 176.513 172.008 176.553C171.958 176.588 171.889 176.606 171.804 176.606C171.728 176.606 171.624 176.588 171.493 176.553C171.362 176.518 171.187 176.5 170.97 176.5C170.581 176.5 170.248 176.609 169.97 176.826C169.693 177.038 169.458 177.351 169.266 177.765V182.605H167.395ZM176.594 174.712C177.175 174.712 177.7 174.806 178.17 174.993C178.644 175.179 179.048 175.445 179.382 175.788C179.715 176.131 179.972 176.551 180.154 177.045C180.336 177.54 180.427 178.093 180.427 178.704C180.427 179.32 180.336 179.876 180.154 180.371C179.972 180.866 179.715 181.287 179.382 181.636C179.048 181.984 178.644 182.252 178.17 182.439C177.7 182.626 177.175 182.719 176.594 182.719C176.013 182.719 175.485 182.626 175.011 182.439C174.536 182.252 174.13 181.984 173.791 181.636C173.458 181.287 173.198 180.866 173.011 180.371C172.829 179.876 172.738 179.32 172.738 178.704C172.738 178.093 172.829 177.54 173.011 177.045C173.198 176.551 173.458 176.131 173.791 175.788C174.13 175.445 174.536 175.179 175.011 174.993C175.485 174.806 176.013 174.712 176.594 174.712ZM176.594 181.28C177.24 181.28 177.718 181.063 178.026 180.628C178.339 180.194 178.495 179.558 178.495 178.72C178.495 177.881 178.339 177.242 178.026 176.803C177.718 176.364 177.24 176.144 176.594 176.144C175.937 176.144 175.453 176.366 175.14 176.811C174.826 177.25 174.67 177.886 174.67 178.72C174.67 179.553 174.826 180.189 175.14 180.628C175.453 181.063 175.937 181.28 176.594 181.28ZM184.902 174.712C185.482 174.712 186.007 174.806 186.477 174.993C186.952 175.179 187.356 175.445 187.689 175.788C188.022 176.131 188.28 176.551 188.462 177.045C188.644 177.54 188.734 178.093 188.734 178.704C188.734 179.32 188.644 179.876 188.462 180.371C188.28 180.866 188.022 181.287 187.689 181.636C187.356 181.984 186.952 182.252 186.477 182.439C186.007 182.626 185.482 182.719 184.902 182.719C184.321 182.719 183.793 182.626 183.318 182.439C182.844 182.252 182.437 181.984 182.099 181.636C181.766 181.287 181.505 180.866 181.319 180.371C181.137 179.876 181.046 179.32 181.046 178.704C181.046 178.093 181.137 177.54 181.319 177.045C181.505 176.551 181.766 176.131 182.099 175.788C182.437 175.445 182.844 175.179 183.318 174.993C183.793 174.806 184.321 174.712 184.902 174.712ZM184.902 181.28C185.548 181.28 186.025 181.063 186.333 180.628C186.646 180.194 186.803 179.558 186.803 178.72C186.803 177.881 186.646 177.242 186.333 176.803C186.025 176.364 185.548 176.144 184.902 176.144C184.245 176.144 183.76 176.366 183.447 176.811C183.134 177.25 182.978 177.886 182.978 178.72C182.978 179.553 183.134 180.189 183.447 180.628C183.76 181.063 184.245 181.28 184.902 181.28ZM189.891 182.605V174.834H191.035C191.278 174.834 191.437 174.947 191.512 175.174L191.634 175.75C191.77 175.599 191.911 175.46 192.058 175.334C192.209 175.207 192.368 175.099 192.535 175.008C192.707 174.917 192.888 174.846 193.08 174.796C193.277 174.74 193.492 174.712 193.724 174.712C194.214 174.712 194.616 174.846 194.929 175.114C195.247 175.376 195.484 175.727 195.641 176.167C195.762 175.909 195.913 175.69 196.095 175.508C196.277 175.321 196.476 175.169 196.694 175.053C196.911 174.937 197.141 174.851 197.383 174.796C197.63 174.74 197.878 174.712 198.125 174.712C198.555 174.712 198.936 174.778 199.269 174.909C199.602 175.041 199.883 175.233 200.11 175.485C200.337 175.738 200.509 176.046 200.625 176.409C200.746 176.773 200.807 177.189 200.807 177.659V182.605H198.936V177.659C198.936 177.164 198.827 176.793 198.61 176.545C198.393 176.293 198.075 176.167 197.656 176.167C197.464 176.167 197.284 176.2 197.118 176.265C196.956 176.331 196.812 176.427 196.686 176.553C196.565 176.674 196.469 176.828 196.398 177.015C196.327 177.202 196.292 177.417 196.292 177.659V182.605H194.414V177.659C194.414 177.139 194.308 176.76 194.095 176.523C193.888 176.285 193.58 176.167 193.171 176.167C192.904 176.167 192.651 176.235 192.414 176.371C192.181 176.503 191.964 176.684 191.762 176.917V182.605H189.891ZM206.955 176.349C206.904 176.429 206.851 176.487 206.796 176.523C206.74 176.553 206.669 176.568 206.583 176.568C206.493 176.568 206.394 176.543 206.288 176.492C206.187 176.442 206.068 176.386 205.932 176.326C205.796 176.26 205.639 176.202 205.462 176.152C205.291 176.101 205.086 176.076 204.849 176.076C204.48 176.076 204.19 176.154 203.978 176.311C203.766 176.467 203.66 176.672 203.66 176.924C203.66 177.091 203.713 177.232 203.819 177.348C203.93 177.46 204.074 177.558 204.25 177.644C204.432 177.73 204.637 177.808 204.864 177.879C205.091 177.944 205.323 178.018 205.561 178.098C205.798 178.179 206.03 178.273 206.258 178.379C206.485 178.48 206.687 178.611 206.864 178.773C207.046 178.929 207.189 179.118 207.295 179.341C207.407 179.563 207.462 179.831 207.462 180.144C207.462 180.517 207.394 180.863 207.258 181.181C207.121 181.494 206.922 181.767 206.659 181.999C206.397 182.227 206.071 182.406 205.682 182.537C205.298 182.664 204.856 182.727 204.356 182.727C204.089 182.727 203.826 182.701 203.569 182.651C203.316 182.605 203.071 182.54 202.834 182.454C202.602 182.368 202.384 182.267 202.182 182.151C201.985 182.035 201.811 181.909 201.66 181.772L202.091 181.06C202.147 180.974 202.213 180.909 202.288 180.863C202.364 180.818 202.46 180.795 202.576 180.795C202.692 180.795 202.801 180.828 202.902 180.894C203.008 180.959 203.129 181.03 203.266 181.106C203.402 181.181 203.561 181.252 203.743 181.318C203.93 181.383 204.165 181.416 204.447 181.416C204.67 181.416 204.859 181.391 205.015 181.34C205.177 181.285 205.308 181.214 205.409 181.128C205.515 181.043 205.591 180.944 205.637 180.833C205.687 180.717 205.712 180.598 205.712 180.477C205.712 180.295 205.657 180.146 205.546 180.03C205.44 179.914 205.296 179.813 205.114 179.727C204.937 179.641 204.733 179.565 204.5 179.5C204.273 179.429 204.038 179.353 203.796 179.272C203.559 179.192 203.324 179.098 203.091 178.992C202.864 178.881 202.66 178.742 202.478 178.576C202.301 178.409 202.157 178.204 202.046 177.962C201.94 177.72 201.887 177.427 201.887 177.083C201.887 176.765 201.95 176.462 202.076 176.174C202.203 175.886 202.387 175.637 202.629 175.424C202.877 175.207 203.182 175.036 203.546 174.909C203.915 174.778 204.339 174.712 204.818 174.712C205.354 174.712 205.841 174.801 206.28 174.977C206.72 175.154 207.086 175.387 207.379 175.674L206.955 176.349Z" fill="#797E82"/>
</svg>
