<svg width="339" height="79" viewBox="0 0 339 79" fill="none" xmlns="http://www.w3.org/2000/svg">
<path fill-rule="evenodd" clip-rule="evenodd" d="M48.9604 37.4676V78.2095H52.655V77.8726C52.655 76.3323 53.1581 74.9545 54.0704 73.9651C54.9794 72.9793 56.3148 72.3568 58.0279 72.3568C59.741 72.3568 61.0763 72.9793 61.9854 73.9651C62.8976 74.9545 63.4008 76.3323 63.4008 77.8726V78.2095H67.0953V37.4676C67.0953 32.7563 62.9738 29.0215 58.0279 29.0215C53.082 29.0215 48.9604 32.7563 48.9604 37.4676ZM54.7244 69.1518C53.9773 69.391 53.3059 69.7577 52.655 70.2978V37.4676C52.655 35.931 53.1549 34.7335 54.0498 33.9171C54.9488 33.0969 56.2866 32.6248 58.0279 32.6248C59.7692 32.6248 61.1069 33.0969 62.0059 33.9171C62.9008 34.7335 63.4008 35.931 63.4008 37.4676V70.3119C62.751 69.7686 62.0817 69.3987 61.3357 69.157C60.3762 68.8461 59.3083 68.7535 58.0279 68.7535C56.7524 68.7535 55.6848 68.8443 54.7244 69.1518Z" fill="#FBA633"/>
<path fill-rule="evenodd" clip-rule="evenodd" d="M35.4317 78.2114C40.3796 78.2114 44.4991 74.4163 44.4991 69.6337V29.0234H40.4629V29.5581C40.4629 31.0474 39.9841 32.3654 39.132 33.3041C38.2863 34.2359 37.0429 34.8285 35.4317 34.8285C33.8205 34.8285 32.5771 34.2359 31.7314 33.3041C30.8793 32.3654 30.4004 31.0474 30.4004 29.5581V29.0234H26.3643V69.6337C26.3643 74.4163 30.4837 78.2114 35.4317 78.2114ZM38.7272 38.3972C39.3484 38.1952 39.9171 37.9049 40.4629 37.5027V69.6337C40.4629 71.1177 39.9886 72.2493 39.1647 73.013C38.3365 73.7805 37.0899 74.2366 35.4317 74.2366C33.7734 74.2366 32.5268 73.7805 31.6987 73.013C30.8748 72.2493 30.4004 71.1177 30.4004 69.6337V37.4909C30.9445 37.8952 31.5113 38.1878 32.1311 38.3918C33.1018 38.7112 34.1727 38.8033 35.4317 38.8033C36.6856 38.8033 37.756 38.713 38.7272 38.3972Z" fill="#FBA633"/>
<path fill-rule="evenodd" clip-rule="evenodd" d="M74.3714 25.1125H80.6642L80.4816 24.5774C75.606 10.286 62.3723 0.046875 46.8531 0.046875C31.3338 0.046875 18.1001 10.286 13.2246 24.5774L13.042 25.1125H19.3467L19.4491 24.8613C23.9298 13.8665 34.5567 6.04161 46.8531 6.04161C59.1628 6.04161 69.7968 13.7905 74.2695 24.8601L74.3714 25.1125Z" fill="#1DAE9F"/>
<path fill-rule="evenodd" clip-rule="evenodd" d="M82.9971 28.898C83.0301 29.0486 82.966 28.7468 82.9971 28.898C88.837 29.2445 93.5318 34.2097 93.5318 40.2142V57.073C93.5318 63.4239 88.3789 68.5047 82.1956 68.5047H77.2256C75.8515 68.5047 74.7064 67.35 74.7064 65.9643V31.3229C74.7064 29.9373 75.8515 28.7826 77.2256 28.7826H79.7448C79.7176 28.6699 79.7732 28.8947 79.7448 28.7826L82.9971 28.898Z" fill="#1DAE9F"/>
<path fill-rule="evenodd" clip-rule="evenodd" d="M13.9785 28.7849C13.9498 28.897 13.9853 28.6699 13.9579 28.7826H16.477C17.8511 28.7826 18.9962 29.9373 18.9962 31.3229V65.9643C18.9962 67.35 17.8511 68.5047 16.477 68.5047H11.5071C5.2092 68.5047 0.170898 63.4239 0.170898 57.073V40.2142C0.170898 34.2097 4.86568 29.2445 10.7055 28.898C10.7366 28.7468 10.6726 29.0486 10.7055 28.898L13.9785 28.7849Z" fill="#1DAE9F"/>
<path fill-rule="evenodd" clip-rule="evenodd" d="M111.551 29.0215V68.6253H104.276V29.0215H111.551ZM145.231 56.5552H123.207C123.476 58.3659 124.246 59.8144 125.503 60.9373C126.923 62.2058 128.667 62.8486 130.776 62.8486C132.306 62.8486 133.57 62.5345 134.596 61.9371C135.619 61.3417 136.444 60.4426 137.064 59.209L137.239 58.8598H144.993L144.713 59.6968C143.791 62.4516 142.109 64.717 139.688 66.4835C137.275 68.2348 134.289 69.0915 130.776 69.0915C127.904 69.0915 125.303 68.4656 122.987 67.2012L122.977 67.1955C120.698 65.8954 118.895 64.0865 117.575 61.7794L117.569 61.7691C116.28 59.4177 115.646 56.7195 115.646 53.6928C115.646 50.6694 116.261 47.9892 117.514 45.6715L117.516 45.6684C118.802 43.3213 120.592 41.5067 122.878 40.2383L122.882 40.2363C125.2 38.9706 127.837 38.346 130.776 38.346C133.61 38.346 136.159 38.9538 138.407 40.1849C140.655 41.4161 142.41 43.1589 143.663 45.4032C144.918 47.6178 145.537 50.163 145.537 53.0194C145.537 54.117 145.465 55.119 145.318 56.0227L145.231 56.5552ZM125.601 46.4031C124.418 47.4273 123.644 48.7871 123.296 50.5196H137.962C137.799 48.8184 137.092 47.4619 135.849 46.4072C134.432 45.2042 132.667 44.5888 130.512 44.5888C128.585 44.5888 126.961 45.1938 125.607 46.3976L125.601 46.4031ZM149.524 45.6715L149.527 45.6647C150.81 43.3609 152.54 41.5666 154.716 40.2976C156.925 38.9955 159.356 38.346 161.994 38.346C164.359 38.346 166.448 38.8105 168.241 39.7632C169.467 40.3786 170.532 41.1089 171.43 41.9567V38.8122H178.759V68.6253H171.43V65.4048C170.523 66.2792 169.439 67.0352 168.186 67.6755C166.328 68.6249 164.224 69.0915 161.889 69.0915C159.283 69.0915 156.886 68.4408 154.711 67.1367L154.704 67.1327C152.532 65.7944 150.806 63.95 149.525 61.6137L149.52 61.6034C148.272 59.223 147.655 56.5468 147.655 53.5892C147.655 50.6321 148.272 47.987 149.524 45.6715ZM170.246 48.8742C169.489 47.5168 168.497 46.4993 167.27 45.8013C166.03 45.0961 164.697 44.7442 163.259 44.7442C161.822 44.7442 160.488 45.0961 159.249 45.8013L159.238 45.8075C158.015 46.4714 157.007 47.471 156.216 48.8305C155.474 50.1319 155.088 51.7098 155.088 53.5892C155.088 55.4666 155.473 57.0838 156.221 58.4602C157.013 59.8534 158.024 60.9057 159.251 61.6374C160.529 62.3441 161.862 62.6932 163.259 62.6932C164.697 62.6932 166.03 62.3414 167.27 61.6362C168.497 60.9382 169.489 59.9207 170.246 58.5633L170.248 58.5587C171.029 57.1832 171.43 55.568 171.43 53.6928C171.43 51.8172 171.029 50.2221 170.251 48.8843L170.246 48.8742ZM194.674 39.6689C196.26 38.7788 198.11 38.346 200.2 38.346H200.833V45.7285H198.671C196.418 45.7285 194.807 46.2892 193.734 47.3117C192.726 48.3051 192.135 50.1244 192.135 52.9676V68.6253H184.859V38.8122H192.135V41.6774C192.862 40.8715 193.709 40.2011 194.674 39.6689ZM232.4 68.6253H225.177V52.0351C225.177 49.5834 224.554 47.814 223.404 46.6232L223.399 46.6174C222.24 45.3867 220.645 44.7442 218.535 44.7442C216.425 44.7442 214.808 45.3866 213.612 46.6235C212.462 47.8143 211.84 49.5836 211.84 52.0351V68.6253H204.564V38.8122H211.84V41.1643C212.67 40.4425 213.624 39.8489 214.698 39.3824L214.703 39.3803C216.33 38.6902 218.048 38.346 219.853 38.346C222.224 38.346 224.364 38.8304 226.257 39.8148C228.198 40.8055 229.712 42.2768 230.79 44.2141C231.873 46.159 232.4 48.4812 232.4 51.1545V68.6253Z" fill="#343434"/>
<path fill-rule="evenodd" clip-rule="evenodd" d="M261.23 52.0356V68.1672H267.539V51.155C267.539 48.5422 267.025 46.3013 265.988 44.4393C264.989 42.5804 263.594 41.1737 261.805 40.2244C260.054 39.2766 258.057 38.805 255.818 38.805C253.934 38.805 252.188 39.1374 250.583 39.8031C249.166 40.4047 247.963 41.2363 246.979 42.2983V29.4805H240.618V68.1672H246.979V52.0356C246.979 49.5088 247.622 47.6081 248.88 46.3046C250.177 44.9634 251.92 44.2862 254.131 44.2862C256.342 44.2862 258.067 44.9635 259.328 46.303L259.329 46.3046C260.588 47.6081 261.23 49.5088 261.23 52.0356ZM246.803 42.7629C246.803 42.7629 246.803 42.7629 246.803 42.7629V42.7629ZM254.131 44.1098C254.272 44.1098 254.41 44.1125 254.547 44.1179L254.131 44.1098Z" fill="#343434"/>
<path fill-rule="evenodd" clip-rule="evenodd" d="M294.622 68.1672H300.983V39.2712H294.622V55.351C294.622 57.8762 293.963 59.7949 292.668 61.1338C291.408 62.4395 289.682 63.1004 287.47 63.1004C285.259 63.1004 283.533 62.4398 282.273 61.1346C281.013 59.7959 280.371 57.8769 280.371 55.351V39.2712H274.062V56.2316C274.062 58.8449 274.577 61.0862 275.613 62.9484L275.615 62.9506C276.685 64.8088 278.134 66.2151 279.957 67.1638C281.812 68.1102 283.896 68.5816 286.205 68.5816C287.95 68.5816 289.59 68.249 291.125 67.5829L291.126 67.5821C292.532 66.9545 293.698 66.1279 294.622 65.1009V68.1672ZM294.622 64.8345C294.506 64.9689 294.387 65.1 294.263 65.2278C294.451 65.0341 294.629 64.8327 294.798 64.6237C294.74 64.6948 294.682 64.7651 294.622 64.8345Z" fill="#343434"/>
<path fill-rule="evenodd" clip-rule="evenodd" d="M331.338 66.7431C333.475 65.4484 335.149 63.6633 336.358 61.3914C337.568 59.084 338.171 56.4814 338.171 53.5897C338.171 50.6985 337.568 48.1309 336.358 45.8916C335.148 43.6197 333.492 41.8681 331.388 40.6419C329.286 39.4165 326.936 38.805 324.341 38.805C322.138 38.805 320.125 39.2591 318.306 40.1701C316.703 40.9581 315.398 41.9619 314.395 43.1831V29.4805H308.034V68.1672H314.395V64.3498C315.394 65.5423 316.683 66.5324 318.254 67.3204C320.039 68.1972 322.069 68.6334 324.341 68.6334C326.902 68.6334 329.236 68.0035 331.338 66.7431ZM327.264 45.4054C328.603 46.1137 329.668 47.1762 330.461 48.5991L330.464 48.6035C331.288 49.9872 331.704 51.6468 331.704 53.5897C331.704 55.5323 331.288 57.228 330.462 58.6826L330.46 58.6854C329.667 60.1438 328.6 61.2589 327.259 62.0359C325.95 62.7803 324.539 63.1522 323.023 63.1522C321.543 63.1522 320.132 62.7806 318.787 62.0351C317.482 61.2924 316.414 60.2116 315.585 58.7869C314.794 57.3322 314.395 55.6362 314.395 53.6933C314.395 51.75 314.794 50.0718 315.585 48.6524C316.414 47.2273 317.481 46.1462 318.786 45.4034C320.132 44.6578 321.543 44.2862 323.023 44.2862C324.54 44.2862 325.951 44.6583 327.26 45.4029L327.264 45.4054Z" fill="#343434"/>
</svg>
