<svg width="276" height="65" viewBox="0 0 276 65" fill="none" xmlns="http://www.w3.org/2000/svg">
<path fill-rule="evenodd" clip-rule="evenodd" d="M40.1609 31.2164V64.3399H43.1646V64.066C43.1646 62.8137 43.5736 61.6935 44.3153 60.8892C45.0543 60.0877 46.14 59.5816 47.5328 59.5816C48.9255 59.5816 50.0112 60.0877 50.7502 60.8892C51.4919 61.6935 51.901 62.8137 51.901 64.066V64.3399H54.9047V31.2164C54.9047 27.3861 51.5538 24.3496 47.5328 24.3496C43.5117 24.3496 40.1609 27.3861 40.1609 31.2164ZM44.8471 56.9759C44.2396 57.1704 43.6938 57.4685 43.1646 57.9076V31.2164C43.1646 29.9671 43.571 28.9936 44.2986 28.3298C45.0295 27.6629 46.1171 27.2791 47.5328 27.2791C48.9485 27.2791 50.0361 27.6629 50.767 28.3298C51.4945 28.9936 51.901 29.9671 51.901 31.2164V57.919C51.3727 57.4773 50.8286 57.1766 50.222 56.9801C49.4419 56.7274 48.5738 56.6521 47.5328 56.6521C46.4958 56.6521 45.6278 56.7259 44.8471 56.9759Z" fill="#797E82"/>
<path fill-rule="evenodd" clip-rule="evenodd" d="M29.1623 64.3399C33.185 64.3399 36.5342 61.2544 36.5342 57.3661V24.3496H33.2528V24.7843C33.2528 25.9951 32.8634 27.0666 32.1707 27.8298C31.4831 28.5873 30.4722 29.0691 29.1623 29.0691C27.8524 29.0691 26.8415 28.5873 26.1539 27.8298C25.4612 27.0666 25.0718 25.9951 25.0718 24.7843V24.3496H21.7904V57.3661C21.7904 61.2544 25.1396 64.3399 29.1623 64.3399ZM31.8416 31.9705C32.3466 31.8063 32.809 31.5703 33.2528 31.2433V57.3661C33.2528 58.5726 32.8671 59.4926 32.1972 60.1135C31.524 60.7375 30.5105 61.1083 29.1623 61.1083C27.8141 61.1083 26.8006 60.7375 26.1274 60.1135C25.4575 59.4926 25.0718 58.5726 25.0718 57.3661V31.2338C25.5142 31.5624 25.975 31.8003 26.4789 31.9661C27.2681 32.2259 28.1387 32.3007 29.1623 32.3007C30.1817 32.3007 31.052 32.2273 31.8416 31.9705Z" fill="#797E82"/>
<path fill-rule="evenodd" clip-rule="evenodd" d="M60.8203 21.1716H65.9363L65.7879 20.7365C61.824 9.1175 51.0649 0.792969 38.4476 0.792969C25.8304 0.792969 15.0713 9.1175 11.1074 20.7365L10.959 21.1716H16.0847L16.168 20.9673C19.8108 12.0284 28.4506 5.66674 38.4476 5.66674C48.4555 5.66674 57.1011 11.9666 60.7374 20.9664L60.8203 21.1716Z" fill="#797E82"/>
<path fill-rule="evenodd" clip-rule="evenodd" d="M67.8334 24.2493C67.8602 24.3716 67.8081 24.1263 67.8334 24.2493C72.5812 24.5309 76.3981 28.5677 76.3981 33.4494V47.1558C76.3981 52.3191 72.2088 56.4498 67.1817 56.4498H63.1411C62.0239 56.4498 61.093 55.511 61.093 54.3845V26.2207C61.093 25.0942 62.0239 24.1554 63.1411 24.1554H65.1892C65.1671 24.0638 65.2123 24.2466 65.1892 24.1554L67.8334 24.2493Z" fill="#797E82"/>
<path fill-rule="evenodd" clip-rule="evenodd" d="M11.7207 24.1573C11.6973 24.2484 11.7262 24.0638 11.7039 24.1554H13.752C14.8691 24.1554 15.8001 25.0942 15.8001 26.2207V54.3845C15.8001 55.511 14.8691 56.4498 13.752 56.4498H9.71139C4.59114 56.4498 0.494965 52.3191 0.494965 47.1558V33.4494C0.494965 28.5677 4.31186 24.5309 9.05971 24.2493C9.08497 24.1263 9.03292 24.3716 9.05971 24.2493L11.7207 24.1573Z" fill="#797E82"/>
<path fill-rule="evenodd" clip-rule="evenodd" d="M91.0482 24.3496V56.5478H85.1331V24.3496H91.0482ZM118.43 46.7348H100.524C100.743 48.2068 101.369 49.3845 102.391 50.2974C103.545 51.3288 104.963 51.8513 106.678 51.8513C107.922 51.8513 108.95 51.5959 109.784 51.1103C110.616 50.6262 111.286 49.8953 111.79 48.8923L111.932 48.6084H118.237L118.009 49.2889C117.259 51.5286 115.892 53.3704 113.923 54.8066C111.961 56.2303 109.534 56.9268 106.678 56.9268C104.343 56.9268 102.229 56.418 100.346 55.39L100.337 55.3854C98.4846 54.3284 97.0188 52.8578 95.9451 50.9821L95.9403 50.9737C94.8928 49.062 94.3767 46.8683 94.3767 44.4076C94.3767 41.9495 94.8775 39.7705 95.8962 37.8862L95.8976 37.8837C96.9432 35.9755 98.398 34.5002 100.257 33.469L100.26 33.4673C102.145 32.4383 104.289 31.9305 106.678 31.9305C108.982 31.9305 111.054 32.4246 112.882 33.4256C114.709 34.4265 116.136 35.8434 117.155 37.6681C118.176 39.4686 118.679 41.5378 118.679 43.8601C118.679 44.7524 118.62 45.5671 118.5 46.3018L118.43 46.7348ZM102.471 38.481C101.509 39.3137 100.879 40.4192 100.597 41.8277H112.52C112.388 40.4447 111.813 39.3418 110.803 38.4843C109.65 37.5063 108.215 37.006 106.463 37.006C104.896 37.006 103.577 37.4978 102.476 38.4765L102.471 38.481ZM121.92 37.8862L121.923 37.8807C122.965 36.0076 124.372 34.5489 126.141 33.5172C127.937 32.4586 129.913 31.9305 132.059 31.9305C133.981 31.9305 135.679 32.3081 137.137 33.0827C138.134 33.5831 139 34.1768 139.73 34.866V32.3095H145.688V56.5478H139.73V53.9295C138.992 54.6405 138.111 55.255 137.092 55.7756C135.582 56.5475 133.871 56.9268 131.973 56.9268C129.854 56.9268 127.905 56.3978 126.137 55.3376L126.132 55.3344C124.366 54.2463 122.962 52.7468 121.921 50.8473L121.917 50.839C120.902 48.9037 120.4 46.7279 120.4 44.3234C120.4 41.9192 120.902 39.7688 121.92 37.8862ZM138.767 40.49C138.152 39.3864 137.345 38.5592 136.348 37.9917C135.34 37.4184 134.256 37.1323 133.087 37.1323C131.918 37.1323 130.834 37.4184 129.826 37.9917L129.818 37.9967C128.824 38.5365 128.004 39.3492 127.361 40.4545C126.757 41.5125 126.444 42.7954 126.444 44.3234C126.444 45.8497 126.757 47.1645 127.365 48.2835C128.009 49.4162 128.831 50.2718 129.828 50.8666C130.867 51.4411 131.951 51.725 133.087 51.725C134.256 51.725 135.34 51.4389 136.348 50.8656C137.345 50.2981 138.152 49.4709 138.767 48.3673L138.769 48.3636C139.404 47.2453 139.73 45.9322 139.73 44.4076C139.73 42.8827 139.404 41.5859 138.772 40.4982L138.767 40.49ZM158.628 33.006C159.917 32.2824 161.421 31.9305 163.12 31.9305H163.635V37.9325H161.877C160.045 37.9325 158.736 38.3884 157.863 39.2197C157.043 40.0273 156.563 41.5064 156.563 43.818V56.5478H150.648V32.3095H156.563V34.6389C157.155 33.9838 157.843 33.4387 158.628 33.006ZM189.299 56.5478H183.426V43.0599C183.426 41.0666 182.92 39.6281 181.986 38.6599L181.981 38.6552C181.039 37.6546 179.742 37.1323 178.026 37.1323C176.311 37.1323 174.996 37.6546 174.024 38.6602C173.09 39.6283 172.583 41.0668 172.583 43.0599V56.5478H166.668V32.3095H172.583V34.2218C173.258 33.635 174.034 33.1524 174.908 32.7732L174.912 32.7715C176.234 32.2104 177.631 31.9305 179.098 31.9305C181.026 31.9305 182.766 32.3243 184.305 33.1246C185.882 33.9301 187.113 35.1263 187.99 36.7013C188.871 38.2825 189.299 40.1705 189.299 42.3439V56.5478Z" fill="#797E82"/>
<path fill-rule="evenodd" clip-rule="evenodd" d="M212.738 43.0582V56.1733H217.867V42.3422C217.867 40.2181 217.449 38.3961 216.606 36.8824C215.793 35.3711 214.659 34.2274 213.205 33.4556C211.782 32.685 210.158 32.3016 208.337 32.3016C206.806 32.3016 205.386 32.5718 204.082 33.1131C202.929 33.6022 201.952 34.2783 201.151 35.1417V24.7207H195.98V56.1733H201.151V43.0582C201.151 41.0039 201.674 39.4586 202.697 38.3989C203.751 37.3085 205.169 36.7578 206.966 36.7578C208.763 36.7578 210.166 37.3085 211.191 38.3976L211.192 38.3989C212.215 39.4586 212.738 41.0039 212.738 43.0582ZM201.008 35.5194C201.009 35.5194 201.008 35.5194 201.008 35.5194V35.5194ZM206.966 36.6145C207.08 36.6145 207.193 36.6167 207.304 36.621L206.966 36.6145Z" fill="#797E82"/>
<path fill-rule="evenodd" clip-rule="evenodd" d="M239.886 56.1733H245.057V32.6806H239.886V45.7536C239.886 47.8067 239.349 49.3666 238.297 50.4551C237.272 51.5167 235.869 52.054 234.071 52.054C232.273 52.054 230.87 51.5169 229.845 50.4557C228.821 49.3674 228.299 47.8072 228.299 45.7536V32.6806H223.17V46.4696C223.17 48.5942 223.588 50.4164 224.431 51.9304L224.432 51.9322C225.303 53.4429 226.48 54.5863 227.963 55.3575C229.471 56.127 231.165 56.5103 233.042 56.5103C234.461 56.5103 235.795 56.2399 237.042 55.6983L237.044 55.6977C238.186 55.1874 239.134 54.5154 239.886 53.6804V56.1733ZM239.886 53.4638C239.792 53.5731 239.694 53.6797 239.593 53.7836C239.746 53.6261 239.891 53.4623 240.028 53.2924C239.982 53.3502 239.934 53.4074 239.886 53.4638Z" fill="#797E82"/>
<path fill-rule="evenodd" clip-rule="evenodd" d="M269.736 55.0155C271.473 53.9629 272.834 52.5116 273.817 50.6645C274.801 48.7886 275.291 46.6727 275.291 44.3217C275.291 41.9711 274.801 39.8836 273.817 38.0631C272.834 36.216 271.487 34.7919 269.777 33.7951C268.068 32.7987 266.157 32.3016 264.048 32.3016C262.256 32.3016 260.62 32.6708 259.141 33.4115C257.837 34.0521 256.776 34.8682 255.961 35.861V24.7207H250.79V56.1733H255.961V53.0698C256.773 54.0393 257.821 54.8442 259.099 55.4849C260.55 56.1977 262.2 56.5524 264.048 56.5524C266.129 56.5524 268.027 56.0403 269.736 55.0155ZM266.424 37.6678C267.512 38.2436 268.378 39.1075 269.023 40.2643L269.025 40.2679C269.695 41.3929 270.034 42.7421 270.034 44.3217C270.034 45.901 269.695 47.2797 269.024 48.4623L269.022 48.4646C268.377 49.6502 267.509 50.5568 266.42 51.1885C265.356 51.7937 264.209 52.0961 262.976 52.0961C261.773 52.0961 260.625 51.794 259.531 51.1879C258.47 50.5841 257.603 49.7053 256.929 48.5471C256.285 47.3644 255.961 45.9855 255.961 44.4059C255.961 42.826 256.286 41.4616 256.928 40.3076C257.602 39.149 258.47 38.2701 259.531 37.6662C260.625 37.06 261.773 36.7578 262.976 36.7578C264.209 36.7578 265.356 37.0604 266.42 37.6658L266.424 37.6678Z" fill="#797E82"/>
</svg>
