<svg width="127" height="237" viewBox="0 0 127 237" fill="none" xmlns="http://www.w3.org/2000/svg">
<path fill-rule="evenodd" clip-rule="evenodd" d="M65.0428 0.703055C38.5661 3.22649 18.3408 16.8441 10.7197 37.2759C-1.16625 69.1429 17.4862 126.243 55.9931 175.869C60.2289 181.329 67.326 189.673 67.7339 189.673C68.0306 189.673 71.9173 185.619 73.8933 183.248C84.1846 170.9 99.5243 147.643 109.944 128.595C113.449 122.185 119.144 110.896 119.606 109.44C119.695 109.161 112.717 105.709 112.528 105.937C112.503 105.967 112.16 106.705 111.765 107.578C107.469 117.065 98.7568 132.656 90.5061 145.621C81.387 159.95 68.3208 178.166 67.5936 177.563C66.7374 176.851 58.8713 166.548 55.1982 161.326C32.2269 128.665 18.5149 96.3193 15.461 67.5893C12.4691 39.4454 24.0914 20.4801 49.4701 12.0915C55.5835 10.0704 64.1124 8.39912 68.3119 8.39912H69.0545L69.0142 4.50594L68.9738 0.61276L67.6887 0.593409C66.9817 0.582122 65.7909 0.631302 65.0428 0.703055ZM65.5797 18.8363C26.6286 21.8838 9.03549 69.2122 36.6062 96.7821C61.227 121.403 103.467 110.48 112.952 77.0389C121.618 46.486 97.1057 16.3701 65.5797 18.8363ZM73.7361 28.1488C99.7202 31.4526 114.047 60.6317 100.805 83.2821C86.0751 108.477 49.2338 107.346 36.0346 81.2932C22.7281 55.0294 44.4401 24.4233 73.7361 28.1488Z" fill="#0699CF"/>
<path fill-rule="evenodd" clip-rule="evenodd" d="M65.983 34.421C46.8049 36.2688 34.2176 55.7024 40.3222 74.0396C47.4563 95.471 74.944 101.678 90.6763 85.4104C92.113 83.9245 93.8439 81.7671 93.8439 81.4624C93.8439 81.3745 92.3073 80.6231 90.4288 79.7935L87.0129 78.2835L85.0232 80.2813C68.1493 97.2278 39.9763 79.9596 47.5063 57.2858C52.7338 41.5446 72.7511 36.667 84.6539 48.2337L85.8205 49.3672L89.0131 47.2743L92.2065 45.1814L91.3052 44.1656C85.161 37.2443 75.4535 33.5083 65.983 34.421ZM65.8741 64.4143V81.7252H68.8982H71.9215V64.4143V47.1034H68.8982H65.8741V64.4143Z" fill="#FC7C14"/>
<g opacity="0.9">
<path fill-rule="evenodd" clip-rule="evenodd" d="M0.716797 225.022V236.663H7.59617H14.4747V235.907V235.152H8.35158H2.22844V224.266V213.381H1.47302H0.716797V225.022ZM46.9802 216.706V217.463H47.7364H48.4919V216.706V215.951H47.7364H46.9802V216.706ZM19.6151 220.401C14.8553 221.727 12.5019 227.631 14.827 232.413C17.602 238.122 25.4553 238.084 28.1835 232.349C31.2334 225.937 25.989 218.624 19.6151 220.401ZM36.0787 220.403C31.3753 221.7 29.0558 227.706 31.4051 232.506C33.6657 237.124 39.8517 238.157 43.316 234.495C44.2552 233.501 44.2577 233.488 43.5732 232.966L43.0395 232.558L42.2268 233.384C38.3175 237.356 32.0243 234.293 32.0146 228.413C32.0049 222.639 38.5223 219.485 42.3429 223.416L43.0048 224.097L43.5563 223.723C44.2794 223.231 44.2617 223.146 43.233 222.145C41.4851 220.446 38.5328 219.727 36.0787 220.403ZM46.9802 228.424V236.663H47.7364H48.4919V228.424V220.184H47.7364H46.9802V228.424ZM23.7389 222.189C27.8562 224.074 28.847 229.88 25.6326 233.28C22.7093 236.371 17.9954 235.48 16.1363 231.487C13.596 226.029 18.6428 219.857 23.7389 222.189Z" fill="#656464"/>
<path fill-rule="evenodd" clip-rule="evenodd" d="M0.716797 225.022V236.663H7.59617H14.4747V235.907V235.152H8.35158H2.22844V224.266V213.381H1.47302H0.716797V225.022ZM46.9802 216.706V217.463H47.7364H48.4919V216.706V215.951H47.7364H46.9802V216.706ZM19.6151 220.401C14.8553 221.727 12.5019 227.631 14.827 232.413C17.602 238.122 25.4553 238.084 28.1835 232.349C31.2334 225.937 25.989 218.624 19.6151 220.401ZM36.0787 220.403C31.3753 221.7 29.0558 227.706 31.4051 232.506C33.6657 237.124 39.8517 238.157 43.316 234.495C44.2552 233.501 44.2577 233.488 43.5732 232.966L43.0395 232.558L42.2268 233.384C38.3175 237.356 32.0243 234.293 32.0146 228.413C32.0049 222.639 38.5223 219.485 42.3429 223.416L43.0048 224.097L43.5563 223.723C44.2794 223.231 44.2617 223.146 43.233 222.145C41.4851 220.446 38.5328 219.727 36.0787 220.403ZM46.9802 228.424V236.663H47.7364H48.4919V228.424V220.184H47.7364H46.9802V228.424ZM23.7389 222.189C27.8562 224.074 28.847 229.88 25.6326 233.28C22.7093 236.371 17.9954 235.48 16.1363 231.487C13.596 226.029 18.6428 219.857 23.7389 222.189Z" fill="#656464"/>
<path fill-rule="evenodd" clip-rule="evenodd" d="M112.293 217.927V223.228L111.554 222.47C105.975 216.742 97.0116 222.51 98.9183 230.601C100.313 236.516 107.254 238.699 111.423 234.533L112.293 233.664V235.164V236.664H113.049H113.805V224.644V212.625H113.049H112.293V217.927ZM52.5742 225.022V236.664H53.3296H54.0859V231.221V225.778H58.7723H63.4596V225.022V224.267H58.7723H54.0859V219.579V214.893H60.5871H67.0876V214.137V213.381H59.8309H52.5742V225.022ZM71.4266 220.342C66.6143 221.542 64.1562 227.512 66.4797 232.355C69.2353 238.097 77.1192 238.125 79.8394 232.401C82.8481 226.071 77.7505 218.763 71.4266 220.342ZM87.4943 220.519C80.7044 222.9 80.2151 232.914 86.7373 236.036C91.6592 238.394 97.3204 234.322 97.3204 228.424C97.3204 222.928 92.2525 218.851 87.4943 220.519ZM119.928 220.466C117.307 221.156 115.969 223.935 117.143 226.251C117.671 227.295 118.41 227.754 121.486 228.953C124.042 229.949 124.69 230.607 124.69 232.204C124.69 235.495 119.661 236.13 117.578 233.101L117.109 232.42L116.553 232.751C116.247 232.934 115.939 233.134 115.869 233.195C115.637 233.396 115.93 233.934 116.752 234.823C120.076 238.412 126.396 236.656 126.411 232.138C126.42 229.617 125.236 228.394 121.513 227.075C118.756 226.097 117.806 224.712 118.788 223.102C119.621 221.735 122.59 221.723 124.035 223.08L124.366 223.391L124.985 222.894C125.721 222.302 125.711 222.235 124.775 221.525C123.587 220.623 121.262 220.115 119.928 220.466ZM75.4786 222.229C79.0235 223.915 80.3086 228.846 78.1044 232.305C75.1795 236.897 68.7322 235.658 67.3198 230.233C65.9428 224.947 70.9227 220.061 75.4786 222.229ZM92.0752 222.273C95.5999 224.008 96.856 228.831 94.6808 232.277C91.3149 237.609 83.6713 234.934 83.6713 228.424C83.6713 223.624 88.1546 220.343 92.0752 222.273ZM108.589 222.229C111.883 223.796 113.268 228.173 111.569 231.648C109.004 236.897 101.932 235.999 100.43 230.233C99.0505 224.937 104.024 220.057 108.589 222.229Z" fill="#656464"/>
</g>
</svg>
