<svg width="104" height="193" viewBox="0 0 104 193" fill="none" xmlns="http://www.w3.org/2000/svg">
<path fill-rule="evenodd" clip-rule="evenodd" d="M53.1835 0.260375C31.6577 2.31195 15.2144 13.3832 9.01836 29.9944C-0.644993 55.9025 14.5196 102.326 45.826 142.672C49.2698 147.111 55.0397 153.895 55.3714 153.895C55.6126 153.895 58.7725 150.598 60.3791 148.671C68.7459 138.632 81.2172 119.724 89.6883 104.238C92.5382 99.0261 97.1684 89.8484 97.5439 88.664C97.616 88.4379 91.9431 85.6312 91.789 85.8167C91.7694 85.841 91.4902 86.4407 91.169 87.1506C87.6761 94.864 80.5932 107.539 73.8853 118.079C66.4715 129.73 55.8486 144.539 55.2573 144.049C54.5612 143.47 48.166 135.094 45.1797 130.848C26.5039 104.295 15.3559 77.9972 12.8731 54.6394C10.4407 31.7582 19.8897 16.3393 40.5227 9.51931C45.493 7.87609 52.4271 6.51733 55.8413 6.51733H56.445L56.4122 3.35215L56.3795 0.186965L55.3347 0.171233C54.7598 0.162056 53.7917 0.20204 53.1835 0.260375ZM53.62 15.0028C21.9524 17.4805 7.64911 55.9589 30.0643 78.3734C50.0812 98.3903 84.4224 89.5102 92.1338 62.322C99.1793 37.4823 79.2509 12.9978 53.62 15.0028ZM60.2512 22.574C81.3765 25.26 93.0239 48.9829 82.2581 67.3978C70.283 87.8814 40.3307 86.9618 29.5996 65.7808C18.7813 44.4281 36.4334 19.5451 60.2512 22.574Z" fill="#797E82"/>
<path fill-rule="evenodd" clip-rule="evenodd" d="M53.9479 27.6749C38.3559 29.1772 28.1223 44.9769 33.0854 59.8852C38.8855 77.3091 61.2332 82.3554 74.0238 69.1297C75.1918 67.9217 76.599 66.1677 76.599 65.9199C76.599 65.8485 75.3497 65.2376 73.8225 64.5631L71.0454 63.3355L69.4277 64.9597C55.7091 78.7373 32.8043 64.6982 38.9262 46.2642C43.1762 33.4664 59.4504 29.501 69.1275 38.9047L70.076 39.8263L72.6716 38.1248L75.2678 36.4232L74.535 35.5973C69.5398 29.9703 61.6475 26.9329 53.9479 27.6749ZM53.8594 52.0597V66.1336H56.318H58.7759V52.0597V37.9858H56.318H53.8594V52.0597Z" fill="#797E82"/>
<g opacity="0.9">
<path fill-rule="evenodd" clip-rule="evenodd" d="M0.88559 182.636V192.101H6.47858H12.0709V191.486V190.872H7.09273H2.11456V182.022V173.172H1.50041H0.88559V182.636ZM38.4981 175.876V176.49H39.1129H39.7271V175.876V175.261H39.1129H38.4981V175.876ZM16.2501 178.879C12.3803 179.957 10.467 184.758 12.3573 188.645C14.6134 193.286 20.9982 193.256 23.2162 188.593C25.6958 183.38 21.4321 177.435 16.2501 178.879ZM29.6351 178.881C25.8112 179.936 23.9254 184.819 25.8354 188.721C27.6733 192.476 32.7026 193.315 35.5191 190.338C36.2827 189.53 36.2847 189.519 35.7282 189.095L35.2943 188.763L34.6336 189.434C31.4553 192.664 26.3388 190.174 26.3309 185.393C26.3231 180.698 31.6218 178.134 34.728 181.33L35.2661 181.884L35.7144 181.58C36.3024 181.18 36.2879 181.111 35.4516 180.297C34.0306 178.916 31.6303 178.331 29.6351 178.881ZM38.4981 185.402V192.101H39.1129H39.7271V185.402V178.703H39.1129H38.4981V185.402ZM19.6027 180.333C22.9501 181.866 23.7557 186.586 21.1424 189.35C18.7657 191.863 14.9333 191.139 13.4218 187.892C11.3565 183.455 15.4596 178.437 19.6027 180.333Z" fill="#797E82"/>
<path fill-rule="evenodd" clip-rule="evenodd" d="M0.88559 182.636V192.101H6.47858H12.0709V191.486V190.872H7.09273H2.11456V182.022V173.172H1.50041H0.88559V182.636ZM38.4981 175.876V176.49H39.1129H39.7271V175.876V175.261H39.1129H38.4981V175.876ZM16.2501 178.879C12.3803 179.957 10.467 184.758 12.3573 188.645C14.6134 193.286 20.9982 193.256 23.2162 188.593C25.6958 183.38 21.4321 177.435 16.2501 178.879ZM29.6351 178.881C25.8112 179.936 23.9254 184.819 25.8354 188.721C27.6733 192.476 32.7026 193.315 35.5191 190.338C36.2827 189.53 36.2847 189.519 35.7282 189.095L35.2943 188.763L34.6336 189.434C31.4553 192.664 26.3388 190.174 26.3309 185.393C26.3231 180.698 31.6218 178.134 34.728 181.33L35.2661 181.884L35.7144 181.58C36.3024 181.18 36.2879 181.111 35.4516 180.297C34.0306 178.916 31.6303 178.331 29.6351 178.881ZM38.4981 185.402V192.101H39.1129H39.7271V185.402V178.703H39.1129H38.4981V185.402ZM19.6027 180.333C22.9501 181.866 23.7557 186.586 21.1424 189.35C18.7657 191.863 14.9333 191.139 13.4218 187.892C11.3565 183.455 15.4596 178.437 19.6027 180.333Z" fill="#797E82"/>
<path fill-rule="evenodd" clip-rule="evenodd" d="M91.5981 176.867V181.177L90.997 180.56C86.4613 175.904 79.174 180.593 80.7241 187.171C81.8581 191.98 87.5015 193.755 90.8909 190.368L91.5981 189.661V190.881V192.1H92.2122H92.8271V182.328V172.557H92.2122H91.5981V176.867ZM43.046 182.636V192.1H43.6602H44.275V187.675V183.25H48.0851H51.896V182.636V182.021H48.0851H44.275V178.211V174.4H49.5606H54.8455V173.786V173.171H48.9458H43.046V182.636ZM58.3731 178.831C54.4607 179.807 52.4623 184.66 54.3513 188.597C56.5916 193.266 63.0013 193.288 65.2128 188.635C67.659 183.488 63.5145 177.547 58.3731 178.831ZM71.4363 178.974C65.9161 180.91 65.5182 189.052 70.8209 191.59C74.8224 193.507 79.425 190.196 79.425 185.402C79.425 180.933 75.3048 177.618 71.4363 178.974ZM97.8052 178.932C95.6743 179.493 94.5863 181.752 95.5406 183.634C95.9706 184.483 96.571 184.857 99.0716 185.832C101.15 186.641 101.677 187.176 101.677 188.474C101.677 191.151 97.5883 191.666 95.8946 189.204L95.5131 188.65L95.0615 188.919C94.8124 189.068 94.5621 189.231 94.505 189.281C94.3169 189.444 94.5548 189.881 95.2234 190.604C97.9258 193.522 103.064 192.094 103.076 188.421C103.083 186.372 102.121 185.377 99.0938 184.304C96.8522 183.509 96.0801 182.384 96.8784 181.074C97.5555 179.963 99.9695 179.953 101.144 181.057L101.413 181.31L101.916 180.905C102.515 180.424 102.507 180.37 101.746 179.792C100.78 179.059 98.89 178.646 97.8052 178.932ZM61.6675 180.364C64.5495 181.736 65.5943 185.744 63.8023 188.557C61.4243 192.29 56.1826 191.282 55.0343 186.872C53.9148 182.575 57.9635 178.603 61.6675 180.364ZM75.1606 180.4C78.0263 181.811 79.0475 185.733 77.2791 188.534C74.5425 192.869 68.3282 190.694 68.3282 185.402C68.3282 181.499 71.9732 178.831 75.1606 180.4ZM88.5863 180.364C91.2645 181.639 92.3905 185.197 91.0095 188.023C88.9238 192.29 83.1742 191.56 81.9531 186.872C80.8316 182.566 84.8751 178.599 88.5863 180.364Z" fill="#797E82"/>
</g>
</svg>
