<svg width="223" height="279" viewBox="0 0 223 279" fill="none" xmlns="http://www.w3.org/2000/svg">
<path fill-rule="evenodd" clip-rule="evenodd" d="M2.99797 110.256C1.73637 113.676 3.02527 117.513 6.09567 119.478L107.316 184.255C109.866 185.887 113.132 185.887 115.682 184.255L216.902 119.478C219.973 117.513 221.262 113.676 220 110.256L181.371 5.53525C180.246 2.48601 177.34 0.460693 174.09 0.460693L48.9082 0.460693C45.6582 0.460693 42.7523 2.48601 41.6275 5.53526L2.99797 110.256ZM115.682 170.765C113.132 172.397 109.866 172.397 107.316 170.765L20.1964 115.012C17.126 113.047 15.8371 109.21 17.0987 105.79L24.5418 85.6126C25.4192 83.2342 27.6856 81.6546 30.2206 81.6546C41.6281 81.6546 50.8757 72.8379 50.8757 61.9619V58.2993C50.8757 55.6328 53.143 53.4712 55.9398 53.4712C58.7367 53.4712 61.004 55.6328 61.004 58.2993V122.96C61.004 131.542 68.301 138.499 77.3025 138.499C86.2812 138.499 93.5688 131.576 93.6009 123.015L93.7371 86.6074C93.7464 84.1333 95.8527 82.1322 98.4478 82.1322C101.049 82.1322 103.158 84.143 103.158 86.6234L103.158 141.576C103.158 150.429 110.686 157.606 119.972 157.606C129.258 157.606 136.786 150.429 136.786 141.576L136.786 48.969C136.786 46.4429 138.933 44.3952 141.583 44.3952C144.232 44.3952 146.38 46.4429 146.38 48.969L146.38 113.17C146.38 121.882 153.788 128.945 162.927 128.945C172.065 128.945 179.474 121.882 179.474 113.17L179.474 85.8629C179.474 80.2933 182.828 75.4705 187.715 73.1302C190.825 71.6411 194.13 73.8848 195.323 77.1198L205.899 105.79C207.161 109.21 205.872 113.047 202.802 115.012L115.682 170.765ZM189.333 60.881L173.049 16.7358C171.924 13.6865 169.018 11.6612 165.768 11.6612L57.2299 11.6612C53.9798 11.6612 51.074 13.6865 49.9492 16.7358L30.134 70.4526H30.2206C35.1391 70.4526 39.1263 66.6512 39.1263 61.9619V58.2993C39.1263 49.4462 46.654 42.2693 55.9398 42.2693C65.2257 42.2693 72.7534 49.4462 72.7534 58.2993V122.96C72.7534 125.355 74.7901 127.297 77.3025 127.297C79.8085 127.297 81.8426 125.365 81.8515 122.975L81.9878 86.5674C82.0201 77.9223 89.38 70.9303 98.4478 70.9303C107.538 70.9303 114.908 77.9563 114.908 86.6234L114.908 141.576C114.908 144.243 117.175 146.404 119.972 146.404C122.769 146.404 125.036 144.243 125.036 141.576L125.036 48.969C125.036 40.2563 132.444 33.1933 141.583 33.1933C150.721 33.1933 158.13 40.2563 158.13 48.969L158.13 113.17C158.13 115.696 160.277 117.743 162.927 117.743C165.576 117.743 167.724 115.696 167.724 113.17L167.724 85.8629C167.724 73.4668 177.023 63.1413 189.333 60.881Z" fill="#1E140C"/>
<g filter="url(#filter0_i)">
<path d="M189.332 60.8809L173.048 16.7356C171.923 13.6864 169.017 11.6611 165.767 11.6611L57.2288 11.6611C53.9787 11.6611 51.0729 13.6864 49.948 16.7356L30.1329 70.4525H30.2194C35.1379 70.4525 39.1251 66.6511 39.1251 61.9618V58.2992C39.1251 49.446 46.6528 42.2691 55.9387 42.2691C65.2246 42.2691 72.7522 49.4461 72.7522 58.2992L72.7522 122.96C72.7522 125.355 74.7889 127.297 77.3013 127.297C79.8074 127.297 81.8414 125.365 81.8503 122.975L81.9866 86.5673C82.019 77.9222 89.3789 70.9302 98.4466 70.9302C107.537 70.9302 114.907 77.9562 114.907 86.6233L114.907 141.576C114.907 144.243 117.174 146.404 119.971 146.404C122.768 146.404 125.035 144.243 125.035 141.576L125.035 48.9688C125.035 40.2562 132.443 33.1931 141.582 33.1931C150.72 33.1931 158.128 40.2562 158.128 48.9688L158.128 113.169C158.128 115.696 160.276 117.743 162.926 117.743C165.575 117.743 167.723 115.696 167.723 113.169V85.8628C167.723 73.4666 177.022 63.1411 189.332 60.8809Z" fill="url(#paint0_linear)"/>
</g>
<path d="M14.89 111.682L111.451 173.477L208.012 111.682L193.262 71.6959C185.526 72.2326 179.426 78.3859 179.426 85.8977L179.426 113.204C179.426 121.917 172.017 128.98 162.879 128.98C153.74 128.98 146.332 121.917 146.332 113.204L146.332 49.0037C146.332 46.4777 144.184 44.4299 141.535 44.4299C138.885 44.4299 136.737 46.4777 136.737 49.0037L136.737 141.611C136.737 150.464 129.21 157.641 119.924 157.641C110.638 157.641 103.11 150.464 103.11 141.611V86.6581C103.11 84.1777 101.001 82.167 98.3996 82.167C95.8045 82.167 93.6982 84.168 93.689 86.6421L93.5527 123.05C93.5207 131.61 86.233 138.534 77.2543 138.534C68.2529 138.534 60.9558 131.577 60.9558 122.995L60.9558 58.3341C60.9558 55.6676 58.6885 53.5059 55.8917 53.5059C53.0948 53.5059 50.8276 55.6676 50.8276 58.3341V61.9966C50.8276 72.8726 41.5799 81.6893 30.1724 81.6893H25.9537L14.89 111.682Z" fill="#9A6649"/>
<g filter="url(#filter1_f)">
<path d="M164.409 14.7803L63.7178 15.4355L158.681 24.3408C159.621 24.429 160.484 24.9028 161.062 25.6496L183.551 54.6617C183.775 54.9511 184.228 54.6818 184.08 54.3467L167.558 16.8205C167.009 15.5733 165.771 14.7714 164.409 14.7803Z" fill="#E5E5E5" fill-opacity="0.6"/>
</g>
<path d="M11.1117 236.672V206.947H16.828L26.9096 229.5L36.7832 206.947H42.2917V236.672H37.1989V215.968L29.1337 236.672H24.4359L16.2044 215.968V236.672H11.1117ZM55.9393 214.846C62.5633 214.846 65.8753 218.227 65.8753 224.99C65.8753 225.891 65.813 226.791 65.6883 227.692H51.2C51.2 230.768 53.4588 232.307 57.9764 232.307C60.1798 232.307 62.3832 232.099 64.5866 231.683V236.048C62.6603 236.464 60.3184 236.672 57.5607 236.672C49.6479 236.672 45.6915 232.951 45.6915 225.509C45.6915 218.4 49.1075 214.846 55.9393 214.846ZM51.2 223.867H60.5124V223.701C60.5124 220.68 58.988 219.17 55.9393 219.17C53.0292 219.17 51.4494 220.735 51.2 223.867ZM74.2432 206.947V236.672H68.7348V206.947H74.2432ZM77.8717 211.312H81.9459L82.7774 214.846H88.265V219.211H83.3802V229.251C83.3802 231.288 84.2602 232.307 86.0201 232.307H88.265V236.672H83.3594C79.701 236.672 77.8717 234.711 77.8717 230.789V211.312ZM96.2587 206.947V211.312H90.7503V206.947H96.2587ZM96.2587 214.846V236.672H90.7503V214.846H96.2587ZM100.199 236.672V214.846H104.46L105.146 218.047C107.239 215.913 109.622 214.846 112.297 214.846C117.466 214.846 120.05 217.534 120.05 222.911V236.672H114.542V222.911C114.542 220.5 113.343 219.294 110.946 219.294C109.158 219.294 107.412 220.008 105.708 221.435V236.672H100.199ZM137.959 219.793C137.058 219.461 135.777 219.294 134.114 219.294C130.303 219.294 128.397 221.394 128.397 225.593C128.397 229.653 130.04 231.683 133.324 231.683C134.904 231.683 136.449 231.309 137.959 230.561V219.793ZM143.468 235.009C143.468 241.384 139.636 244.571 131.973 244.571C129.284 244.571 126.901 244.224 124.822 243.531V239.166C126.942 239.859 129.34 240.206 132.014 240.206C135.978 240.206 137.959 238.543 137.959 235.217C136.324 235.91 134.564 236.256 132.679 236.256C126.194 236.256 122.951 232.715 122.951 225.634C122.951 218.442 126.728 214.846 134.28 214.846C136.816 214.846 139.879 215.144 143.468 215.74V235.009ZM156.005 236.672V206.947H169.308C175.378 206.947 178.413 209.739 178.413 215.324C178.413 221.38 174.262 225.045 165.961 226.32L165.171 221.414C170.16 220.514 172.655 218.539 172.655 215.49C172.655 213.024 171.421 211.79 168.955 211.79H161.513V236.672H156.005ZM184.743 225.676C184.743 230.235 186.51 232.515 190.044 232.515C193.578 232.515 195.344 230.235 195.344 225.676C195.344 221.227 193.578 219.003 190.044 219.003C186.51 219.003 184.743 221.227 184.743 225.676ZM179.235 225.759C179.235 218.442 182.838 214.784 190.044 214.784C197.25 214.784 200.853 218.442 200.853 225.759C200.853 233.062 197.25 236.713 190.044 236.713C182.866 236.713 179.263 233.062 179.235 225.759ZM203.421 211.312H207.496L208.327 214.846H213.815V219.211H208.93V229.251C208.93 231.288 209.81 232.307 211.57 232.307H213.815V236.672H208.909C205.251 236.672 203.421 234.711 203.421 230.789V211.312Z" fill="#1E140C"/>
<path d="M68.2385 255.908L60.8188 272.83H58.8662L51.411 255.908H52.7719L59.8839 271.872L66.9131 255.908H68.2385ZM80.9308 255.908V256.973H71.0615V263.718H80.5285V264.783H71.0615V271.765H81.0965V272.83H69.819V255.908H80.9308ZM83.8604 272.83V255.908H85.4579L96.7591 270.724V255.908H97.8833V272.83H96.8774L84.9846 257.304V272.83H83.8604ZM111.901 255.908V256.973H106.102V272.83H104.86V256.973H99.1798V255.908H111.901ZM113.197 266.298V255.908H114.44V266.298C114.44 270.022 116.294 271.883 120.002 271.883C123.71 271.883 125.564 270.022 125.564 266.298V255.908H126.806V266.298C126.806 270.732 124.538 272.948 120.002 272.948C115.466 272.948 113.197 270.732 113.197 266.298ZM129.866 272.83V255.908H136.848C139.909 255.908 141.439 257.261 141.439 259.967C141.439 262.31 139.779 263.971 136.457 264.949L142.173 272.83H140.469L134.848 264.984V264.144C138.319 263.631 140.055 262.27 140.055 260.062C140.055 258.026 138.919 257.008 136.647 257.008H131.108V272.83H129.866ZM154.877 255.908V256.973H145.008V263.718H154.475V264.783H145.008V271.765H155.043V272.83H143.765V255.908H154.877ZM157.688 272.238V270.937C159.463 271.568 161.42 271.883 163.558 271.883C167.1 271.883 168.871 270.542 168.871 267.86C168.871 265.888 167.719 264.902 165.416 264.902H161.937C158.789 264.902 157.215 263.481 157.215 260.641C157.215 257.407 159.523 255.79 164.138 255.79C166.031 255.79 167.865 256.026 169.64 256.5V257.683C167.865 257.131 166.031 256.855 164.138 256.855C160.351 256.855 158.457 258.117 158.457 260.641C158.457 262.693 159.617 263.718 161.937 263.718H165.416C168.548 263.718 170.114 265.099 170.114 267.86C170.114 271.252 167.928 272.948 163.558 272.948C161.42 272.948 159.463 272.712 157.688 272.238Z" fill="#1E140C"/>
<defs>
<filter id="filter0_i" x="30.1328" y="11.6602" width="159.199" height="135.985" filterUnits="userSpaceOnUse" color-interpolation-filters="sRGB">
<feFlood flood-opacity="0" result="BackgroundImageFix"/>
<feBlend mode="normal" in="SourceGraphic" in2="BackgroundImageFix" result="shape"/>
<feColorMatrix in="SourceAlpha" type="matrix" values="0 0 0 0 0 0 0 0 0 0 0 0 0 0 0 0 0 0 127 0" result="hardAlpha"/>
<feOffset dy="1.24164"/>
<feGaussianBlur stdDeviation="0.776028"/>
<feComposite in2="hardAlpha" operator="arithmetic" k2="-1" k3="1"/>
<feColorMatrix type="matrix" values="0 0 0 0 0 0 0 0 0 0 0 0 0 0 0 0 0 0 0.2 0"/>
<feBlend mode="normal" in2="shape" result="effect1_innerShadow"/>
</filter>
<filter id="filter1_f" x="59.372" y="10.4335" width="129.083" height="48.696" filterUnits="userSpaceOnUse" color-interpolation-filters="sRGB">
<feFlood flood-opacity="0" result="BackgroundImageFix"/>
<feBlend mode="normal" in="SourceGraphic" in2="BackgroundImageFix" result="shape"/>
<feGaussianBlur stdDeviation="2.17288" result="effect1_foregroundBlur"/>
</filter>
<linearGradient id="paint0_linear" x1="53.718" y1="21.6421" x2="144.136" y2="161.152" gradientUnits="userSpaceOnUse">
<stop stop-color="#EAD270"/>
<stop offset="1" stop-color="#FFA171"/>
<stop offset="1" stop-color="#FFA171"/>
</linearGradient>
</defs>
</svg>
