<svg width="178" height="223" viewBox="0 0 178 223" fill="none" xmlns="http://www.w3.org/2000/svg">
<path fill-rule="evenodd" clip-rule="evenodd" d="M2.0061 88.1977C0.994598 90.9398 2.02798 94.0163 4.48975 95.5917L85.645 147.528C87.6895 148.836 90.3081 148.836 92.3526 147.528L173.508 95.5917C175.97 94.0163 177.003 90.9398 175.992 88.1977L145.02 4.2359C144.118 1.79111 141.788 0.167282 139.182 0.167282L38.8155 0.167282C36.2097 0.167282 33.8799 1.79109 32.9781 4.2359L2.0061 88.1977ZM92.3526 136.712C90.3082 138.02 87.6895 138.02 85.645 136.712L15.7953 92.0111C13.3335 90.4357 12.3001 87.3592 13.3116 84.6171L19.2793 68.4394C19.9827 66.5325 21.7999 65.266 23.8323 65.266C32.9785 65.266 40.393 58.197 40.393 49.477V46.5405C40.393 44.4026 42.2108 42.6694 44.4532 42.6694C46.6956 42.6694 48.5135 44.4026 48.5135 46.5405L48.5135 98.3834C48.5135 105.264 54.364 110.842 61.5811 110.842C68.7799 110.842 74.623 105.291 74.6487 98.4278L74.7579 69.237C74.7653 67.2533 76.4541 65.649 78.5347 65.649C80.6207 65.649 82.3116 67.2611 82.3116 69.2498V113.309C82.3116 120.408 88.3471 126.162 95.7922 126.162C103.237 126.162 109.273 120.408 109.273 113.309L109.273 39.0597C109.273 37.0344 110.995 35.3926 113.119 35.3926C115.243 35.3926 116.965 37.0344 116.965 39.0597L116.965 90.5338C116.965 97.5193 122.905 103.182 130.232 103.182C137.559 103.182 143.499 97.5193 143.499 90.5337L143.499 68.6401C143.499 64.1745 146.188 60.3078 150.106 58.4314C152.6 57.2375 155.25 59.0365 156.207 61.6302L164.686 84.6171C165.698 87.3592 164.664 90.4357 162.202 92.0111L92.3526 136.712ZM151.404 48.6104L138.347 13.2161C137.446 10.7713 135.116 9.14751 132.51 9.14751L45.4876 9.14751C42.8817 9.14751 40.552 10.7713 39.6501 13.2161L23.763 56.2846H23.8323C27.7758 56.2846 30.9726 53.2368 30.9726 49.477V46.5405C30.9726 39.4423 37.0081 33.6881 44.4532 33.6881C51.8983 33.6881 57.9338 39.4423 57.9338 46.5405L57.9338 98.3834C57.9338 100.304 59.5667 101.861 61.5811 101.861C63.5904 101.861 65.2212 100.311 65.2284 98.3958L65.3376 69.2049C65.3636 62.2736 71.2645 56.6676 78.5347 56.6676C85.8234 56.6676 91.732 62.3009 91.732 69.2498V113.309C91.732 115.447 93.5498 117.18 95.7922 117.18C98.0346 117.18 99.8524 115.447 99.8524 113.309L99.8524 39.0597C99.8524 32.0741 105.792 26.4112 113.119 26.4112C120.446 26.4112 126.386 32.0742 126.386 39.0597L126.386 90.5338C126.386 92.559 128.108 94.2008 130.232 94.2008C132.356 94.2008 134.078 92.559 134.078 90.5337L134.078 68.6401C134.078 58.7012 141.534 50.4226 151.404 48.6104Z" fill="#797E82"/>
<g opacity="0.22" filter="url(#filter0_i)">
<path d="M151.403 48.6097L138.347 13.2154C137.445 10.7706 135.115 9.14682 132.509 9.14682L45.4869 9.14682C42.8811 9.14682 40.5513 10.7707 39.6495 13.2154L23.7623 56.2839H23.8316C27.7751 56.2839 30.972 53.2361 30.972 49.4763V46.5398C30.972 39.4416 37.0074 33.6874 44.4526 33.6874C51.8977 33.6874 57.9331 39.4416 57.9331 46.5398L57.9331 98.3827C57.9331 100.303 59.5661 101.86 61.5804 101.86C63.5897 101.86 65.2205 100.311 65.2277 98.3951L65.337 69.2043C65.3629 62.2729 71.2638 56.6669 78.5341 56.6669C85.8227 56.6669 91.7313 62.3002 91.7313 69.2492L91.7313 113.309C91.7313 115.447 93.5491 117.18 95.7915 117.18C98.0339 117.18 99.8518 115.447 99.8518 113.309L99.8518 39.059C99.8518 32.0735 105.791 26.4105 113.118 26.4105C120.445 26.4105 126.385 32.0735 126.385 39.059L126.385 90.5331C126.385 92.5584 128.107 94.2002 130.231 94.2002C132.356 94.2002 134.078 92.5583 134.078 90.5331V68.6394C134.078 58.7006 141.533 50.4219 151.403 48.6097Z" fill="#797E82"/>
</g>
<path opacity="0.22" d="M11.5413 89.3436L88.9608 138.889L166.38 89.3436L154.554 57.2842C148.352 57.7144 143.461 62.6479 143.461 68.6707L143.461 90.5643C143.461 97.5498 137.521 103.213 130.194 103.213C122.867 103.213 116.927 97.5499 116.927 90.5643L116.927 39.0902C116.927 37.065 115.205 35.4231 113.081 35.4231C110.957 35.4231 109.235 37.065 109.235 39.0902L109.235 113.34C109.235 120.438 103.199 126.192 95.7541 126.192C88.309 126.192 82.2736 120.438 82.2736 113.34L82.2736 69.2804C82.2736 67.2917 80.5826 65.6795 78.4967 65.6795C76.416 65.6795 74.7273 67.2839 74.7198 69.2675L74.6106 98.4584C74.5849 105.322 68.7419 110.873 61.543 110.873C54.326 110.873 48.4754 105.295 48.4754 98.4139L48.4754 46.571C48.4754 44.4331 46.6576 42.7 44.4152 42.7C42.1728 42.7 40.3549 44.4331 40.3549 46.571L40.3549 49.5076C40.3549 58.2276 32.9405 65.2965 23.7943 65.2965H20.4118L11.5413 89.3436Z" fill="#797E82"/>
<path d="M8.51206 190.09V166.257H13.0952L21.1783 184.34L29.0946 166.257H33.5112V190.09H29.428V173.49L22.9615 190.09H19.195L12.5952 173.49V190.09H8.51206ZM44.4534 172.59C49.7644 172.59 52.4198 175.301 52.4198 180.724C52.4198 181.446 52.3698 182.168 52.2698 182.89H40.6536C40.6536 185.357 42.4646 186.59 46.0867 186.59C47.8533 186.59 49.6199 186.423 51.3865 186.09V189.59C49.8421 189.923 47.9644 190.09 45.7534 190.09C39.4092 190.09 36.2371 187.107 36.2371 181.14C36.2371 175.44 38.9758 172.59 44.4534 172.59ZM40.6536 179.824H48.12V179.69C48.12 177.268 46.8978 176.057 44.4534 176.057C42.1202 176.057 40.8536 177.313 40.6536 179.824ZM59.1289 166.257V190.09H54.7124V166.257H59.1289ZM62.0381 169.757H65.3047L65.9713 172.59H70.3712V176.09H66.4546V184.14C66.4546 185.773 67.1602 186.59 68.5712 186.59H70.3712V190.09H66.438C63.5047 190.09 62.0381 188.518 62.0381 185.373V169.757ZM76.7803 166.257V169.757H72.3638V166.257H76.7803ZM76.7803 172.59V190.09H72.3638V172.59H76.7803ZM79.9395 190.09V172.59H83.356L83.906 175.157C85.5837 173.446 87.4948 172.59 89.6391 172.59C93.7834 172.59 95.8556 174.746 95.8556 179.057V190.09H91.4391V179.057C91.4391 177.124 90.478 176.157 88.5558 176.157C87.1226 176.157 85.7226 176.729 84.356 177.874V190.09H79.9395ZM110.214 176.557C109.492 176.29 108.464 176.157 107.131 176.157C104.076 176.157 102.548 177.84 102.548 181.207C102.548 184.462 103.865 186.09 106.498 186.09C107.764 186.09 109.003 185.79 110.214 185.19V176.557ZM114.631 188.757C114.631 193.867 111.559 196.423 105.415 196.423C103.259 196.423 101.348 196.145 99.6815 195.59V192.09C101.381 192.645 103.304 192.923 105.448 192.923C108.626 192.923 110.214 191.59 110.214 188.923C108.903 189.479 107.492 189.757 105.981 189.757C100.781 189.757 98.1815 186.918 98.1815 181.24C98.1815 175.474 101.209 172.59 107.265 172.59C109.298 172.59 111.753 172.829 114.631 173.307V188.757ZM124.683 190.09V166.257H135.349C140.215 166.257 142.649 168.496 142.649 172.974C142.649 177.829 139.321 180.768 132.666 181.79L132.032 177.857C136.032 177.135 138.032 175.551 138.032 173.107C138.032 171.129 137.043 170.141 135.066 170.141H129.099V190.09H124.683ZM147.724 181.273C147.724 184.929 149.141 186.757 151.974 186.757C154.807 186.757 156.224 184.929 156.224 181.273C156.224 177.707 154.807 175.924 151.974 175.924C149.141 175.924 147.724 177.707 147.724 181.273ZM143.308 181.34C143.308 175.474 146.197 172.54 151.974 172.54C157.752 172.54 160.641 175.474 160.641 181.34C160.641 187.196 157.752 190.123 151.974 190.123C146.219 190.123 143.33 187.196 143.308 181.34ZM162.7 169.757H165.966L166.633 172.59H171.033V176.09H167.116V184.14C167.116 185.773 167.822 186.59 169.233 186.59H171.033V190.09H167.1C164.166 190.09 162.7 188.518 162.7 185.373V169.757Z" fill="#797E82"/>
<path d="M54.3136 205.342L48.3647 218.91H46.7992L40.8218 205.342H41.9129L47.6151 218.142L53.2509 205.342H54.3136ZM64.4899 205.342V206.196H56.577V211.604H64.1673V212.458H56.577V218.056H64.6227V218.91H55.5808V205.342H64.4899ZM66.8387 218.91V205.342H68.1196L77.1805 217.221V205.342H78.0818V218.91H77.2754L67.7401 206.462V218.91H66.8387ZM89.3208 205.342V206.196H84.6717V218.91H83.6755V206.196H79.1213V205.342H89.3208ZM90.3603 213.673V205.342H91.3565V213.673C91.3565 216.658 92.8429 218.151 95.8158 218.151C98.7887 218.151 100.275 216.658 100.275 213.673V205.342H101.271V213.673C101.271 217.228 99.4528 219.005 95.8158 219.005C92.1788 219.005 90.3603 217.228 90.3603 213.673ZM103.725 218.91V205.342H109.322C111.777 205.342 113.004 206.427 113.004 208.597C113.004 210.475 111.672 211.807 109.009 212.591L113.592 218.91H112.226L107.719 212.62V211.946C110.502 211.535 111.894 210.444 111.894 208.673C111.894 207.041 110.983 206.225 109.161 206.225H104.721V218.91H103.725ZM123.778 205.342V206.196H115.865V211.604H123.455V212.458H115.865V218.056H123.911V218.91H114.869V205.342H123.778ZM126.032 218.436V217.392C127.455 217.898 129.023 218.151 130.738 218.151C133.578 218.151 134.998 217.076 134.998 214.925C134.998 213.344 134.074 212.553 132.227 212.553H129.438C126.914 212.553 125.652 211.415 125.652 209.138C125.652 206.544 127.502 205.248 131.203 205.248C132.721 205.248 134.191 205.437 135.614 205.817V206.766C134.191 206.323 132.721 206.102 131.203 206.102C128.166 206.102 126.648 207.114 126.648 209.138C126.648 210.782 127.578 211.604 129.438 211.604H132.227C134.738 211.604 135.994 212.711 135.994 214.925C135.994 217.645 134.242 219.005 130.738 219.005C129.023 219.005 127.455 218.815 126.032 218.436Z" fill="#797E82"/>
<defs>
<filter id="filter0_i" x="23.7623" y="9.14648" width="127.641" height="109.028" filterUnits="userSpaceOnUse" color-interpolation-filters="sRGB">
<feFlood flood-opacity="0" result="BackgroundImageFix"/>
<feBlend mode="normal" in="SourceGraphic" in2="BackgroundImageFix" result="shape"/>
<feColorMatrix in="SourceAlpha" type="matrix" values="0 0 0 0 0 0 0 0 0 0 0 0 0 0 0 0 0 0 127 0" result="hardAlpha"/>
<feOffset dy="0.995512"/>
<feGaussianBlur stdDeviation="0.622195"/>
<feComposite in2="hardAlpha" operator="arithmetic" k2="-1" k3="1"/>
<feColorMatrix type="matrix" values="0 0 0 0 0 0 0 0 0 0 0 0 0 0 0 0 0 0 0.2 0"/>
<feBlend mode="normal" in2="shape" result="effect1_innerShadow"/>
</filter>
</defs>
</svg>
