<svg width="158" height="179" viewBox="0 0 158 179" fill="none" xmlns="http://www.w3.org/2000/svg">
<path fill-rule="evenodd" clip-rule="evenodd" d="M16.9671 0.896484C15.9905 0.896484 15.1989 1.68814 15.1989 2.66469V66.628C15.1989 101.918 43.8067 130.525 79.0962 130.525C114.386 130.525 142.993 101.918 142.993 66.628V64.7938C142.993 29.5043 114.386 0.896484 79.0962 0.896484H16.9671ZM79.0906 7.26198C47.3203 7.26198 21.5654 33.0169 21.5654 64.7871V66.4384C21.5654 98.2087 47.3203 123.964 79.0906 123.964C110.861 123.964 136.616 98.2087 136.616 66.4384V64.7871C136.616 33.0169 110.861 7.26198 79.0906 7.26198Z" fill="#797E82"/>
<path d="M129.453 64.1327L29.6675 64.1327C28.59 64.1327 27.7683 63.1916 27.9601 62.1312C29.0834 55.9207 33.1594 36.8658 42.1786 28.038C53.4087 17.0464 64.3087 14.0492 80.0197 14.357C95.7221 14.6646 106.313 18.2499 117.279 29.4934C125.695 38.1229 129.925 56.0487 131.154 62.0925C131.372 63.1639 130.546 64.1327 129.453 64.1327Z" fill="#797E82"/>
<path d="M93.9733 34.3981C94.9357 29.9914 97.6909 27.2722 98.9481 26.4634C99.5809 25.9766 100.276 26.5671 100.544 26.9233C101.147 29.4949 102.238 35.0397 101.775 36.6462C101.312 38.2526 99.5997 39.3093 98.8012 39.6368C96.7908 39.7267 93.0108 38.8048 93.9733 34.3981Z" fill="white"/>
<path d="M53.8451 37.4406C52.4872 33.748 53.1745 30.5656 53.6879 29.436C53.9094 28.8079 54.6727 28.9582 55.0266 29.1119C56.6411 30.7795 59.9742 34.4631 60.3901 35.856C60.8061 37.249 60.0859 38.7542 59.6738 39.3327C58.2967 40.2406 55.203 41.1332 53.8451 37.4406Z" fill="white"/>
<path d="M87.0273 51.6577C87.3683 47.7517 89.3808 45.0972 90.3444 44.2583C90.8211 43.7673 91.4622 44.1976 91.7232 44.4742C92.4955 46.622 93.9858 51.2768 93.7681 52.7134C93.5503 54.15 92.2329 55.254 91.6014 55.6265C89.9346 55.9311 86.6862 55.5638 87.0273 51.6577Z" fill="white"/>
<path d="M115.905 53.9194C116.368 49.7427 114.656 46.6305 113.742 45.5964C113.306 45.0047 112.483 45.3604 112.126 45.6123C110.779 47.7612 108.069 52.4467 108.004 53.997C107.939 55.5473 109.197 56.9157 109.835 57.4061C111.666 57.9841 115.443 58.096 115.905 53.9194Z" fill="white"/>
<path d="M74.0235 31.5415C73.5553 27.0537 75.2495 23.6205 76.1552 22.4648C76.5865 21.8073 77.4052 22.1556 77.7606 22.4119C79.1028 24.6729 81.8043 29.6125 81.8722 31.2829C81.9401 32.9533 81.6318 34.0189 80.0602 35.0417C78.243 35.7449 74.4917 36.0293 74.0235 31.5415Z" fill="white"/>
<path d="M43.2987 54.8517C42.4931 50.4365 43.8979 46.8303 44.701 45.5791C45.0753 44.8765 45.9081 45.1321 46.2778 45.3477C47.7731 47.449 50.8126 52.0653 51.0077 53.7206C51.2028 55.3758 50.9811 56.4708 49.512 57.6639C47.7766 58.5662 44.1044 59.267 43.2987 54.8517Z" fill="white"/>
<path d="M67.7801 54.1555C66.5873 49.9617 67.6159 46.364 68.2792 45.0894C68.5773 44.3801 69.4097 44.5572 69.7886 44.7344C71.4358 46.6374 74.8161 50.8387 75.1595 52.4198C75.5028 54.0009 75.3894 55.0763 74.074 56.3505C72.473 57.3662 68.9729 58.3492 67.7801 54.1555Z" fill="white"/>
<path d="M87.7826 68.0035L129.42 67.9806C130.426 67.98 131.227 68.8125 131.155 69.8164C130.892 73.4966 130.089 81.8539 127.983 86.9176C125.831 92.0927 120.663 97.8371 118.299 100.303C117.632 101 116.535 100.991 115.853 100.309L86.534 71.0227C85.4194 69.9094 86.2073 68.0044 87.7826 68.0035Z" fill="#797E82"/>
<ellipse cx="100.741" cy="74.8907" rx="5.8217" ry="2.0376" transform="rotate(21.0684 100.741 74.8907)" fill="white"/>
<path d="M83.6191 72.4619L113.061 101.904C113.773 102.616 113.749 103.77 112.988 104.429C110.199 106.844 103.718 112.182 98.6479 114.27C93.4658 116.405 85.7493 116.809 82.3341 116.879C81.3695 116.899 80.6006 116.117 80.6006 115.152V73.7122C80.6006 72.1369 82.5052 71.348 83.6191 72.4619Z" fill="#797E82"/>
<ellipse cx="87.856" cy="88.3008" rx="5.90966" ry="2.0376" transform="rotate(72.0252 87.856 88.3008)" fill="white"/>
<path d="M74.0885 72.1689L44.6464 101.611C43.9348 102.323 43.9583 103.477 44.7192 104.136C47.5086 106.551 53.9893 111.889 59.0598 113.978C64.2419 116.112 71.9583 116.516 75.3736 116.586C76.3381 116.606 77.1071 115.824 77.1071 114.859V73.4192C77.1071 71.8439 75.2024 71.055 74.0885 72.1689Z" fill="#797E82"/>
<ellipse cx="70.06" cy="87.6243" rx="5.90966" ry="2.0376" transform="rotate(110.924 70.06 87.6243)" fill="white"/>
<path d="M70.4845 67.7769L28.8471 67.754C27.8407 67.7535 27.0406 68.586 27.1122 69.5898C27.375 73.27 28.1785 81.6274 30.284 86.691C32.4358 91.8662 37.6039 97.6105 39.9677 100.077C40.6353 100.773 41.732 100.764 42.4146 100.082L71.7331 70.7962C72.8476 69.6829 72.0598 67.7778 70.4845 67.7769Z" fill="#797E82"/>
<ellipse cx="57.1622" cy="74.7322" rx="5.90966" ry="2.0376" transform="rotate(161.175 57.1622 74.7322)" fill="white"/>
<path d="M9.40531 160.97C10.7751 161.234 11.79 161.515 12.4502 161.812C13.1268 162.109 13.6136 162.554 13.9107 163.149C14.2243 163.726 14.381 164.568 14.381 165.674C14.381 166.911 14.1583 167.885 13.7127 168.595C13.2671 169.304 12.5657 169.816 11.6085 170.129C10.6513 170.426 9.34755 170.575 7.69723 170.575C5.46929 170.575 3.40638 170.327 1.5085 169.832V165.426H3.21659L3.63742 168.273C4.95769 168.586 6.33571 168.743 7.77149 168.743C8.99273 168.743 9.91692 168.652 10.544 168.471C11.1877 168.289 11.625 168.009 11.856 167.629C12.0871 167.233 12.2026 166.697 12.2026 166.02C12.2026 165.195 12.1036 164.617 11.9056 164.287C11.7075 163.957 11.3114 163.701 10.7173 163.52C10.1232 163.338 8.97623 163.091 7.27639 162.777L6.65752 162.653C5.30425 162.406 4.2563 162.109 3.51365 161.762C2.78751 161.399 2.26765 160.929 1.95409 160.351C1.65703 159.774 1.5085 159.006 1.5085 158.049C1.5085 156.877 1.72305 155.953 2.15213 155.276C2.59772 154.583 3.29086 154.088 4.23154 153.791C5.17223 153.494 6.42648 153.346 7.99429 153.346C9.92517 153.346 11.9221 153.56 13.985 153.989V158.321H12.3511L11.9551 155.574C10.7008 155.309 9.34755 155.177 7.89527 155.177C6.75654 155.177 5.88187 155.268 5.27125 155.45C4.66063 155.615 4.23979 155.879 4.00875 156.242C3.79421 156.588 3.68693 157.067 3.68693 157.678C3.68693 158.437 3.79421 158.981 4.00875 159.312C4.23979 159.642 4.65238 159.897 5.24649 160.079C5.85711 160.26 6.98759 160.508 8.63791 160.822L9.40531 160.97ZM30.8465 168.966V170.377H28.0987L27.4551 169.362C26.4979 169.841 25.6067 170.187 24.7816 170.402C23.9729 170.616 23.1478 170.724 22.3061 170.724C21.2499 170.724 20.4165 170.567 19.8058 170.253C19.2117 169.923 18.7826 169.412 18.5186 168.718C18.2545 168.009 18.1225 167.06 18.1225 165.872V160.054L16.4392 159.312V157.95H20.2019V166.144C20.2019 167.118 20.433 167.827 20.8951 168.273C21.3737 168.702 22.0668 168.916 22.9745 168.916C23.5521 168.916 24.1132 168.842 24.6578 168.694C25.2189 168.545 26.0276 168.281 27.0838 167.901V160.005L25.4005 159.312V157.95H29.1632V168.273L30.8465 168.966ZM46.7651 169.015V170.377H43.9678L38.7445 164.262L35.9967 166.292V168.273L37.68 169.015V170.377H32.234V169.015L33.9173 168.273V154.905L32.234 154.212V152.801H35.9967V164.139L41.8389 159.906L39.7842 159.361V157.95H45.9977V159.361L44.3144 160.178L40.4278 163.05L44.958 168.273L46.7651 169.015ZM62.322 168.966V170.377H59.5742L58.9306 169.362C57.9734 169.841 57.0822 170.187 56.257 170.402C55.4484 170.616 54.6232 170.724 53.7816 170.724C52.7253 170.724 51.8919 170.567 51.2813 170.253C50.6872 169.923 50.2581 169.412 49.9941 168.718C49.73 168.009 49.598 167.06 49.598 165.872V160.054L47.9146 159.312V157.95H51.6774V166.144C51.6774 167.118 51.9084 167.827 52.3705 168.273C52.8491 168.702 53.5423 168.916 54.4499 168.916C55.0275 168.916 55.5887 168.842 56.1333 168.694C56.6944 168.545 57.503 168.281 58.5592 167.901V160.005L56.8759 159.312V157.95H60.6387V168.273L62.322 168.966ZM87.0134 169.015V170.377H83.2507V162.183C83.2507 161.209 83.0362 160.508 82.6071 160.079C82.178 159.633 81.5426 159.411 80.7009 159.411C80.1233 159.411 79.587 159.485 79.0919 159.633C78.6133 159.765 77.8211 160.029 76.7154 160.425V168.273L78.3987 169.015V170.377H74.636V162.183C74.636 161.209 74.4215 160.508 73.9924 160.079C73.5633 159.633 72.9279 159.411 72.0862 159.411C71.5251 159.411 70.997 159.485 70.5019 159.633C70.0233 159.765 69.2229 160.029 68.1007 160.425V168.273L69.784 169.015V170.377H64.338V169.015L66.0213 168.273V160.054L64.338 159.361V157.95H67.0858L67.7294 158.965C68.7031 158.47 69.5778 158.123 70.3534 157.925C71.1291 157.711 71.9295 157.603 72.7546 157.603C73.5798 157.603 74.2647 157.719 74.8093 157.95C75.3704 158.181 75.8325 158.544 76.1956 159.039C77.1858 158.528 78.0769 158.165 78.8691 157.95C79.6777 157.719 80.5112 157.603 81.3693 157.603C82.3595 157.603 83.1434 157.768 83.721 158.099C84.2987 158.412 84.7112 158.924 84.9588 159.633C85.2063 160.326 85.3301 161.267 85.3301 162.455V168.273L87.0134 169.015ZM102.116 169.015V170.377H99.1698L98.5262 168.595C97.8496 169.288 97.1152 169.799 96.323 170.129C95.5474 170.459 94.6727 170.625 93.699 170.625C92.1147 170.625 90.943 170.319 90.1838 169.709C89.4247 169.098 89.0451 168.108 89.0451 166.738C89.0451 165.286 89.4989 164.238 90.4066 163.594C91.3143 162.934 92.7748 162.604 94.7882 162.604C95.5804 162.604 96.2735 162.678 96.8676 162.827C97.4783 162.959 97.9734 163.124 98.3529 163.322V162.356C98.3529 161.597 98.2539 161.011 98.0559 160.599C97.8743 160.17 97.536 159.864 97.0409 159.683C96.5623 159.485 95.8609 159.386 94.9368 159.386C93.2699 159.386 91.5371 159.584 89.7382 159.98V158.198C91.5701 157.801 93.3194 157.603 94.9863 157.603C96.5376 157.603 97.701 157.76 98.4767 158.074C99.2689 158.387 99.7887 158.841 100.036 159.435C100.3 160.029 100.432 160.855 100.432 161.911V168.273L102.116 169.015ZM91.2235 166.589C91.2235 167.398 91.4216 167.976 91.8176 168.322C92.2302 168.669 92.9729 168.842 94.0456 168.842C94.8377 168.842 95.5969 168.702 96.323 168.421C97.0657 168.124 97.7423 167.72 98.3529 167.208V164.733C97.4287 164.469 96.3148 164.337 95.011 164.337C93.5752 164.337 92.585 164.518 92.0404 164.881C91.4958 165.244 91.2235 165.814 91.2235 166.589ZM112.051 160.97C113.421 161.234 114.436 161.515 115.096 161.812C115.773 162.109 116.259 162.554 116.556 163.149C116.87 163.726 117.027 164.568 117.027 165.674C117.027 166.911 116.804 167.885 116.358 168.595C115.913 169.304 115.211 169.816 114.254 170.129C113.297 170.426 111.993 170.575 110.343 170.575C108.115 170.575 106.052 170.327 104.154 169.832V165.426H105.862L106.283 168.273C107.603 168.586 108.981 168.743 110.417 168.743C111.639 168.743 112.563 168.652 113.19 168.471C113.833 168.289 114.271 168.009 114.502 167.629C114.733 167.233 114.848 166.697 114.848 166.02C114.848 165.195 114.749 164.617 114.551 164.287C114.353 163.957 113.957 163.701 113.363 163.52C112.769 163.338 111.622 163.091 109.922 162.777L109.303 162.653C107.95 162.406 106.902 162.109 106.159 161.762C105.433 161.399 104.913 160.929 104.6 160.351C104.303 159.774 104.154 159.006 104.154 158.049C104.154 156.877 104.369 155.953 104.798 155.276C105.243 154.583 105.937 154.088 106.877 153.791C107.818 153.494 109.072 153.346 110.64 153.346C112.571 153.346 114.568 153.56 116.631 153.989V158.321H114.997L114.601 155.574C113.347 155.309 111.993 155.177 110.541 155.177C109.402 155.177 108.528 155.268 107.917 155.45C107.306 155.615 106.886 155.879 106.655 156.242C106.44 156.588 106.333 157.067 106.333 157.678C106.333 158.437 106.44 158.981 106.655 159.312C106.886 159.642 107.298 159.897 107.892 160.079C108.503 160.26 109.633 160.508 111.284 160.822L112.051 160.97ZM121.981 152.529C122.493 152.529 122.897 152.677 123.194 152.974C123.508 153.271 123.665 153.692 123.665 154.237C123.665 154.781 123.508 155.202 123.194 155.499C122.897 155.796 122.493 155.945 121.981 155.945C121.47 155.945 121.057 155.796 120.744 155.499C120.446 155.202 120.298 154.781 120.298 154.237C120.298 153.692 120.446 153.271 120.744 152.974C121.057 152.677 121.47 152.529 121.981 152.529ZM123.219 168.273L124.902 169.015V170.377H119.456V169.015L121.14 168.273V160.054L119.456 159.361V157.95H123.219V168.273ZM141.433 169.015V170.377H138.636L133.413 164.262L130.665 166.292V168.273L132.348 169.015V170.377H126.902V169.015L128.585 168.273V154.905L126.902 154.212V152.801H130.665V164.139L136.507 159.906L134.452 159.361V157.95H140.666V159.361L138.982 160.178L135.096 163.05L139.626 168.273L141.433 169.015ZM156.99 168.966V170.377H154.242L153.599 169.362C152.642 169.841 151.75 170.187 150.925 170.402C150.117 170.616 149.291 170.724 148.45 170.724C147.393 170.724 146.56 170.567 145.949 170.253C145.355 169.923 144.926 169.412 144.662 168.718C144.398 168.009 144.266 167.06 144.266 165.872V160.054L142.583 159.312V157.95H146.346V166.144C146.346 167.118 146.577 167.827 147.039 168.273C147.517 168.702 148.21 168.916 149.118 168.916C149.696 168.916 150.257 168.842 150.801 168.694C151.363 168.545 152.171 168.281 153.227 167.901V160.005L151.544 159.312V157.95H155.307V168.273L156.99 168.966Z" fill="#797E82"/>
</svg>
