<svg width="198" height="220" viewBox="0 0 198 220" fill="none" xmlns="http://www.w3.org/2000/svg">
<path fill-rule="evenodd" clip-rule="evenodd" d="M22.0335 0.591797C20.8155 0.591797 19.8281 1.57919 19.8281 2.79719V81.4415C19.8281 124.848 55.0157 160.035 98.4218 160.035C141.828 160.035 177.016 124.275 177.016 80.8684C177.016 36.8538 141.335 0.591797 97.3201 0.591797H22.0335ZM98.4151 8.4217C59.3376 8.4217 27.6591 40.1002 27.6591 79.1777V81.2087C27.6591 120.286 59.3376 151.965 98.4151 151.965C137.493 151.965 169.171 120.286 169.171 81.2087V79.1777C169.171 40.1002 137.493 8.4217 98.4151 8.4217Z" fill="#53B548"/>
<path d="M160.325 78.3711L37.6606 78.3711C36.3166 78.3711 35.2919 77.1973 35.5315 75.8749C36.9219 68.2002 41.937 44.8165 53.014 33.9747C66.8271 20.455 80.234 16.7684 99.5586 17.147C118.872 17.5254 131.899 21.9353 145.387 35.7648C155.722 46.362 160.925 68.3566 162.446 75.8255C162.718 77.1617 161.689 78.3711 160.325 78.3711Z" fill="url(#paint0_linear)"/>
<path d="M116.722 41.7961C117.905 36.3759 121.294 33.0313 122.841 32.0365C123.619 31.4377 124.474 32.1641 124.804 32.6021C125.546 35.7652 126.887 42.5854 126.318 44.5612C125.749 46.5371 123.642 47.8369 122.66 48.2397C120.187 48.3503 115.538 47.2164 116.722 41.7961Z" fill="url(#paint1_linear)"/>
<path d="M67.3639 45.5409C65.6937 40.999 66.539 37.0847 67.1705 35.6953C67.4429 34.9227 68.3818 35.1076 68.8171 35.2966C70.803 37.3478 74.9026 41.8786 75.4143 43.5919C75.9259 45.3052 75.04 47.1566 74.5332 47.8682C72.8393 48.9849 69.0341 50.0828 67.3639 45.5409Z" fill="url(#paint2_linear)"/>
<path d="M108.179 63.0275C108.598 58.223 111.074 54.9581 112.259 53.9262C112.845 53.3222 113.634 53.8516 113.955 54.1917C114.905 56.8336 116.738 62.559 116.47 64.326C116.202 66.0929 114.582 67.4509 113.805 67.9091C111.755 68.2837 107.759 67.8319 108.179 63.0275Z" fill="url(#paint3_linear)"/>
<path d="M143.698 65.8097C144.267 60.6724 142.161 56.8443 141.037 55.5724C140.502 54.8446 139.489 55.2822 139.049 55.5919C137.393 58.2351 134.059 63.9983 133.979 65.9051C133.899 67.812 135.447 69.4951 136.232 70.0983C138.483 70.8093 143.129 70.947 143.698 65.8097Z" fill="url(#paint4_linear)"/>
<path d="M92.1839 38.2854C91.608 32.7654 93.6919 28.5424 94.8058 27.121C95.3364 26.3122 96.3433 26.7406 96.7805 27.0559C98.4314 29.8369 101.754 35.9126 101.838 37.9672C101.921 40.0218 101.542 41.3325 99.609 42.5905C97.3739 43.4555 92.7598 43.8054 92.1839 38.2854Z" fill="url(#paint5_linear)"/>
<path d="M54.392 66.9561C53.4011 61.5254 55.1289 57.0898 56.1168 55.5508C56.5771 54.6866 57.6016 55.001 58.0563 55.2662C59.8955 57.8507 63.6341 63.5288 63.8741 65.5648C64.1141 67.6007 63.8413 68.9476 62.0343 70.4151C59.8998 71.5249 55.3829 72.3869 54.392 66.9561Z" fill="url(#paint6_linear)"/>
<path d="M84.5033 66.1014C83.0362 60.9431 84.3013 56.518 85.1172 54.9502C85.4838 54.0778 86.5077 54.2956 86.9738 54.5136C88.9999 56.8542 93.1576 62.0218 93.5799 63.9666C94.0023 65.9114 93.8627 67.2341 92.2448 68.8013C90.2756 70.0507 85.9704 71.2598 84.5033 66.1014Z" fill="url(#paint7_linear)"/>
<path d="M109.18 83.1338L160.288 83.1056C161.544 83.105 162.541 84.1438 162.452 85.3958C162.126 89.9389 161.136 100.185 158.553 106.398C155.912 112.748 149.58 119.795 146.663 122.84C145.831 123.709 144.462 123.699 143.611 122.848L107.622 86.8995C106.232 85.5109 107.215 83.1349 109.18 83.1338Z" fill="url(#paint8_linear)"/>
<ellipse cx="125.045" cy="91.6062" rx="7.1607" ry="2.50625" transform="rotate(21.0684 125.045 91.6062)" fill="#FFF9D5"/>
<path d="M104.037 88.6672L140.177 124.806C141.064 125.694 141.034 127.134 140.085 127.955C136.641 130.936 128.693 137.476 122.471 140.04C116.112 142.659 106.651 143.159 102.435 143.248C101.232 143.273 100.272 142.297 100.272 141.094V90.2266C100.272 88.2618 102.648 87.2779 104.037 88.6672Z" fill="url(#paint9_linear)"/>
<ellipse rx="7.26889" ry="2.50626" transform="matrix(0.3086 0.951192 -0.951192 0.308599 109.197 108.098)" fill="#FFF9D5"/>
<path d="M92.2103 88.3078L56.071 124.447C55.1834 125.335 55.2132 126.775 56.1624 127.596C59.6067 130.576 67.555 137.117 73.7769 139.68C80.1354 142.3 89.5961 142.8 93.8122 142.888C95.0152 142.913 95.9751 141.938 95.9751 140.735V89.8672C95.9751 87.9024 93.5996 86.9185 92.2103 88.3078Z" fill="url(#paint10_linear)"/>
<ellipse cx="87.3072" cy="107.266" rx="7.26888" ry="2.50625" transform="rotate(110.924 87.3072 107.266)" fill="#FFF9D5"/>
<path d="M87.7563 82.8545L36.6477 82.8263C35.3925 82.8257 34.3947 83.8645 34.4844 85.1165C34.8099 89.6596 35.7997 99.9053 38.3833 106.119C41.0236 112.469 47.3559 119.515 50.273 122.561C51.1053 123.43 52.4739 123.419 53.3252 122.569L89.3137 86.6202C90.7038 85.2316 89.7211 82.8556 87.7563 82.8545Z" fill="url(#paint11_linear)"/>
<ellipse cx="71.4431" cy="91.4108" rx="7.26889" ry="2.50625" transform="rotate(161.175 71.4431 91.4108)" fill="#FFF9D5"/>
<path d="M11.9987 197.72C13.7072 198.05 14.9731 198.4 15.7964 198.77C16.6403 199.141 17.2475 199.697 17.618 200.438C18.0091 201.158 18.2047 202.208 18.2047 203.587C18.2047 205.131 17.9268 206.345 17.371 207.23C16.8153 208.115 15.9405 208.753 14.7466 209.144C13.5528 209.515 11.9267 209.7 9.86833 209.7C7.08955 209.7 4.5166 209.391 2.14949 208.774V203.278H4.27989L4.80477 206.829C6.45146 207.22 8.17018 207.415 9.96095 207.415C11.4841 207.415 12.6368 207.302 13.419 207.076C14.2218 206.849 14.7672 206.499 15.0554 206.026C15.3436 205.532 15.4876 204.863 15.4876 204.019C15.4876 202.99 15.3641 202.269 15.1171 201.858C14.8701 201.446 14.3761 201.127 13.6351 200.901C12.8941 200.674 11.4636 200.365 9.34345 199.974L8.57156 199.82C6.88371 199.511 5.57665 199.141 4.65039 198.709C3.74472 198.256 3.09633 197.669 2.70525 196.949C2.33474 196.228 2.14949 195.271 2.14949 194.077C2.14949 192.616 2.41708 191.463 2.95225 190.619C3.50801 189.755 4.37252 189.137 5.54578 188.767C6.71904 188.396 8.28339 188.211 10.2388 188.211C12.6471 188.211 15.1377 188.478 17.7107 189.014V194.417H15.6729L15.1789 190.99C13.6145 190.66 11.9267 190.496 10.1153 190.496C8.69507 190.496 7.60414 190.609 6.84254 190.835C6.08095 191.041 5.55607 191.37 5.2679 191.823C5.00031 192.256 4.86652 192.852 4.86652 193.614C4.86652 194.561 5.00031 195.24 5.2679 195.652C5.55607 196.064 6.07066 196.383 6.81167 196.609C7.57326 196.835 8.98324 197.144 11.0416 197.535L11.9987 197.72ZM38.7411 207.693V209.453H35.314L34.5112 208.187C33.3174 208.784 32.2058 209.216 31.1767 209.484C30.1681 209.752 29.1389 209.885 28.0891 209.885C26.7718 209.885 25.7323 209.69 24.9707 209.299C24.2297 208.887 23.6945 208.249 23.3652 207.384C23.0359 206.499 22.8712 205.316 22.8712 203.834V196.578L20.7717 195.652V193.954H25.4647V204.173C25.4647 205.388 25.7529 206.273 26.3292 206.829C26.9262 207.364 27.7907 207.631 28.9228 207.631C29.6432 207.631 30.343 207.539 31.0223 207.354C31.7221 207.168 32.7307 206.839 34.0481 206.366V196.516L31.9485 195.652V193.954H36.6416V206.829L38.7411 207.693ZM58.5954 207.755V209.453H55.1065L48.5918 201.827L45.1646 204.359V206.829L47.2642 207.755V209.453H40.4716V207.755L42.5711 206.829V190.156L40.4716 189.292V187.532H45.1646V201.673L52.4512 196.393L49.8886 195.714V193.954H57.6383V195.714L55.5388 196.732L50.6913 200.314L56.3415 206.829L58.5954 207.755ZM77.9987 207.693V209.453H74.5715L73.7687 208.187C72.5749 208.784 71.4634 209.216 70.4342 209.484C69.4256 209.752 68.3964 209.885 67.3467 209.885C66.0293 209.885 64.9898 209.69 64.2282 209.299C63.4872 208.887 62.9521 208.249 62.6227 207.384C62.2934 206.499 62.1287 205.316 62.1287 203.834V196.578L60.0292 195.652V193.954H64.7222V204.173C64.7222 205.388 65.0104 206.273 65.5868 206.829C66.1837 207.364 67.0482 207.631 68.1803 207.631C68.9007 207.631 69.6006 207.539 70.2798 207.354C70.9797 207.168 71.9882 206.839 73.3056 206.366V196.516L71.2061 195.652V193.954H75.8991V206.829L77.9987 207.693ZM108.795 207.755V209.453H104.102V199.233C104.102 198.019 103.834 197.144 103.299 196.609C102.764 196.053 101.971 195.775 100.922 195.775C100.201 195.775 99.5323 195.868 98.9148 196.053C98.3178 196.218 97.3298 196.547 95.9507 197.041V206.829L98.0503 207.755V209.453H93.3572V199.233C93.3572 198.019 93.0896 197.144 92.5544 196.609C92.0193 196.053 91.2268 195.775 90.177 195.775C89.4772 195.775 88.8185 195.868 88.201 196.053C87.6041 196.218 86.6058 196.547 85.2061 197.041V206.829L87.3056 207.755V209.453H80.5131V207.755L82.6126 206.829V196.578L80.5131 195.714V193.954H83.9402L84.743 195.22C85.9574 194.602 87.0483 194.17 88.0158 193.923C88.9832 193.655 89.9815 193.521 91.0107 193.521C92.0399 193.521 92.8941 193.666 93.5733 193.954C94.2732 194.242 94.8495 194.695 95.3024 195.312C96.5374 194.674 97.6489 194.221 98.6369 193.954C99.6455 193.666 100.685 193.521 101.755 193.521C102.99 193.521 103.968 193.727 104.688 194.139C105.409 194.53 105.923 195.168 106.232 196.053C106.541 196.918 106.695 198.091 106.695 199.573V206.829L108.795 207.755ZM127.631 207.755V209.453H123.957L123.154 207.23C122.31 208.095 121.394 208.733 120.406 209.144C119.439 209.556 118.348 209.762 117.133 209.762C115.157 209.762 113.696 209.381 112.749 208.619C111.802 207.858 111.329 206.623 111.329 204.914C111.329 203.103 111.895 201.796 113.027 200.993C114.159 200.17 115.981 199.758 118.492 199.758C119.48 199.758 120.344 199.851 121.085 200.036C121.847 200.201 122.465 200.407 122.938 200.654V199.45C122.938 198.503 122.814 197.772 122.567 197.257C122.341 196.722 121.919 196.341 121.302 196.115C120.705 195.868 119.83 195.744 118.677 195.744C116.598 195.744 114.437 195.991 112.193 196.485V194.262C114.478 193.768 116.66 193.521 118.739 193.521C120.674 193.521 122.125 193.717 123.092 194.108C124.08 194.499 124.729 195.065 125.037 195.806C125.367 196.547 125.531 197.576 125.531 198.894V206.829L127.631 207.755ZM114.046 204.729C114.046 205.738 114.293 206.458 114.787 206.89C115.301 207.323 116.228 207.539 117.566 207.539C118.554 207.539 119.501 207.364 120.406 207.014C121.332 206.643 122.176 206.139 122.938 205.501V202.414C121.785 202.084 120.396 201.92 118.77 201.92C116.979 201.92 115.744 202.146 115.065 202.599C114.385 203.052 114.046 203.762 114.046 204.729ZM140.023 197.72C141.731 198.05 142.997 198.4 143.821 198.77C144.664 199.141 145.272 199.697 145.642 200.438C146.033 201.158 146.229 202.208 146.229 203.587C146.229 205.131 145.951 206.345 145.395 207.23C144.839 208.115 143.965 208.753 142.771 209.144C141.577 209.515 139.951 209.7 137.892 209.7C135.114 209.7 132.541 209.391 130.174 208.774V203.278H132.304L132.829 206.829C134.476 207.22 136.194 207.415 137.985 207.415C139.508 207.415 140.661 207.302 141.443 207.076C142.246 206.849 142.791 206.499 143.08 206.026C143.368 205.532 143.512 204.863 143.512 204.019C143.512 202.99 143.388 202.269 143.141 201.858C142.894 201.446 142.4 201.127 141.659 200.901C140.918 200.674 139.488 200.365 137.368 199.974L136.596 199.82C134.908 199.511 133.601 199.141 132.675 198.709C131.769 198.256 131.12 197.669 130.729 196.949C130.359 196.228 130.174 195.271 130.174 194.077C130.174 192.616 130.441 191.463 130.976 190.619C131.532 189.755 132.397 189.137 133.57 188.767C134.743 188.396 136.308 188.211 138.263 188.211C140.671 188.211 143.162 188.478 145.735 189.014V194.417H143.697L143.203 190.99C141.639 190.66 139.951 190.496 138.139 190.496C136.719 190.496 135.628 190.609 134.867 190.835C134.105 191.041 133.58 191.37 133.292 191.823C133.024 192.256 132.891 192.852 132.891 193.614C132.891 194.561 133.024 195.24 133.292 195.652C133.58 196.064 134.095 196.383 134.836 196.609C135.597 196.835 137.007 197.144 139.066 197.535L140.023 197.72ZM152.408 187.192C153.046 187.192 153.551 187.377 153.921 187.748C154.312 188.118 154.508 188.643 154.508 189.322C154.508 190.002 154.312 190.527 153.921 190.897C153.551 191.268 153.046 191.453 152.408 191.453C151.77 191.453 151.256 191.268 150.864 190.897C150.494 190.527 150.309 190.002 150.309 189.322C150.309 188.643 150.494 188.118 150.864 187.748C151.256 187.377 151.77 187.192 152.408 187.192ZM153.952 206.829L156.052 207.755V209.453H149.259V207.755L151.358 206.829V196.578L149.259 195.714V193.954H153.952V206.829ZM176.67 207.755V209.453H173.181L166.666 201.827L163.239 204.359V206.829L165.338 207.755V209.453H158.546V207.755L160.645 206.829V190.156L158.546 189.292V187.532H163.239V201.673L170.525 196.393L167.963 195.714V193.954H175.712V195.714L173.613 196.732L168.765 200.314L174.416 206.829L176.67 207.755ZM196.073 207.693V209.453H192.646L191.843 208.187C190.649 208.784 189.537 209.216 188.508 209.484C187.5 209.752 186.471 209.885 185.421 209.885C184.103 209.885 183.064 209.69 182.302 209.299C181.561 208.887 181.026 208.249 180.697 207.384C180.367 206.499 180.203 205.316 180.203 203.834V196.578L178.103 195.652V193.954H182.796V204.173C182.796 205.388 183.085 206.273 183.661 206.829C184.258 207.364 185.122 207.631 186.254 207.631C186.975 207.631 187.675 207.539 188.354 207.354C189.054 207.168 190.062 206.839 191.38 206.366V196.516L189.28 195.652V193.954H193.973V206.829L196.073 207.693Z" fill="#53B548"/>
<defs>
<linearGradient id="paint0_linear" x1="83.213" y1="78.3711" x2="170.36" y2="64.7893" gradientUnits="userSpaceOnUse">
<stop stop-color="#D30F10"/>
<stop offset="1" stop-color="#F85C60"/>
</linearGradient>
<linearGradient id="paint1_linear" x1="124.688" y1="32.1144" x2="120.128" y2="47.9401" gradientUnits="userSpaceOnUse">
<stop stop-color="#4E0F18"/>
<stop offset="1" stop-color="#6A141B"/>
</linearGradient>
<linearGradient id="paint2_linear" x1="68.5102" y1="34.9808" x2="71.8754" y2="48.8807" gradientUnits="userSpaceOnUse">
<stop stop-color="#4E0F18"/>
<stop offset="1" stop-color="#6A141B"/>
</linearGradient>
<linearGradient id="paint3_linear" x1="113.807" y1="53.7845" x2="111.593" y2="67.926" gradientUnits="userSpaceOnUse">
<stop stop-color="#4E0F18"/>
<stop offset="1" stop-color="#6A141B"/>
</linearGradient>
<linearGradient id="paint4_linear" x1="139.306" y1="55.1846" x2="139.456" y2="70.4496" gradientUnits="userSpaceOnUse">
<stop stop-color="#4E0F18"/>
<stop offset="1" stop-color="#6A141B"/>
</linearGradient>
<linearGradient id="paint5_linear" x1="96.525" y1="26.6274" x2="97.0675" y2="43.0876" gradientUnits="userSpaceOnUse">
<stop stop-color="#4E0F18"/>
<stop offset="1" stop-color="#6A141B"/>
</linearGradient>
<linearGradient id="paint6_linear" x1="57.7718" y1="54.8681" x2="60.1546" y2="71.1071" gradientUnits="userSpaceOnUse">
<stop stop-color="#4E0F18"/>
<stop offset="1" stop-color="#6A141B"/>
</linearGradient>
<linearGradient id="paint7_linear" x1="86.6605" y1="54.1531" x2="90.3095" y2="69.6671" gradientUnits="userSpaceOnUse">
<stop stop-color="#4E0F18"/>
<stop offset="1" stop-color="#6A141B"/>
</linearGradient>
<linearGradient id="paint8_linear" x1="137.492" y1="94.33" x2="159.823" y2="109.691" gradientUnits="userSpaceOnUse">
<stop stop-color="#F9C62F"/>
<stop offset="1" stop-color="#EA941B"/>
</linearGradient>
<linearGradient id="paint9_linear" x1="116.124" y1="116.61" x2="121.038" y2="143.265" gradientUnits="userSpaceOnUse">
<stop stop-color="#F9C62F"/>
<stop offset="1" stop-color="#EA941B"/>
</linearGradient>
<linearGradient id="paint10_linear" x1="80.1231" y1="116.251" x2="75.2091" y2="142.906" gradientUnits="userSpaceOnUse">
<stop stop-color="#F9C62F"/>
<stop offset="1" stop-color="#EA941B"/>
</linearGradient>
<linearGradient id="paint11_linear" x1="59.4444" y1="94.0507" x2="37.1132" y2="109.412" gradientUnits="userSpaceOnUse">
<stop stop-color="#F9C62F"/>
<stop offset="1" stop-color="#EA941B"/>
</linearGradient>
</defs>
</svg>
