<svg width="195" height="140" viewBox="0 0 195 140" fill="none" xmlns="http://www.w3.org/2000/svg">
<path d="M178.637 71.5158C183.924 71.5158 187.835 72.6748 190.371 74.9928C192.907 77.3109 194.175 81.0037 194.174 86.0713V116.22H188.995L187.619 109.442H187.296C185.676 111.582 183.638 113.37 181.307 114.699C179.257 115.831 176.398 116.397 172.729 116.397C168.791 116.397 165.527 115.372 162.938 113.324C160.348 111.222 159.053 107.96 159.053 103.54C158.97 101.582 159.396 99.6369 160.289 97.8935C161.183 96.1502 162.514 94.6686 164.152 93.5938C167.55 91.2221 172.784 89.9283 179.851 89.7126L187.214 89.4702V86.8827C187.214 83.2696 186.432 80.7629 184.868 79.3626C183.303 77.9623 181.091 77.2616 178.232 77.2606C176.031 77.25 173.843 77.605 171.758 78.3112C169.791 78.9258 167.871 79.6826 166.013 80.5758L163.828 75.239C165.959 74.12 168.213 73.2517 170.544 72.6516C173.174 71.8899 175.899 71.5075 178.637 71.5158ZM187.134 94.399L180.741 94.6413C175.346 94.8566 171.597 95.7191 169.492 97.2288C168.49 97.9555 167.685 98.9197 167.148 100.035C166.611 101.15 166.36 102.381 166.417 103.617C166.417 106.043 167.145 107.822 168.602 108.954C170.278 110.137 172.298 110.734 174.347 110.652C177.654 110.772 180.896 109.712 183.492 107.66C185.918 105.611 187.131 102.485 187.131 98.2802L187.134 94.399Z" fill="#797E82"/>
<path d="M69.1617 116.544C63.803 116.544 59.5161 114.696 56.301 110.998C53.0832 107.247 51.4744 101.674 51.4744 94.2781C51.4744 86.8826 53.082 81.3097 56.2971 77.5593C59.5659 73.7542 63.8797 71.8517 69.2384 71.8517C72.0611 71.7326 74.8642 72.3709 77.357 73.7005C79.3846 74.8328 81.1619 76.364 82.5815 78.2019H83.0639C83.0123 77.5051 82.9049 76.487 82.7418 75.1476C82.635 73.7539 82.5815 72.6553 82.5815 71.8517V56.5605H89.6549V116.391H83.9481L82.9028 109.953H82.5815C81.2123 111.851 79.4595 113.439 77.4368 114.616C74.9042 115.997 72.0439 116.663 69.1617 116.544ZM70.2883 110.676C74.8433 110.676 78.0316 109.444 79.8531 106.979C81.7283 104.461 82.6662 100.683 82.6667 95.6454V94.3555C82.6667 88.9973 81.7825 84.898 80.0142 82.0576C78.2458 79.1635 74.977 77.7165 70.2077 77.7165C68.4942 77.6341 66.7903 78.0164 65.2763 78.823C63.7622 79.6296 62.4944 80.8304 61.6068 82.2984C59.7311 85.2993 58.7932 89.3452 58.7932 94.436C58.7932 99.58 59.7311 103.572 61.6068 106.413C63.5357 109.255 66.4295 110.676 70.2883 110.676Z" fill="#797E82"/>
<path d="M38.8514 71.5156V98.3815C38.8975 101.603 38.184 104.79 36.7687 107.684C35.3444 110.452 33.1186 112.726 30.382 114.209C27.5592 115.783 23.9494 116.57 19.5528 116.57C13.3977 116.57 8.70067 114.904 5.46179 111.571C2.26782 108.198 0.670837 103.757 0.670837 98.2491V71.5156H6.9189V98.4589C6.9189 102.485 7.98321 105.608 10.1118 107.827C12.2869 110.047 15.5495 111.156 19.8997 111.156C24.3902 111.156 27.6299 109.976 29.6186 107.617C31.6549 105.21 32.673 102.132 32.673 98.3831V71.5156H38.8514Z" fill="#797E82"/>
<path d="M3.20233 135.528H8.02805V136.626H1.85252V126.443H3.20233V135.528Z" fill="#797E82"/>
<path d="M12.4971 136.765C11.4713 136.765 10.6367 136.43 9.99331 135.758C9.34988 135.082 9.02817 134.18 9.02817 133.052V132.814C9.02817 132.063 9.17037 131.394 9.45479 130.807C9.74387 130.215 10.1448 129.753 10.6577 129.422C11.1753 129.086 11.7348 128.918 12.3362 128.918C13.32 128.918 14.0847 129.242 14.6302 129.891C15.1757 130.539 15.4485 131.466 15.4485 132.674V133.213H10.322C10.3407 133.959 10.5575 134.562 10.9724 135.024C11.3921 135.481 11.9236 135.709 12.567 135.709C13.024 135.709 13.411 135.616 13.728 135.43C14.0451 135.243 14.3225 134.996 14.5603 134.688L15.3506 135.304C14.7165 136.278 13.7653 136.765 12.4971 136.765ZM12.3362 129.981C11.814 129.981 11.3758 130.173 11.0214 130.555C10.667 130.933 10.4479 131.464 10.364 132.15H14.1546V132.052C14.1173 131.394 13.9402 130.886 13.6231 130.527C13.306 130.163 12.8771 129.981 12.3362 129.981Z" fill="#797E82"/>
<path d="M21.624 136.626C21.5494 136.476 21.4888 136.211 21.4422 135.828C20.8407 136.453 20.1227 136.765 19.2881 136.765C18.5421 136.765 17.9289 136.556 17.4487 136.136C16.9731 135.712 16.7353 135.176 16.7353 134.527C16.7353 133.739 17.0337 133.129 17.6305 132.695C18.232 132.257 19.0759 132.038 20.1623 132.038H21.4212V131.443C21.4212 130.991 21.286 130.632 21.0155 130.366C20.7451 130.096 20.3465 129.96 19.8196 129.96C19.358 129.96 18.971 130.077 18.6586 130.31C18.3462 130.543 18.1901 130.825 18.1901 131.156H16.8892C16.8892 130.779 17.0221 130.415 17.2879 130.065C17.5583 129.711 17.922 129.431 18.3789 129.226C18.8405 129.021 19.3464 128.918 19.8965 128.918C20.7684 128.918 21.4515 129.138 21.9457 129.576C22.44 130.009 22.6964 130.609 22.715 131.373V134.856C22.715 135.551 22.8036 136.103 22.9808 136.514V136.626H21.624ZM19.4769 135.639C19.8826 135.639 20.2672 135.535 20.6309 135.325C20.9946 135.115 21.258 134.842 21.4212 134.506V132.954H20.4071C18.8218 132.954 18.0292 133.418 18.0292 134.346C18.0292 134.751 18.1644 135.068 18.4348 135.297C18.7053 135.525 19.0526 135.639 19.4769 135.639Z" fill="#797E82"/>
<path d="M28.401 130.219C28.2052 130.187 27.993 130.17 27.7646 130.17C26.916 130.17 26.3402 130.532 26.0371 131.254V136.626H24.7432V129.058H26.0021L26.0231 129.933C26.4474 129.256 27.0489 128.918 27.8275 128.918C28.0793 128.918 28.2705 128.951 28.401 129.016V130.219Z" fill="#797E82"/>
<path d="M30.8209 129.058L30.8628 130.009C31.441 129.282 32.1963 128.918 33.1288 128.918C34.7281 128.918 35.5347 129.821 35.5487 131.625V136.626H34.2548V131.618C34.2502 131.073 34.1243 130.669 33.8772 130.408C33.6347 130.147 33.2547 130.016 32.7372 130.016C32.3175 130.016 31.9492 130.128 31.6321 130.352C31.3151 130.576 31.068 130.87 30.8908 131.233V136.626H29.5969V129.058H30.8209Z" fill="#797E82"/>
<path d="M38.9057 136.626H37.6118V129.058H38.9057V136.626ZM37.5069 127.051C37.5069 126.841 37.5699 126.664 37.6958 126.52C37.8263 126.375 38.0175 126.303 38.2693 126.303C38.521 126.303 38.7122 126.375 38.8428 126.52C38.9733 126.664 39.0386 126.841 39.0386 127.051C39.0386 127.261 38.9733 127.436 38.8428 127.576C38.7122 127.715 38.521 127.785 38.2693 127.785C38.0175 127.785 37.8263 127.715 37.6958 127.576C37.5699 127.436 37.5069 127.261 37.5069 127.051Z" fill="#797E82"/>
<path d="M42.2068 129.058L42.2487 130.009C42.8269 129.282 43.5822 128.918 44.5147 128.918C46.114 128.918 46.9206 129.821 46.9346 131.625V136.626H45.6407V131.618C45.6361 131.073 45.5102 130.669 45.2631 130.408C45.0206 130.147 44.6406 130.016 44.1231 130.016C43.7035 130.016 43.3351 130.128 43.0181 130.352C42.701 130.576 42.4539 130.87 42.2767 131.233V136.626H40.9829V129.058H42.2068Z" fill="#797E82"/>
<path d="M48.5781 132.779C48.5781 131.599 48.8509 130.662 49.3964 129.967C49.9419 129.268 50.6646 128.918 51.5645 128.918C52.4877 128.918 53.208 129.245 53.7256 129.898L53.7885 129.058H54.9705V136.444C54.9705 137.423 54.6791 138.195 54.0962 138.759C53.5181 139.323 52.7394 139.605 51.7603 139.605C51.2148 139.605 50.6809 139.488 50.1587 139.255C49.6365 139.022 49.2379 138.703 48.9628 138.297L49.6342 137.521C50.189 138.206 50.8674 138.549 51.6694 138.549C52.2988 138.549 52.7884 138.372 53.1381 138.017C53.4924 137.663 53.6696 137.164 53.6696 136.521V135.87C53.1521 136.467 52.4457 136.765 51.5505 136.765C50.6646 136.765 49.9466 136.409 49.3964 135.695C48.8509 134.982 48.5781 134.01 48.5781 132.779ZM49.879 132.926C49.879 133.779 50.0538 134.451 50.4035 134.94C50.7532 135.425 51.2428 135.667 51.8722 135.667C52.6882 135.667 53.2873 135.297 53.6696 134.555V131.1C53.2733 130.378 52.6788 130.016 51.8862 130.016C51.2568 130.016 50.7649 130.261 50.4105 130.751C50.0562 131.24 49.879 131.965 49.879 132.926Z" fill="#797E82"/>
<path d="M62.4189 126.443L65.7479 134.751L69.077 126.443H70.8184V136.626H69.4756V132.66L69.6015 128.38L66.2585 136.626H65.2304L61.8943 128.401L62.0272 132.66V136.626H60.6844V126.443H62.4189Z" fill="#797E82"/>
<path d="M77.6584 136.626C77.5838 136.476 77.5232 136.211 77.4765 135.828C76.8751 136.453 76.157 136.765 75.3224 136.765C74.5764 136.765 73.9633 136.556 73.4831 136.136C73.0075 135.712 72.7697 135.176 72.7697 134.527C72.7697 133.739 73.0681 133.129 73.6649 132.695C74.2664 132.257 75.1103 132.038 76.1967 132.038H77.4556V131.443C77.4556 130.991 77.3203 130.632 77.0499 130.366C76.7795 130.096 76.3808 129.96 75.854 129.96C75.3924 129.96 75.0054 130.077 74.693 130.31C74.3806 130.543 74.2244 130.825 74.2244 131.156H72.9236C72.9236 130.779 73.0564 130.415 73.3222 130.065C73.5926 129.711 73.9563 129.431 74.4132 129.226C74.8748 129.021 75.3807 128.918 75.9309 128.918C76.8028 128.918 77.4859 129.138 77.9801 129.576C78.4743 130.009 78.7308 130.609 78.7494 131.373V134.856C78.7494 135.551 78.838 136.103 79.0152 136.514V136.626H77.6584ZM75.5113 135.639C75.9169 135.639 76.3016 135.535 76.6653 135.325C77.0289 135.115 77.2924 134.842 77.4556 134.506V132.954H76.4415C74.8562 132.954 74.0636 133.418 74.0636 134.346C74.0636 134.751 74.1988 135.068 74.4692 135.297C74.7396 135.525 75.087 135.639 75.5113 135.639Z" fill="#797E82"/>
<path d="M82.0015 129.058L82.0435 130.009C82.6216 129.282 83.377 128.918 84.3095 128.918C85.9087 128.918 86.7154 129.821 86.7293 131.625V136.626H85.4355V131.618C85.4308 131.073 85.3049 130.669 85.0578 130.408C84.8154 130.147 84.4354 130.016 83.9178 130.016C83.4982 130.016 83.1299 130.128 82.8128 130.352C82.4958 130.576 82.2486 130.87 82.0715 131.233V136.626H80.7776V129.058H82.0015Z" fill="#797E82"/>
<path d="M93.3525 136.626C93.2779 136.476 93.2173 136.211 93.1706 135.828C92.5692 136.453 91.8511 136.765 91.0165 136.765C90.2705 136.765 89.6574 136.556 89.1772 136.136C88.7016 135.712 88.4638 135.176 88.4638 134.527C88.4638 133.739 88.7622 133.129 89.359 132.695C89.9605 132.257 90.8044 132.038 91.8908 132.038H93.1497V131.443C93.1497 130.991 93.0144 130.632 92.744 130.366C92.4736 130.096 92.0749 129.96 91.5481 129.96C91.0865 129.96 90.6995 130.077 90.3871 130.31C90.0747 130.543 89.9185 130.825 89.9185 131.156H88.6177C88.6177 130.779 88.7505 130.415 89.0163 130.065C89.2867 129.711 89.6504 129.431 90.1073 129.226C90.5689 129.021 91.0748 128.918 91.625 128.918C92.4969 128.918 93.18 129.138 93.6742 129.576C94.1684 130.009 94.4249 130.609 94.4435 131.373V134.856C94.4435 135.551 94.5321 136.103 94.7093 136.514V136.626H93.3525ZM91.2054 135.639C91.611 135.639 91.9957 135.535 92.3594 135.325C92.723 135.115 92.9865 134.842 93.1497 134.506V132.954H92.1356C90.5503 132.954 89.7577 133.418 89.7577 134.346C89.7577 134.751 89.8929 135.068 90.1633 135.297C90.4337 135.525 90.7811 135.639 91.2054 135.639Z" fill="#797E82"/>
<path d="M96.164 132.779C96.164 131.599 96.4367 130.662 96.9823 129.967C97.5278 129.268 98.2505 128.918 99.1503 128.918C100.074 128.918 100.794 129.245 101.311 129.898L101.374 129.058H102.556V136.444C102.556 137.423 102.265 138.195 101.682 138.759C101.104 139.323 100.325 139.605 99.3462 139.605C98.8006 139.605 98.2668 139.488 97.7446 139.255C97.2224 139.022 96.8237 138.703 96.5486 138.297L97.22 137.521C97.7749 138.206 98.4533 138.549 99.2552 138.549C99.8847 138.549 100.374 138.372 100.724 138.017C101.078 137.663 101.255 137.164 101.255 136.521V135.87C100.738 136.467 100.032 136.765 99.1364 136.765C98.2505 136.765 97.5324 136.409 96.9823 135.695C96.4367 134.982 96.164 134.01 96.164 132.779ZM97.4648 132.926C97.4648 133.779 97.6397 134.451 97.9894 134.94C98.3391 135.425 98.8286 135.667 99.4581 135.667C100.274 135.667 100.873 135.297 101.255 134.555V131.1C100.859 130.378 100.265 130.016 99.4721 130.016C98.8426 130.016 98.3507 130.261 97.9964 130.751C97.642 131.24 97.4648 131.965 97.4648 132.926Z" fill="#797E82"/>
<path d="M107.655 136.765C106.629 136.765 105.794 136.43 105.151 135.758C104.508 135.082 104.186 134.18 104.186 133.052V132.814C104.186 132.063 104.328 131.394 104.612 130.807C104.902 130.215 105.303 129.753 105.815 129.422C106.333 129.086 106.892 128.918 107.494 128.918C108.478 128.918 109.242 129.242 109.788 129.891C110.333 130.539 110.606 131.466 110.606 132.674V133.213H105.48C105.498 133.959 105.715 134.562 106.13 135.024C106.55 135.481 107.081 135.709 107.725 135.709C108.182 135.709 108.569 135.616 108.886 135.43C109.203 135.243 109.48 134.996 109.718 134.688L110.508 135.304C109.874 136.278 108.923 136.765 107.655 136.765ZM107.494 129.981C106.972 129.981 106.533 130.173 106.179 130.555C105.825 130.933 105.606 131.464 105.522 132.15H109.312V132.052C109.275 131.394 109.098 130.886 108.781 130.527C108.464 130.163 108.035 129.981 107.494 129.981Z" fill="#797E82"/>
<path d="M113.327 129.058L113.362 129.898C113.917 129.245 114.665 128.918 115.607 128.918C116.665 128.918 117.386 129.324 117.768 130.135C118.02 129.772 118.346 129.478 118.747 129.254C119.153 129.03 119.631 128.918 120.181 128.918C121.841 128.918 122.684 129.797 122.712 131.555V136.626H121.419V131.632C121.419 131.091 121.295 130.688 121.048 130.422C120.801 130.152 120.386 130.016 119.803 130.016C119.323 130.016 118.924 130.161 118.607 130.45C118.29 130.734 118.106 131.119 118.055 131.604V136.626H116.754V131.667C116.754 130.567 116.215 130.016 115.138 130.016C114.29 130.016 113.709 130.378 113.397 131.1V136.626H112.103V129.058H113.327Z" fill="#797E82"/>
<path d="M127.811 136.765C126.785 136.765 125.951 136.43 125.307 135.758C124.664 135.082 124.342 134.18 124.342 133.052V132.814C124.342 132.063 124.484 131.394 124.769 130.807C125.058 130.215 125.459 129.753 125.972 129.422C126.489 129.086 127.049 128.918 127.65 128.918C128.634 128.918 129.399 129.242 129.944 129.891C130.49 130.539 130.762 131.466 130.762 132.674V133.213H125.636C125.655 133.959 125.871 134.562 126.286 135.024C126.706 135.481 127.237 135.709 127.881 135.709C128.338 135.709 128.725 135.616 129.042 135.43C129.359 135.243 129.636 134.996 129.874 134.688L130.664 135.304C130.03 136.278 129.079 136.765 127.811 136.765ZM127.65 129.981C127.128 129.981 126.69 130.173 126.335 130.555C125.981 130.933 125.762 131.464 125.678 132.15H129.468V132.052C129.431 131.394 129.254 130.886 128.937 130.527C128.62 130.163 128.191 129.981 127.65 129.981Z" fill="#797E82"/>
<path d="M133.49 129.058L133.532 130.009C134.11 129.282 134.865 128.918 135.798 128.918C137.397 128.918 138.204 129.821 138.218 131.625V136.626H136.924V131.618C136.919 131.073 136.793 130.669 136.546 130.408C136.304 130.147 135.924 130.016 135.406 130.016C134.987 130.016 134.618 130.128 134.301 130.352C133.984 130.576 133.737 130.87 133.56 131.233V136.626H132.266V129.058H133.49Z" fill="#797E82"/>
<path d="M141.924 127.226V129.058H143.337V130.058H141.924V134.751C141.924 135.054 141.987 135.283 142.113 135.437C142.239 135.586 142.454 135.66 142.757 135.66C142.906 135.66 143.111 135.632 143.372 135.577V136.626C143.032 136.719 142.701 136.765 142.379 136.765C141.801 136.765 141.365 136.591 141.071 136.241C140.777 135.891 140.631 135.395 140.631 134.751V130.058H139.253V129.058H140.631V127.226H141.924Z" fill="#797E82"/>
<path d="M151.611 132.087C150.459 131.756 149.62 131.35 149.093 130.87C148.571 130.385 148.31 129.788 148.31 129.079C148.31 128.277 148.629 127.615 149.268 127.093C149.911 126.566 150.746 126.303 151.772 126.303C152.471 126.303 153.094 126.438 153.639 126.708C154.189 126.979 154.614 127.352 154.912 127.827C155.215 128.303 155.367 128.823 155.367 129.387H154.017C154.017 128.772 153.821 128.289 153.429 127.939C153.038 127.585 152.485 127.408 151.772 127.408C151.11 127.408 150.592 127.555 150.219 127.848C149.851 128.137 149.667 128.541 149.667 129.058C149.667 129.473 149.841 129.825 150.191 130.114C150.545 130.399 151.145 130.66 151.989 130.898C152.837 131.135 153.499 131.399 153.975 131.688C154.455 131.972 154.809 132.306 155.038 132.688C155.271 133.07 155.388 133.52 155.388 134.038C155.388 134.863 155.066 135.525 154.422 136.024C153.779 136.518 152.919 136.765 151.842 136.765C151.142 136.765 150.49 136.633 149.883 136.367C149.277 136.096 148.809 135.728 148.478 135.262C148.151 134.796 147.988 134.266 147.988 133.674H149.338C149.338 134.29 149.564 134.777 150.016 135.136C150.473 135.49 151.082 135.667 151.842 135.667C152.55 135.667 153.094 135.523 153.471 135.234C153.849 134.945 154.038 134.551 154.038 134.052C154.038 133.553 153.863 133.168 153.513 132.898C153.163 132.623 152.529 132.352 151.611 132.087Z" fill="#797E82"/>
<path d="M159.388 134.73L161.15 129.058H162.535L159.493 137.794C159.022 139.052 158.274 139.682 157.248 139.682L157.003 139.661L156.521 139.57V138.521L156.87 138.549C157.308 138.549 157.649 138.46 157.891 138.283C158.138 138.106 158.341 137.782 158.5 137.311L158.787 136.542L156.087 129.058H157.5L159.388 134.73Z" fill="#797E82"/>
<path d="M168.102 134.618C168.102 134.269 167.969 133.998 167.704 133.807C167.443 133.611 166.983 133.443 166.326 133.304C165.673 133.164 165.153 132.996 164.766 132.8C164.384 132.604 164.099 132.371 163.913 132.101C163.731 131.83 163.64 131.508 163.64 131.135C163.64 130.515 163.901 129.991 164.424 129.562C164.95 129.133 165.622 128.918 166.438 128.918C167.296 128.918 167.99 129.14 168.522 129.583C169.058 130.026 169.326 130.592 169.326 131.282H168.025C168.025 130.928 167.874 130.623 167.571 130.366C167.272 130.11 166.895 129.981 166.438 129.981C165.967 129.981 165.598 130.084 165.333 130.289C165.067 130.494 164.934 130.762 164.934 131.093C164.934 131.406 165.058 131.641 165.305 131.8C165.552 131.958 165.997 132.11 166.641 132.254C167.289 132.399 167.813 132.572 168.214 132.772C168.615 132.972 168.911 133.215 169.102 133.499C169.298 133.779 169.396 134.122 169.396 134.527C169.396 135.204 169.126 135.747 168.585 136.157C168.044 136.563 167.342 136.765 166.48 136.765C165.874 136.765 165.337 136.658 164.871 136.444C164.405 136.229 164.039 135.931 163.773 135.549C163.512 135.162 163.381 134.744 163.381 134.297H164.675C164.699 134.73 164.871 135.075 165.193 135.332C165.519 135.584 165.948 135.709 166.48 135.709C166.969 135.709 167.361 135.611 167.655 135.416C167.953 135.215 168.102 134.949 168.102 134.618Z" fill="#797E82"/>
<path d="M172.837 127.226V129.058H174.25V130.058H172.837V134.751C172.837 135.054 172.9 135.283 173.026 135.437C173.152 135.586 173.366 135.66 173.669 135.66C173.819 135.66 174.024 135.632 174.285 135.577V136.626C173.944 136.719 173.613 136.765 173.292 136.765C172.714 136.765 172.278 136.591 171.984 136.241C171.69 135.891 171.543 135.395 171.543 134.751V130.058H170.165V129.058H171.543V127.226H172.837Z" fill="#797E82"/>
<path d="M178.908 136.765C177.882 136.765 177.047 136.43 176.404 135.758C175.76 135.082 175.439 134.18 175.439 133.052V132.814C175.439 132.063 175.581 131.394 175.865 130.807C176.154 130.215 176.555 129.753 177.068 129.422C177.586 129.086 178.145 128.918 178.747 128.918C179.731 128.918 180.495 129.242 181.041 129.891C181.586 130.539 181.859 131.466 181.859 132.674V133.213H176.733C176.751 133.959 176.968 134.562 177.383 135.024C177.803 135.481 178.334 135.709 178.978 135.709C179.435 135.709 179.822 135.616 180.139 135.43C180.456 135.243 180.733 134.996 180.971 134.688L181.761 135.304C181.127 136.278 180.176 136.765 178.908 136.765ZM178.747 129.981C178.225 129.981 177.786 130.173 177.432 130.555C177.078 130.933 176.859 131.464 176.775 132.15H180.565V132.052C180.528 131.394 180.351 130.886 180.034 130.527C179.717 130.163 179.288 129.981 178.747 129.981Z" fill="#797E82"/>
<path d="M184.58 129.058L184.615 129.898C185.169 129.245 185.918 128.918 186.86 128.918C187.918 128.918 188.638 129.324 189.021 130.135C189.273 129.772 189.599 129.478 190 129.254C190.406 129.03 190.883 128.918 191.434 128.918C193.093 128.918 193.937 129.797 193.965 131.555V136.626H192.671V131.632C192.671 131.091 192.548 130.688 192.301 130.422C192.054 130.152 191.639 130.016 191.056 130.016C190.576 130.016 190.177 130.161 189.86 130.45C189.543 130.734 189.359 131.119 189.307 131.604V136.626H188.007V131.667C188.007 130.567 187.468 130.016 186.391 130.016C185.542 130.016 184.962 130.378 184.65 131.1V136.626H183.356V129.058H184.58Z" fill="#797E82"/>
<path fill-rule="evenodd" clip-rule="evenodd" d="M122.466 116.493C118.965 109.545 111.263 92.6672 108.462 80.7347C108.42 80.5551 108.378 80.3754 108.335 80.1927C104.878 65.4707 101.544 51.2751 108.462 34.8397C114.064 21.5337 122.583 6.09629 126.142 0.0410156C126.667 2.84529 128.242 9.2962 130.344 12.661C131.059 13.8069 132.124 15.3933 133.355 17.222C136.637 22.1059 141.084 28.7209 143.122 33.3121C145.923 39.6221 150.124 52.8166 147.498 66.7753C144.873 80.7339 129.468 116.492 128.065 116.492H127.707V93.7232H129.338C129.677 93.7232 129.945 93.4326 129.916 93.0939L128.471 75.9645C128.442 75.6263 128.67 75.3232 128.994 75.2225C130.675 74.6998 131.695 73.6434 132.882 72.1869C134.199 70.572 134.932 68.5598 134.962 66.4764C134.86 64.013 133.81 61.6844 132.031 59.9774C130.252 58.2703 127.882 57.3172 125.417 57.3172C122.951 57.3172 120.581 58.2703 118.802 59.9774C117.023 61.6844 115.973 64.013 115.872 66.4764C115.902 68.5601 116.635 70.5724 117.952 72.1873C119.138 73.6422 120.005 74.5091 121.653 74.9949C121.978 75.0907 122.206 75.3938 122.178 75.7317L120.731 93.0945C120.703 93.4329 120.97 93.7232 121.309 93.7232H123.128V116.493H122.466Z" fill="#797E82"/>
<path opacity="0.732" fill-rule="evenodd" clip-rule="evenodd" d="M113.938 46.3096C117.796 40.149 121.371 34.1387 123.819 31.3359C124.288 33.5105 125.047 35.6121 126.076 37.584C127.497 40.1096 128.657 40.5919 129.504 41.4381C131.322 43.2432 132.928 45.2513 134.288 47.423C136.218 50.3441 137.772 58.8166 135.965 65.2783C135.804 65.8633 135.47 66.386 135.007 66.778C134.76 67.2658 134.869 65.7715 134.288 63.7105C133.877 62.3209 133.121 61.0581 132.09 60.0399C130.611 58.6424 127.998 57.3022 126.712 57.3022C124.702 57.1617 122.685 57.4767 120.813 58.2235C118.943 59.0349 116.748 62.0885 116.748 62.0885C116.748 62.0885 109.174 53.918 113.938 46.3096Z" fill="#797E82"/>
</svg>
