<svg width="239" height="173" viewBox="0 0 239 173" fill="none" xmlns="http://www.w3.org/2000/svg">
<path d="M219 88.5158C225.503 88.5158 230.314 89.9414 233.433 92.7926C236.552 95.6438 238.111 100.186 238.111 106.419V143.502H231.741L230.048 135.165H229.65C227.658 137.797 225.152 139.996 222.284 141.631C219.763 143.023 216.246 143.719 211.734 143.719C206.889 143.719 202.874 142.459 199.69 139.939C196.504 137.354 194.911 133.343 194.912 127.905C194.809 125.498 195.333 123.105 196.432 120.96C197.532 118.816 199.168 116.994 201.183 115.672C205.364 112.755 211.8 111.163 220.493 110.898L229.55 110.6V107.417C229.55 102.973 228.588 99.8898 226.664 98.1674C224.74 96.445 222.019 95.5832 218.502 95.5819C215.794 95.5688 213.104 96.0056 210.539 96.8742C208.119 97.6301 205.757 98.5611 203.472 99.6597L200.785 93.0954C203.407 91.719 206.179 90.651 209.046 89.9128C212.281 88.976 215.632 88.5056 219 88.5158ZM229.451 116.662L221.588 116.96C214.952 117.225 210.34 118.286 207.752 120.143C206.52 121.037 205.529 122.223 204.869 123.594C204.209 124.966 203.9 126.48 203.969 128C203.969 130.984 204.865 133.172 206.657 134.565C208.718 136.02 211.203 136.754 213.724 136.653C217.791 136.801 221.779 135.497 224.972 132.973C227.956 130.453 229.447 126.608 229.447 121.436L229.451 116.662Z" fill="#04C4D9"/>
<path d="M84.3453 143.903C77.7541 143.903 72.4811 141.629 68.5265 137.082C64.5687 132.467 62.5898 125.612 62.5898 116.516C62.5898 107.419 64.5671 100.564 68.5218 95.9515C72.5424 91.2712 77.8483 88.9311 84.4396 88.9311C87.9115 88.7846 91.3593 89.5698 94.4255 91.2052C96.9194 92.5979 99.1054 94.4813 100.852 96.7419H101.445C101.381 95.8849 101.249 94.6326 101.049 92.9851C100.917 91.2709 100.852 89.9196 100.852 88.9311V70.123H109.552V143.714H102.532L101.247 135.796H100.852C99.1675 138.13 97.0115 140.084 94.5235 141.531C91.4085 143.23 87.8903 144.05 84.3453 143.903ZM85.7309 136.685C91.3336 136.685 95.2552 135.17 97.4957 132.138C99.8022 129.04 100.956 124.393 100.956 118.197V116.611C100.956 110.02 99.8688 104.978 97.6938 101.484C95.5187 97.9247 91.4981 96.1448 85.6319 96.1448C83.5242 96.0435 81.4284 96.5138 79.5662 97.5059C77.7039 98.4979 76.1444 99.9749 75.0527 101.781C72.7456 105.472 71.592 110.448 71.592 116.71C71.592 123.037 72.7456 127.947 75.0527 131.441C77.4252 134.937 80.9846 136.685 85.7309 136.685Z" fill="#04C4D9"/>
<path d="M47.0631 88.5176V121.563C47.1198 125.525 46.2422 129.445 44.5014 133.005C42.7495 136.409 40.0118 139.206 36.6459 141.031C33.1737 142.967 28.7338 143.935 23.3259 143.934C15.7551 143.934 9.97777 141.885 5.99395 137.786C2.06537 133.637 0.101074 128.174 0.101074 121.4V88.5176H7.78619V121.658C7.78619 126.61 9.0953 130.451 11.7135 133.181C14.3889 135.911 18.4019 137.276 23.7526 137.276C29.2759 137.276 33.2607 135.824 35.7069 132.922C38.2114 129.961 39.4637 126.176 39.4637 121.565V88.5176H47.0631Z" fill="#04C4D9"/>
<path d="M3.21544 167.255H9.15108V168.605H1.55518V156.08H3.21544V167.255Z" fill="#090C45"/>
<path d="M14.648 168.777C13.3863 168.777 12.3598 168.364 11.5683 167.539C10.7769 166.707 10.3812 165.597 10.3812 164.209V163.917C10.3812 162.994 10.5561 162.171 10.906 161.448C11.2615 160.72 11.7547 160.152 12.3856 159.745C13.0221 159.332 13.7103 159.125 14.4501 159.125C15.6602 159.125 16.6007 159.524 17.2717 160.321C17.9427 161.118 18.2782 162.26 18.2782 163.745V164.407H11.9727C11.9956 165.325 12.2623 166.068 12.7727 166.635C13.2888 167.197 13.9426 167.478 14.734 167.478C15.296 167.478 15.772 167.364 16.162 167.134C16.552 166.905 16.8932 166.601 17.1857 166.222L18.1578 166.979C17.3778 168.178 16.2079 168.777 14.648 168.777ZM14.4501 160.433C13.8078 160.433 13.2687 160.668 12.8329 161.138C12.397 161.603 12.1275 162.257 12.0243 163.1H16.6868V162.979C16.6409 162.171 16.423 161.546 16.033 161.104C15.643 160.657 15.1154 160.433 14.4501 160.433Z" fill="#090C45"/>
<path d="M25.8741 168.605C25.7823 168.422 25.7078 168.095 25.6504 167.625C24.9106 168.393 24.0275 168.777 23.0009 168.777C22.0833 168.777 21.3292 168.519 20.7385 168.003C20.1535 167.481 19.861 166.822 19.861 166.025C19.861 165.055 20.2281 164.304 20.9621 163.771C21.702 163.232 22.74 162.962 24.0762 162.962H25.6246V162.231C25.6246 161.675 25.4583 161.233 25.1257 160.906C24.7931 160.574 24.3027 160.407 23.6547 160.407C23.0869 160.407 22.6109 160.551 22.2267 160.837C21.8425 161.124 21.6503 161.471 21.6503 161.878H20.0503C20.0503 161.414 20.2137 160.966 20.5406 160.536C20.8733 160.1 21.3206 159.756 21.8826 159.504C22.4504 159.252 23.0726 159.125 23.7493 159.125C24.8217 159.125 25.6619 159.395 26.2698 159.934C26.8777 160.467 27.1931 161.204 27.2161 162.145V166.429C27.2161 167.283 27.325 167.963 27.543 168.468V168.605H25.8741ZM23.2332 167.392C23.7321 167.392 24.2052 167.263 24.6526 167.005C25.0999 166.747 25.4239 166.412 25.6246 165.999V164.089H24.3773C22.4274 164.089 21.4525 164.66 21.4525 165.801C21.4525 166.3 21.6188 166.69 21.9514 166.971C22.284 167.252 22.7113 167.392 23.2332 167.392Z" fill="#090C45"/>
<path d="M34.2098 160.726C33.9689 160.685 33.708 160.665 33.427 160.665C32.3832 160.665 31.675 161.11 31.3022 161.999V168.605H29.7108V159.298H31.2592L31.285 160.373C31.8069 159.541 32.5467 159.125 33.5044 159.125C33.8141 159.125 34.0492 159.166 34.2098 159.246V160.726Z" fill="#090C45"/>
<path d="M37.1862 159.298L37.2378 160.467C37.949 159.573 38.878 159.125 40.025 159.125C41.9921 159.125 42.9842 160.235 43.0014 162.455V168.605H41.41V162.446C41.4043 161.775 41.2494 161.279 40.9455 160.958C40.6473 160.637 40.1799 160.476 39.5433 160.476C39.0271 160.476 38.5741 160.614 38.1841 160.889C37.7941 161.164 37.4902 161.526 37.2723 161.973V168.605H35.6808V159.298H37.1862Z" fill="#090C45"/>
<path d="M47.1306 168.605H45.5391V159.298H47.1306V168.605ZM45.4101 156.829C45.4101 156.571 45.4875 156.353 45.6424 156.175C45.8029 155.997 46.0381 155.908 46.3478 155.908C46.6575 155.908 46.8926 155.997 47.0532 156.175C47.2137 156.353 47.294 156.571 47.294 156.829C47.294 157.087 47.2137 157.302 47.0532 157.474C46.8926 157.646 46.6575 157.732 46.3478 157.732C46.0381 157.732 45.8029 157.646 45.6424 157.474C45.4875 157.302 45.4101 157.087 45.4101 156.829Z" fill="#090C45"/>
<path d="M51.1909 159.298L51.2425 160.467C51.9537 159.573 52.8827 159.125 54.0297 159.125C55.9968 159.125 56.9889 160.235 57.0061 162.455V168.605H55.4147V162.446C55.4089 161.775 55.2541 161.279 54.9501 160.958C54.6519 160.637 54.1845 160.476 53.548 160.476C53.0318 160.476 52.5788 160.614 52.1888 160.889C51.7988 161.164 51.4949 161.526 51.2769 161.973V168.605H49.6855V159.298H51.1909Z" fill="#090C45"/>
<path d="M59.0277 163.874C59.0277 162.423 59.3632 161.27 60.0342 160.416C60.7051 159.556 61.5941 159.125 62.7009 159.125C63.8364 159.125 64.7225 159.527 65.359 160.33L65.4364 159.298H66.8903V168.382C66.8903 169.586 66.5318 170.535 65.8149 171.229C65.1038 171.923 64.1461 172.27 62.9418 172.27C62.2708 172.27 61.6141 172.127 60.9718 171.84C60.3295 171.553 59.8392 171.16 59.5008 170.661L60.3266 169.706C61.0091 170.549 61.8435 170.971 62.8299 170.971C63.6041 170.971 64.2063 170.753 64.6364 170.317C65.0723 169.881 65.2902 169.268 65.2902 168.476V167.676C64.6536 168.41 63.7848 168.777 62.6837 168.777C61.5941 168.777 60.7109 168.339 60.0342 167.461C59.3632 166.584 59.0277 165.388 59.0277 163.874ZM60.6277 164.055C60.6277 165.104 60.8428 165.93 61.2729 166.532C61.703 167.129 62.3052 167.427 63.0794 167.427C64.083 167.427 64.8199 166.971 65.2902 166.059V161.809C64.8027 160.921 64.0715 160.476 63.0966 160.476C62.3224 160.476 61.7174 160.777 61.2815 161.379C60.8456 161.981 60.6277 162.873 60.6277 164.055Z" fill="#090C45"/>
<path d="M76.0518 156.08L80.1465 166.3L84.2412 156.08H86.3832V168.605H84.7316V163.728L84.8864 158.463L80.7745 168.605H79.5099L75.4066 158.489L75.5701 163.728V168.605H73.9184V156.08H76.0518Z" fill="#090C45"/>
<path d="M94.7964 168.605C94.7046 168.422 94.6301 168.095 94.5727 167.625C93.8329 168.393 92.9497 168.777 91.9232 168.777C91.0056 168.777 90.2514 168.519 89.6608 168.003C89.0758 167.481 88.7833 166.822 88.7833 166.025C88.7833 165.055 89.1503 164.304 89.8844 163.771C90.6242 163.232 91.6622 162.962 92.9985 162.962H94.5469V162.231C94.5469 161.675 94.3806 161.233 94.048 160.906C93.7153 160.574 93.225 160.407 92.577 160.407C92.0092 160.407 91.5332 160.551 91.149 160.837C90.7647 161.124 90.5726 161.471 90.5726 161.878H88.9726C88.9726 161.414 89.136 160.966 89.4629 160.536C89.7955 160.1 90.2428 159.756 90.8049 159.504C91.3726 159.252 91.9949 159.125 92.6716 159.125C93.744 159.125 94.5842 159.395 95.1921 159.934C95.8 160.467 96.1154 161.204 96.1383 162.145V166.429C96.1383 167.283 96.2473 167.963 96.4652 168.468V168.605H94.7964ZM92.1554 167.392C92.6544 167.392 93.1275 167.263 93.5748 167.005C94.0222 166.747 94.3462 166.412 94.5469 165.999V164.089H93.2996C91.3497 164.089 90.3747 164.66 90.3747 165.801C90.3747 166.3 90.5411 166.69 90.8737 166.971C91.2063 167.252 91.6336 167.392 92.1554 167.392Z" fill="#090C45"/>
<path d="M100.138 159.298L100.19 160.467C100.901 159.573 101.83 159.125 102.977 159.125C104.944 159.125 105.936 160.235 105.954 162.455V168.605H104.362V162.446C104.356 161.775 104.202 161.279 103.898 160.958C103.599 160.637 103.132 160.476 102.495 160.476C101.979 160.476 101.526 160.614 101.136 160.889C100.746 161.164 100.442 161.526 100.224 161.973V168.605H98.633V159.298H100.138Z" fill="#090C45"/>
<path d="M114.1 168.605C114.008 168.422 113.934 168.095 113.876 167.625C113.137 168.393 112.253 168.777 111.227 168.777C110.309 168.777 109.555 168.519 108.964 168.003C108.38 167.481 108.087 166.822 108.087 166.025C108.087 165.055 108.454 164.304 109.188 163.771C109.928 163.232 110.966 162.962 112.302 162.962H113.851V162.231C113.851 161.675 113.684 161.233 113.352 160.906C113.019 160.574 112.529 160.407 111.881 160.407C111.313 160.407 110.837 160.551 110.453 160.837C110.068 161.124 109.876 161.471 109.876 161.878H108.276C108.276 161.414 108.44 160.966 108.767 160.536C109.099 160.1 109.547 159.756 110.109 159.504C110.676 159.252 111.299 159.125 111.975 159.125C113.048 159.125 113.888 159.395 114.496 159.934C115.104 160.467 115.419 161.204 115.442 162.145V166.429C115.442 167.283 115.551 167.963 115.769 168.468V168.605H114.1ZM111.459 167.392C111.958 167.392 112.431 167.263 112.879 167.005C113.326 166.747 113.65 166.412 113.851 165.999V164.089H112.603C110.653 164.089 109.678 164.66 109.678 165.801C109.678 166.3 109.845 166.69 110.177 166.971C110.51 167.252 110.937 167.392 111.459 167.392Z" fill="#090C45"/>
<path d="M117.558 163.874C117.558 162.423 117.894 161.27 118.565 160.416C119.236 159.556 120.125 159.125 121.231 159.125C122.367 159.125 123.253 159.527 123.89 160.33L123.967 159.298H125.421V168.382C125.421 169.586 125.062 170.535 124.346 171.229C123.634 171.923 122.677 172.27 121.472 172.27C120.801 172.27 120.145 172.127 119.502 171.84C118.86 171.553 118.37 171.16 118.031 170.661L118.857 169.706C119.54 170.549 120.374 170.971 121.361 170.971C122.135 170.971 122.737 170.753 123.167 170.317C123.603 169.881 123.821 169.268 123.821 168.476V167.676C123.184 168.41 122.315 168.777 121.214 168.777C120.125 168.777 119.241 168.339 118.565 167.461C117.894 166.584 117.558 165.388 117.558 163.874ZM119.158 164.055C119.158 165.104 119.373 165.93 119.803 166.532C120.234 167.129 120.836 167.427 121.61 167.427C122.614 167.427 123.351 166.971 123.821 166.059V161.809C123.333 160.921 122.602 160.476 121.627 160.476C120.853 160.476 120.248 160.777 119.812 161.379C119.376 161.981 119.158 162.873 119.158 164.055Z" fill="#090C45"/>
<path d="M131.692 168.777C130.43 168.777 129.404 168.364 128.612 167.539C127.821 166.707 127.425 165.597 127.425 164.209V163.917C127.425 162.994 127.6 162.171 127.95 161.448C128.306 160.72 128.799 160.152 129.43 159.745C130.066 159.332 130.754 159.125 131.494 159.125C132.704 159.125 133.645 159.524 134.316 160.321C134.987 161.118 135.322 162.26 135.322 163.745V164.407H129.017C129.04 165.325 129.306 166.068 129.817 166.635C130.333 167.197 130.987 167.478 131.778 167.478C132.34 167.478 132.816 167.364 133.206 167.134C133.596 166.905 133.937 166.601 134.23 166.222L135.202 166.979C134.422 168.178 133.252 168.777 131.692 168.777ZM131.494 160.433C130.852 160.433 130.313 160.668 129.877 161.138C129.441 161.603 129.171 162.257 129.068 163.1H133.731V162.979C133.685 162.171 133.467 161.546 133.077 161.104C132.687 160.657 132.159 160.433 131.494 160.433Z" fill="#090C45"/>
<path d="M138.669 159.298L138.712 160.33C139.394 159.527 140.314 159.125 141.473 159.125C142.775 159.125 143.661 159.624 144.131 160.622C144.441 160.175 144.842 159.814 145.335 159.538C145.834 159.263 146.422 159.125 147.099 159.125C149.14 159.125 150.178 160.207 150.213 162.369V168.605H148.621V162.463C148.621 161.798 148.469 161.302 148.166 160.975C147.862 160.642 147.351 160.476 146.634 160.476C146.044 160.476 145.553 160.654 145.163 161.009C144.773 161.359 144.547 161.832 144.484 162.429V168.605H142.884V162.506C142.884 161.153 142.221 160.476 140.897 160.476C139.853 160.476 139.139 160.921 138.755 161.809V168.605H137.163V159.298H138.669Z" fill="#090C45"/>
<path d="M156.484 168.777C155.222 168.777 154.196 168.364 153.404 167.539C152.613 166.707 152.217 165.597 152.217 164.209V163.917C152.217 162.994 152.392 162.171 152.742 161.448C153.098 160.72 153.591 160.152 154.222 159.745C154.858 159.332 155.546 159.125 156.286 159.125C157.496 159.125 158.437 159.524 159.108 160.321C159.779 161.118 160.114 162.26 160.114 163.745V164.407H153.809C153.832 165.325 154.098 166.068 154.609 166.635C155.125 167.197 155.779 167.478 156.57 167.478C157.132 167.478 157.608 167.364 157.998 167.134C158.388 166.905 158.729 166.601 159.022 166.222L159.994 166.979C159.214 168.178 158.044 168.777 156.484 168.777ZM156.286 160.433C155.644 160.433 155.105 160.668 154.669 161.138C154.233 161.603 153.964 162.257 153.86 163.1H158.523V162.979C158.477 162.171 158.259 161.546 157.869 161.104C157.479 160.657 156.951 160.433 156.286 160.433Z" fill="#090C45"/>
<path d="M163.469 159.298L163.521 160.467C164.232 159.573 165.161 159.125 166.308 159.125C168.275 159.125 169.267 160.235 169.284 162.455V168.605H167.693V162.446C167.687 161.775 167.532 161.279 167.228 160.958C166.93 160.637 166.463 160.476 165.826 160.476C165.31 160.476 164.857 160.614 164.467 160.889C164.077 161.164 163.773 161.526 163.555 161.973V168.605H161.964V159.298H163.469Z" fill="#090C45"/>
<path d="M173.844 157.044V159.298H175.581V160.528H173.844V166.3C173.844 166.673 173.921 166.954 174.076 167.143C174.231 167.326 174.495 167.418 174.867 167.418C175.051 167.418 175.303 167.384 175.624 167.315V168.605C175.206 168.72 174.799 168.777 174.403 168.777C173.692 168.777 173.155 168.562 172.794 168.132C172.433 167.702 172.252 167.091 172.252 166.3V160.528H170.558V159.298H172.252V157.044H173.844Z" fill="#090C45"/>
<path d="M185.758 163.022C184.341 162.615 183.309 162.116 182.661 161.526C182.019 160.929 181.698 160.195 181.698 159.323C181.698 158.337 182.09 157.523 182.876 156.88C183.668 156.232 184.694 155.908 185.956 155.908C186.816 155.908 187.582 156.075 188.253 156.407C188.929 156.74 189.451 157.199 189.818 157.784C190.191 158.368 190.377 159.008 190.377 159.702H188.717C188.717 158.945 188.476 158.351 187.995 157.921C187.513 157.485 186.833 157.267 185.956 157.267C185.141 157.267 184.505 157.448 184.046 157.809C183.593 158.165 183.366 158.661 183.366 159.298C183.366 159.808 183.582 160.241 184.012 160.596C184.448 160.946 185.184 161.267 186.222 161.56C187.266 161.852 188.081 162.176 188.666 162.532C189.256 162.882 189.692 163.292 189.973 163.762C190.26 164.232 190.403 164.786 190.403 165.422C190.403 166.438 190.008 167.252 189.216 167.865C188.425 168.473 187.367 168.777 186.042 168.777C185.182 168.777 184.379 168.614 183.633 168.287C182.888 167.954 182.311 167.501 181.904 166.928C181.503 166.354 181.302 165.703 181.302 164.975H182.962C182.962 165.732 183.24 166.331 183.797 166.773C184.359 167.209 185.107 167.427 186.042 167.427C186.914 167.427 187.582 167.249 188.046 166.893C188.511 166.538 188.743 166.053 188.743 165.44C188.743 164.826 188.528 164.353 188.098 164.02C187.668 163.682 186.888 163.349 185.758 163.022Z" fill="#090C45"/>
<path d="M195.324 166.274L197.492 159.298H199.195L195.453 170.042C194.874 171.59 193.953 172.365 192.691 172.365L192.39 172.339L191.797 172.227V170.937L192.227 170.971C192.766 170.971 193.185 170.862 193.483 170.644C193.787 170.426 194.036 170.028 194.231 169.448L194.584 168.502L191.263 159.298H193.001L195.324 166.274Z" fill="#090C45"/>
<path d="M206.042 166.136C206.042 165.706 205.879 165.374 205.552 165.139C205.231 164.898 204.666 164.691 203.857 164.519C203.054 164.347 202.415 164.141 201.939 163.9C201.469 163.659 201.119 163.372 200.89 163.04C200.666 162.707 200.554 162.311 200.554 161.852C200.554 161.09 200.875 160.445 201.517 159.917C202.166 159.389 202.991 159.125 203.995 159.125C205.05 159.125 205.905 159.398 206.558 159.943C207.218 160.488 207.548 161.184 207.548 162.033H205.948C205.948 161.597 205.761 161.222 205.389 160.906C205.022 160.591 204.557 160.433 203.995 160.433C203.416 160.433 202.963 160.559 202.636 160.812C202.309 161.064 202.145 161.394 202.145 161.801C202.145 162.185 202.297 162.475 202.601 162.67C202.905 162.865 203.453 163.051 204.244 163.229C205.042 163.407 205.687 163.619 206.18 163.865C206.673 164.112 207.037 164.41 207.272 164.76C207.513 165.104 207.634 165.526 207.634 166.025C207.634 166.856 207.301 167.524 206.636 168.029C205.971 168.528 205.108 168.777 204.047 168.777C203.301 168.777 202.642 168.645 202.068 168.382C201.495 168.118 201.044 167.751 200.717 167.281C200.396 166.805 200.236 166.291 200.236 165.741H201.827C201.856 166.274 202.068 166.698 202.464 167.014C202.865 167.324 203.393 167.478 204.047 167.478C204.649 167.478 205.13 167.358 205.492 167.117C205.859 166.87 206.042 166.544 206.042 166.136Z" fill="#090C45"/>
<path d="M211.866 157.044V159.298H213.604V160.528H211.866V166.3C211.866 166.673 211.944 166.954 212.098 167.143C212.253 167.326 212.517 167.418 212.89 167.418C213.073 167.418 213.326 167.384 213.647 167.315V168.605C213.228 168.72 212.821 168.777 212.425 168.777C211.714 168.777 211.178 168.562 210.817 168.132C210.455 167.702 210.275 167.091 210.275 166.3V160.528H208.58V159.298H210.275V157.044H211.866Z" fill="#090C45"/>
<path d="M219.333 168.777C218.071 168.777 217.045 168.364 216.253 167.539C215.462 166.707 215.066 165.597 215.066 164.209V163.917C215.066 162.994 215.241 162.171 215.591 161.448C215.947 160.72 216.44 160.152 217.071 159.745C217.707 159.332 218.395 159.125 219.135 159.125C220.345 159.125 221.286 159.524 221.957 160.321C222.628 161.118 222.963 162.26 222.963 163.745V164.407H216.658C216.681 165.325 216.947 166.068 217.458 166.635C217.974 167.197 218.628 167.478 219.419 167.478C219.981 167.478 220.457 167.364 220.847 167.134C221.237 166.905 221.578 166.601 221.871 166.222L222.843 166.979C222.063 168.178 220.893 168.777 219.333 168.777ZM219.135 160.433C218.493 160.433 217.954 160.668 217.518 161.138C217.082 161.603 216.813 162.257 216.709 163.1H221.372V162.979C221.326 162.171 221.108 161.546 220.718 161.104C220.328 160.657 219.8 160.433 219.135 160.433Z" fill="#090C45"/>
<path d="M226.31 159.298L226.353 160.33C227.035 159.527 227.955 159.125 229.114 159.125C230.416 159.125 231.302 159.624 231.772 160.622C232.082 160.175 232.483 159.814 232.976 159.538C233.475 159.263 234.063 159.125 234.74 159.125C236.782 159.125 237.82 160.207 237.854 162.369V168.605H236.263V162.463C236.263 161.798 236.111 161.302 235.807 160.975C235.503 160.642 234.992 160.476 234.275 160.476C233.685 160.476 233.194 160.654 232.804 161.009C232.414 161.359 232.188 161.832 232.125 162.429V168.605H230.525V162.506C230.525 161.153 229.862 160.476 228.538 160.476C227.494 160.476 226.78 160.921 226.396 161.809V168.605H224.804V159.298H226.31Z" fill="#090C45"/>
<path fill-rule="evenodd" clip-rule="evenodd" d="M149.908 143.839C145.602 135.294 136.128 114.534 132.684 99.8567C132.632 99.6358 132.58 99.4149 132.528 99.1901C128.276 81.082 124.175 63.6215 132.684 43.4059C139.574 27.0395 150.052 8.05151 154.43 0.603516C155.077 4.05277 157.014 11.9874 159.598 16.1261C160.478 17.5355 161.788 19.4868 163.302 21.7362C167.339 27.7433 172.808 35.8798 175.315 41.527C178.76 49.2883 183.928 65.5175 180.698 82.6866C177.469 99.8558 158.521 143.838 156.795 143.838H156.355V115.833H158.35C158.774 115.833 159.107 115.47 159.071 115.048L157.295 93.9995C157.259 93.5778 157.544 93.1998 157.948 93.0737C160.01 92.4297 161.262 91.1317 162.72 89.343C164.34 87.3567 165.241 84.8817 165.279 82.319C165.153 79.2891 163.862 76.4249 161.674 74.3252C159.486 72.2256 156.571 71.0532 153.538 71.0532C150.506 71.0532 147.59 72.2256 145.402 74.3252C143.214 76.4249 141.923 79.2891 141.798 82.319C141.835 84.8819 142.736 87.3571 144.356 89.3435C145.813 91.13 146.878 92.1958 148.899 92.7938C149.304 92.9138 149.588 93.2918 149.553 93.7132L147.775 115.048C147.74 115.471 148.073 115.833 148.497 115.833H150.723V143.839H149.908Z" fill="url(#paint0_linear)"/>
<path opacity="0.732" fill-rule="evenodd" clip-rule="evenodd" d="M139.42 57.5114C144.164 49.9339 148.562 42.5411 151.573 39.0938C152.15 41.7685 153.083 44.3534 154.349 46.7789C156.097 49.8853 157.523 50.4786 158.565 51.5195C160.803 53.7396 162.777 56.2096 164.451 58.8808C166.824 62.4739 168.736 72.895 166.513 80.8429C166.315 81.5624 165.904 82.2053 165.334 82.6875C165.03 83.2875 165.165 81.4495 164.451 78.9145C163.945 77.2053 163.015 75.652 161.747 74.3996C159.927 72.6807 156.713 71.0322 155.132 71.0322C152.659 70.8595 150.178 71.2469 147.876 72.1655C145.576 73.1635 142.876 76.9194 142.876 76.9194C142.876 76.9194 133.561 66.8697 139.42 57.5114Z" fill="url(#paint1_linear)"/>
<defs>
<linearGradient id="paint0_linear" x1="181.993" y1="-15.1095" x2="139.139" y2="127.26" gradientUnits="userSpaceOnUse">
<stop stop-color="#FFB01C"/>
<stop offset="0.768392" stop-color="#F27405"/>
</linearGradient>
<linearGradient id="paint1_linear" x1="159.484" y1="57.5822" x2="146.667" y2="79.3768" gradientUnits="userSpaceOnUse">
<stop stop-color="#FDA477" stop-opacity="0.6"/>
<stop offset="1" stop-color="#FFE9DE" stop-opacity="0.4"/>
</linearGradient>
</defs>
</svg>
