<svg width="235" height="88" viewBox="0 0 235 88" fill="none" xmlns="http://www.w3.org/2000/svg">
<path d="M8.1735 13.6406L8.17359 34.5658C8.17359 38.1472 9.10664 40.8446 10.9727 42.658C12.8843 44.4713 15.5242 45.378 18.8922 45.378C22.3058 45.378 24.9456 44.4713 26.8117 42.658C28.7233 40.8446 29.6791 38.1472 29.6791 34.5658L29.679 13.6406H37.462L37.4621 34.4298C37.4621 38.2832 36.6201 41.5473 34.936 44.222C33.252 46.8967 30.999 48.8914 28.1772 50.2061C25.3553 51.5208 22.2375 52.1781 18.8239 52.1781C15.4104 52.1781 12.2926 51.5208 9.47075 50.2061C6.69437 48.8914 4.48693 46.8967 2.84841 44.222C1.20989 41.5473 0.390635 38.2832 0.390635 34.4298L0.390541 13.6406H8.1735Z" fill="#797E82"/>
<path d="M54.2317 46.2538H71.0457V52.1781H45.354V46.2538L62.2352 19.84H45.354V13.6406H71.0457V19.84L54.2317 46.2538Z" fill="#797E82"/>
<path d="M77.1367 32.817C77.1367 29.0543 77.9105 25.7222 79.4579 22.8208C81.051 19.9194 83.1901 17.6754 85.8755 16.0887C88.6063 14.4566 91.6103 13.6406 94.8873 13.6406C97.8458 13.6406 100.417 14.23 102.602 15.4087C104.832 16.542 106.607 17.9701 107.927 19.6928V14.2526H115.778V52.1718H107.927V46.1453C106.607 47.9133 104.809 49.3867 102.534 50.5654C100.258 51.7441 97.6637 52.3334 94.7508 52.3334C91.5193 52.3334 88.5608 51.5174 85.8755 49.8854C83.1901 48.208 81.051 45.896 79.4579 42.9492C77.9105 39.9572 77.1367 36.5798 77.1367 32.817ZM107.927 32.953C107.927 30.369 107.381 28.1249 106.289 26.2209C105.242 24.3169 103.854 22.8662 102.124 21.8688C100.395 20.8714 98.5285 20.3728 96.5258 20.3728C94.5232 20.3728 92.6571 20.8714 90.9276 21.8688C89.198 22.8208 87.7871 24.2488 86.6947 26.1529C85.6479 28.0116 85.1245 30.233 85.1245 32.817C85.1245 35.4011 85.6479 37.6678 86.6947 39.6172C87.7871 41.5665 89.198 43.0626 90.9276 44.1053C92.7026 45.1026 94.5687 45.6013 96.5258 45.6013C98.5285 45.6013 100.395 45.1026 102.124 44.1053C103.854 43.1079 105.242 41.6572 106.289 39.7532C107.381 37.8038 107.927 35.5371 107.927 32.953Z" fill="#797E82"/>
<path d="M133.784 7.20898V58.6005H126.001V7.20898H133.784Z" fill="#797E82"/>
<path opacity="0.22" d="M201.959 65.1852C196.051 65.1852 190.711 63.8648 185.939 61.2242C181.167 58.5081 177.417 54.7357 174.69 49.9071C171.963 45.003 170.6 39.3445 170.6 32.9315C170.6 26.5939 172.001 20.9731 174.804 16.0691C177.607 11.165 181.432 7.39264 186.28 4.75198C191.127 2.11134 196.543 0.791016 202.527 0.791016C208.511 0.791016 213.927 2.11134 218.775 4.75198C223.623 7.39264 227.448 11.165 230.251 16.0691C233.053 20.9731 234.455 26.5939 234.455 32.9315C234.455 39.2691 233.015 44.8899 230.137 49.7939C227.259 54.698 223.32 58.5081 218.321 61.2242C213.397 63.8648 207.943 65.1852 201.959 65.1852Z" fill="#797E82"/>
<path d="M178.23 32.069C178.23 33.4744 178.139 34.7437 177.957 35.8771H149.215C149.442 38.8691 150.557 41.2719 152.56 43.0852C154.563 44.8986 157.02 45.8053 159.933 45.8053C164.121 45.8053 167.079 44.0599 168.809 40.5692H177.206C176.068 44.0146 173.997 46.848 170.993 49.0694C168.035 51.2454 164.348 52.3334 159.933 52.3334C156.338 52.3334 153.106 51.5401 150.239 49.9534C147.417 48.3213 145.187 46.0546 143.548 43.1532C141.955 40.2065 141.159 36.8064 141.159 32.953C141.159 29.0996 141.932 25.7222 143.48 22.8208C145.073 19.8741 147.28 17.6074 150.102 16.0207C152.97 14.434 156.247 13.6406 159.933 13.6406C163.484 13.6406 166.647 14.4113 169.423 15.9527C172.2 17.494 174.361 19.6701 175.909 22.4808C177.456 25.2462 178.23 28.4423 178.23 32.069ZM170.106 29.621C170.06 26.7649 169.036 24.4755 167.034 22.7528C165.031 21.0301 162.55 20.1688 159.592 20.1688C156.907 20.1688 154.608 21.0301 152.697 22.7528C150.785 24.4302 149.647 26.7196 149.283 29.621H170.106Z" fill="#797E82"/>
<path d="M202.455 52.3334C198.905 52.3334 195.696 51.5401 192.829 49.9534C189.962 48.3213 187.709 46.0546 186.07 43.1532C184.432 40.2065 183.612 36.8064 183.612 32.953C183.612 29.1449 184.454 25.7675 186.138 22.8208C187.823 19.8741 190.121 17.6074 193.034 16.0207C195.947 14.434 199.201 13.6406 202.797 13.6406C206.392 13.6406 209.647 14.434 212.56 16.0207C215.473 17.6074 217.771 19.8741 219.455 22.8208C221.139 25.7675 221.981 29.1449 221.981 32.953C221.981 36.7611 221.116 40.1385 219.387 43.0852C217.657 46.032 215.29 48.3213 212.287 49.9534C209.328 51.5401 206.051 52.3334 202.455 52.3334Z" fill="#797E82"/>
<path d="M213.436 41.4301C211.884 41.4301 210.481 41.0848 209.227 40.3941C207.974 39.6838 206.989 38.6971 206.272 37.4342C205.556 36.1515 205.198 34.6715 205.198 32.9942C205.198 31.3366 205.566 29.8665 206.302 28.5839C207.038 27.3012 208.043 26.3145 209.317 25.6239C210.59 24.9332 212.013 24.5879 213.585 24.5879C215.157 24.5879 216.58 24.9332 217.853 25.6239C219.127 26.3145 220.132 27.3012 220.868 28.5839C221.604 29.8665 221.972 31.3366 221.972 32.9942C221.972 34.6518 221.594 36.1219 220.838 37.4046C220.082 38.6872 219.047 39.6838 217.734 40.3941C216.441 41.0848 215.008 41.4301 213.436 41.4301Z" fill="white"/>
<path d="M98.8913 82.075C97.9582 82.075 97.1197 81.9127 96.3759 81.5881C95.6456 81.25 95.0708 80.7902 94.6516 80.2087C94.2324 79.6137 94.016 78.9307 94.0025 78.1599H95.9702C96.0378 78.8225 96.3083 79.3838 96.7816 79.8436C97.2684 80.2899 97.9717 80.513 98.8913 80.513C99.7703 80.513 100.46 80.2966 100.96 79.8639C101.474 79.4176 101.731 78.8496 101.731 78.1599C101.731 77.6189 101.583 77.1794 101.285 76.8413C100.987 76.5032 100.616 76.2463 100.169 76.0704C99.723 75.8946 99.1212 75.7053 98.3639 75.5024C97.4307 75.259 96.6802 75.0156 96.1122 74.7722C95.5577 74.5287 95.0776 74.1501 94.6719 73.6362C94.2797 73.1087 94.0836 72.4055 94.0836 71.5265C94.0836 70.7556 94.2797 70.0727 94.6719 69.4776C95.0641 68.8826 95.6118 68.4228 96.315 68.0982C97.0318 67.7736 97.85 67.6113 98.7696 67.6113C100.095 67.6113 101.177 67.9427 102.015 68.6053C102.867 69.268 103.347 70.147 103.456 71.2425H101.427C101.359 70.7015 101.075 70.2282 100.575 69.8225C100.075 69.4032 99.412 69.1936 98.587 69.1936C97.8162 69.1936 97.1873 69.3965 96.7004 69.8022C96.2136 70.1944 95.9702 70.7488 95.9702 71.4656C95.9702 71.9795 96.1122 72.3987 96.3962 72.7233C96.6937 73.0479 97.0521 73.2981 97.4713 73.4739C97.9041 73.6362 98.5059 73.8255 99.2767 74.0419C100.21 74.2988 100.96 74.5558 101.528 74.8127C102.096 75.0562 102.583 75.4416 102.989 75.969C103.395 76.4829 103.598 77.1862 103.598 78.0787C103.598 78.7684 103.415 79.4176 103.05 80.0261C102.685 80.6347 102.144 81.1283 101.427 81.507C100.71 81.8857 99.865 82.075 98.8913 82.075Z" fill="#797E82"/>
<path d="M115.889 70.8165L109.195 87.1667H107.288L109.479 81.8113L104.996 70.8165H107.044L110.534 79.8233L113.982 70.8165H115.889Z" fill="#797E82"/>
<path d="M121.68 82.1156C120.828 82.1156 120.064 81.9736 119.388 81.6896C118.712 81.392 118.177 80.9863 117.785 80.4724C117.393 79.945 117.177 79.3432 117.136 78.667H119.043C119.097 79.2215 119.354 79.6745 119.814 80.0261C120.287 80.3778 120.902 80.5536 121.66 80.5536C122.363 80.5536 122.917 80.3981 123.323 80.087C123.729 79.776 123.932 79.3838 123.932 78.9104C123.932 78.4236 123.715 78.0652 123.283 77.8353C122.85 77.5919 122.18 77.3552 121.274 77.1253C120.449 76.9089 119.773 76.6925 119.246 76.4762C118.732 76.2463 118.286 75.9149 117.907 75.4822C117.542 75.0359 117.359 74.4544 117.359 73.7376C117.359 73.1696 117.528 72.6489 117.866 72.1756C118.204 71.7023 118.684 71.3304 119.307 71.0599C119.929 70.7759 120.639 70.6339 121.437 70.6339C122.667 70.6339 123.661 70.9449 124.419 71.567C125.176 72.1891 125.582 73.0411 125.636 74.123H123.79C123.749 73.5415 123.512 73.0749 123.08 72.7233C122.66 72.3717 122.092 72.1959 121.376 72.1959C120.713 72.1959 120.186 72.3379 119.793 72.6219C119.401 72.9059 119.205 73.2778 119.205 73.7376C119.205 74.1027 119.32 74.407 119.55 74.6504C119.793 74.8804 120.091 75.0697 120.443 75.2184C120.808 75.3537 121.308 75.5092 121.944 75.685C122.742 75.9014 123.391 76.1178 123.891 76.3342C124.392 76.537 124.818 76.8481 125.169 77.2673C125.534 77.6865 125.724 78.2342 125.737 78.9104C125.737 79.519 125.568 80.0667 125.23 80.5536C124.892 81.0404 124.412 81.4259 123.79 81.7099C123.181 81.9803 122.478 82.1156 121.68 82.1156Z" fill="#797E82"/>
<path d="M130.595 72.3379V78.8902C130.595 79.4311 130.71 79.8165 130.94 80.0464C131.17 80.2628 131.568 80.371 132.136 80.371H133.496V81.933H131.832C130.804 81.933 130.034 81.6963 129.52 81.223C129.006 80.7497 128.749 79.9721 128.749 78.8902V72.3379H127.308V70.8165H128.749V68.017H130.595V70.8165H133.496V72.3379H130.595Z" fill="#797E82"/>
<path d="M145.875 75.9487C145.875 76.3004 145.855 76.6723 145.814 77.0644H136.929C136.997 78.1599 137.369 79.0186 138.045 79.6407C138.735 80.2493 139.566 80.5536 140.54 80.5536C141.338 80.5536 142.001 80.371 142.528 80.0059C143.069 79.6272 143.448 79.1268 143.664 78.5047H145.652C145.354 79.5731 144.759 80.4454 143.867 81.1216C142.974 81.7842 141.865 82.1156 140.54 82.1156C139.485 82.1156 138.538 81.8789 137.7 81.4056C136.875 80.9322 136.226 80.2628 135.753 79.3973C135.279 78.5182 135.043 77.504 135.043 76.3544C135.043 75.2049 135.272 74.1974 135.732 73.3319C136.192 72.4664 136.834 71.8037 137.659 71.3439C138.498 70.8706 139.458 70.6339 140.54 70.6339C141.595 70.6339 142.528 70.8638 143.339 71.3236C144.151 71.7834 144.773 72.419 145.206 73.2305C145.652 74.0284 145.875 74.9344 145.875 75.9487ZM143.968 75.5633C143.968 74.8601 143.813 74.2583 143.502 73.7579C143.191 73.244 142.765 72.8586 142.224 72.6016C141.696 72.3311 141.108 72.1959 140.459 72.1959C139.526 72.1959 138.728 72.4934 138.065 73.0885C137.416 73.6835 137.044 74.5085 136.949 75.5633H143.968Z" fill="#797E82"/>
<path d="M161.68 70.6136C162.546 70.6136 163.316 70.7962 163.993 71.1613C164.669 71.5129 165.203 72.0471 165.595 72.7639C165.987 73.4806 166.183 74.3529 166.183 75.3807V81.933H164.358V75.6444C164.358 74.5355 164.08 73.6903 163.526 73.1087C162.985 72.5137 162.248 72.2162 161.315 72.2162C160.355 72.2162 159.591 72.5272 159.023 73.1493C158.455 73.7579 158.171 74.6437 158.171 75.8067V81.933H156.345V75.6444C156.345 74.5355 156.068 73.6903 155.513 73.1087C154.972 72.5137 154.235 72.2162 153.302 72.2162C152.342 72.2162 151.578 72.5272 151.01 73.1493C150.442 73.7579 150.158 74.6437 150.158 75.8067V81.933H148.312V70.8165H150.158V72.419C150.523 71.8375 151.01 71.3912 151.618 71.0802C152.24 70.7691 152.923 70.6136 153.667 70.6136C154.6 70.6136 155.425 70.8232 156.142 71.2425C156.859 71.6617 157.393 72.277 157.745 73.0885C158.056 72.3041 158.57 71.6955 159.286 71.2627C160.003 70.83 160.801 70.6136 161.68 70.6136Z" fill="#797E82"/>
<path d="M173.147 82.1156C172.295 82.1156 171.531 81.9736 170.855 81.6896C170.178 81.392 169.644 80.9863 169.252 80.4724C168.86 79.945 168.644 79.3432 168.603 78.667H170.51C170.564 79.2215 170.821 79.6745 171.281 80.0261C171.754 80.3778 172.369 80.5536 173.127 80.5536C173.83 80.5536 174.384 80.3981 174.79 80.087C175.196 79.776 175.399 79.3838 175.399 78.9104C175.399 78.4236 175.182 78.0652 174.749 77.8353C174.317 77.5919 173.647 77.3552 172.741 77.1253C171.916 76.9089 171.24 76.6925 170.713 76.4762C170.199 76.2463 169.752 75.9149 169.374 75.4822C169.009 75.0359 168.826 74.4544 168.826 73.7376C168.826 73.1696 168.995 72.6489 169.333 72.1756C169.671 71.7023 170.151 71.3304 170.773 71.0599C171.396 70.7759 172.106 70.6339 172.903 70.6339C174.134 70.6339 175.128 70.9449 175.885 71.567C176.643 72.1891 177.049 73.0411 177.103 74.123H175.257C175.216 73.5415 174.979 73.0749 174.547 72.7233C174.127 72.3717 173.559 72.1959 172.843 72.1959C172.18 72.1959 171.653 72.3379 171.26 72.6219C170.868 72.9059 170.672 73.2778 170.672 73.7376C170.672 74.1027 170.787 74.407 171.017 74.6504C171.26 74.8804 171.558 75.0697 171.91 75.2184C172.275 75.3537 172.775 75.5092 173.411 75.685C174.209 75.9014 174.858 76.1178 175.358 76.3342C175.858 76.537 176.284 76.8481 176.636 77.2673C177.001 77.6865 177.191 78.2342 177.204 78.9104C177.204 79.519 177.035 80.0667 176.697 80.5536C176.359 81.0404 175.879 81.4259 175.257 81.7099C174.648 81.9803 173.945 82.1156 173.147 82.1156Z" fill="#797E82"/>
</svg>
