<svg width="293" height="109" viewBox="0 0 293 109" fill="none" xmlns="http://www.w3.org/2000/svg">
<path d="M10.4821 16.8535L10.4823 42.9523C10.4823 47.4192 11.646 50.7835 13.9735 53.0452C16.3577 55.3069 19.6502 56.4377 23.851 56.4377C28.1085 56.4377 31.4011 55.3069 33.7285 53.0452C36.1128 50.7835 37.3049 47.4192 37.3049 42.9523L37.3048 16.8535H47.012L47.0121 42.7827C47.0121 47.5888 45.9619 51.6599 43.8615 54.9959C41.7611 58.3319 38.9511 60.8198 35.4315 62.4596C31.912 64.0993 28.0234 64.9192 23.7658 64.9192C19.5083 64.9192 15.6197 64.0993 12.1001 62.4596C8.63731 60.8198 5.88409 58.3319 3.84046 54.9959C1.79683 51.6599 0.775019 47.5888 0.775019 42.7827L0.774902 16.8535H10.4821Z" fill="#42424D"/>
<path d="M67.9277 57.53H88.8987V64.9192H56.855V57.53L77.9099 24.5856H56.855V16.8535H88.8987V24.5856L67.9277 57.53Z" fill="#42424D"/>
<path d="M96.4956 40.7711C96.4956 36.0781 97.4607 31.9222 99.3908 28.3034C101.378 24.6847 104.046 21.8858 107.395 19.9068C110.801 17.8713 114.548 16.8535 118.635 16.8535C122.325 16.8535 125.532 17.5886 128.257 19.0587C131.039 20.4723 133.253 22.2534 134.899 24.402V17.6168H144.691V64.9112H134.899V57.3947C133.253 59.5999 131.01 61.4375 128.172 62.9077C125.334 64.3778 122.098 65.1128 118.465 65.1128C114.434 65.1128 110.744 64.0951 107.395 62.0595C104.046 59.9674 101.378 57.0837 99.3908 53.4085C97.4607 49.6766 96.4956 45.4642 96.4956 40.7711ZM134.899 40.9408C134.899 37.7178 134.218 34.919 132.855 32.5442C131.55 30.1694 129.818 28.36 127.661 27.116C125.504 25.8721 123.176 25.2501 120.679 25.2501C118.181 25.2501 115.853 25.8721 113.696 27.116C111.539 28.3034 109.779 30.0845 108.417 32.4593C107.111 34.7776 106.458 37.5482 106.458 40.7711C106.458 43.9941 107.111 46.8212 108.417 49.2526C109.779 51.6839 111.539 53.5498 113.696 54.8503C115.91 56.0942 118.238 56.7162 120.679 56.7162C123.176 56.7162 125.504 56.0942 127.661 54.8503C129.818 53.6064 131.55 51.797 132.855 49.4222C134.218 46.9908 134.899 44.1637 134.899 40.9408Z" fill="#42424D"/>
<path d="M167.149 8.83203V72.9297H157.442V8.83203H167.149Z" fill="#42424D"/>
<path opacity="0.7" d="M252.18 81.1432C244.811 81.1432 238.151 79.4965 232.199 76.203C226.247 72.8153 221.571 68.1103 218.169 62.0878C214.768 55.9713 213.068 48.9137 213.068 40.9151C213.068 33.0106 214.816 26.0001 218.311 19.8836C221.807 13.767 226.578 9.06195 232.624 5.76841C238.671 2.47489 245.425 0.828125 252.889 0.828125C260.352 0.828125 267.107 2.47489 273.154 5.76841C279.2 9.06195 283.971 13.767 287.467 19.8836C290.962 26.0001 292.71 33.0106 292.71 40.9151C292.71 48.8196 290.915 55.8301 287.325 61.9467C283.735 68.0632 278.822 72.8153 272.587 76.203C266.446 79.4965 259.644 81.1432 252.18 81.1432Z" fill="#77BDD9"/>
<path d="M222.583 39.8382C222.583 41.591 222.469 43.1742 222.242 44.5878H186.394C186.677 48.3196 188.068 51.3164 190.566 53.5781C193.064 55.8398 196.129 56.9706 199.762 56.9706C204.985 56.9706 208.675 54.7938 210.832 50.44H221.306C219.886 54.7372 217.303 58.2711 213.557 61.0417C209.867 63.7558 205.269 65.1128 199.762 65.1128C195.278 65.1128 191.247 64.1233 187.671 62.1443C184.151 60.1088 181.37 57.2816 179.326 53.6629C177.339 49.9876 176.346 45.7469 176.346 40.9408C176.346 36.1346 177.311 31.9222 179.241 28.3034C181.228 24.6282 183.981 21.801 187.501 19.822C191.077 17.843 195.164 16.8535 199.762 16.8535C204.19 16.8535 208.135 17.8147 211.598 19.7372C215.061 21.6597 217.758 24.3737 219.688 27.8794C221.618 31.3285 222.583 35.3147 222.583 39.8382ZM212.45 36.7849C212.393 33.2227 211.116 30.3673 208.618 28.2186C206.12 26.07 203.026 24.9957 199.337 24.9957C195.987 24.9957 193.12 26.07 190.736 28.2186C188.352 30.3107 186.933 33.1661 186.479 36.7849H212.45Z" fill="#42424D"/>
<path d="M252.799 65.1128C248.371 65.1128 244.369 64.1233 240.792 62.1443C237.216 60.1088 234.406 57.2816 232.362 53.6629C230.319 49.9876 229.297 45.7469 229.297 40.9408C229.297 36.1912 230.347 31.9787 232.447 28.3034C234.548 24.6282 237.415 21.801 241.048 19.822C244.681 17.843 248.74 16.8535 253.224 16.8535C257.709 16.8535 261.768 17.843 265.401 19.822C269.034 21.801 271.901 24.6282 274.001 28.3034C276.102 31.9787 277.152 36.1912 277.152 40.9408C277.152 45.6904 276.073 49.9028 273.916 53.5781C271.759 57.2534 268.807 60.1088 265.06 62.1443C261.37 64.1233 257.283 65.1128 252.799 65.1128Z" fill="#42424D"/>
<path d="M266.494 51.5142C264.558 51.5142 262.808 51.0835 261.245 50.222C259.681 49.336 258.452 48.1054 257.559 46.5302C256.665 44.9305 256.219 43.0846 256.219 40.9925C256.219 38.9251 256.678 37.0915 257.596 35.4917C258.514 33.892 259.768 32.6614 261.356 31.7999C262.945 30.9385 264.719 30.5078 266.68 30.5078C268.64 30.5078 270.415 30.9385 272.003 31.7999C273.592 32.6614 274.845 33.892 275.763 35.4917C276.682 37.0915 277.141 38.9251 277.141 40.9925C277.141 43.06 276.669 44.8935 275.726 46.4933C274.783 48.0931 273.493 49.336 271.854 50.222C270.241 51.0835 268.454 51.5142 266.494 51.5142Z" fill="white"/>
<path d="M123.63 102.21C122.466 102.21 121.42 102.007 120.492 101.602C119.582 101.181 118.865 100.607 118.342 99.8819C117.819 99.1398 117.549 98.288 117.532 97.3265H119.986C120.071 98.153 120.408 98.853 120.998 99.4265C121.606 99.9831 122.483 100.261 123.63 100.261C124.726 100.261 125.586 99.9916 126.211 99.4518C126.851 98.8952 127.172 98.1868 127.172 97.3265C127.172 96.6518 126.986 96.1036 126.615 95.6819C126.244 95.2603 125.78 94.9398 125.224 94.7205C124.667 94.5012 123.917 94.2651 122.972 94.0121C121.808 93.7084 120.872 93.4048 120.164 93.1012C119.472 92.7976 118.873 92.3253 118.367 91.6844C117.878 91.0265 117.633 90.1494 117.633 89.053C117.633 88.0916 117.878 87.2398 118.367 86.4976C118.856 85.7555 119.539 85.182 120.417 84.7771C121.311 84.3723 122.331 84.1699 123.478 84.1699C125.131 84.1699 126.48 84.5832 127.526 85.4097C128.589 86.2362 129.188 87.3326 129.323 88.6988H126.792C126.708 88.0241 126.354 87.4338 125.73 86.9277C125.106 86.4049 124.279 86.1434 123.25 86.1434C122.289 86.1434 121.505 86.3964 120.897 86.9024C120.29 87.3916 119.986 88.0832 119.986 88.9771C119.986 89.6181 120.164 90.141 120.518 90.5458C120.889 90.9506 121.336 91.2627 121.859 91.4819C122.398 91.6844 123.149 91.9205 124.111 92.1904C125.274 92.5109 126.211 92.8313 126.919 93.1518C127.627 93.4554 128.235 93.9362 128.741 94.594C129.247 95.235 129.5 96.1121 129.5 97.2253C129.5 98.0855 129.272 98.8952 128.817 99.6542C128.361 100.413 127.686 101.029 126.792 101.501C125.898 101.973 124.844 102.21 123.63 102.21Z" fill="#42424D"/>
<path d="M144.83 88.1675L136.481 108.56H134.102L136.835 101.881L131.243 88.1675H133.799L138.15 99.4012L142.452 88.1675H144.83Z" fill="#42424D"/>
<path d="M152.053 102.26C150.99 102.26 150.037 102.083 149.194 101.729C148.35 101.358 147.684 100.852 147.195 100.211C146.706 99.553 146.436 98.8024 146.385 97.959H148.764C148.831 98.6506 149.152 99.2157 149.725 99.6542C150.316 100.093 151.083 100.312 152.028 100.312C152.905 100.312 153.596 100.118 154.102 99.7301C154.608 99.3422 154.861 98.853 154.861 98.2627C154.861 97.6554 154.591 97.2084 154.052 96.9217C153.512 96.6181 152.677 96.3229 151.547 96.0362C150.518 95.7663 149.675 95.4964 149.017 95.2265C148.376 94.9398 147.819 94.5265 147.347 93.9868C146.891 93.4301 146.664 92.7048 146.664 91.8109C146.664 91.1024 146.875 90.453 147.296 89.8627C147.718 89.2723 148.317 88.8085 149.093 88.4711C149.869 88.1169 150.754 87.9398 151.749 87.9398C153.284 87.9398 154.524 88.3277 155.469 89.1036C156.413 89.8795 156.919 90.9422 156.987 92.2916H154.684C154.634 91.5663 154.338 90.9844 153.799 90.5458C153.276 90.1073 152.567 89.888 151.673 89.888C150.847 89.888 150.189 90.0651 149.7 90.4193C149.211 90.7735 148.966 91.2374 148.966 91.8109C148.966 92.2663 149.109 92.6458 149.396 92.9494C149.7 93.2362 150.071 93.4723 150.509 93.6578C150.965 93.8265 151.589 94.0205 152.382 94.2398C153.377 94.5097 154.187 94.7795 154.811 95.0494C155.435 95.3024 155.966 95.6904 156.405 96.2133C156.86 96.7362 157.096 97.4193 157.113 98.2627C157.113 99.0217 156.902 99.7048 156.481 100.312C156.059 100.919 155.46 101.4 154.684 101.754C153.925 102.092 153.048 102.26 152.053 102.26Z" fill="#42424D"/>
<path d="M163.172 90.0651V98.2374C163.172 98.9121 163.315 99.3928 163.602 99.6795C163.889 99.9494 164.386 100.084 165.095 100.084H166.79V102.033H164.715C163.433 102.033 162.472 101.737 161.831 101.147C161.19 100.557 160.869 99.5867 160.869 98.2374V90.0651H159.073V88.1675H160.869V84.6759H163.172V88.1675H166.79V90.0651H163.172Z" fill="#42424D"/>
<path d="M182.23 94.5687C182.23 95.0072 182.205 95.4711 182.154 95.9603H171.072C171.157 97.3265 171.62 98.3976 172.464 99.1735C173.324 99.9325 174.361 100.312 175.576 100.312C176.571 100.312 177.397 100.084 178.055 99.6289C178.73 99.1566 179.202 98.5325 179.472 97.7566H181.952C181.581 99.0892 180.838 100.177 179.725 101.02C178.612 101.847 177.229 102.26 175.576 102.26C174.26 102.26 173.079 101.965 172.034 101.375C171.005 100.784 170.195 99.9494 169.605 98.8699C169.014 97.7735 168.719 96.5084 168.719 95.0747C168.719 93.641 169.006 92.3844 169.579 91.3048C170.153 90.2253 170.954 89.3988 171.983 88.8253C173.029 88.235 174.226 87.9398 175.576 87.9398C176.891 87.9398 178.055 88.2265 179.067 88.8C180.079 89.3735 180.855 90.1663 181.395 91.1783C181.952 92.1735 182.23 93.3036 182.23 94.5687ZM179.852 94.088C179.852 93.2109 179.658 92.4603 179.27 91.8362C178.882 91.1952 178.35 90.7145 177.676 90.394C177.018 90.0567 176.284 89.888 175.475 89.888C174.311 89.888 173.316 90.2591 172.489 91.0012C171.679 91.7434 171.216 92.7723 171.097 94.088H179.852Z" fill="#42424D"/>
<path d="M201.943 87.9145C203.022 87.9145 203.983 88.1422 204.827 88.5976C205.67 89.0362 206.336 89.7024 206.826 90.5964C207.315 91.4904 207.559 92.5783 207.559 93.8603V102.033H205.282V94.1892C205.282 92.806 204.937 91.7518 204.245 91.0265C203.57 90.2844 202.651 89.9133 201.487 89.9133C200.29 89.9133 199.337 90.3012 198.628 91.0771C197.92 91.8362 197.565 92.941 197.565 94.3916V102.033H195.288V94.1892C195.288 92.806 194.943 91.7518 194.251 91.0265C193.576 90.2844 192.657 89.9133 191.493 89.9133C190.296 89.9133 189.343 90.3012 188.634 91.0771C187.926 91.8362 187.571 92.941 187.571 94.3916V102.033H185.269V88.1675H187.571V90.1663C188.027 89.441 188.634 88.8844 189.393 88.4964C190.169 88.1085 191.021 87.9145 191.949 87.9145C193.112 87.9145 194.141 88.1759 195.035 88.6988C195.929 89.2217 196.596 89.9892 197.034 91.0012C197.422 90.0229 198.063 89.2639 198.957 88.7241C199.851 88.1844 200.846 87.9145 201.943 87.9145Z" fill="#42424D"/>
<path d="M216.245 102.26C215.182 102.26 214.229 102.083 213.386 101.729C212.542 101.358 211.876 100.852 211.387 100.211C210.898 99.553 210.628 98.8024 210.577 97.959H212.955C213.023 98.6506 213.343 99.2157 213.917 99.6542C214.507 100.093 215.275 100.312 216.219 100.312C217.096 100.312 217.788 100.118 218.294 99.7301C218.8 99.3422 219.053 98.853 219.053 98.2627C219.053 97.6554 218.783 97.2084 218.243 96.9217C217.704 96.6181 216.869 96.3229 215.739 96.0362C214.71 95.7663 213.866 95.4964 213.208 95.2265C212.567 94.9398 212.011 94.5265 211.539 93.9868C211.083 93.4301 210.855 92.7048 210.855 91.8109C210.855 91.1024 211.066 90.453 211.488 89.8627C211.91 89.2723 212.508 88.8085 213.284 88.4711C214.06 88.1169 214.946 87.9398 215.941 87.9398C217.476 87.9398 218.716 88.3277 219.66 89.1036C220.605 89.8795 221.111 90.9422 221.178 92.2916H218.876C218.825 91.5663 218.53 90.9844 217.99 90.5458C217.467 90.1073 216.759 89.888 215.865 89.888C215.039 89.888 214.381 90.0651 213.892 90.4193C213.402 90.7735 213.158 91.2374 213.158 91.8109C213.158 92.2663 213.301 92.6458 213.588 92.9494C213.892 93.2362 214.263 93.4723 214.701 93.6578C215.157 93.8265 215.781 94.0205 216.574 94.2398C217.569 94.5097 218.378 94.7795 219.002 95.0494C219.627 95.3024 220.158 95.6904 220.596 96.2133C221.052 96.7362 221.288 97.4193 221.305 98.2627C221.305 99.0217 221.094 99.7048 220.672 100.312C220.251 100.919 219.652 101.4 218.876 101.754C218.117 102.092 217.24 102.26 216.245 102.26Z" fill="#42424D"/>
</svg>
