<svg width="84" height="84" viewBox="0 0 84 84" fill="none" xmlns="http://www.w3.org/2000/svg">
<path d="M83.3268 72.1562L61.757 50.5865C60.8583 49.6877 59.4459 49.6877 58.5472 50.5865L57.5201 51.6136L51.7425 45.836C58.6756 35.9498 57.7769 22.212 48.9179 13.353C44.1674 8.60247 37.7478 5.90625 31.0714 5.90625C24.2667 5.90625 17.9755 8.47408 13.225 13.353C8.47454 18.1034 5.77832 24.523 5.77832 31.1994C5.77832 38.0041 8.34615 44.2953 13.225 49.0458C17.9755 53.7963 24.3951 56.4925 31.0714 56.4925C36.3355 56.4925 41.3428 54.8234 45.5797 51.8704L51.3573 57.648L50.3302 58.6751C49.945 59.0603 49.6882 59.7023 49.6882 60.2158C49.6882 60.8578 49.945 61.3713 50.3302 61.7565L72.1567 83.3263C72.5419 83.7114 73.1838 83.9682 73.6974 83.9682C74.3394 83.9682 74.8529 83.7114 75.2381 83.3263L83.3268 75.2376C84.2255 74.4673 84.2255 73.055 83.3268 72.1562ZM76.9072 68.3045L68.305 76.9067L66.3791 74.9808L74.8529 66.507L76.9072 68.3045ZM14.6373 47.7619C10.272 43.3965 7.83258 37.4905 7.83258 31.1994C7.83258 24.9082 10.272 19.1306 14.6373 14.6369C19.0026 10.2716 24.9086 7.83212 31.1998 7.83212C37.491 7.83212 43.2686 10.2716 47.7623 14.6369C56.8781 23.7527 56.8781 38.5177 47.7623 47.6335C43.397 51.9988 37.491 54.4382 31.1998 54.4382C24.9086 54.5666 19.131 52.1272 14.6373 47.7619ZM47.2488 50.7149C47.8907 50.2013 48.4043 49.6877 49.0462 49.0458C49.5598 48.5322 50.2018 47.8902 50.7153 47.2483L56.2362 52.7691L53.1548 55.8505L52.898 56.2357L47.2488 50.7149ZM51.8708 60.2158C51.8708 60.2158 51.8708 60.0874 51.9992 59.959L53.0264 58.9319L54.4387 57.5196L60.0879 51.8704C60.2163 51.742 60.2163 51.742 60.3447 51.742C60.3447 51.742 60.4731 51.742 60.6015 51.8704L73.8258 65.0947L65.352 73.5685L51.8708 60.4726C51.8708 60.3442 51.8708 60.2158 51.8708 60.2158ZM82.0428 73.9537L73.9542 82.0424C73.8258 82.1708 73.6974 82.1708 73.4406 82.0424L69.7173 78.319L78.1911 69.8452L81.9144 73.5685C82.1712 73.5685 82.1712 73.8253 82.0428 73.9537Z" fill="#3A7A44"/>
<path d="M40.9556 1.54091C40.3136 1.28413 39.6717 1.15574 39.0297 1.02734L38.6445 2.82482C39.2865 2.95322 39.8001 3.21 40.442 3.33839L40.9556 1.54091Z" fill="#3A7A44"/>
<path d="M35.5631 0.256783C34.9211 0.128391 34.2791 0.128391 33.6372 0L33.5088 1.92587C34.1507 1.92587 34.7927 2.05426 35.3063 2.18265L35.5631 0.256783Z" fill="#3A7A44"/>
<path d="M46.0922 3.72296C45.4503 3.46618 44.9367 3.081 44.2948 2.82422L43.5244 4.6217C44.038 4.75009 44.6799 5.13526 45.1935 5.39205L46.0922 3.72296Z" fill="#3A7A44"/>
<path d="M15.4072 6.4196L14.38 4.87891C13.8665 5.26408 13.2245 5.64926 12.7109 6.03443L13.8665 7.57513C14.38 7.18995 14.8936 6.80478 15.4072 6.4196Z" fill="#3A7A44"/>
<path d="M20.0288 4.109L19.2584 2.31152C18.6165 2.56831 18.1029 2.82509 17.4609 3.08187L18.2313 4.87935C18.8732 4.49418 19.3868 4.2374 20.0288 4.109Z" fill="#3A7A44"/>
<path d="M50.7157 6.80494C50.2022 6.41976 49.6886 6.03459 49.1751 5.64941L48.0195 7.19011C48.5331 7.57529 49.0467 7.96046 49.5602 8.34563L50.7157 6.80494Z" fill="#3A7A44"/>
<path d="M30.1724 1.92587L30.044 0C29.4021 0 28.7601 0.128391 28.1182 0.128391L28.2466 2.05426C28.8885 1.92587 29.5305 1.92587 30.1724 1.92587Z" fill="#3A7A44"/>
<path d="M24.9077 2.56747L24.5226 0.641602C23.8806 0.769993 23.2386 0.898384 22.5967 1.15517L23.1102 2.95265C23.7522 2.82426 24.3942 2.69586 24.9077 2.56747Z" fill="#3A7A44"/>
<path d="M54.6952 10.5285C54.3101 10.015 53.7965 9.50139 53.2829 9.11621L51.999 10.5285C52.3842 10.9137 52.8978 11.4273 53.2829 11.9408L54.6952 10.5285Z" fill="#3A7A44"/>
<path d="M10.4 10.3995C10.6568 10.1427 10.9136 9.88589 11.1704 9.6291L9.88645 8.2168C9.62967 8.47358 9.37289 8.73036 9.1161 9.11554C8.85932 9.24393 8.73093 9.50071 8.60254 9.6291L10.0148 10.913C10.1432 10.7846 10.2716 10.6562 10.4 10.3995Z" fill="#3A7A44"/>
<path d="M60.4721 30.9425H62.398C62.398 30.3005 62.398 29.6586 62.2696 29.0166L60.3438 29.145C60.4721 29.6586 60.4721 30.3005 60.4721 30.9425Z" fill="#3A7A44"/>
<path d="M61.2437 39.9296L59.4462 39.416C59.3178 40.058 59.061 40.5715 58.9326 41.2135L60.7301 41.8555C60.8585 41.0851 61.1153 40.5715 61.2437 39.9296Z" fill="#3A7A44"/>
<path d="M58.0336 15.0216C57.6485 14.5081 57.3917 13.8661 57.0065 13.3525L55.4658 14.5081C55.851 15.0216 56.1078 15.5352 56.493 16.0488L58.0336 15.0216Z" fill="#3A7A44"/>
<path d="M58.6746 20.6709L60.4721 20.0289C60.2153 19.387 59.9586 18.745 59.7018 18.2314L57.9043 19.0018C58.1611 19.5154 58.4179 20.1573 58.6746 20.6709Z" fill="#3A7A44"/>
<path d="M62.2696 34.4091L60.3437 34.1523C60.3437 34.7943 60.2153 35.4363 60.0869 35.9498L62.0128 36.2066C62.1412 35.693 62.2696 35.0511 62.2696 34.4091Z" fill="#3A7A44"/>
<path d="M60.0873 25.6782L62.0132 25.2931C61.8848 24.6511 61.7564 24.0091 61.628 23.3672L59.7021 23.8808C59.8305 24.5227 59.9589 25.1647 60.0873 25.6782Z" fill="#3A7A44"/>
<path d="M56.6201 45.8356L58.2892 46.7343C58.6744 46.2207 58.9312 45.5788 59.1879 44.9368L57.5189 44.0381C57.2621 44.8084 57.0053 45.322 56.6201 45.8356Z" fill="#3A7A44"/>
<path d="M17.7178 59.4449C18.3597 59.7017 18.8733 59.9585 19.5153 60.2153L20.2856 58.4178C19.772 58.161 19.1301 57.9042 18.6165 57.6475L17.7178 59.4449Z" fill="#3A7A44"/>
<path d="M10.1438 51.7422L8.73145 53.0261L8.98823 53.2829C9.3734 53.6681 9.75858 54.0532 10.1438 54.31L11.4277 52.8977C11.0425 52.5125 10.6573 52.2558 10.4005 51.8706L10.1438 51.7422Z" fill="#3A7A44"/>
<path d="M28.374 62.3985C29.016 62.3985 29.6579 62.5269 30.2999 62.5269V60.601C29.6579 60.601 29.016 60.601 28.374 60.4727V62.3985Z" fill="#3A7A44"/>
<path d="M12.9668 56.6208C13.4804 57.006 14.1223 57.3911 14.6359 57.7763L15.663 56.1072C15.1495 55.722 14.6359 55.4653 14.1223 55.0801L12.9668 56.6208Z" fill="#3A7A44"/>
<path d="M22.9834 61.3707C23.6254 61.4991 24.2673 61.7559 24.9093 61.8843L25.2944 59.9584C24.6525 59.83 24.1389 59.7016 23.497 59.5732L22.9834 61.3707Z" fill="#3A7A44"/>
<path d="M43.7812 57.7762L44.5516 59.5737C45.1936 59.3169 45.7071 58.9317 46.3491 58.6749L45.4503 57.0059C44.9368 57.1343 44.2948 57.391 43.7812 57.7762Z" fill="#3A7A44"/>
<path d="M33.7666 60.4726L33.895 62.3985C34.537 62.3985 35.1789 62.2701 35.8209 62.1417L35.5641 60.2158C35.0505 60.3442 34.4086 60.3442 33.7666 60.4726Z" fill="#3A7A44"/>
<path d="M38.9023 59.5736L39.4159 61.3711C40.0579 61.2427 40.6998 60.9859 41.3418 60.7291L40.6998 58.9316C40.0579 59.1884 39.5443 59.3168 38.9023 59.5736Z" fill="#3A7A44"/>
<path d="M2.05426 27.8613L0.128391 27.6045C0 28.2464 0 28.8884 0 29.5304L1.92587 29.6588C1.92587 29.0168 1.92587 28.5032 2.05426 27.8613Z" fill="#3A7A44"/>
<path d="M3.08058 22.7255L1.2831 22.2119C1.15471 22.8539 0.897923 23.4958 0.769531 24.1378L2.6954 24.523C2.6954 23.881 2.95219 23.3674 3.08058 22.7255Z" fill="#3A7A44"/>
<path d="M5.00728 17.846L3.33819 16.9473C3.08141 17.5892 2.69624 18.1028 2.43945 18.7447L4.23693 19.5151C4.49372 19.0015 4.7505 18.488 5.00728 17.846Z" fill="#3A7A44"/>
<path d="M7.83196 13.4807L6.29127 12.3252C5.7777 12.8388 5.39253 13.3523 5.13574 13.9943L6.67644 15.0214C7.06161 14.5079 7.44679 13.9943 7.83196 13.4807Z" fill="#3A7A44"/>
<path d="M1.92587 32.9971L0 33.1255C0 33.7674 0.128391 34.4094 0.128391 35.0513L2.05426 34.9229C2.05426 34.281 1.92587 33.639 1.92587 32.9971Z" fill="#3A7A44"/>
<path d="M2.56836 43.91C2.82514 44.552 3.08193 45.0655 3.4671 45.7075L5.13619 44.8087C4.87941 44.2952 4.62262 43.6532 4.36584 43.1396L2.56836 43.91Z" fill="#3A7A44"/>
<path d="M2.6954 38.1318L0.769531 38.6454C0.897923 39.2874 1.15471 39.9293 1.2831 40.5713L3.08058 40.0577C2.95219 39.4158 2.82379 38.7738 2.6954 38.1318Z" fill="#3A7A44"/>
<path d="M5.26367 48.7883C5.64885 49.3019 6.03402 49.8155 6.4192 50.4574L7.95989 49.1735C7.57472 48.6599 7.18954 48.1464 6.80437 47.6328L5.26367 48.7883Z" fill="#3A7A44"/>
<path d="M17.5897 17.5898C13.9947 21.1848 11.9404 26.0637 11.9404 31.1993C11.9404 36.335 13.9947 41.2139 17.5897 44.8088L19.002 43.3965C15.6638 40.0583 13.8663 35.693 13.8663 31.0709C13.8663 26.4489 15.6638 22.0835 19.002 18.7454L17.5897 17.5898Z" fill="#3A7A44"/>
</svg>
