<svg width="93" height="85" viewBox="0 0 93 85" fill="none" xmlns="http://www.w3.org/2000/svg">
<path d="M65.4949 19.0124C65.4949 16.1063 63.4939 13.6801 60.8051 12.9813V4.94287H57.6785V12.9813C54.9896 13.6801 52.9886 16.1063 52.9886 19.0124C52.9886 20.7461 53.6999 22.3157 54.8443 23.4506L36.4585 54.968H35.7925V23.7023V14.3226V4.94287H13.9065V14.3226V23.7023V54.968H10.78V64.3477H13.9065V69.6847L24.8495 80.6277L35.7925 69.6847V64.3477H38.9191V56.9534L57.5565 25.0045C58.0959 25.1577 58.654 25.2656 59.2418 25.2656C59.8296 25.2656 60.3877 25.1577 60.927 25.0061L79.5645 56.9549V79.9805H82.691V56.1076L63.6393 23.4506C64.7836 22.3157 65.4949 20.7461 65.4949 19.0124ZM32.6659 20.5757H17.0331V17.4491H32.6659V20.5757ZM17.0331 8.06944H32.6659V14.3226H17.0331V8.06944ZM17.0331 23.7023H32.6659V54.968H17.0331V23.7023ZM19.2436 70.6008H30.4555L24.8495 76.2068L19.2436 70.6008ZM32.6659 67.4743H17.0331V64.3477H32.6659V67.4743ZM35.7925 61.2211H13.9065V58.0946H35.7925V61.2211ZM56.1152 19.0124C56.1152 17.2881 57.5175 15.8859 59.2418 15.8859C60.9661 15.8859 62.3683 17.2881 62.3683 19.0124C62.3683 20.7367 60.9661 22.139 59.2418 22.139C57.5175 22.139 56.1152 20.7367 56.1152 19.0124Z" fill="#3A7A44"/>
</svg>
