<svg width="94" height="94" viewBox="0 0 94 94" fill="none" xmlns="http://www.w3.org/2000/svg">
<path d="M77.9418 25.9537H70.865V18.7492C70.8616 17.8415 70.505 16.9721 69.8733 16.3314C69.2416 15.6908 68.3862 15.331 67.4945 15.3311H27.9525C27.0608 15.331 26.2055 15.6908 25.5737 16.3314C24.942 16.9721 24.5854 17.8415 24.582 18.7492V32.5403L14.9612 22.7459L11.5132 19.2225C11.3925 19.1007 11.2494 19.0043 11.0921 18.9388C10.9348 18.8734 10.7663 18.8403 10.5963 18.8413C10.4264 18.8403 10.2579 18.8734 10.1006 18.9388C9.94323 19.0043 9.80012 19.1007 9.67945 19.2225L1.208 27.8337C1.08696 27.9559 0.990888 28.1013 0.925327 28.2615C0.859765 28.4217 0.826012 28.5936 0.826012 28.7671C0.826012 28.9407 0.859765 29.1125 0.925327 29.2727C0.990888 29.4329 1.08696 29.5783 1.208 29.7005L24.582 53.47V66.3276C24.5854 67.2354 24.942 68.1048 25.5737 68.7455C26.2055 69.3861 27.0608 69.7458 27.9525 69.7458H35.0292V76.9634C35.0327 77.8712 35.3893 78.7406 36.021 79.3813C36.6527 80.0219 37.5081 80.3816 38.3997 80.3816H77.9418C78.8335 80.3816 79.6888 80.0219 80.3206 79.3813C80.9523 78.7406 81.3089 77.8712 81.3123 76.9634V29.3719C81.3089 28.4641 80.9523 27.5947 80.3206 26.9541C79.6888 26.3134 78.8335 25.9537 77.9418 25.9537ZM32.5627 44.3461L30.1607 46.7914L11.6424 27.9257L14.0443 25.5067L32.5627 44.3461ZM33.6862 46.9098L35.4425 54.0091L28.4174 52.2474L32.1753 48.4216L33.6862 46.9098ZM3.98447 28.754L10.6222 22.0096L12.2493 23.6662L5.61161 30.4236L3.98447 28.754ZM7.44536 32.2773L9.84733 29.832L19.1194 39.2452L28.3657 48.6583L25.9638 51.1036L7.44536 32.2773ZM27.9525 67.1296C27.7458 67.1296 27.5473 67.0469 27.4 66.8994C27.2526 66.7518 27.1681 66.5512 27.1647 66.3408V54.6401L36.8759 57.0591H59.3589C59.7013 57.0591 60.0298 56.9206 60.272 56.6741C60.5142 56.4275 60.6502 56.0931 60.6502 55.7444C60.6502 55.3958 60.5142 55.0614 60.272 54.8148C60.0298 54.5683 59.7013 54.4298 59.3589 54.4298H38.1931L35.6104 43.9123C35.6104 43.9123 35.6104 43.8334 35.6104 43.8071C35.6104 43.7808 35.6104 43.8071 35.6104 43.7414L35.5458 43.6099C35.7401 43.7327 35.9629 43.8007 36.1915 43.8071H59.4363C59.7788 43.8071 60.1073 43.6686 60.3495 43.422C60.5917 43.1755 60.7277 42.8411 60.7277 42.4924C60.7277 42.1437 60.5917 41.8094 60.3495 41.5628C60.1073 41.3163 59.7788 41.1777 59.4363 41.1777H36.1915C35.98 41.1788 35.772 41.2328 35.5857 41.3348C35.3995 41.4369 35.2408 41.584 35.1234 41.7632C35.0061 41.9423 34.9338 42.1481 34.9129 42.3623C34.892 42.5766 34.923 42.7928 35.0034 42.992L27.2551 35.1039V18.7492C27.2551 18.6445 27.2756 18.5409 27.3153 18.4443C27.3551 18.3477 27.4133 18.2602 27.4866 18.1868C27.5599 18.1133 27.6469 18.0555 27.7424 18.0167C27.8379 17.9778 27.94 17.9587 28.0429 17.9604H67.4945C67.5974 17.9587 67.6995 17.9778 67.795 18.0167C67.8905 18.0555 67.9775 18.1133 68.0508 18.1868C68.1241 18.2602 68.1824 18.3477 68.2221 18.4443C68.2618 18.5409 68.2823 18.6445 68.2823 18.7492V66.3408C68.2789 66.5512 68.1944 66.7518 68.0471 66.8994C67.8997 67.0469 67.7012 67.1296 67.4945 67.1296H27.9525ZM78.7296 76.9766C78.7262 77.187 78.6417 77.3876 78.4943 77.5352C78.3469 77.6827 78.1485 77.7654 77.9418 77.7654H38.3997C38.193 77.7654 37.9946 77.6827 37.8472 77.5352C37.6999 77.3876 37.6154 77.187 37.612 76.9766V69.759H67.4945C68.3862 69.759 69.2416 69.3993 69.8733 68.7586C70.505 68.118 70.8616 67.2486 70.865 66.3408V28.5831H77.9418C78.0446 28.5813 78.1468 28.6004 78.2423 28.6393C78.3378 28.6782 78.4247 28.736 78.4981 28.8094C78.5714 28.8828 78.6296 28.9704 78.6694 29.0669C78.7091 29.1635 78.7296 29.2672 78.7296 29.3719V76.9766Z" fill="#3A7A44"/>
<path d="M59.3589 27.9389H36.114C35.7715 27.9389 35.443 28.0774 35.2009 28.3239C34.9587 28.5705 34.8226 28.9049 34.8226 29.2536C34.8226 29.6022 34.9587 29.9366 35.2009 30.1832C35.443 30.4297 35.7715 30.5682 36.114 30.5682H59.3589C59.7013 30.5682 60.0298 30.4297 60.272 30.1832C60.5142 29.9366 60.6502 29.6022 60.6502 29.2536C60.6502 28.9049 60.5142 28.5705 60.272 28.3239C60.0298 28.0774 59.7013 27.9389 59.3589 27.9389Z" fill="#3A7A44"/>
</svg>
