<svg width="91" height="91" viewBox="0 0 91 91" fill="none" xmlns="http://www.w3.org/2000/svg">
<path d="M47.498 6.54773V0.85083H43.7635V6.54773C23.6349 7.50189 7.46842 23.6683 6.51427 43.797H0.817368V47.5315H6.51427C7.46842 67.6602 23.6349 83.8266 43.7635 84.7807V90.4776H47.498V84.7807C67.6267 83.8266 83.7931 67.6602 84.7473 47.5315H90.4442V43.797H84.7473C83.7931 23.6683 67.6267 7.50189 47.498 6.54773ZM47.498 81.0463V75.5398H43.7635V81.0463C25.6944 80.0996 11.1954 65.6006 10.2487 47.5315H15.7552V43.797H10.2487C11.1954 25.7279 25.6944 11.2289 43.7635 10.2822V15.7886H47.498V10.2822C65.5671 11.2289 80.0662 25.7279 81.0128 43.797H75.5064V47.5315H81.0128C80.0662 65.6006 65.5671 80.0996 47.498 81.0463Z" fill="#3A7A44"/>
<path d="M45.6308 23.2575C35.8932 23.2575 28.8257 31.1111 28.8257 41.9298C28.8257 52.9259 43.7225 66.9749 44.3555 67.5668L45.6308 68.7599L46.9061 67.5668C47.5391 66.9749 62.4358 52.9259 62.4358 41.9298C62.4358 31.1111 55.3684 23.2575 45.6308 23.2575ZM45.6308 63.584C42.1167 60.0195 32.5602 49.6228 32.5602 41.9298C32.5602 33.1352 37.9341 26.992 45.6308 26.992C53.3275 26.992 58.7014 33.1352 58.7014 41.9298C58.7014 49.6228 49.1449 60.0195 45.6308 63.584Z" fill="#3A7A44"/>
<path d="M45.6305 32.5937C41.5114 32.5937 38.1616 35.9435 38.1616 40.0626C38.1616 44.1817 41.5114 47.5315 45.6305 47.5315C49.7496 47.5315 53.0994 44.1817 53.0994 40.0626C53.0994 35.9435 49.7496 32.5937 45.6305 32.5937ZM45.6305 43.7971C43.5709 43.7971 41.896 42.1222 41.896 40.0626C41.896 38.0031 43.5709 36.3282 45.6305 36.3282C47.69 36.3282 49.3649 38.0031 49.3649 40.0626C49.3649 42.1222 47.69 43.7971 45.6305 43.7971Z" fill="#3A7A44"/>
<path fill-rule="evenodd" clip-rule="evenodd" d="M47.1701 6.86046V1.17873H44.0915V6.86046L43.7791 6.87527C23.8193 7.82142 7.78795 23.8527 6.84181 43.8125L6.827 44.1249H1.14527V47.2036H6.827L6.84181 47.5159C7.78795 67.4757 23.8193 83.5071 43.7791 84.4532L44.0915 84.468V90.1497H47.1701V84.468L47.4825 84.4532C67.4423 83.5071 83.4736 67.4757 84.4197 47.5159L84.4346 47.2036H90.1163V44.1249H84.4346L84.4197 43.8125C83.4736 23.8527 67.4423 7.82142 47.4825 6.87527L47.1701 6.86046ZM90.4442 43.797V47.5315H84.7473C83.7931 67.6602 67.6267 83.8266 47.498 84.7807V90.4776H43.7635V84.7807C23.6349 83.8266 7.46842 67.6602 6.51427 47.5315H0.817368V43.797H6.51427C7.46842 23.6683 23.6349 7.50189 43.7635 6.54773V0.85083H47.498V6.54769C67.6267 7.50184 83.7931 23.6683 84.7473 43.797H90.4442ZM47.1701 81.3918V75.8677H44.0915V81.3918L43.7464 81.3737C25.5097 80.4183 10.8767 65.7854 9.92127 47.5486L9.90319 47.2036H15.4273V44.1249H9.90319L9.92127 43.7799C10.8767 25.5431 25.5097 10.9102 43.7464 9.95473L44.0915 9.93665V15.4607H47.1701V9.93665L47.5152 9.95473C65.7519 10.9102 80.3848 25.5431 81.3403 43.7799L81.3584 44.1249H75.8343V47.2036H81.3584L81.3403 47.5486C80.3848 65.7854 65.7519 80.4183 47.5152 81.3737L47.1701 81.3918ZM75.5064 47.5315V43.797H81.0128C81.0071 43.6876 81.0009 43.5783 80.9941 43.4691C79.8971 25.6619 65.6331 11.3979 47.8259 10.3009C47.7167 10.2941 47.6074 10.2879 47.498 10.2822V15.7886H43.7635V10.2822C43.6541 10.2879 43.5448 10.2941 43.4356 10.3009C25.6285 11.3979 11.3644 25.6619 10.2674 43.4691C10.2607 43.5783 10.2545 43.6876 10.2487 43.797H15.7552V47.5315H10.2487C10.2545 47.6409 10.2607 47.7502 10.2674 47.8594C11.3644 65.6666 25.6285 79.9306 43.4356 81.0276C43.5448 81.0343 43.6541 81.0406 43.7635 81.0463V75.5398H47.498V81.0463C47.6074 81.0406 47.7167 81.0343 47.8259 81.0276C65.6331 79.9306 79.8971 65.6666 80.9941 47.8594C81.0009 47.7502 81.0071 47.6409 81.0128 47.5315H75.5064Z" fill="#E4EED8"/>
<path fill-rule="evenodd" clip-rule="evenodd" d="M44.5795 67.3273L45.6308 68.3109L46.6821 67.3273C46.9928 67.0368 50.8606 63.3905 54.6481 58.4503C56.5418 55.9803 58.4101 53.1937 59.8038 50.3471C61.199 47.4974 62.1079 44.6091 62.1079 41.9298C62.1079 31.2588 55.1556 23.5854 45.6308 23.5854C36.1059 23.5854 29.1537 31.2588 29.1537 41.9298C29.1537 44.6091 30.0625 47.4974 31.4578 50.3471C32.8515 53.1937 34.7197 55.9803 36.6135 58.4503C40.401 63.3905 44.2687 67.0368 44.5795 67.3273ZM45.6308 68.7599L44.3555 67.5668C43.7225 66.9749 28.8257 52.9259 28.8257 41.9298C28.8257 31.1111 35.8932 23.2575 45.6308 23.2575C55.3684 23.2575 62.4358 31.1111 62.4358 41.9298C62.4358 52.9259 47.5391 66.9749 46.9061 67.5668L45.6308 68.7599ZM45.6308 64.0511L45.3973 63.8142C43.6346 62.0262 40.353 58.5214 37.5098 54.4942C34.6785 50.4836 32.2323 45.8873 32.2323 41.9298C32.2323 37.4665 33.5963 33.6513 35.9624 30.947C38.3313 28.2395 41.6895 26.6641 45.6308 26.6641C49.5721 26.6641 52.9302 28.2395 55.2991 30.947C57.6652 33.6513 59.0293 37.4665 59.0293 41.9298C59.0293 45.8873 56.5831 50.4836 53.7517 54.4942C50.9086 58.5214 47.627 62.0262 45.8643 63.8142L45.6308 64.0511ZM45.401 63.35C41.7187 59.5831 32.5602 49.4609 32.5602 41.9298C32.5602 33.1352 37.9341 26.992 45.6308 26.992C53.3275 26.992 58.7014 33.1352 58.7014 41.9298C58.7014 49.4609 49.5429 59.5831 45.8605 63.35C45.7814 63.431 45.7047 63.509 45.6308 63.584C45.5568 63.509 45.4802 63.431 45.401 63.35Z" fill="#E4EED8"/>
<path fill-rule="evenodd" clip-rule="evenodd" d="M45.6305 32.9216C41.6925 32.9216 38.4895 36.1246 38.4895 40.0626C38.4895 44.0006 41.6925 47.2036 45.6305 47.2036C49.5685 47.2036 52.7715 44.0006 52.7715 40.0626C52.7715 36.1246 49.5685 32.9216 45.6305 32.9216ZM45.6305 44.125C43.3898 44.125 41.5681 42.3032 41.5681 40.0626C41.5681 37.822 43.3898 36.0002 45.6305 36.0002C47.8711 36.0002 49.6928 37.822 49.6928 40.0626C49.6928 42.3032 47.8711 44.125 45.6305 44.125ZM38.1616 40.0626C38.1616 35.9435 41.5114 32.5937 45.6305 32.5937C49.7496 32.5937 53.0994 35.9435 53.0994 40.0626C53.0994 44.1817 49.7496 47.5315 45.6305 47.5315C41.5114 47.5315 38.1616 44.1817 38.1616 40.0626ZM41.896 40.0626C41.896 42.1222 43.5709 43.7971 45.6305 43.7971C47.69 43.7971 49.3649 42.1222 49.3649 40.0626C49.3649 38.0031 47.69 36.3282 45.6305 36.3282C43.5709 36.3282 41.896 38.0031 41.896 40.0626Z" fill="#E4EED8"/>
</svg>
