<svg width="83" height="94" viewBox="0 0 83 94" fill="none" xmlns="http://www.w3.org/2000/svg">
<path d="M39.4479 48.5637C37.3117 44.1488 35.0331 37.5977 36.3148 31.6163C37.1693 27.2015 40.0176 23.6411 44.5749 20.7928L43.5779 18.9414C38.3086 22.0745 35.3179 26.2046 34.321 31.1891C32.8968 37.7402 35.3179 44.8609 37.5965 49.5606L39.4479 48.5637Z" fill="#3A7A44"/>
<path d="M76.3344 76.9044C78.0434 75.9075 79.1827 74.0561 79.1827 71.7775V71.0654C79.1827 67.7899 76.4768 65.084 73.2013 65.084H37.028C33.7524 65.084 31.0465 67.7899 31.0465 71.0654V71.7775C31.0465 73.9137 32.1859 75.7651 33.8948 76.762C29.9072 80.3224 27.3438 85.1645 27.3438 89.4369C27.3438 91.4307 29.7648 93.1397 31.6162 93.1397H78.4707C80.4645 93.1397 82.7431 91.5731 82.7431 89.4369C82.8855 85.4493 80.3221 80.4648 76.3344 76.9044ZM33.1828 71.0654C33.1828 68.9292 34.8917 67.2202 37.028 67.2202H73.3437C75.48 67.2202 77.1889 68.9292 77.1889 71.0654V71.7775C77.1889 73.9137 75.48 75.6227 73.3437 75.6227H37.028C34.8917 75.6227 33.1828 73.9137 33.1828 71.7775V71.0654ZM78.4707 91.1459H31.6162C30.6193 91.1459 29.48 90.149 29.48 89.5793C29.3376 85.7341 32.0434 81.0344 36.0311 77.9013H74.1982C78.1858 81.0344 80.7493 85.7341 80.7493 89.5793C80.6069 90.149 79.4676 91.1459 78.4707 91.1459Z" fill="#3A7A44"/>
<path d="M30.904 51.839C33.1826 57.2508 35.7461 60.9535 36.0309 61.2384L36.3158 61.6656H74.7678V60.5263C74.0557 48.5634 66.0805 41.0155 63.6594 39.0217C61.9504 37.5975 60.9535 36.0309 60.5263 34.8916C66.2229 38.0247 70.2105 38.7368 72.4891 38.7368C74.7678 38.7368 75.9071 38.0248 75.9071 38.0248C78.1857 36.8854 80.7492 32.8978 80.7492 29.3374C80.7492 26.9164 79.4674 24.9226 77.0464 24.0681C71.4922 21.7895 64.7987 11.1084 64.6563 10.9659L64.5139 10.6811L64.2291 10.5387C61.808 9.39938 58.6749 9.25696 57.1083 9.25696V0L55.969 0.142415C46 0.854489 41.5851 10.1115 40.7306 12.1053C37.4551 14.0991 34.8916 16.5201 32.7554 19.0836C31.1888 18.0867 29.4799 17.3746 27.7709 16.9474L26.9164 12.2477H19.3684L18.5139 16.9474C16.8049 17.3746 15.096 18.0867 13.5294 18.9412L9.54179 15.9505L4.13003 21.2198L6.83591 25.2074C5.83901 26.774 5.26935 28.3405 4.69969 30.0495L0 30.904V38.452L4.69969 39.3065C5.12693 41.0155 5.83901 42.7244 6.6935 44.291L3.98761 48.1362L9.25696 53.548L13.2446 50.8421C14.8111 51.6966 16.3777 52.4086 18.0867 52.9783L18.9412 57.678H26.4892L27.3436 52.9783C28.6254 52.8359 29.7647 52.4086 30.904 51.839ZM42.1548 13.6718L42.4396 13.5294L42.582 13.1022C42.582 12.9597 46.2848 3.56037 54.9721 2.27864V11.3932H56.1114C56.1114 11.3932 56.2538 11.3932 56.5387 11.3932C57.5356 11.3932 60.6687 11.5356 63.0897 12.3901C64.2291 14.2415 70.4953 23.6409 76.1919 26.0619C77.7585 26.774 78.4705 27.7709 78.4705 29.4799C78.4705 32.3282 76.3343 35.6037 74.7678 36.3158C74.7678 36.3158 70.3529 38.5944 59.2445 32.0433L57.8204 31.0464V32.8978C57.8204 33.0402 57.8204 37.1703 62.2353 40.7306C64.3715 42.582 71.4922 49.1331 72.4891 59.5294H37.3127C35.6037 56.8235 27.0588 43.0093 29.7647 29.9071C31.1888 23.2136 35.3189 17.8018 42.1548 13.6718ZM27.6285 41.3003C26.2043 42.2972 24.6378 42.8669 22.9288 42.8669C20.7926 42.8669 18.7988 42.0124 17.3746 40.4458C15.9505 38.8792 15.096 36.8854 15.096 34.7492C15.096 32.613 15.9505 30.6192 17.517 29.195C19.0836 27.7709 20.935 26.9164 23.0712 26.9164C24.9226 26.9164 26.6316 27.6285 28.0557 28.7678C28.0557 29.0526 27.9133 29.3375 27.9133 29.6223C26.9164 33.4675 27.0588 37.4551 27.6285 41.3003ZM26.3467 51.1269L25.6347 51.2693L24.7802 55.5418H20.7926L20.0805 51.2693L19.3684 51.1269C17.3746 50.6997 15.5232 49.8452 13.8142 48.8483L13.2446 48.421L9.54179 50.8421L6.6935 47.9938L9.39938 44.4334L8.97213 43.8638C7.83281 42.1548 7.12074 40.3034 6.6935 38.3096L6.55108 37.5975L2.27864 36.743V32.7554L6.55108 32.0433L6.6935 31.3313C7.12074 29.3374 7.83281 27.4861 8.97213 25.7771L9.39938 25.2074L6.97832 21.647L9.82662 18.7988L13.387 21.3622L13.9566 20.935C15.6656 19.7957 17.517 19.0836 19.5108 18.6563L20.2229 18.5139L21.0774 14.2415H25.065L25.7771 18.5139L26.4892 18.6563C28.1981 19.0836 29.9071 19.6532 31.4737 20.6501C30.1919 22.5015 29.195 24.4953 28.6254 26.4892C27.0588 25.3498 25.065 24.7802 23.0712 24.7802C20.3653 24.7802 17.8018 25.7771 15.9505 27.6285C14.0991 29.4799 12.9597 32.0433 12.9597 34.7492C12.9597 37.4551 13.9566 40.0186 15.808 41.87C17.6594 43.7213 20.2229 44.8607 22.9288 44.8607C24.7802 44.8607 26.4892 44.4334 28.0557 43.4365C28.6254 45.7151 29.195 47.8514 30.0495 49.7028C28.9102 50.4148 27.6285 50.8421 26.3467 51.1269Z" fill="#3A7A44"/>
</svg>
