<svg width="95" height="92" viewBox="0 0 95 92" fill="none" xmlns="http://www.w3.org/2000/svg">
<path d="M94.0833 28.1704C94.083 27.8981 94.0112 27.6307 93.8749 27.3949C93.7386 27.1592 93.5427 26.9634 93.3069 26.8272L63.8033 9.74616C63.5672 9.60987 63.2994 9.53812 63.0269 9.53812C62.7543 9.53812 62.4865 9.60987 62.2504 9.74616L60.1091 10.9884C58.9801 8.59923 57.1955 6.57999 54.9631 5.16587C52.7308 3.75176 50.1427 3.00098 47.5002 3.00098C44.8576 3.00098 42.2695 3.75176 40.0372 5.16587C37.8049 6.57999 36.0203 8.59923 34.8912 10.9884L32.7499 9.74616C32.5138 9.60987 32.2461 9.53812 31.9735 9.53812C31.7009 9.53812 31.4331 9.60987 31.1971 9.74616L1.69343 26.8272C1.45812 26.9637 1.26279 27.1596 1.12701 27.3954C0.991237 27.6311 0.91977 27.8984 0.91977 28.1704C0.91977 28.4425 0.991237 28.7097 1.12701 28.9454C1.26279 29.1812 1.45812 29.3771 1.69343 29.5136L14.8893 37.1597L1.69032 44.8058C1.45501 44.9423 1.25969 45.1382 1.12391 45.374C0.988131 45.6097 0.916664 45.877 0.916664 46.149C0.916664 46.421 0.988131 46.6883 1.12391 46.924C1.25969 47.1598 1.45501 47.3557 1.69032 47.4922L16.4421 56.0327V71.3218C16.4424 71.5941 16.5143 71.8616 16.6506 72.0973C16.7869 72.3331 16.9827 72.5289 17.2186 72.665L46.7222 89.7461C46.9583 89.8824 47.226 89.9541 47.4986 89.9541C47.7712 89.9541 48.039 89.8824 48.275 89.7461L77.7787 72.665C78.0145 72.5289 78.2104 72.3331 78.3466 72.0973C78.4829 71.8616 78.5548 71.5941 78.5551 71.3218V56.0343L93.3069 47.4938C93.5422 47.3573 93.7375 47.1613 93.8733 46.9256C94.0091 46.6899 94.0806 46.4226 94.0806 46.1506C94.0806 45.8785 94.0091 45.6113 93.8733 45.3755C93.7375 45.1398 93.5422 44.9439 93.3069 44.8074L80.1079 37.1597L93.3069 29.5136C93.5427 29.3775 93.7386 29.1817 93.8749 28.9459C94.0112 28.7102 94.083 28.4427 94.0833 28.1704ZM47.4986 6.10324C49.8884 6.10688 52.2103 6.89796 54.1052 8.35408C56.0001 9.8102 57.3623 11.8502 57.9811 14.1584C58.5999 16.4667 58.4408 18.9145 57.5283 21.1232C56.6159 23.3319 55.001 25.1784 52.9335 26.3769C52.6977 26.5131 52.5018 26.7088 52.3655 26.9446C52.2293 27.1803 52.1574 27.4478 52.1571 27.7201V30.9484H49.0514V22.2743L53.2549 18.0708L51.0592 15.8752L47.4986 19.4358L43.938 15.8752L41.7423 18.0708L45.9458 22.2743V30.9484H42.8401V27.7201C42.8399 27.4478 42.768 27.1803 42.6317 26.9446C42.4954 26.7088 42.2996 26.5131 42.0637 26.3769C39.9963 25.1784 38.3814 23.3319 37.4689 21.1232C36.5565 18.9145 36.3973 16.4667 37.0161 14.1584C37.6349 11.8502 38.9971 9.8102 40.892 8.35408C42.7869 6.89796 45.1089 6.10688 47.4986 6.10324ZM47.4986 52.4473L21.1006 37.1597L38.1335 27.2993C38.6348 27.7652 39.17 28.1934 39.7345 28.5804V30.9484H36.6289V34.0541H39.7345V38.7125C39.7345 39.1244 39.8981 39.5193 40.1893 39.8106C40.4805 40.1018 40.8755 40.2654 41.2873 40.2654H45.9458V43.371H49.0514V40.2654H53.7099C54.1217 40.2654 54.5167 40.1018 54.8079 39.8106C55.0991 39.5193 55.2627 39.1244 55.2627 38.7125V34.0541H58.3684V30.9484H55.2627V28.5804C55.83 28.1938 56.3677 27.7655 56.8715 27.2993L73.9044 37.1597L47.4986 52.4473ZM52.1571 34.0541V37.1597H42.8401V34.0541H52.1571ZM31.9704 12.8829L33.8555 13.9698C33.4364 15.8459 33.4132 17.7888 33.7875 19.6744C34.1618 21.5599 34.9254 23.3467 36.0295 24.9204L17.995 35.3662L5.57238 28.1704L31.9704 12.8829ZM17.995 38.9532L44.393 54.2408L31.9704 61.4366L5.57238 46.149L17.995 38.9532ZM19.5478 57.8325L31.194 64.5733C31.43 64.7095 31.6978 64.7813 31.9704 64.7813C32.243 64.7813 32.5107 64.7095 32.7468 64.5733L45.9458 56.9334V85.7103L19.5478 70.4274V57.8325ZM75.4494 70.4274L49.0514 85.7103V56.9334L62.2504 64.5733C62.4865 64.7095 62.7543 64.7813 63.0269 64.7813C63.2994 64.7813 63.5672 64.7095 63.8033 64.5733L75.4494 57.8325V70.4274ZM63.0269 61.4366L50.6043 54.2408L77.0023 38.9532L89.4249 46.149L63.0269 61.4366ZM77.0023 35.3662L58.9678 24.925C60.0718 23.3513 60.8354 21.5646 61.2097 19.679C61.584 17.7935 61.5609 15.8506 61.1417 13.9745L63.0269 12.8875L89.4249 28.1751L77.0023 35.3662Z" fill="#3A7A44"/>
<path d="M49.0517 46.4767H45.9461V49.5823H49.0517V46.4767Z" fill="#3A7A44"/>
<path fill-rule="evenodd" clip-rule="evenodd" d="M93.1441 27.1085L63.6408 10.0276C63.4541 9.91986 63.2424 9.86312 63.0269 9.86312C62.8113 9.86312 62.5996 9.91986 62.4129 10.0276L59.9663 11.447L59.8152 11.1273C58.7125 8.79377 56.9695 6.82158 54.7892 5.44042C52.6089 4.05926 50.0811 3.32598 47.5002 3.32598C44.9192 3.32598 42.3914 4.05926 40.2111 5.44042C38.0308 6.82158 36.2878 8.79377 35.1851 11.1273L35.034 11.447L32.5874 10.0276C32.4007 9.91986 32.189 9.86312 31.9735 9.86312C31.758 9.86312 31.5463 9.91983 31.3597 10.0275L1.85651 27.1083C1.67044 27.2163 1.516 27.3712 1.40864 27.5576C1.30128 27.744 1.24477 27.9553 1.24477 28.1704C1.24477 28.3855 1.30128 28.5968 1.40864 28.7832C1.516 28.9696 1.67044 29.1245 1.85651 29.2325L15.5376 37.1597L1.8534 45.0869C1.66734 45.1949 1.51289 45.3498 1.40553 45.5362C1.29817 45.7226 1.24166 45.9339 1.24166 46.149C1.24166 46.3641 1.29817 46.5754 1.40553 46.7618C1.51289 46.9482 1.66734 47.1031 1.8534 47.2111L16.7671 55.8453V71.3215C16.7674 71.5368 16.8242 71.7483 16.932 71.9347C17.0397 72.1211 17.1946 72.2759 17.3811 72.3836L46.8847 89.4646C47.0714 89.5724 47.2831 89.6291 47.4986 89.6291C47.7141 89.6291 47.9259 89.5724 48.1125 89.4646L77.6158 72.3838C77.8023 72.2761 77.9575 72.1211 78.0653 71.9347C78.173 71.7483 78.2299 71.5368 78.2301 71.3215V55.8469L93.1438 47.2126M48.275 89.7461C48.039 89.8824 47.7712 89.9541 47.4986 89.9541C47.226 89.9541 46.9583 89.8824 46.7222 89.7461L17.2186 72.665C16.9827 72.5289 16.7869 72.3331 16.6506 72.0973C16.5143 71.8616 16.4424 71.5941 16.4421 71.3218V56.0327L1.69032 47.4922C1.45501 47.3557 1.25969 47.1598 1.12391 46.924C0.988131 46.6883 0.916664 46.421 0.916664 46.149C0.916664 45.877 0.988131 45.6097 1.12391 45.374C1.25969 45.1382 1.45501 44.9423 1.69032 44.8058L14.8893 37.1597L1.69343 29.5136C1.45812 29.3771 1.26279 29.1812 1.12701 28.9454C0.991237 28.7097 0.91977 28.4425 0.91977 28.1704C0.91977 27.8984 0.991237 27.6311 1.12701 27.3954C1.26279 27.1596 1.45812 26.9637 1.69343 26.8272L31.1971 9.74616C31.4331 9.60987 31.7009 9.53812 31.9735 9.53812C32.2461 9.53812 32.5138 9.60987 32.7499 9.74616L34.8912 10.9884C34.9377 10.8901 34.9852 10.7925 35.0339 10.6954C36.1679 8.43412 37.8967 6.52181 40.0372 5.16587C42.2695 3.75176 44.8576 3.00098 47.5002 3.00098C50.1427 3.00098 52.7308 3.75176 54.9631 5.16587C57.1036 6.52181 58.8325 8.43412 59.9664 10.6954C60.0151 10.7925 60.0626 10.8901 60.1091 10.9884L62.2504 9.74616C62.4865 9.60987 62.7543 9.53812 63.0269 9.53812C63.2994 9.53812 63.5672 9.60987 63.8033 9.74616L93.3069 26.8272C93.5427 26.9634 93.7386 27.1592 93.8749 27.3949C94.0112 27.6307 94.083 27.8981 94.0833 28.1704C94.083 28.4427 94.0112 28.7102 93.8749 28.9459C93.7386 29.1817 93.5427 29.3775 93.3069 29.5136L80.1079 37.1597L93.3069 44.8074C93.5422 44.9439 93.7375 45.1398 93.8733 45.3755C94.0091 45.6113 94.0806 45.8785 94.0806 46.1506C94.0806 46.4226 94.0091 46.6899 93.8733 46.9256C93.7375 47.1613 93.5422 47.3573 93.3069 47.4938L78.5551 56.0343V71.3218C78.5548 71.5941 78.4829 71.8616 78.3466 72.0973C78.2104 72.3331 78.0145 72.5289 77.7787 72.665L48.275 89.7461ZM93.7583 28.1704C93.758 28.3856 93.7012 28.597 93.5935 28.7833C93.4858 28.9697 93.3309 29.1245 93.1444 29.2321L79.4596 37.1597L93.1438 45.0885C93.3299 45.1964 93.4843 45.3513 93.5917 45.5377C93.6991 45.7241 93.7556 45.9355 93.7556 46.1506C93.7556 46.3657 93.6991 46.577 93.5917 46.7634C93.4844 46.9497 93.3298 47.1047 93.1438 47.2126M93.7583 28.1704C93.758 27.9552 93.7012 27.7439 93.5935 27.5576C93.4858 27.3711 93.3306 27.2161 93.1441 27.1085M47.4991 5.77824C49.9603 5.78199 52.3517 6.59672 54.3032 8.09638C56.2548 9.59603 57.6577 11.697 58.295 14.0743C58.9323 16.4516 58.7684 18.9726 57.8287 21.2473C56.889 23.5221 55.2258 25.4237 53.0965 26.6581C52.91 26.7657 52.7547 26.9208 52.6469 27.1072C52.5392 27.2936 52.4823 27.5051 52.4821 27.7204V31.2734H48.7264V22.1397L52.7953 18.0708L51.0592 16.3348L47.4986 19.8954L43.938 16.3348L42.2019 18.0709L46.2708 22.1397V31.2734H42.5151V27.7204C42.5149 27.5051 42.4581 27.2936 42.3503 27.1072C42.2426 26.9208 42.0877 26.766 41.9012 26.6584C39.7719 25.424 38.1083 23.5221 37.1685 21.2473C36.2288 18.9726 36.0649 16.4516 36.7022 14.0743C37.3395 11.697 38.7424 9.59603 40.694 8.09638C42.6455 6.59672 45.0379 5.78199 47.4991 5.77824ZM42.8401 27.7201V30.9484H45.9458V22.2743L41.7423 18.0708L43.938 15.8752L47.4986 19.4358L51.0592 15.8752L53.2549 18.0708L49.0514 22.2743V30.9484H52.1571V27.7201C52.1574 27.4478 52.2293 27.1803 52.3655 26.9446C52.5018 26.7088 52.6977 26.5131 52.9335 26.3769C55.001 25.1784 56.6159 23.3319 57.5283 21.1232C58.4408 18.9145 58.5999 16.4667 57.9811 14.1584C57.3623 11.8502 56.0001 9.8102 54.1052 8.35408C52.2103 6.89796 49.8884 6.10688 47.4986 6.10324C45.1089 6.10688 42.7869 6.89796 40.892 8.35408C38.9971 9.8102 37.6349 11.8502 37.0161 14.1584C36.3973 16.4667 36.5565 18.9145 37.4689 21.1232C38.3814 23.3319 39.9963 25.1784 42.0637 26.3769C42.2996 26.5131 42.4954 26.7088 42.6317 26.9446C42.768 27.1803 42.8399 27.4478 42.8401 27.7201ZM47.4986 52.8228L20.452 37.1597L38.1787 26.8976L38.3548 27.0612C38.8443 27.5163 39.3669 27.9344 39.9182 28.3123L40.0595 28.4091V31.2734H36.9538V33.7291H40.0595V38.7125C40.0595 39.0382 40.1889 39.3505 40.4191 39.5807C40.6494 39.811 40.9617 39.9404 41.2873 39.9404H46.2708V43.046H48.7264V39.9404H53.7099C54.0356 39.9404 54.3479 39.811 54.5781 39.5807C54.8084 39.3505 54.9377 39.0382 54.9377 38.7125V33.7291H58.0434V31.2734H54.9377V28.4086L55.0797 28.3118C55.6336 27.9343 56.1587 27.5161 56.6507 27.0608L56.8267 26.8979L74.553 37.1597L47.4986 52.8228ZM58.3684 30.9484V34.0541H55.2627V38.7125C55.2627 39.1244 55.0991 39.5193 54.8079 39.8106C54.5167 40.1018 54.1217 40.2654 53.7099 40.2654H49.0514V43.371H45.9458V40.2654H41.2873C40.8755 40.2654 40.4805 40.1018 40.1893 39.8106C39.8981 39.5193 39.7345 39.1244 39.7345 38.7125V34.0541H36.6289V30.9484H39.7345V28.5804C39.17 28.1934 38.6348 27.7652 38.1335 27.2993L21.1006 37.1597L47.4986 52.4473L73.9044 37.1597L56.8715 27.2993C56.3677 27.7655 55.83 28.1938 55.2627 28.5804V30.9484H58.3684ZM52.4821 33.7291V37.4847H42.5151V33.7291H52.4821ZM31.97 12.5075L34.2248 13.8076L34.1727 14.0407C33.7634 15.8727 33.7408 17.7699 34.1063 19.6111C34.4718 21.4523 35.2175 23.197 36.2955 24.7337L36.4991 25.0239L17.995 35.7418L4.92393 28.1704L31.97 12.5075ZM17.995 38.5776L45.0414 54.2407L31.9704 61.8121L4.92393 46.149L17.995 38.5776ZM19.2228 57.2688L31.3565 64.2918C31.5431 64.3996 31.7549 64.4563 31.9704 64.4563C32.1858 64.4563 32.3974 64.3996 32.584 64.292M32.584 64.292L46.2708 56.3697V86.274L19.2228 70.6148V57.2688M31.194 64.5733L19.5478 57.8325V70.4274L45.9458 85.7103V56.9334L32.7468 64.5733C32.5107 64.7095 32.243 64.7813 31.9704 64.7813C31.6978 64.7813 31.43 64.7095 31.194 64.5733ZM75.7744 70.6148L48.7264 86.274V56.3697L62.4129 64.2918M75.7744 70.6148V70.4274V70.6148ZM75.4494 70.4274L49.0514 85.7103V56.9334L62.2504 64.5733C62.4865 64.7095 62.7543 64.7813 63.0269 64.7813C63.2994 64.7813 63.5672 64.7095 63.8033 64.5733L75.4494 57.8325V70.4274ZM63.6408 64.2918L75.7744 57.2688V70.4274M63.0268 61.8121L49.9558 54.2407L77.0023 38.5776L90.0733 46.149L63.0268 61.8121ZM77.0023 35.7417L58.4981 25.0286L58.7017 24.7384C59.7798 23.2017 60.5254 21.457 60.8909 19.6158C61.2565 17.7746 61.2338 15.8773 60.8245 14.0454L60.7725 13.8123L63.0272 12.5122L90.0735 28.1751L77.0023 35.7417ZM17.995 35.3662L5.57238 28.1704L31.9704 12.8829L33.8555 13.9698C33.4364 15.8459 33.4132 17.7888 33.7875 19.6744C34.1407 21.4533 34.8403 23.1443 35.8454 24.6514C35.9057 24.7417 35.967 24.8314 36.0295 24.9204L17.995 35.3662ZM17.995 38.9532L44.393 54.2408L31.9704 61.4366L5.57238 46.149L17.995 38.9532ZM62.4129 64.2918C62.5995 64.3995 62.8114 64.4563 63.0269 64.4563C63.2424 64.4563 63.4541 64.3996 63.6408 64.2918M63.0269 61.4366L89.4249 46.149L77.0023 38.9532L50.6043 54.2408L63.0269 61.4366ZM77.0023 35.3662L89.4249 28.1751L63.0269 12.8875L61.1417 13.9745C61.5609 15.8506 61.584 17.7935 61.2097 19.679C60.8565 21.458 60.1569 23.1489 59.1518 24.656C59.0916 24.7463 59.0302 24.836 58.9678 24.925L77.0023 35.3662ZM52.1571 34.0541H42.8401V37.1597H52.1571V34.0541Z" fill="#E4EED8"/>
<path fill-rule="evenodd" clip-rule="evenodd" d="M48.7267 46.8017H46.2711V49.2573H48.7267V46.8017ZM49.0517 46.4767V49.5823H45.9461V46.4767H49.0517Z" fill="#E4EED8"/>
</svg>
