<svg width="228" height="38" viewBox="0 0 228 38" fill="none" xmlns="http://www.w3.org/2000/svg">
<g clip-path="url(#clip0)">
<path d="M14.5705 0.863113H21.7978V26.0455C21.7978 29.5958 20.7719 32.4116 18.7205 34.4937C16.6686 36.5753 14.0851 37.6163 10.9691 37.6163C7.59821 37.6163 4.92902 36.6876 2.96287 34.8294C0.99628 32.9716 0.047183 30.2345 0.11469 26.618L0.191524 26.4692H7.26556C7.26556 28.3767 7.61065 29.7704 8.30038 30.6493C8.98966 31.5287 9.87925 31.9684 10.9687 31.9684C11.9564 31.9684 12.8034 31.4456 13.51 30.4006C14.2166 29.3556 14.5701 27.9042 14.5701 26.0459V0.864001L14.5705 0.863113ZM41.9021 29.4049H32.0949L30.103 37.094H22.7731L33.2443 0.863113H40.8037L51.2496 37.094H43.9197L41.9021 29.4049ZM33.5765 23.7067H40.4205L37.0758 10.8915H36.9225L33.5769 23.7063L33.5765 23.7067ZM61.7763 0.863113L68.4422 27.464H68.5954L75.3377 0.863113H84.8126V37.094H77.5849V26.5682L78.1978 12.4841L78.0446 12.4592L70.9448 37.094H66.118L59.0946 12.6582L58.9414 12.6831L59.5801 26.5682V37.094H52.3524V0.863113H61.7767H61.7763ZM113.268 28.4096C113.268 26.137 112.412 24.3205 110.701 22.9602C108.99 21.5998 106.024 20.3554 101.801 19.2273C97.5617 18.1161 94.4586 16.8512 92.492 15.4327C90.5254 14.0141 89.5421 11.9449 89.5421 9.22423C89.5421 6.52039 90.7 4.36371 93.0152 2.75465C95.3313 1.14513 98.2852 0.34082 101.878 0.34082C105.504 0.34082 108.467 1.32767 110.765 3.30181C113.064 5.27595 114.179 7.81413 114.111 10.9163L114.06 11.0656H112.885C112.885 8.36174 111.863 6.12245 109.82 4.34684C107.778 2.57211 105.13 1.6843 101.878 1.6843C98.5068 1.6843 95.8376 2.41844 93.871 3.88672C91.9044 5.355 90.9216 7.11729 90.9216 9.17449C90.9216 11.2317 91.7343 12.9402 93.3603 14.3006C94.9862 15.6609 97.9277 16.8721 102.184 17.9335C106.304 18.995 109.416 20.2932 111.519 21.8276C113.621 23.3621 114.673 25.5396 114.673 28.3598C114.673 31.2298 113.473 33.4895 111.072 35.1408C108.671 36.7911 105.666 37.6163 102.056 37.6163C98.3278 37.6163 95.1181 36.7663 92.4281 35.0657C89.738 33.3656 88.4354 30.6906 88.5206 27.0408L88.5717 26.8916H89.7211C89.7211 30.1763 90.9638 32.5608 93.4496 34.0455C95.9358 35.5303 98.8044 36.2728 102.057 36.2728C105.325 36.2728 108.011 35.5427 110.114 34.0833C112.217 32.623 113.268 30.7319 113.268 28.4096ZM141.344 5.91549C141.344 6.09714 141.274 6.26324 141.135 6.41424C140.995 6.56525 140.832 6.64075 140.646 6.64075H129.856V36.4141C129.856 36.5953 129.778 36.7538 129.623 36.8902C129.468 37.0261 129.298 37.094 129.112 37.094C128.925 37.094 128.755 37.0336 128.6 36.9128C128.445 36.7916 128.368 36.6255 128.368 36.4141V6.64119H117.531C117.344 6.64119 117.181 6.56569 117.042 6.41469C116.903 6.26368 116.833 6.09758 116.833 5.91593C116.833 5.73473 116.895 5.56108 117.019 5.39497C117.143 5.22887 117.313 5.14582 117.531 5.14582H140.646C140.864 5.14582 141.034 5.22887 141.158 5.39453C141.282 5.56108 141.344 5.73473 141.344 5.91593V5.91549ZM162.453 26.2698H144.269L140.131 37.094H138.624L152.518 0.863113H154.203L168.122 37.094H166.615L162.453 26.2693V26.2698ZM144.779 24.9259H161.942L154.152 4.52138L153.437 2.48062H153.284L152.594 4.52138L144.78 24.9259H144.779ZM195.331 25.9962L195.382 26.145C195.45 29.861 194.297 32.7021 191.922 34.6678C189.546 36.6335 186.418 37.6168 182.536 37.6168C178.467 37.6168 175.206 36.1525 172.754 33.2244C170.303 30.2967 169.077 26.4519 169.077 21.6908V16.2663C169.077 11.5217 170.303 7.68133 172.754 4.74522C175.206 1.80866 178.467 0.34082 182.536 0.34082C186.418 0.34082 189.546 1.32767 191.922 3.30181C194.297 5.27595 195.45 8.09615 195.382 11.7624L195.331 11.9116H194.156C194.156 8.64376 193.113 6.12201 191.028 4.34684C188.942 2.57211 186.111 1.6843 182.536 1.6843C178.909 1.6843 175.99 3.01979 173.776 5.69032C171.562 8.36174 170.456 11.8703 170.456 16.2161V21.6908C170.456 26.0872 171.562 29.6163 173.776 32.2788C175.99 34.9413 178.909 36.2728 182.536 36.2728C186.111 36.2728 188.942 35.4183 191.028 33.7098C193.113 32.0012 194.156 29.4297 194.156 25.9958H195.331V25.9962ZM208.161 19.4014H202.466V37.0936H201.087V0.863113H202.466V18.0828H208.544L224.328 0.863113H225.962L226.013 0.987468L209.694 18.9288L227.188 36.9448L227.112 37.094H225.502L208.161 19.4018V19.4014Z" fill="#4A4A4A"/>
<path d="M141.113 1.51882C141.113 1.70003 141.043 1.85858 140.903 1.99448C140.764 2.13039 140.601 2.19878 140.415 2.19878H117.532C117.345 2.19878 117.183 2.13039 117.043 1.99448C116.904 1.85858 116.834 1.70003 116.834 1.51882C116.834 1.33762 116.904 1.17907 117.043 1.04272C117.183 0.906818 117.345 0.838867 117.532 0.838867H140.415C140.601 0.838867 140.764 0.906818 140.903 1.04317C141.043 1.17907 141.113 1.33762 141.113 1.51838V1.51882Z" fill="url(#paint0_linear)"/>
</g>
<defs>
<linearGradient id="paint0_linear" x1="128.936" y1="0.838867" x2="128.936" y2="2.19879" gradientUnits="userSpaceOnUse">
<stop stop-color="#20C6B7"/>
<stop offset="1" stop-color="#4D9ABF"/>
</linearGradient>
<clipPath id="clip0">
<rect width="227.393" height="37.7507" fill="white"/>
</clipPath>
</defs>
</svg>
