<svg width="173" height="109" viewBox="0 0 173 109" fill="none" xmlns="http://www.w3.org/2000/svg">
<g clip-path="url(#clip0)" filter="url(#filter0_d)">
<path d="M85.4154 100.709C84.858 100.709 84.3376 100.56 83.8541 100.3L78.91 97.3631C78.1663 96.9539 78.5381 96.8053 78.7613 96.731C79.7649 96.3965 79.9508 96.3219 80.9917 95.7275C81.1033 95.6528 81.2523 95.6901 81.3635 95.7644L85.1555 98.0321C85.3042 98.1064 85.4901 98.1064 85.6014 98.0321L100.435 89.4445C100.583 89.3702 100.658 89.2213 100.658 89.0357V71.8979C100.658 71.7116 100.583 71.5634 100.435 71.4887L85.6014 62.9385C85.4528 62.8639 85.2668 62.8639 85.1555 62.9385L70.3224 71.4887C70.1738 71.563 70.0991 71.749 70.0991 71.8976V89.0354C70.0991 89.1843 70.1738 89.3699 70.3224 89.4445L74.3746 91.7865C76.568 92.9017 77.9434 91.6006 77.9434 90.2995V73.3846C77.9434 73.1617 78.1293 72.9384 78.3895 72.9384H80.2854C80.5086 72.9384 80.7315 73.1244 80.7315 73.3846V90.2995C80.7315 93.2362 79.1329 94.9465 76.3447 94.9465C75.4898 94.9465 74.8207 94.9465 72.9246 94.0169L69.0213 91.7865C68.0547 91.2291 67.46 90.1879 67.46 89.0727V71.9349C67.46 70.8197 68.0547 69.7785 69.0213 69.2211L83.8541 60.6335C84.7837 60.1131 86.0478 60.1131 86.9771 60.6335L101.81 69.2211C102.777 69.7785 103.372 70.8197 103.372 71.9349V89.0727C103.372 90.1879 102.777 91.2291 101.81 91.7865L86.9771 100.374C86.4936 100.597 85.9362 100.709 85.4158 100.709H85.4154ZM89.9881 88.9241C83.4826 88.9241 82.1442 85.9501 82.1442 83.4222C82.1442 83.1989 82.3301 82.976 82.5903 82.976H84.5235C84.7464 82.976 84.9323 83.1246 84.9323 83.3479C85.2299 85.318 86.0848 86.2846 90.0254 86.2846C93.1481 86.2846 94.4868 85.5782 94.4868 83.9053C94.4868 82.9387 94.1146 82.2327 89.2448 81.7492C85.1925 81.3401 82.6646 80.4481 82.6646 77.2139C82.6646 74.2026 85.1929 72.418 89.4307 72.418C94.1889 72.418 96.5312 74.0539 96.8288 77.6224C96.8288 77.7343 96.7915 77.8456 96.7172 77.9572C96.6425 78.0315 96.5312 78.1059 96.4196 78.1059H94.4865C94.3006 78.1059 94.1146 77.9572 94.0776 77.7713C93.6315 75.7269 92.479 75.0575 89.4307 75.0575C86.0105 75.0575 85.6014 76.2473 85.6014 77.1393C85.6014 78.2175 86.0848 78.552 90.6945 79.1467C95.2671 79.7418 97.4235 80.5968 97.4235 83.7937C97.3862 87.0653 94.7097 88.9241 89.9881 88.9241Z" fill="#539E43"/>
<path d="M39.3911 33.6811C39.3911 33.012 39.0193 32.3796 38.4245 32.0451L22.6621 22.9744C22.4015 22.8255 22.1043 22.7512 21.8071 22.7139H21.6582C21.361 22.7139 21.0634 22.8255 20.8032 22.9744L5.0408 32.0451C4.44573 32.3796 4.07422 33.0117 4.07422 33.6811L4.11153 58.068C4.11153 58.4026 4.29745 58.7371 4.59466 58.886C4.89219 59.0719 5.2637 59.0719 5.52424 58.886L14.8925 53.5327C15.4872 53.1982 15.8591 52.5661 15.8591 51.8971V40.4841C15.8591 39.815 16.2306 39.183 16.8256 38.8485L20.8032 36.5435C21.1008 36.3576 21.4353 36.2829 21.7698 36.2829C22.1043 36.2829 22.4388 36.3576 22.6994 36.5435L26.677 38.8485C27.2721 39.183 27.6436 39.8147 27.6436 40.4841V51.8971C27.6436 52.5661 28.0154 53.1982 28.6101 53.5327L37.9784 58.886C38.2759 59.0719 38.6474 59.0719 38.945 58.886C39.2425 58.7371 39.4284 58.4026 39.4284 58.068L39.3911 33.6811Z" fill="#333333"/>
<path d="M115.155 0.111695C114.858 -0.0372317 114.486 -0.0372317 114.225 0.111695C113.928 0.297612 113.742 0.594822 113.742 0.929345V25.0938C113.742 25.3167 113.631 25.5396 113.408 25.6885C113.185 25.7998 112.962 25.7998 112.739 25.6885L108.798 23.4208C108.509 23.2563 108.182 23.1698 107.85 23.1698C107.517 23.1698 107.191 23.2563 106.902 23.4208L91.1394 32.5288C90.5447 32.8634 90.1729 33.4954 90.1729 34.1645V52.3432C90.1729 53.0122 90.5447 53.6446 91.1394 53.9791L106.902 63.0871C107.191 63.2516 107.517 63.3381 107.85 63.3381C108.182 63.3381 108.509 63.2516 108.798 63.0871L124.56 53.9791C125.155 53.6446 125.527 53.0125 125.527 52.3432V7.02634C125.527 6.31998 125.155 5.68825 124.56 5.3534L115.155 0.111695H115.155ZM113.705 46.3581C113.705 46.544 113.631 46.6926 113.482 46.7669L108.092 49.8896C108.016 49.9263 107.934 49.9454 107.85 49.9454C107.766 49.9454 107.684 49.9263 107.608 49.8896L102.218 46.7669C102.069 46.6926 101.995 46.5067 101.995 46.3581V40.1125C101.995 39.9266 102.069 39.778 102.218 39.7037L107.608 36.5807C107.684 36.544 107.766 36.5249 107.85 36.5249C107.934 36.5249 108.016 36.544 108.092 36.5807L113.482 39.7037C113.631 39.7777 113.705 39.9639 113.705 40.1125V46.3581Z" fill="#333333"/>
<path d="M167.609 39.9642C168.204 39.6296 168.538 38.9976 168.538 38.3282V33.9045C168.538 33.2354 168.166 32.6034 167.609 32.2689L151.958 23.1982C151.669 23.0337 151.342 22.9473 151.01 22.9473C150.678 22.9473 150.351 23.0337 150.062 23.1982L134.3 32.3059C133.705 32.6404 133.333 33.2724 133.333 33.9418V52.1205C133.333 52.7896 133.705 53.4216 134.3 53.7561L149.95 62.6782C150.545 63.0128 151.251 63.0128 151.809 62.6782L161.289 57.3999C161.586 57.2509 161.772 56.9164 161.772 56.5819C161.772 56.2474 161.586 55.9128 161.289 55.7639L145.452 46.6559C145.155 46.4703 144.969 46.1728 144.969 45.8382V40.1504C144.969 39.8159 145.155 39.4814 145.452 39.3324L150.397 36.507C150.541 36.4159 150.709 36.3676 150.88 36.3676C151.051 36.3676 151.218 36.4159 151.363 36.507L156.307 39.3324C156.605 39.5184 156.791 39.8156 156.791 40.1504V44.6115C156.791 44.946 156.977 45.2805 157.274 45.4291C157.571 45.615 157.943 45.615 158.24 45.4291L167.609 39.9642Z" fill="#333333"/>
<path d="M150.77 39.1094C150.825 39.0731 150.889 39.0537 150.955 39.0537C151.021 39.0537 151.086 39.0731 151.141 39.1094L154.152 40.8566C154.264 40.9306 154.338 41.0422 154.338 41.1911V44.6856C154.338 44.8342 154.264 44.9458 154.152 45.0201L151.141 46.7674C151.086 46.8037 151.021 46.823 150.955 46.823C150.889 46.823 150.825 46.8037 150.77 46.7674L147.758 45.0201C147.647 44.9458 147.572 44.8342 147.572 44.6856V41.1911C147.572 41.0422 147.647 40.9306 147.758 40.8566L150.77 39.1094Z" fill="#539E43"/>
<mask id="mask0" mask-type="alpha" maskUnits="userSpaceOnUse" x="47" y="23" width="36" height="40">
<path d="M65.7487 23.2724C65.4598 23.1079 65.1332 23.0215 64.8008 23.0215C64.4684 23.0215 64.1417 23.1079 63.8529 23.2724L48.202 32.3055C47.607 32.64 47.2725 33.272 47.2725 33.9411V52.0458C47.2725 52.7149 47.6443 53.3469 48.202 53.6814L63.8529 62.7151C64.1417 62.8796 64.4684 62.966 64.8008 62.966C65.1332 62.966 65.4598 62.8796 65.7487 62.7151L81.3998 53.6814C81.9946 53.3469 82.3294 52.7149 82.3294 52.0458V33.9414C82.3294 33.2724 81.9573 32.6403 81.3998 32.3058L65.7487 23.2724Z" fill="white"/>
</mask>
<g mask="url(#mask0)">
<path d="M65.7487 23.2724C65.4598 23.1079 65.1332 23.0215 64.8008 23.0215C64.4684 23.0215 64.1417 23.1079 63.8529 23.2724L48.202 32.3055C47.607 32.64 47.2725 33.272 47.2725 33.9411V52.0458C47.2725 52.7149 47.6443 53.3469 48.202 53.6814L63.8529 62.7151C64.1417 62.8796 64.4684 62.966 64.8008 62.966C65.1332 62.966 65.4598 62.8796 65.7487 62.7151L81.3998 53.6814C81.9946 53.3469 82.3294 52.7149 82.3294 52.0458V33.9414C82.3294 33.2724 81.9573 32.6403 81.3998 32.3058L65.7487 23.2724Z" fill="url(#paint0_linear)"/>
<path d="M81.4353 32.3052L65.7102 23.2719C65.5557 23.1938 65.3937 23.1315 65.2267 23.0859L47.6055 53.2727C47.7514 53.4509 47.9277 53.602 48.1262 53.7188L63.8513 62.7526C64.2975 63.0128 64.8179 63.0871 65.3011 62.9381L81.8445 32.6774C81.7328 32.5288 81.5839 32.4169 81.4353 32.3056V32.3052Z" fill="url(#paint1_linear)"/>
<path fill-rule="evenodd" clip-rule="evenodd" d="M81.4765 53.6811C81.9227 53.4209 82.2572 52.9747 82.4061 52.4916L65.156 23.0485C64.7099 22.9742 64.2264 23.0112 63.8179 23.2714L48.2041 32.2681L65.0444 62.975C65.2893 62.9349 65.5272 62.8598 65.7508 62.7521L81.4762 53.6814L81.4765 53.6811Z" fill="url(#paint2_linear)"/>
<path fill-rule="evenodd" clip-rule="evenodd" d="M81.4746 53.6809L65.7864 62.7146C65.565 62.8275 65.3263 62.9029 65.0801 62.9375L65.3776 63.4953L82.7757 53.421V53.1978L82.3295 52.4541C82.2552 52.9745 81.9207 53.4207 81.4746 53.6809Z" fill="url(#paint3_linear)"/>
<path fill-rule="evenodd" clip-rule="evenodd" d="M81.4746 53.6809L65.7864 62.7146C65.565 62.8275 65.3263 62.9029 65.0801 62.9375L65.3776 63.4953L82.7757 53.421V53.1978L82.3295 52.4541C82.2552 52.9745 81.9207 53.4207 81.4746 53.6809Z" fill="url(#paint4_linear)"/>
</g>
</g>
<defs>
<filter id="filter0_d" x="0" y="0" width="172.688" height="109" filterUnits="userSpaceOnUse" color-interpolation-filters="sRGB">
<feFlood flood-opacity="0" result="BackgroundImageFix"/>
<feColorMatrix in="SourceAlpha" type="matrix" values="0 0 0 0 0 0 0 0 0 0 0 0 0 0 0 0 0 0 127 0"/>
<feOffset dy="4"/>
<feGaussianBlur stdDeviation="2"/>
<feColorMatrix type="matrix" values="0 0 0 0 0 0 0 0 0 0 0 0 0 0 0 0 0 0 0.25 0"/>
<feBlend mode="normal" in2="BackgroundImageFix" result="effect1_dropShadow"/>
<feBlend mode="normal" in="SourceGraphic" in2="effect1_dropShadow" result="shape"/>
</filter>
<linearGradient id="paint0_linear" x1="71.1771" y1="30.0066" x2="54.0223" y2="56.9619" gradientUnits="userSpaceOnUse">
<stop stop-color="#41873F"/>
<stop offset="0.3288" stop-color="#418B3D"/>
<stop offset="0.6352" stop-color="#419637"/>
<stop offset="0.9319" stop-color="#3FA92D"/>
<stop offset="1" stop-color="#3FAE2A"/>
</linearGradient>
<linearGradient id="paint1_linear" x1="62.4231" y1="45.1139" x2="105.386" y2="21.7717" gradientUnits="userSpaceOnUse">
<stop offset="0.1376" stop-color="#41873F"/>
<stop offset="0.4032" stop-color="#54A044"/>
<stop offset="0.7136" stop-color="#66B848"/>
<stop offset="0.9081" stop-color="#6CC04A"/>
</linearGradient>
<linearGradient id="paint2_linear" x1="46.703" y1="42.9936" x2="82.9188" y2="42.9936" gradientUnits="userSpaceOnUse">
<stop offset="0.09192" stop-color="#6CC04A"/>
<stop offset="0.2864" stop-color="#66B848"/>
<stop offset="0.5968" stop-color="#54A044"/>
<stop offset="0.8624" stop-color="#41873F"/>
</linearGradient>
<linearGradient id="paint3_linear" x1="46.7013" y1="58.005" x2="82.9167" y2="58.005" gradientUnits="userSpaceOnUse">
<stop offset="0.09192" stop-color="#6CC04A"/>
<stop offset="0.2864" stop-color="#66B848"/>
<stop offset="0.5968" stop-color="#54A044"/>
<stop offset="0.8624" stop-color="#41873F"/>
</linearGradient>
<linearGradient id="paint4_linear" x1="88.1928" y1="29.1496" x2="79.018" y2="77.2252" gradientUnits="userSpaceOnUse">
<stop stop-color="#41873F"/>
<stop offset="0.3288" stop-color="#418B3D"/>
<stop offset="0.6352" stop-color="#419637"/>
<stop offset="0.9319" stop-color="#3FA92D"/>
<stop offset="1" stop-color="#3FAE2A"/>
</linearGradient>
<clipPath id="clip0">
<rect width="164.688" height="101" fill="white" transform="translate(4)"/>
</clipPath>
</defs>
</svg>
