<svg width="130" height="48" viewBox="0 0 130 48" fill="none" xmlns="http://www.w3.org/2000/svg">
<path d="M12.348 0.875997C23.656 0.875997 29.31 5.32 29.31 14.208C29.31 18.74 27.836 22.304 24.888 24.9C21.984 27.452 17.474 28.728 11.358 28.728H4.428V48H0.6V0.875997H12.348ZM11.952 4.242H4.428V25.362H10.962C15.494 25.362 19.014 24.57 21.522 22.986C24.074 21.402 25.35 18.542 25.35 14.406C25.35 10.886 24.25 8.312 22.05 6.684C19.894 5.056 16.528 4.242 11.952 4.242ZM90.8132 0.875997L78.0092 48H74.2472L64.3472 13.35C63.8632 11.766 63.4452 10.314 63.0932 8.994C62.7412 7.63 62.4772 6.508 62.3012 5.628C62.1692 6.464 61.9492 7.52 61.6412 8.796C61.3772 10.028 61.0472 11.326 60.6512 12.69L50.8172 48H47.0552L34.3832 0.875997H38.3432L46.9232 33.216C47.3632 35.064 47.7592 36.758 48.1112 38.298C48.5072 39.794 48.8372 41.268 49.1012 42.72C49.3652 41.224 49.6732 39.684 50.0252 38.1C50.3772 36.516 50.8172 34.822 51.3452 33.018L60.4532 0.875997H64.3472L73.7192 33.216C74.2472 35.108 74.6872 36.846 75.0392 38.43C75.4352 39.97 75.7652 41.444 76.0292 42.852C76.2492 41.4 76.5132 39.926 76.8212 38.43C77.1732 36.89 77.6132 35.152 78.1412 33.216L86.8532 0.875997H90.8132ZM125.75 48L119.48 31.764H99.9444L93.6084 48H89.6484L108.194 0.677999H111.692L129.776 48H125.75ZM112.022 11.304C111.758 10.688 111.406 9.72 110.966 8.4C110.526 7.08 110.152 5.914 109.844 4.902C109.492 6.09 109.118 7.256 108.722 8.4C108.326 9.544 107.996 10.534 107.732 11.37L101.198 28.266H118.292L112.022 11.304Z" fill="#3A7A44"/>
</svg>
