<svg width="84" height="84" viewBox="0 0 84 84" fill="none" xmlns="http://www.w3.org/2000/svg">
<path d="M17 83.42H66.93V0H17V83.42ZM19 2H64.93V81.41H19V2Z" fill="#3A7A44"/>
<path d="M34.21 7.90039H49.72C50.27 7.90039 50.72 7.45039 50.72 6.90039C50.72 6.35039 50.27 5.90039 49.72 5.90039H34.21C33.66 5.90039 33.21 6.35039 33.21 6.90039C33.21 7.45039 33.65 7.90039 34.21 7.90039Z" fill="#3A7A44"/>
<path d="M41.9605 68.6201C39.2105 68.6201 36.9805 70.8501 36.9805 73.6001C36.9805 76.3501 39.2105 78.5801 41.9605 78.5801C44.7105 78.5801 46.9405 76.3501 46.9405 73.6001C46.9405 70.8501 44.7105 68.6201 41.9605 68.6201ZM41.9605 76.5801C40.3205 76.5801 38.9805 75.2401 38.9805 73.6001C38.9805 71.9601 40.3205 70.6201 41.9605 70.6201C43.6005 70.6201 44.9405 71.9601 44.9405 73.6001C44.9405 75.2401 43.6105 76.5801 41.9605 76.5801Z" fill="#3A7A44"/>
<path d="M22.5596 63.8999H61.8996V40.8799H22.5596V63.8999ZM57.0896 42.8799L42.2296 51.2399L27.3696 42.8799H57.0896ZM27.3796 61.8999L42.2396 53.5399L57.0996 61.8999H27.3796ZM24.5596 43.5899L40.1896 52.3899L24.5596 61.1899V43.5899ZM59.9096 61.1899L44.2796 52.3899L59.9096 43.5899V61.1899Z" fill="#3A7A44"/>
<path d="M22.5596 36.2202H61.8996V13.2002H22.5596V36.2202ZM57.0896 15.2002L42.2296 23.5602L27.3696 15.2002H57.0896ZM27.3796 34.2202L42.2396 25.8602L57.0996 34.2202H27.3796ZM24.5596 15.9102L40.1996 24.7102L24.5696 33.5102V15.9102H24.5596ZM59.9096 33.5102L44.2796 24.7102L59.9096 15.9102V33.5102Z" fill="#3A7A44"/>
</svg>
