<svg width="93" height="91" viewBox="0 0 93 91" fill="none" xmlns="http://www.w3.org/2000/svg">
<path d="M38.3096 64.334C39.1641 62.9098 39.0217 60.916 37.7399 59.6343C37.1703 59.0646 36.4582 58.6374 35.6037 58.6374C35.8885 57.3557 35.6037 55.9315 34.6068 54.9346C34.1795 54.5074 33.6099 54.2225 33.1826 54.0801L36.0309 51.2318C36.743 50.5198 37.1703 49.5228 37.1703 48.5259C37.1703 47.529 36.743 46.5321 36.0309 45.8201C34.6068 44.3959 32.0433 44.3959 30.6192 45.8201L21.0774 55.3618C20.935 54.7922 20.6501 54.3649 20.2229 53.9377C18.7988 52.5136 16.2353 52.5136 14.8111 53.9377L9.25696 59.4919C7.40557 61.4857 6.69349 64.0492 7.12074 66.755C7.40557 68.1792 6.97832 69.6033 5.83901 70.6002L4.8421 71.5971C4.69969 71.5971 4.69969 71.5971 4.55727 71.5971C3.70278 71.5971 2.8483 72.0244 2.27864 72.7365C1.70898 73.0213 1.56656 73.4485 1.28173 73.7334C0.996903 74.0182 0.854489 74.303 0 75.1575L1.56656 76.5817C2.42105 75.7272 2.70588 75.4423 2.99071 75.0151C3.13313 74.7303 3.41796 74.4454 3.98761 73.8758C4.27244 73.5909 4.55727 73.4485 4.8421 73.4485C4.98452 73.4485 5.12693 73.4485 5.26935 73.5909L17.0898 85.4114C17.2322 85.5538 17.2322 85.6962 17.2322 85.8386C17.2322 86.1234 17.0898 86.4083 16.8049 86.6931C15.9505 87.4052 15.6656 87.5476 15.6656 87.5476C15.3808 87.69 15.2384 87.8324 13.9566 88.9717L15.5232 90.5383C15.808 90.2535 16.5201 89.5414 16.5201 89.5414C16.8049 89.399 17.0898 89.2566 18.2291 88.2597C18.7987 87.69 19.226 86.9779 19.3684 86.2659C19.7957 85.8386 20.935 84.8417 21.9319 84.5569C22.2167 84.4145 22.5015 84.4145 22.7864 84.2721C24.2105 83.9872 25.7771 83.56 28.1981 81.9934C30.7616 80.4269 34.8916 75.5848 35.3189 75.1575L39.8761 70.6002C40.5882 69.8882 41.0155 68.8913 41.0155 67.8944C41.0155 66.8975 40.5882 65.9005 39.8761 65.1885C39.4489 64.7612 38.8792 64.4764 38.3096 64.334ZM38.452 69.1761L33.7523 73.8758L33.8947 74.0182L33.7523 73.8758C33.7523 73.8758 29.4799 78.8603 27.0588 80.4269C24.9226 81.7086 23.6409 82.1358 22.2167 82.4207C21.9319 82.5631 21.647 82.5631 21.3622 82.7055C20.3653 82.9903 19.3684 83.7024 18.6563 84.2721C18.6563 84.2721 18.6563 84.2721 18.5139 84.1296L6.97832 72.3092L7.40557 71.882C8.97213 70.3154 9.54179 68.1792 9.25696 66.043C8.82972 64.0492 9.54179 61.9129 10.9659 60.4888L16.0929 55.3618L16.2353 55.2194C16.8049 54.5074 17.9443 54.5074 18.6563 55.2194C19.3684 55.9315 19.3684 56.9284 18.6563 57.6405L15.6656 60.6312L17.2322 62.1978C17.2322 62.1978 20.5077 58.9222 20.6501 58.6374L32.3282 47.1018C33.0402 46.3897 34.0371 46.3897 34.7492 47.1018C35.4613 47.8139 35.4613 48.8108 34.7492 49.5228L25.065 59.2071L23.2136 61.0584L24.7802 62.625L31.0464 56.3588C31.7585 55.6467 32.7554 55.6467 33.4675 56.3588C34.1796 57.0708 34.1796 58.0677 33.4675 58.7798L27.4861 64.7612L29.0526 66.3278L34.1796 61.2009C34.8916 60.4888 35.8885 60.4888 36.6006 61.2009C37.3127 61.9129 37.3127 62.9098 36.6006 63.6219L30.1919 70.0306L31.7585 71.5971L36.4582 66.8975C37.1703 66.1854 38.1672 66.1854 38.8792 66.8975C39.1641 67.1823 39.3065 67.6095 39.3065 68.0368C38.8792 68.3216 38.7368 68.7488 38.452 69.1761Z" fill="#3A7A44"/>
<path d="M65.0831 7.22593C52.5506 6.37144 42.1543 16.3405 42.1543 28.7306C42.1543 31.1516 42.5815 33.5727 43.436 35.9937L45.2874 39.8389C45.5723 40.2662 45.8571 40.8358 46.1419 41.2631L46.2843 41.4055C49.275 46.6748 51.4113 52.3714 52.693 58.4953H48.4205V60.6315H53.1202C53.2627 61.2011 53.2626 61.7708 53.4051 62.4829H50.8416V64.6191H53.6899C53.8323 65.4736 53.8323 66.1857 53.9747 66.8977V67.1826C54.6868 68.8915 56.2534 70.0309 58.1048 70.0309H69.2131C71.3493 70.0309 73.0583 68.6067 73.628 66.4705C73.628 66.0432 73.7704 65.7584 73.7704 65.1888C73.7704 64.9039 73.7704 64.7615 73.7704 64.4767H76.6187V62.3405H74.0552C74.1976 61.7708 74.1976 61.2011 74.34 60.6315H79.0397V58.4953H74.7673C76.1914 51.9442 78.6125 45.8203 81.7456 40.4086C81.888 40.1237 82.0304 39.8389 82.3153 39.5541C84.3091 35.9937 85.306 32.0061 85.0211 27.8761C84.5939 16.6253 76.049 7.938 65.0831 7.22593ZM71.6342 64.9039C71.6342 65.3312 71.4917 65.7584 71.4917 66.0432C71.2069 67.1826 70.3524 67.8946 69.2131 67.8946H58.1048C57.1079 67.8946 56.2534 67.325 55.9685 66.4705C55.9685 65.9008 55.8261 65.1888 55.8261 64.4767H71.7766C71.6342 64.6191 71.6342 64.7615 71.6342 64.9039ZM71.919 61.9132C71.919 62.0556 71.919 62.198 71.919 62.3405H55.3989C55.2565 61.7708 55.2565 61.0587 55.114 60.4891H72.2038C72.0614 60.9163 72.0614 61.3436 71.919 61.9132ZM80.6063 38.1299L80.4639 38.2724C80.3215 38.5572 80.179 38.842 79.8942 39.1268C76.4763 44.8234 74.0552 51.3745 72.4886 58.3528H54.6868C53.2626 51.8018 50.984 45.6779 47.8509 40.1237L47.7085 39.9813C47.4236 39.5541 47.1388 39.1268 46.9964 38.6996L45.145 35.1392C44.4329 33.1454 44.0057 31.0092 44.0057 28.7306C44.0057 17.6222 53.4051 8.65008 64.7982 9.36215C74.6249 10.0742 82.3153 17.907 82.8849 27.7337C83.1698 31.294 82.3153 34.9968 80.6063 38.1299Z" fill="#3A7A44"/>
<path d="M47.4238 28.7299C47.4238 30.4389 47.7087 32.1479 48.2783 33.7144L49.9873 37.1324L50.8418 38.5565L52.5508 37.4172L50.2721 33.0024C49.8449 31.5782 49.5601 30.1541 49.5601 28.7299C49.5601 23.1757 52.8356 18.0488 57.9625 15.7702L57.108 13.7764C51.269 16.3398 47.4238 22.1788 47.4238 28.7299Z" fill="#3A7A44"/>
<path d="M80.4814 47.1131L83.2676 49.9658L84.7958 48.4732L82.0097 45.6205L80.4814 47.1131Z" fill="#3A7A44"/>
<path d="M87.6568 36.1657L91.4961 37.2432L92.0733 35.1864L88.234 34.109L87.6568 36.1657Z" fill="#3A7A44"/>
<path d="M92.1857 22.3139L91.6572 20.2441L87.7936 21.2307L88.3221 23.3005L92.1857 22.3139Z" fill="#3A7A44"/>
<path d="M81.0369 10.1395L82.5293 11.668L85.3824 8.88222L83.8901 7.35375L81.0369 10.1395Z" fill="#3A7A44"/>
<path d="M72.6876 0.763731L70.6309 0.186523L69.5534 4.0258L71.6102 4.60301L72.6876 0.763731Z" fill="#3A7A44"/>
<path d="M58.6072 3.8636L57.6211 0L55.5513 0.528288L56.5374 4.39189L58.6072 3.8636Z" fill="#3A7A44"/>
<path d="M47.0322 9.70137L44.2461 6.84863L42.7178 8.34121L45.504 11.1939L47.0322 9.70137Z" fill="#3A7A44"/>
<path d="M39.9408 20.6298L36.1016 19.5527L35.5246 21.6095L39.3638 22.6865L39.9408 20.6298Z" fill="#3A7A44"/>
<path d="M39.6994 35.6518L39.1709 33.582L35.3073 34.5686L35.8358 36.6384L39.6994 35.6518Z" fill="#3A7A44"/>
<path d="M42.1816 47.9675L43.6768 49.4932L46.5247 46.7022L45.0296 45.1765L42.1816 47.9675Z" fill="#3A7A44"/>
</svg>
