<svg width="92" height="84" viewBox="0 0 92 84" fill="none" xmlns="http://www.w3.org/2000/svg">
<path d="M91.382 4.7197C89.4941 1.75303 86.2577 0 82.7517 0C79.2456 0 76.0092 1.75303 74.1214 4.7197C73.9865 4.98939 73.8517 5.25909 73.8517 5.39394V12.1364H6.69712C5.88803 12.1364 5.34863 12.6758 5.34863 13.4848V81.9879C5.34863 82.797 5.88803 83.3364 6.69712 83.3364H83.4259C87.8759 83.3364 91.6517 79.6955 91.6517 75.1106C91.6517 54.6136 91.6517 26.8348 91.6517 5.25909C91.6517 5.25909 91.5168 4.98939 91.382 4.7197ZM76.5486 5.93333C78.032 3.91061 80.3244 2.83182 82.7517 2.83182C85.1789 2.83182 87.4714 4.04545 88.9547 5.93333C88.9547 18.8788 88.9547 54.4788 88.9547 69.1773C87.2017 67.8288 85.0441 67.1545 82.7517 67.1545C80.4592 67.1545 78.3017 67.8288 76.5486 69.1773V5.93333ZM83.4259 80.7742H8.0456V14.9682H73.8517V72.5485C73.8517 73.0879 74.2562 73.6273 74.7956 73.897C75.335 74.0318 76.0092 73.897 76.2789 73.3576C77.7623 71.2 80.0547 69.8515 82.7517 69.8515C85.1789 69.8515 87.4714 71.0651 88.9547 72.953V75.2455C88.9547 78.347 86.5274 80.7742 83.4259 80.7742Z" fill="#3A7A44"/>
<path d="M14.1141 55.9623H67.9187C68.7277 55.9623 69.2671 55.4229 69.2671 54.6138V43.9608C69.2671 43.1517 68.7277 42.6123 67.9187 42.6123H14.1141C13.305 42.6123 12.7656 43.1517 12.7656 43.9608V54.6138C12.7656 55.4229 13.305 55.9623 14.1141 55.9623ZM15.4626 45.4441H66.5702V53.4002H61.3111V50.7032C61.3111 49.8941 60.7717 49.3547 59.9626 49.3547C59.1535 49.3547 58.6141 49.8941 58.6141 50.7032V53.4002H53.7596V48.9502C53.7596 48.1411 53.2202 47.6017 52.4111 47.6017C51.602 47.6017 51.0626 48.1411 51.0626 48.9502V53.4002H46.208V50.7032C46.208 49.8941 45.6687 49.3547 44.8596 49.3547C44.0505 49.3547 43.5111 49.8941 43.5111 50.7032V53.4002H38.6565V48.9502C38.6565 48.1411 38.1171 47.6017 37.3081 47.6017C36.499 47.6017 35.9596 48.1411 35.9596 48.9502V53.4002H30.9702V50.7032C30.9702 49.8941 30.4308 49.3547 29.6217 49.3547C28.8126 49.3547 28.2732 49.8941 28.2732 50.7032V53.4002H23.4187V48.9502C23.4187 48.1411 22.8793 47.6017 22.0702 47.6017C21.2611 47.6017 20.7217 48.1411 20.7217 48.9502V53.4002H15.4626V45.4441Z" fill="#3A7A44"/>
<path d="M67.6489 63.2441C33.6671 63.2441 52.0065 63.2441 20.1822 63.2441C20.0474 63.2441 19.7777 63.2441 19.508 63.379L11.9565 67.4244C11.5519 67.6941 11.2822 68.0987 11.2822 68.6381C11.2822 69.1775 11.5519 69.582 11.9565 69.8517C19.508 73.7623 19.508 74.032 20.1822 74.032C32.7231 74.032 56.0519 74.032 67.7837 74.032C69.5368 74.032 70.8853 72.5487 70.8853 70.9305V66.6154C70.7504 64.7275 69.4019 63.2441 67.6489 63.2441ZM15.3277 68.6381L18.6989 66.885V70.3911L15.3277 68.6381ZM21.3959 65.9411H60.3671V71.2002H21.3959V65.9411ZM68.0534 70.7957C68.0534 71.0654 67.7837 71.2002 67.6489 71.2002H63.064V65.9411H67.6489C67.9186 65.9411 68.0534 66.2108 68.0534 66.3457V70.7957Z" fill="#3A7A44"/>
<path d="M22.6089 30.2064H34.4756L39.5998 35.3306C39.8695 35.6003 40.2741 35.7352 40.5437 35.7352C40.9483 35.7352 41.218 35.6003 41.4877 35.3306L46.7468 30.0715H59.2877C59.5574 30.6109 59.8271 31.1503 60.2316 31.5549C61.0407 32.364 62.2544 32.9034 63.3331 32.9034C64.4119 32.9034 65.6256 32.4988 66.4347 31.5549C68.1877 29.8018 68.1877 26.97 66.4347 25.217C64.6816 23.464 61.8498 23.464 60.0968 25.217C59.5574 25.7564 59.1528 26.5655 58.8831 27.3746H46.4771L41.218 22.1155C40.9483 21.8458 40.6786 21.7109 40.2741 21.7109C39.8695 21.7109 39.5998 21.8458 39.3301 22.1155L34.2059 27.2397H22.6089C21.3953 22.1155 13.8438 22.9246 13.8438 28.1837C13.9786 33.3079 20.721 34.6564 22.6089 30.2064ZM63.468 26.7003C65.0862 26.7003 65.7604 28.5882 64.6816 29.667C64.0074 30.3412 62.9286 30.3412 62.1195 29.667C61.8498 29.3973 61.5801 28.8579 61.5801 28.4534C61.715 27.5094 62.5241 26.7003 63.468 26.7003ZM40.5437 25.0821L44.1847 28.7231L40.5437 32.364L36.9028 28.7231L40.5437 25.0821ZM18.4286 26.7003C20.0468 26.7003 20.8559 28.5882 19.6422 29.667C18.5634 30.7458 16.6756 29.9367 16.6756 28.4534C16.6756 27.5094 17.4847 26.7003 18.4286 26.7003Z" fill="#3A7A44"/>
</svg>
