<svg width="114" height="102" viewBox="0 0 114 102" fill="none" xmlns="http://www.w3.org/2000/svg">
<g clip-path="url(#clip0)">
<path d="M93.481 32.7871C92.271 32.3719 91.0507 31.9874 89.8214 31.6337C90.0279 30.7898 90.218 29.9562 90.3868 29.1373C93.1572 15.6887 91.3461 4.85422 85.1598 1.287C79.2285 -2.13277 69.5284 1.43312 59.7318 9.95901C58.7664 10.8008 57.8223 11.6668 56.9005 12.5563C56.2835 11.9648 55.6555 11.3848 55.017 10.8166C44.7497 1.70048 34.4584 -2.14165 28.2788 1.43578C22.3529 4.86621 20.5981 15.0514 23.0923 27.7969C23.3405 29.0592 23.6207 30.315 23.9326 31.5631C22.4759 31.977 21.0702 32.4176 19.725 32.8866C7.68738 37.0836 0 43.6606 0 50.4828C0 57.5289 8.25275 64.5963 20.7904 68.8817C21.8069 69.2276 22.8318 69.5483 23.8642 69.8432C23.5289 71.1874 23.2312 72.5407 22.9715 73.9016C20.5937 86.426 22.4506 96.3704 28.3606 99.7791C34.4646 103.299 44.7097 99.6814 54.6852 90.9609C55.4941 90.252 56.2852 89.5229 57.0578 88.7745C58.056 89.7376 59.0808 90.6727 60.1311 91.5787C69.7944 99.8936 79.3378 103.251 85.242 99.8332C91.3403 96.3029 93.3224 85.6199 90.7492 72.6225C90.5464 71.6043 90.3191 70.5911 90.0674 69.5838C90.7869 69.3706 91.4931 69.1512 92.1815 68.923C105.216 64.6047 113.696 57.6231 113.696 50.4828C113.696 43.6357 105.761 37.0143 93.481 32.7871ZM90.6541 64.3129C90.0323 64.5186 89.3946 64.7171 88.7444 64.9103C87.3054 60.3549 85.3637 55.5112 82.9872 50.5064C85.2549 45.621 87.122 40.8391 88.5205 36.3134C89.6837 36.6501 90.8122 37.0049 91.9003 37.3793C102.422 41.0016 108.839 46.3565 108.839 50.4828C108.839 54.8779 101.908 60.5836 90.6541 64.3129ZM85.9846 73.5658C87.1224 79.3128 87.2845 84.5091 86.5309 88.5715C85.854 92.2218 84.4923 94.6552 82.8082 95.63C79.2254 97.7041 71.5629 95.0083 63.2991 87.8969C62.3221 87.0546 61.3688 86.1852 60.4402 85.2899C63.6442 81.7862 66.8459 77.7131 69.9707 73.1892C75.4672 72.7016 80.66 71.9039 85.369 70.8154C85.6009 71.7512 85.8069 72.6687 85.9846 73.5658ZM38.7615 95.2716C35.2609 96.5076 32.4727 96.5432 30.7873 95.5714C27.2009 93.5031 25.71 85.5182 27.7437 74.8076C27.9854 73.542 28.2622 72.2833 28.5737 71.033C33.2308 72.0634 38.3858 72.8042 43.8952 73.251C47.0414 77.6776 50.3355 81.7462 53.6553 85.309C52.9498 85.9917 52.2276 86.6569 51.4893 87.304C47.0778 91.1599 42.6574 93.8957 38.7615 95.2716ZM22.3617 64.2858C16.8177 62.3907 12.2392 59.9281 9.10103 57.2407C6.28083 54.826 4.85741 52.4281 4.85741 50.4828C4.85741 46.3427 11.0294 41.062 21.3238 37.4731C22.5732 37.0378 23.8807 36.627 25.2375 36.2415C26.6604 40.8693 28.5267 45.708 30.7788 50.601C28.4974 55.5663 26.6045 60.4823 25.1677 65.1648C24.2253 64.8948 23.2897 64.6018 22.3617 64.2858ZM27.8591 26.8638C25.7225 15.944 27.1414 7.70684 30.7127 5.63943C34.5161 3.43746 42.927 6.57698 51.7922 14.4487C52.3703 14.9631 52.939 15.488 53.4981 16.0231C50.1947 19.5703 46.9308 23.6088 43.8126 28.0092C38.4653 28.5048 33.3468 29.3007 28.6408 30.367C28.3509 29.2062 28.0902 28.0382 27.8591 26.8642V26.8638ZM76.9026 38.9742C75.7911 37.0542 74.6383 35.1584 73.4451 33.2881C77.0727 33.7468 80.5485 34.3557 83.8124 35.1001C82.8326 38.2409 81.6113 41.5244 80.1736 44.8909C79.1228 42.8971 78.0323 40.9244 76.9026 38.9742ZM56.9028 19.4944C59.1429 21.9215 61.3867 24.6312 63.5935 27.5713C59.1167 27.3598 54.6325 27.3589 50.1556 27.5686C52.3647 24.6556 54.6275 21.9495 56.9028 19.4944ZM36.7745 39.0075C35.659 40.9421 34.5888 42.9024 33.5648 44.8869C32.1507 41.5324 30.9405 38.2338 29.9523 35.0486C33.1962 34.3229 36.6555 33.7295 40.26 33.2792C39.0535 35.1609 37.8914 37.0708 36.7745 39.0071V39.0075ZM40.3635 68.032C36.6395 67.6163 33.1283 67.0536 29.8852 66.3475C30.889 63.1054 32.1259 59.7367 33.5706 56.3102C34.5987 58.2962 35.6733 60.2577 36.7936 62.1931C37.9457 64.1828 39.1386 66.1316 40.3635 68.032ZM57.0369 81.8133C54.7345 79.3297 52.4384 76.5819 50.196 73.6267C52.3731 73.712 54.5924 73.7555 56.8481 73.7555C59.1656 73.7555 61.4564 73.7035 63.7112 73.6032C61.4972 76.6117 59.262 79.3635 57.0369 81.8133ZM80.2194 56.1352C81.7392 59.5994 83.02 62.9503 84.0371 66.137C80.7408 66.8893 77.1816 67.4951 73.4314 67.945C74.6331 66.0399 75.7968 64.1112 76.9217 62.1598C78.0655 60.1763 79.165 58.1676 80.2194 56.1352ZM72.7145 59.7331C70.9923 62.7249 69.1732 65.6599 67.2602 68.5335C63.795 68.7789 60.3221 68.9008 56.8481 68.899C53.3098 68.899 49.8683 68.7888 46.5542 68.5739C44.5912 65.707 42.7375 62.7668 40.9968 59.7598H40.9973C39.2648 56.7686 37.6466 53.7127 36.1461 50.5988C37.6428 47.4841 39.2561 44.4268 40.9826 41.4333L40.9822 41.4338C42.708 38.4396 44.547 35.512 46.4951 32.6574C49.8762 32.4016 53.3435 32.2683 56.8477 32.2683H56.8481C60.3683 32.2683 63.84 32.4029 67.2203 32.6605C69.1487 35.5108 70.9759 38.4283 72.6985 41.4076C74.4308 44.3944 76.0655 47.4368 77.5999 50.5299C76.0812 53.6547 74.4517 56.7243 72.7145 59.7331ZM82.734 5.49465C86.5411 7.69041 88.0218 16.5449 85.6297 28.1566C85.4769 28.8974 85.3055 29.652 85.119 30.4172C80.4015 29.3282 75.2794 28.5186 69.9165 28.0154C66.7926 23.5666 63.5553 19.5219 60.3057 16.0204C61.1573 15.1995 62.0293 14.3998 62.9207 13.6222C71.3147 6.31762 79.1597 3.43346 82.734 5.49465ZM56.8481 40.3301C62.4552 40.3301 67.0009 44.8757 67.0009 50.4828C67.0009 56.0899 62.4552 60.6356 56.8481 60.6356C51.241 60.6356 46.6954 56.0899 46.6954 50.4828C46.6954 44.8757 51.241 40.3301 56.8481 40.3301Z" fill="#00D8FF"/>
</g>
<defs>
<clipPath id="clip0">
<rect width="113.696" height="101.261" fill="white"/>
</clipPath>
</defs>
</svg>
