<svg width="137" height="49" viewBox="0 0 137 49" fill="none" xmlns="http://www.w3.org/2000/svg">
<path d="M29.736 35.724C29.736 38.54 29.032 40.916 27.624 42.852C26.216 44.788 24.28 46.24 21.816 47.208C19.352 48.176 16.558 48.66 13.434 48.66C10.574 48.66 8.088 48.462 5.976 48.066C3.864 47.67 2.06 47.164 0.564 46.548V42.786C2.192 43.446 4.128 44.018 6.372 44.502C8.616 44.986 11.036 45.228 13.632 45.228C17.24 45.228 20.166 44.458 22.41 42.918C24.698 41.378 25.842 39.068 25.842 35.988C25.842 34.14 25.402 32.622 24.522 31.434C23.686 30.202 22.366 29.146 20.562 28.266C18.802 27.342 16.536 26.418 13.764 25.494C11.124 24.614 8.858 23.624 6.966 22.524C5.074 21.424 3.622 20.06 2.61 18.432C1.598 16.76 1.092 14.67 1.092 12.162C1.092 9.61 1.73 7.454 3.006 5.694C4.326 3.89 6.108 2.526 8.352 1.602C10.64 0.677998 13.236 0.215998 16.14 0.215998C18.428 0.215998 20.606 0.435997 22.674 0.875997C24.742 1.316 26.7 1.932 28.548 2.724L27.294 6.024C23.51 4.44 19.748 3.648 16.008 3.648C12.752 3.648 10.09 4.374 8.022 5.826C5.998 7.234 4.986 9.324 4.986 12.096C4.986 14.12 5.426 15.748 6.306 16.98C7.186 18.168 8.462 19.18 10.134 20.016C11.806 20.852 13.852 21.688 16.272 22.524C19.044 23.492 21.42 24.504 23.4 25.56C25.424 26.616 26.986 27.958 28.086 29.586C29.186 31.17 29.736 33.216 29.736 35.724ZM51.2453 12.294C55.2053 12.294 58.1533 13.262 60.0893 15.198C62.0253 17.134 62.9933 20.192 62.9933 24.372V48H60.1553L59.4953 42.06H59.2973C58.0213 44.04 56.4593 45.646 54.6113 46.878C52.8073 48.066 50.2773 48.66 47.0213 48.66C43.6333 48.66 40.9713 47.824 39.0353 46.152C37.0993 44.436 36.1313 41.994 36.1313 38.826C36.1313 35.306 37.5613 32.644 40.4213 30.84C43.2813 28.992 47.4393 27.958 52.8953 27.738L59.2973 27.408V24.966C59.2973 21.534 58.5933 19.092 57.1853 17.64C55.8213 16.188 53.7973 15.462 51.1133 15.462C49.3093 15.462 47.5713 15.704 45.8993 16.188C44.2273 16.672 42.5553 17.31 40.8833 18.102L39.6953 15.066C41.3673 14.274 43.1713 13.614 45.1073 13.086C47.0873 12.558 49.1333 12.294 51.2453 12.294ZM53.3573 30.51C48.8693 30.73 45.5253 31.522 43.3253 32.886C41.1693 34.206 40.0913 36.186 40.0913 38.826C40.0913 41.026 40.7513 42.698 42.0713 43.842C43.4353 44.942 45.3053 45.492 47.6813 45.492C51.3333 45.492 54.1713 44.458 56.1953 42.39C58.2193 40.278 59.2533 37.374 59.2973 33.678V30.246L53.3573 30.51ZM86.6301 12.294C90.5901 12.294 93.5381 13.262 95.4741 15.198C97.4101 17.134 98.3781 20.192 98.3781 24.372V48H95.5401L94.8801 42.06H94.6821C93.4061 44.04 91.8441 45.646 89.9961 46.878C88.1921 48.066 85.6621 48.66 82.4061 48.66C79.0181 48.66 76.3561 47.824 74.4201 46.152C72.4841 44.436 71.5161 41.994 71.5161 38.826C71.5161 35.306 72.9461 32.644 75.8061 30.84C78.6661 28.992 82.8241 27.958 88.2801 27.738L94.6821 27.408V24.966C94.6821 21.534 93.9781 19.092 92.5701 17.64C91.2061 16.188 89.1821 15.462 86.4981 15.462C84.6941 15.462 82.9561 15.704 81.2841 16.188C79.6121 16.672 77.9401 17.31 76.2681 18.102L75.0801 15.066C76.7521 14.274 78.5561 13.614 80.4921 13.086C82.4721 12.558 84.5181 12.294 86.6301 12.294ZM88.7421 30.51C84.2541 30.73 80.9101 31.522 78.7101 32.886C76.5541 34.206 75.4761 36.186 75.4761 38.826C75.4761 41.026 76.1361 42.698 77.4561 43.842C78.8201 44.942 80.6901 45.492 83.0661 45.492C86.7181 45.492 89.5561 44.458 91.5801 42.39C93.6041 40.278 94.6381 37.374 94.6821 33.678V30.246L88.7421 30.51ZM136.535 35.724C136.535 38.54 135.831 40.916 134.423 42.852C133.015 44.788 131.079 46.24 128.615 47.208C126.151 48.176 123.357 48.66 120.233 48.66C117.373 48.66 114.887 48.462 112.775 48.066C110.663 47.67 108.859 47.164 107.363 46.548V42.786C108.991 43.446 110.927 44.018 113.171 44.502C115.415 44.986 117.835 45.228 120.431 45.228C124.039 45.228 126.965 44.458 129.209 42.918C131.497 41.378 132.641 39.068 132.641 35.988C132.641 34.14 132.201 32.622 131.321 31.434C130.485 30.202 129.165 29.146 127.361 28.266C125.601 27.342 123.335 26.418 120.563 25.494C117.923 24.614 115.657 23.624 113.765 22.524C111.873 21.424 110.421 20.06 109.409 18.432C108.397 16.76 107.891 14.67 107.891 12.162C107.891 9.61 108.529 7.454 109.805 5.694C111.125 3.89 112.907 2.526 115.151 1.602C117.439 0.677998 120.035 0.215998 122.939 0.215998C125.227 0.215998 127.405 0.435997 129.473 0.875997C131.541 1.316 133.499 1.932 135.347 2.724L134.093 6.024C130.309 4.44 126.547 3.648 122.807 3.648C119.551 3.648 116.889 4.374 114.821 5.826C112.797 7.234 111.785 9.324 111.785 12.096C111.785 14.12 112.225 15.748 113.105 16.98C113.985 18.168 115.261 19.18 116.933 20.016C118.605 20.852 120.651 21.688 123.071 22.524C125.843 23.492 128.219 24.504 130.199 25.56C132.223 26.616 133.785 27.958 134.885 29.586C135.985 31.17 136.535 33.216 136.535 35.724Z" fill="#3A7A44"/>
</svg>
