<svg width="106" height="86" viewBox="0 0 106 86" fill="none" xmlns="http://www.w3.org/2000/svg">
<path d="M32.4237 36.1247C31.9365 36.5213 31.8685 37.2351 32.2651 37.7222C34.4291 40.3621 36.0833 46.1065 37.0464 54.3207C37.1143 54.8985 37.6015 55.3177 38.168 55.3177C38.2133 55.3177 38.2587 55.3177 38.304 55.3064C38.9271 55.2384 39.369 54.6719 39.301 54.0488C38.27 45.2794 36.4912 39.2971 34.0212 36.2833C33.6247 35.7961 32.9109 35.7282 32.4237 36.1247Z" fill="#3A7A44"/>
<path d="M84.5189 11.8325V0.105957H24.6625V32.5664L0.846794 43.7491L5.70737 55.4644L6.84037 54.7619C9.75218 52.9491 15.1566 49.5841 17.2187 50.6718C17.9324 51.057 18.329 52.122 18.397 53.8442C18.4989 56.6314 17.4566 57.7304 15.8817 59.3959C13.7857 61.6166 10.9532 64.6303 10.0354 72.8899H6.91968V80.7189H24.6738V85.5909H84.5302V49.6974H105.411V11.8325H84.5189ZM103.145 14.0985V32.7817L93.4129 23.5591L77.6076 38.5373L61.6549 30.7763L51.5486 37.7442V14.0985H103.145ZM82.2529 83.3135H26.9285V80.7076H39.8447V72.8786H37.1141C37.0575 63.9505 36.2984 45.3353 31.1772 38.3787L32.6048 28.8389L26.9285 31.5014V2.37196H82.2529V11.8212H49.2826V49.6861H82.2529V83.3135ZM17.5246 60.9481C19.2014 59.1693 20.7876 57.4924 20.6516 53.7535C20.561 51.1703 19.7566 49.4595 18.2723 48.6664C15.5418 47.2161 11.3157 49.3575 6.77239 52.1333L3.75861 44.8821L29.727 32.6911L28.7753 39.0245L29.0925 39.4097C34.1457 45.5733 34.7802 65.3328 34.8255 72.8786H15.859C16.5162 67.2136 18.0797 64.551 19.394 62.8515C19.7792 62.353 19.6886 61.6505 19.1901 61.2653C18.6916 60.8801 17.9891 60.9707 17.6039 61.4693C16.0857 63.4294 14.2842 66.4885 13.5817 72.8899H12.3128C13.1625 65.5707 15.5645 63.0102 17.5246 60.9481ZM9.18568 78.4416V75.1446H37.5787V78.4416H9.18568ZM103.145 47.4314H51.5486V40.4974L61.8475 33.3935L78.0268 41.2565L93.4129 26.6635L103.145 35.8974V47.4314Z" fill="#3A7A44"/>
<path d="M71.6023 16.8296C68.3619 16.8296 65.7334 19.4582 65.7334 22.6985C65.7334 25.9389 68.3619 28.5675 71.6023 28.5675C74.8427 28.5675 77.4712 25.9389 77.4712 22.6985C77.4712 19.4582 74.8314 16.8296 71.6023 16.8296ZM71.6023 26.3128C69.6195 26.3128 67.9994 24.6926 67.9994 22.7099C67.9994 20.7271 69.6195 19.1069 71.6023 19.1069C73.5851 19.1069 75.2052 20.7271 75.2052 22.7099C75.2052 24.6926 73.5851 26.3128 71.6023 26.3128Z" fill="#3A7A44"/>
<path d="M68.9512 71.7119H50.4153C49.7922 71.7119 49.2823 72.2218 49.2823 72.8449C49.2823 73.4681 49.7922 73.9779 50.4153 73.9779H68.9399C69.563 73.9779 70.0729 73.4681 70.0729 72.8449C70.0729 72.2218 69.5744 71.7119 68.9512 71.7119Z" fill="#3A7A44"/>
<path d="M73.6985 64.2344H50.4153C49.7922 64.2344 49.2823 64.7442 49.2823 65.3674C49.2823 65.9905 49.7922 66.5004 50.4153 66.5004H73.6871C74.3103 66.5004 74.8201 65.9905 74.8201 65.3674C74.8201 64.7442 74.3216 64.2344 73.6985 64.2344Z" fill="#3A7A44"/>
<path d="M50.4153 59.0219H73.6871C74.3103 59.0219 74.8201 58.512 74.8201 57.8889C74.8201 57.2657 74.3103 56.7559 73.6871 56.7559H50.4153C49.7922 56.7559 49.2823 57.2657 49.2823 57.8889C49.2823 58.512 49.7922 59.0219 50.4153 59.0219Z" fill="#3A7A44"/>
</svg>
