<svg width="502" height="575" viewBox="0 0 502 575" fill="none" xmlns="http://www.w3.org/2000/svg">
<path fill-rule="evenodd" clip-rule="evenodd" d="M260.637 8.57196L246.439 0.512451L0.549805 144.769V427.535L233.938 564.708L249.84 574.099L265.985 565.012L266.029 564.986L487.273 439.638L487.291 439.628L487.326 439.608L487.337 439.602L501.859 431.493V143.697L485.698 134.706L485.686 134.7L485.665 134.688L260.694 8.60369L260.682 8.59683L260.651 8.57945L260.637 8.57196ZM444.784 398.018L278.664 492.141V304.831L444.784 209.897V398.018ZM246.858 66.3737L415.234 160.724L250.07 255.093L85.8411 160.848L246.858 66.3737ZM57.5766 394.811V210.656L221.638 304.801V491.232L57.5766 394.811Z" fill="rgba(165, 199, 125, 0.4)"/>
</svg>
