<svg width="189" height="189" viewBox="0 0 189 189" fill="none" xmlns="http://www.w3.org/2000/svg">
<g filter="url(#filter0_d)">
<rect x="21.3694" y="22.1191" width="119.087" height="119.087" rx="59.5436" fill="white"/>
<path d="M69.3376 46.749H69.3359C63.6637 46.749 59.1969 50.043 57.08 55.7851C52.2618 68.8627 69.7555 80.3245 77.2249 85.2175C78.4278 86.005 79.7905 86.8982 80.0585 87.1771L81.1024 88.3708L82.2653 87.2953C82.4584 87.1255 83.3516 86.5536 84.2149 86.0008C91.378 81.4158 110.402 69.2348 105.36 55.7685C103.224 50.0604 98.75 46.7865 93.0886 46.7865C88.3071 46.7865 83.5772 49.0865 81.174 52.2423C78.6917 49.0382 74.0217 46.749 69.3376 46.749Z" fill="#E87B89"/>
<path d="M61.2741 98.0032L59.0227 106.692H57.3067L55.9316 101.703C55.8829 101.541 55.8301 101.334 55.7733 101.082C55.7166 100.823 55.6638 100.571 55.6151 100.328C55.5665 100.084 55.534 99.9057 55.5178 99.7922C55.5016 99.9057 55.4691 100.084 55.4204 100.328C55.3799 100.563 55.3271 100.81 55.2622 101.07C55.2054 101.33 55.1527 101.549 55.104 101.727L53.7653 106.692H52.0373L49.798 98.0032H51.3557L52.5484 102.956C52.6052 103.167 52.6579 103.407 52.7066 103.674C52.7634 103.942 52.8161 104.21 52.8648 104.477C52.9135 104.737 52.95 104.964 52.9743 105.159C52.9987 104.956 53.0352 104.721 53.0838 104.453C53.1325 104.185 53.1853 103.926 53.2421 103.674C53.2988 103.415 53.3516 103.196 53.4003 103.017L54.7633 98.0032H56.2723L57.6597 103.029C57.7164 103.208 57.7732 103.431 57.83 103.699C57.8868 103.958 57.9396 104.218 57.9882 104.477C58.0369 104.737 58.0734 104.964 58.0978 105.159C58.1221 104.956 58.1546 104.725 58.1951 104.465C58.2438 104.206 58.2965 103.942 58.3533 103.674C58.4101 103.407 58.4669 103.167 58.5237 102.956L59.7163 98.0032H61.2741ZM64.4941 99.9747C65.3784 99.9747 66.0761 100.238 66.5873 100.766C67.1065 101.293 67.3661 102.027 67.3661 102.968V103.747H63.0094C63.0256 104.348 63.1919 104.814 63.5083 105.147C63.8247 105.471 64.2629 105.634 64.8227 105.634C65.2445 105.634 65.6259 105.593 65.9666 105.512C66.3074 105.423 66.6562 105.297 67.0132 105.135V106.364C66.6887 106.518 66.352 106.632 66.0031 106.705C65.6543 106.778 65.2364 106.814 64.7496 106.814C64.1087 106.814 63.5367 106.692 63.0337 106.449C62.5388 106.197 62.1494 105.82 61.8654 105.317C61.5896 104.814 61.4517 104.189 61.4517 103.443C61.4517 102.315 61.7316 101.455 62.2914 100.863C62.8512 100.271 63.5854 99.9747 64.4941 99.9747ZM64.4941 101.106C64.0803 101.106 63.7436 101.24 63.484 101.508C63.2325 101.768 63.0865 102.157 63.0459 102.676H65.8814C65.8733 102.222 65.7557 101.849 65.5285 101.557C65.3094 101.257 64.9646 101.106 64.4941 101.106ZM73.1202 106.692H71.5868V97.4434H73.1202V106.692ZM77.4661 99.9747C78.318 99.9747 78.963 100.161 79.4011 100.535C79.8473 100.908 80.0704 101.484 80.0704 102.263V106.692H78.9873L78.6831 105.78H78.6344C78.3505 106.137 78.0503 106.4 77.7339 106.571C77.4174 106.733 76.9874 106.814 76.4439 106.814C75.8516 106.814 75.3608 106.648 74.9713 106.315C74.5819 105.982 74.3872 105.467 74.3872 104.77C74.3872 104.088 74.6346 103.577 75.1295 103.236C75.6326 102.895 76.3911 102.705 77.4053 102.664L78.5492 102.628V102.299C78.5492 101.885 78.4478 101.589 78.245 101.411C78.0422 101.224 77.7582 101.131 77.3931 101.131C77.0605 101.131 76.74 101.18 76.4317 101.277C76.1315 101.374 75.8313 101.488 75.5311 101.618L75.0444 100.547C75.3689 100.376 75.738 100.238 76.1518 100.133C76.5737 100.027 77.0118 99.9747 77.4661 99.9747ZM77.746 103.601C77.0726 103.626 76.6061 103.743 76.3465 103.954C76.0869 104.157 75.9571 104.433 75.9571 104.782C75.9571 105.098 76.0463 105.325 76.2248 105.463C76.4114 105.593 76.6548 105.658 76.955 105.658C77.4012 105.658 77.7785 105.532 78.0868 105.281C78.3951 105.021 78.5492 104.64 78.5492 104.137V103.577L77.746 103.601ZM87.6022 100.096V106.692H86.3974L86.1905 105.841H86.1174C85.8984 106.181 85.6023 106.429 85.2291 106.583C84.864 106.737 84.4745 106.814 84.0608 106.814C83.3225 106.814 82.7424 106.623 82.3205 106.242C81.9067 105.861 81.6998 105.248 81.6998 104.404V100.096H83.2332V104.1C83.2332 105.082 83.6389 105.573 84.4502 105.573C85.0668 105.573 85.4887 105.382 85.7158 105.001C85.9511 104.611 86.0688 104.052 86.0688 103.321V100.096H87.6022ZM92.8424 99.9747C93.5807 99.9747 94.1568 100.165 94.5705 100.547C94.9924 100.928 95.2034 101.545 95.2034 102.396V106.692H93.67V102.701C93.67 101.711 93.2643 101.216 92.453 101.216C91.8364 101.216 91.4145 101.411 91.1874 101.8C90.9602 102.19 90.8466 102.745 90.8466 103.467V106.692H89.3132V100.096H90.4937L90.7127 100.96H90.7979C91.0089 100.62 91.2969 100.372 91.662 100.218C92.0352 100.056 92.4287 99.9747 92.8424 99.9747ZM99.5431 106.814C98.5939 106.814 97.8475 106.542 97.3039 105.999C96.7603 105.455 96.4885 104.599 96.4885 103.431C96.4885 102.62 96.6224 101.962 96.8901 101.459C97.166 100.948 97.5432 100.575 98.0219 100.34C98.5006 100.096 99.0482 99.9747 99.6648 99.9747C100.079 99.9747 100.448 100.015 100.772 100.096C101.097 100.178 101.373 100.275 101.6 100.388L101.149 101.593C100.898 101.496 100.646 101.415 100.395 101.35C100.143 101.277 99.9001 101.24 99.6648 101.24C98.5939 101.24 98.0584 101.966 98.0584 103.419C98.0584 104.125 98.1923 104.656 98.46 105.013C98.7358 105.37 99.1293 105.548 99.6405 105.548C100.006 105.548 100.33 105.504 100.614 105.415C100.898 105.325 101.17 105.204 101.429 105.049V106.376C101.178 106.522 100.906 106.632 100.614 106.705C100.33 106.778 99.9731 106.814 99.5431 106.814ZM104.265 99.6461C104.265 99.9057 104.252 100.161 104.228 100.413C104.212 100.656 104.196 100.839 104.179 100.96H104.277C104.488 100.628 104.764 100.38 105.104 100.218C105.445 100.056 105.822 99.9747 106.236 99.9747C106.983 99.9747 107.567 100.165 107.989 100.547C108.41 100.928 108.621 101.545 108.621 102.396V106.692H107.088V102.701C107.088 101.711 106.682 101.216 105.871 101.216C105.254 101.216 104.833 101.411 104.605 101.8C104.378 102.19 104.265 102.745 104.265 103.467V106.692H102.731V97.4434H104.265V99.6461ZM65.8279 112.882C66.5094 112.882 67.0652 113.048 67.4952 113.38C67.9252 113.705 68.1402 114.163 68.1402 114.756C68.1402 115.299 67.9739 115.758 67.6412 116.131C67.3086 116.504 66.8948 116.833 66.3999 117.117L68.3349 118.991C68.5134 118.731 68.6635 118.443 68.7852 118.127C68.915 117.81 69.0245 117.486 69.1138 117.153H70.6958C70.5741 117.632 70.3997 118.119 70.1725 118.613C69.9535 119.1 69.6736 119.546 69.3328 119.952L71.1096 121.692H69.1746L68.3471 120.889C67.982 121.173 67.5763 121.4 67.1301 121.571C66.692 121.733 66.189 121.814 65.6211 121.814C64.688 121.814 63.9538 121.595 63.4183 121.157C62.891 120.719 62.6273 120.127 62.6273 119.38C62.6273 118.764 62.7774 118.269 63.0776 117.895C63.3778 117.522 63.7956 117.186 64.3311 116.885C64.0309 116.545 63.7997 116.216 63.6374 115.9C63.4751 115.583 63.394 115.23 63.394 114.841C63.394 114.232 63.6171 113.754 64.0633 113.405C64.5096 113.056 65.0978 112.882 65.8279 112.882ZM65.8036 114.074C65.5521 114.074 65.329 114.143 65.1343 114.281C64.9396 114.411 64.8422 114.622 64.8422 114.914C64.8422 115.149 64.899 115.372 65.0126 115.583C65.1343 115.794 65.3046 116.017 65.5237 116.253C65.9212 116.033 66.2133 115.818 66.3999 115.608C66.5946 115.397 66.692 115.153 66.692 114.877C66.692 114.618 66.6027 114.419 66.4243 114.281C66.2458 114.143 66.0389 114.074 65.8036 114.074ZM65.2316 117.81C64.9233 118.013 64.6799 118.224 64.5014 118.443C64.323 118.662 64.2337 118.934 64.2337 119.258C64.2337 119.64 64.3716 119.944 64.6475 120.171C64.9233 120.398 65.2763 120.512 65.7062 120.512C66.0713 120.512 66.3918 120.459 66.6677 120.354C66.9516 120.248 67.1991 120.114 67.41 119.952L65.2316 117.81ZM78.6296 114.196C77.8345 114.196 77.2179 114.48 76.7798 115.048C76.3498 115.616 76.1348 116.386 76.1348 117.36C76.1348 118.342 76.3377 119.112 76.7433 119.672C77.149 120.224 77.7737 120.5 78.6174 120.5C78.9825 120.5 79.3395 120.463 79.6884 120.39C80.0372 120.309 80.4023 120.204 80.7836 120.074V121.4C80.4267 121.546 80.0656 121.652 79.7005 121.717C79.3436 121.782 78.9298 121.814 78.4592 121.814C77.5668 121.814 76.8285 121.632 76.2444 121.266C75.6602 120.893 75.2262 120.374 74.9422 119.709C74.6582 119.035 74.5163 118.248 74.5163 117.348C74.5163 116.472 74.6745 115.701 74.9909 115.036C75.3073 114.362 75.7697 113.835 76.3782 113.453C76.9948 113.072 77.7453 112.882 78.6296 112.882C79.0677 112.882 79.4977 112.934 79.9196 113.04C80.3496 113.137 80.7512 113.275 81.1244 113.453L80.5889 114.731C80.2806 114.593 79.9602 114.472 79.6275 114.366C79.303 114.253 78.9704 114.196 78.6296 114.196ZM84.8942 114.975C85.746 114.975 86.391 115.161 86.8291 115.535C87.2754 115.908 87.4985 116.484 87.4985 117.263V121.692H86.4154L86.1111 120.78H86.0624C85.7785 121.137 85.4783 121.4 85.1619 121.571C84.8455 121.733 84.4155 121.814 83.8719 121.814C83.2796 121.814 82.7888 121.648 82.3994 121.315C82.0099 120.982 81.8152 120.467 81.8152 119.77C81.8152 119.088 82.0627 118.577 82.5576 118.236C83.0606 117.895 83.8192 117.705 84.8333 117.664L85.9773 117.628V117.299C85.9773 116.885 85.8758 116.589 85.673 116.411C85.4702 116.224 85.1862 116.131 84.8211 116.131C84.4885 116.131 84.168 116.18 83.8597 116.277C83.5595 116.374 83.2594 116.488 82.9592 116.618L82.4724 115.547C82.7969 115.376 83.1661 115.238 83.5798 115.133C84.0017 115.027 84.4398 114.975 84.8942 114.975ZM85.1741 118.601C84.5007 118.626 84.0342 118.743 83.7745 118.954C83.5149 119.157 83.3851 119.433 83.3851 119.782C83.3851 120.098 83.4744 120.325 83.6528 120.463C83.8394 120.593 84.0828 120.658 84.383 120.658C84.8293 120.658 85.2065 120.532 85.5148 120.281C85.8231 120.021 85.9773 119.64 85.9773 119.137V118.577L85.1741 118.601ZM92.6328 114.975C92.7382 114.975 92.8518 114.979 92.9735 114.987C93.1033 114.995 93.2128 115.011 93.3021 115.036L93.1682 116.459C93.0871 116.443 92.9897 116.431 92.8761 116.423C92.7626 116.407 92.6611 116.399 92.5719 116.399C92.2474 116.399 91.9431 116.468 91.6592 116.605C91.3752 116.735 91.144 116.942 90.9655 117.226C90.7951 117.502 90.7099 117.851 90.7099 118.273V121.692H89.1766V115.096H90.357L90.5761 116.24H90.6491C90.8438 115.891 91.1115 115.595 91.4523 115.352C91.793 115.1 92.1865 114.975 92.6328 114.975ZM96.6965 114.975C97.5808 114.975 98.2785 115.238 98.7897 115.766C99.3089 116.293 99.5685 117.027 99.5685 117.968V118.747H95.2118C95.228 119.348 95.3943 119.814 95.7107 120.147C96.0271 120.471 96.4653 120.634 97.0251 120.634C97.4469 120.634 97.8283 120.593 98.169 120.512C98.5098 120.423 98.8586 120.297 99.2156 120.135V121.364C98.8911 121.518 98.5544 121.632 98.2055 121.705C97.8567 121.778 97.4388 121.814 96.952 121.814C96.3111 121.814 95.7391 121.692 95.2361 121.449C94.7412 121.197 94.3518 120.82 94.0678 120.317C93.792 119.814 93.6541 119.189 93.6541 118.443C93.6541 117.315 93.934 116.455 94.4938 115.863C95.0536 115.271 95.7878 114.975 96.6965 114.975ZM96.6965 116.106C96.2827 116.106 95.946 116.24 95.6864 116.508C95.4349 116.768 95.2889 117.157 95.2483 117.676H98.0838C98.0757 117.222 97.9581 116.849 97.7309 116.557C97.5118 116.257 97.167 116.106 96.6965 116.106Z" fill="#E87B89"/>
</g>
<defs>
<filter id="filter0_d" x="0.0591068" y="0.808802" width="188.032" height="188.032" filterUnits="userSpaceOnUse" color-interpolation-filters="sRGB">
<feFlood flood-opacity="0" result="BackgroundImageFix"/>
<feColorMatrix in="SourceAlpha" type="matrix" values="0 0 0 0 0 0 0 0 0 0 0 0 0 0 0 0 0 0 127 0"/>
<feOffset dx="13.1623" dy="13.1623"/>
<feGaussianBlur stdDeviation="17.2363"/>
<feColorMatrix type="matrix" values="0 0 0 0 0 0 0 0 0 0 0 0 0 0 0 0 0 0 0.129 0"/>
<feBlend mode="normal" in2="BackgroundImageFix" result="effect1_dropShadow"/>
<feBlend mode="normal" in="SourceGraphic" in2="effect1_dropShadow" result="shape"/>
</filter>
</defs>
</svg>
