<svg width="189" height="189" viewBox="0 0 189 189" fill="none" xmlns="http://www.w3.org/2000/svg">
<g filter="url(#filter0_d)">
<rect x="21.8928" y="21.5781" width="119.087" height="119.087" rx="59.5436" fill="white"/>
<path d="M102.147 48.5498L100.843 47.2453C99.6568 46.0596 98.0479 45.3936 96.3704 45.3936C94.6929 45.3936 93.0841 46.0596 91.8975 47.2453L65.5513 73.593L60.3296 87.2465C59.7168 88.8625 60.5351 89.6764 62.146 89.0607L75.8017 83.8441L102.147 57.4957C104.619 55.0271 104.617 51.0221 102.147 48.5498ZM85.6002 55.4863L87.4341 57.3195L69.3259 75.4291L67.492 73.5944L85.6002 55.4863ZM88.4037 58.2898L91.1056 60.9924L72.9981 79.1013L70.2963 76.3994L88.4037 58.2898ZM66.7264 85.8447L63.5514 82.6668L66.6233 74.6664L74.7246 82.7662L66.7264 85.8447ZM75.8017 81.9056L73.9692 80.0709L92.0759 61.962L93.9098 63.7967L75.8017 81.9056ZM94.9665 62.7401L86.656 54.4311L88.7232 52.3632L97.0337 60.6721L94.9665 62.7401Z" fill="#262AA3"/>
<path d="M65.395 100.967L63.1436 109.656H61.4277L60.0525 104.667C60.0039 104.504 59.9511 104.298 59.8943 104.046C59.8375 103.786 59.7848 103.535 59.7361 103.291C59.6874 103.048 59.655 102.87 59.6388 102.756C59.6225 102.87 59.5901 103.048 59.5414 103.291C59.5008 103.527 59.4481 103.774 59.3832 104.034C59.3264 104.293 59.2737 104.513 59.225 104.691L57.8863 109.656H56.1582L53.919 100.967H55.4767L56.6694 105.92C56.7261 106.131 56.7789 106.37 56.8276 106.638C56.8844 106.906 56.9371 107.174 56.9858 107.441C57.0344 107.701 57.071 107.928 57.0953 108.123C57.1196 107.92 57.1561 107.685 57.2048 107.417C57.2535 107.149 57.3062 106.89 57.363 106.638C57.4198 106.379 57.4726 106.159 57.5212 105.981L58.8842 100.967H60.3933L61.7806 105.993C61.8374 106.172 61.8942 106.395 61.951 106.663C62.0078 106.922 62.0605 107.182 62.1092 107.441C62.1579 107.701 62.1944 107.928 62.2187 108.123C62.2431 107.92 62.2755 107.689 62.3161 107.429C62.3648 107.17 62.4175 106.906 62.4743 106.638C62.5311 106.37 62.5879 106.131 62.6447 105.92L63.8373 100.967H65.395ZM68.6151 102.939C69.4994 102.939 70.1971 103.202 70.7082 103.73C71.2275 104.257 71.4871 104.991 71.4871 105.932V106.711H67.1304C67.1466 107.312 67.3129 107.778 67.6293 108.111C67.9457 108.435 68.3838 108.597 68.9436 108.597C69.3655 108.597 69.7468 108.557 70.0876 108.476C70.4283 108.387 70.7772 108.261 71.1342 108.099V109.328C70.8097 109.482 70.473 109.595 70.1241 109.668C69.7752 109.741 69.3574 109.778 68.8706 109.778C68.2297 109.778 67.6577 109.656 67.1547 109.413C66.6598 109.161 66.2704 108.784 65.9864 108.281C65.7106 107.778 65.5726 107.153 65.5726 106.407C65.5726 105.279 65.8525 104.419 66.4123 103.827C66.9721 103.235 67.7064 102.939 68.6151 102.939ZM68.6151 104.07C68.2013 104.07 67.8646 104.204 67.605 104.472C67.3535 104.732 67.2074 105.121 67.1669 105.64H70.0024C69.9943 105.186 69.8766 104.813 69.6495 104.521C69.4304 104.22 69.0856 104.07 68.6151 104.07ZM77.8862 109.778C77.1154 109.778 76.4948 109.49 76.0242 108.914C75.5537 108.338 75.3184 107.49 75.3184 106.37C75.3184 105.235 75.5577 104.379 76.0364 103.803C76.5151 103.227 77.1438 102.939 77.9227 102.939C78.4095 102.939 78.807 103.032 79.1153 103.218C79.4317 103.405 79.6832 103.632 79.8698 103.9H79.9429C79.9185 103.786 79.8942 103.612 79.8698 103.377C79.8455 103.141 79.8333 102.922 79.8333 102.72V100.407H81.3667V109.656H80.1741L79.8942 108.792H79.8333C79.6467 109.068 79.3993 109.303 79.091 109.498C78.7827 109.685 78.3811 109.778 77.8862 109.778ZM78.3486 108.537C78.9165 108.537 79.3141 108.374 79.5413 108.05C79.7765 107.725 79.8982 107.234 79.9063 106.577V106.383C79.9063 105.677 79.7928 105.137 79.5656 104.764C79.3465 104.383 78.9328 104.192 78.3243 104.192C77.8537 104.192 77.4927 104.387 77.2412 104.776C76.9978 105.158 76.8761 105.697 76.8761 106.395C76.8761 107.093 77.0018 107.624 77.2534 107.989C77.5049 108.354 77.87 108.537 78.3486 108.537ZM85.7353 102.939C86.6197 102.939 87.3174 103.202 87.8285 103.73C88.3478 104.257 88.6074 104.991 88.6074 105.932V106.711H84.2506C84.2669 107.312 84.4332 107.778 84.7496 108.111C85.066 108.435 85.5041 108.597 86.0639 108.597C86.4858 108.597 86.8671 108.557 87.2079 108.476C87.5486 108.387 87.8975 108.261 88.2545 108.099V109.328C87.93 109.482 87.5933 109.595 87.2444 109.668C86.8955 109.741 86.4777 109.778 85.9909 109.778C85.35 109.778 84.778 109.656 84.275 109.413C83.7801 109.161 83.3907 108.784 83.1067 108.281C82.8308 107.778 82.6929 107.153 82.6929 106.407C82.6929 105.279 82.9728 104.419 83.5326 103.827C84.0924 103.235 84.8267 102.939 85.7353 102.939ZM85.7353 104.07C85.3216 104.07 84.9849 104.204 84.7253 104.472C84.4738 104.732 84.3277 105.121 84.2872 105.64H87.1227C87.1146 105.186 86.9969 104.813 86.7698 104.521C86.5507 104.22 86.2059 104.07 85.7353 104.07ZM94.4008 107.746C94.4008 108.411 94.1615 108.918 93.6828 109.267C93.2123 109.608 92.5348 109.778 91.6505 109.778C91.188 109.778 90.7905 109.745 90.4579 109.681C90.1333 109.616 89.8169 109.514 89.5086 109.376V108.074C89.8331 108.228 90.1901 108.358 90.5796 108.464C90.9771 108.569 91.3503 108.622 91.6992 108.622C92.1211 108.622 92.4253 108.557 92.6119 108.427C92.7985 108.297 92.8918 108.123 92.8918 107.904C92.8918 107.774 92.8553 107.66 92.7823 107.563C92.7093 107.458 92.5632 107.344 92.3442 107.222C92.1332 107.101 91.8168 106.951 91.3949 106.772C90.973 106.61 90.6201 106.443 90.3362 106.273C90.0603 106.095 89.8494 105.888 89.7033 105.652C89.5654 105.417 89.4965 105.113 89.4965 104.74C89.4965 104.147 89.7277 103.701 90.1901 103.401C90.6607 103.093 91.2854 102.939 92.0643 102.939C92.4699 102.939 92.8512 102.979 93.2082 103.06C93.5733 103.141 93.9384 103.263 94.3035 103.425L93.8167 104.557C93.5084 104.427 93.2082 104.318 92.9161 104.229C92.6241 104.139 92.3239 104.095 92.0156 104.095C91.3422 104.095 91.0055 104.285 91.0055 104.667C91.0055 104.805 91.0461 104.922 91.1272 105.02C91.2164 105.117 91.3665 105.222 91.5775 105.336C91.7965 105.441 92.1048 105.571 92.5024 105.725C92.8918 105.88 93.2285 106.042 93.5125 106.212C93.7964 106.374 94.0155 106.577 94.1696 106.821C94.3238 107.064 94.4008 107.372 94.4008 107.746ZM96.3995 100.517C96.6348 100.517 96.8336 100.578 96.9958 100.699C97.1662 100.813 97.2514 101.02 97.2514 101.32C97.2514 101.62 97.1662 101.831 96.9958 101.953C96.8336 102.075 96.6348 102.135 96.3995 102.135C96.1642 102.135 95.9614 102.075 95.791 101.953C95.6288 101.831 95.5476 101.62 95.5476 101.32C95.5476 101.02 95.6288 100.813 95.791 100.699C95.9614 100.578 96.1642 100.517 96.3995 100.517ZM97.1662 103.06V109.656H95.6328V103.06H97.1662ZM101.098 102.939C101.934 102.939 102.587 103.263 103.058 103.912H103.119L103.265 103.06H104.542V109.705C104.542 110.646 104.275 111.36 103.739 111.847C103.212 112.334 102.421 112.577 101.366 112.577C100.896 112.577 100.461 112.545 100.064 112.48C99.6664 112.423 99.2891 112.321 98.9322 112.175V110.91C99.6867 111.25 100.53 111.421 101.463 111.421C101.966 111.421 102.348 111.279 102.607 110.995C102.875 110.719 103.009 110.313 103.009 109.778V109.608C103.009 109.486 103.013 109.344 103.021 109.182C103.029 109.019 103.041 108.89 103.058 108.792H103.009C102.782 109.133 102.502 109.384 102.169 109.547C101.845 109.701 101.476 109.778 101.062 109.778C100.259 109.778 99.6299 109.478 99.1755 108.877C98.7212 108.277 98.494 107.441 98.494 106.37C98.494 105.299 98.7212 104.46 99.1755 103.851C99.638 103.243 100.279 102.939 101.098 102.939ZM101.5 104.192C100.543 104.192 100.064 104.926 100.064 106.395C100.064 107.839 100.551 108.561 101.524 108.561C102.06 108.561 102.453 108.415 102.705 108.123C102.964 107.823 103.094 107.32 103.094 106.614V106.383C103.094 105.604 102.964 105.044 102.705 104.703C102.453 104.362 102.052 104.192 101.5 104.192ZM109.787 102.939C110.526 102.939 111.102 103.129 111.515 103.511C111.937 103.892 112.148 104.508 112.148 105.36V109.656H110.615V105.665C110.615 104.675 110.209 104.18 109.398 104.18C108.781 104.18 108.359 104.375 108.132 104.764C107.905 105.153 107.791 105.709 107.791 106.431V109.656H106.258V103.06H107.438L107.658 103.924H107.743C107.954 103.584 108.242 103.336 108.607 103.182C108.98 103.02 109.373 102.939 109.787 102.939Z" fill="#262AA3"/>
</g>
<defs>
<filter id="filter0_d" x="0.582422" y="0.267786" width="188.032" height="188.032" filterUnits="userSpaceOnUse" color-interpolation-filters="sRGB">
<feFlood flood-opacity="0" result="BackgroundImageFix"/>
<feColorMatrix in="SourceAlpha" type="matrix" values="0 0 0 0 0 0 0 0 0 0 0 0 0 0 0 0 0 0 127 0"/>
<feOffset dx="13.1623" dy="13.1623"/>
<feGaussianBlur stdDeviation="17.2363"/>
<feColorMatrix type="matrix" values="0 0 0 0 0 0 0 0 0 0 0 0 0 0 0 0 0 0 0.129 0"/>
<feBlend mode="normal" in2="BackgroundImageFix" result="effect1_dropShadow"/>
<feBlend mode="normal" in="SourceGraphic" in2="effect1_dropShadow" result="shape"/>
</filter>
</defs>
</svg>
