<svg width="189" height="189" viewBox="0 0 189 189" fill="none" xmlns="http://www.w3.org/2000/svg">
<g filter="url(#filter0_d)">
<rect x="22.131" y="21.5781" width="119.087" height="119.087" rx="59.5436" fill="white"/>
<path d="M102.914 78.4981H102.667C103.293 78.4981 103.8 77.9803 103.8 77.3418V49.8398C103.8 49.2005 103.293 48.6836 102.667 48.6836H61.5627C60.9367 48.6836 60.4289 49.2005 60.4289 49.8398V77.3427C60.4289 77.9812 60.9367 78.4989 61.5627 78.4989H61.2922L57.13 82.5379C57.13 83.9239 58.2521 85.3107 59.6248 85.3107H104.582C105.877 85.3107 107.076 83.9272 107.076 82.5371L102.914 78.4981ZM82.1147 49.3287C82.2015 49.3256 82.2881 49.3399 82.3693 49.3709C82.4504 49.402 82.5245 49.449 82.5871 49.5093C82.6497 49.5696 82.6995 49.6419 82.7335 49.7218C82.7675 49.8018 82.7851 49.8878 82.7851 49.9747C82.7852 50.0616 82.7677 50.1476 82.7338 50.2276C82.6999 50.3076 82.6502 50.3799 82.5877 50.4403C82.5252 50.5007 82.4512 50.5478 82.3701 50.579C82.2889 50.6101 82.2024 50.6246 82.1155 50.6215C81.9481 50.6156 81.7895 50.545 81.6731 50.4245C81.5567 50.304 81.4916 50.143 81.4915 49.9755C81.4914 49.808 81.5563 49.647 81.6725 49.5263C81.7888 49.4057 81.9473 49.3348 82.1147 49.3287ZM61.6293 79.3305H102.576L105.022 81.7046H86.7164L86.3851 81.2651H77.8443L77.5122 81.7046H59.1828L61.6293 79.3305ZM85.6958 84.3435H78.5086C78.2622 84.3435 77.6062 84.3435 77.6062 83.5044H86.599C86.599 84.3435 85.9298 84.3435 85.6958 84.3435Z" fill="#07C1DE"/>
<path d="M61.8734 100.967L59.622 109.656H57.9061L56.5309 104.667C56.4822 104.504 56.4295 104.298 56.3727 104.046C56.3159 103.786 56.2632 103.535 56.2145 103.291C56.1658 103.048 56.1334 102.87 56.1172 102.756C56.1009 102.87 56.0685 103.048 56.0198 103.291C55.9792 103.527 55.9265 103.774 55.8616 104.034C55.8048 104.293 55.7521 104.513 55.7034 104.691L54.3647 109.656H52.6366L50.3974 100.967H51.9551L53.1477 105.92C53.2045 106.131 53.2573 106.37 53.306 106.638C53.3627 106.906 53.4155 107.174 53.4642 107.441C53.5128 107.701 53.5493 107.928 53.5737 108.123C53.598 107.92 53.6345 107.685 53.6832 107.417C53.7319 107.149 53.7846 106.89 53.8414 106.638C53.8982 106.379 53.9509 106.159 53.9996 105.981L55.3626 100.967H56.8717L58.259 105.993C58.3158 106.172 58.3726 106.395 58.4294 106.663C58.4862 106.922 58.5389 107.182 58.5876 107.441C58.6363 107.701 58.6728 107.928 58.6971 108.123C58.7215 107.92 58.7539 107.689 58.7945 107.429C58.8432 107.17 58.8959 106.906 58.9527 106.638C59.0095 106.37 59.0663 106.131 59.1231 105.92L60.3157 100.967H61.8734ZM65.0934 102.939C65.9778 102.939 66.6755 103.202 67.1866 103.73C67.7059 104.257 67.9655 104.991 67.9655 105.932V106.711H63.6087C63.625 107.312 63.7913 107.778 64.1077 108.111C64.4241 108.435 64.8622 108.597 65.422 108.597C65.8439 108.597 66.2252 108.557 66.566 108.476C66.9067 108.387 67.2556 108.261 67.6126 108.099V109.328C67.2881 109.482 66.9514 109.595 66.6025 109.668C66.2536 109.741 65.8358 109.778 65.349 109.778C64.7081 109.778 64.1361 109.656 63.6331 109.413C63.1382 109.161 62.7488 108.784 62.4648 108.281C62.1889 107.778 62.051 107.153 62.051 106.407C62.051 105.279 62.3309 104.419 62.8907 103.827C63.4505 103.235 64.1848 102.939 65.0934 102.939ZM65.0934 104.07C64.6797 104.07 64.343 104.204 64.0834 104.472C63.8319 104.732 63.6858 105.121 63.6453 105.64H66.4808C66.4727 105.186 66.355 104.813 66.1279 104.521C65.9088 104.22 65.564 104.07 65.0934 104.07ZM74.3646 109.778C73.5938 109.778 72.9732 109.49 72.5026 108.914C72.032 108.338 71.7968 107.49 71.7968 106.37C71.7968 105.235 72.0361 104.379 72.5148 103.803C72.9935 103.227 73.6222 102.939 74.4011 102.939C74.8879 102.939 75.2854 103.032 75.5937 103.218C75.9101 103.405 76.1616 103.632 76.3482 103.9H76.4213C76.3969 103.786 76.3726 103.612 76.3482 103.377C76.3239 103.141 76.3117 102.922 76.3117 102.72V100.407H77.8451V109.656H76.6525L76.3726 108.792H76.3117C76.1251 109.068 75.8777 109.303 75.5694 109.498C75.2611 109.685 74.8595 109.778 74.3646 109.778ZM74.827 108.537C75.3949 108.537 75.7925 108.374 76.0197 108.05C76.2549 107.725 76.3766 107.234 76.3847 106.577V106.383C76.3847 105.677 76.2712 105.137 76.044 104.764C75.8249 104.383 75.4112 104.192 74.8027 104.192C74.3321 104.192 73.9711 104.387 73.7196 104.776C73.4762 105.158 73.3545 105.697 73.3545 106.395C73.3545 107.093 73.4802 107.624 73.7317 107.989C73.9833 108.354 74.3483 108.537 74.827 108.537ZM82.2137 102.939C83.0981 102.939 83.7958 103.202 84.3069 103.73C84.8262 104.257 85.0858 104.991 85.0858 105.932V106.711H80.729C80.7453 107.312 80.9116 107.778 81.228 108.111C81.5444 108.435 81.9825 108.597 82.5423 108.597C82.9642 108.597 83.3455 108.557 83.6863 108.476C84.027 108.387 84.3759 108.261 84.7329 108.099V109.328C84.4083 109.482 84.0717 109.595 83.7228 109.668C83.3739 109.741 82.9561 109.778 82.4693 109.778C81.8284 109.778 81.2564 109.656 80.7534 109.413C80.2585 109.161 79.869 108.784 79.5851 108.281C79.3092 107.778 79.1713 107.153 79.1713 106.407C79.1713 105.279 79.4512 104.419 80.011 103.827C80.5708 103.235 81.3051 102.939 82.2137 102.939ZM82.2137 104.07C81.8 104.07 81.4633 104.204 81.2037 104.472C80.9522 104.732 80.8061 105.121 80.7655 105.64H83.6011C83.593 105.186 83.4753 104.813 83.2482 104.521C83.0291 104.22 82.6843 104.07 82.2137 104.07ZM87.6721 109.656L85.1652 103.06H86.7838L88.0981 106.869C88.1792 107.105 88.2522 107.364 88.3171 107.648C88.3902 107.932 88.4348 108.172 88.451 108.366H88.4997C88.524 108.163 88.5727 107.924 88.6457 107.648C88.7187 107.364 88.7958 107.105 88.8769 106.869L90.1913 103.06H91.8098L89.3029 109.656H87.6721ZM95.2039 102.939C96.0883 102.939 96.786 103.202 97.2971 103.73C97.8164 104.257 98.076 104.991 98.076 105.932V106.711H93.7192C93.7355 107.312 93.9018 107.778 94.2182 108.111C94.5346 108.435 94.9727 108.597 95.5325 108.597C95.9544 108.597 96.3357 108.557 96.6765 108.476C97.0172 108.387 97.3661 108.261 97.7231 108.099V109.328C97.3985 109.482 97.0619 109.595 96.713 109.668C96.3641 109.741 95.9463 109.778 95.4595 109.778C94.8186 109.778 94.2466 109.656 93.7436 109.413C93.2487 109.161 92.8592 108.784 92.5753 108.281C92.2994 107.778 92.1615 107.153 92.1615 106.407C92.1615 105.279 92.4414 104.419 93.0012 103.827C93.561 103.235 94.2953 102.939 95.2039 102.939ZM95.2039 104.07C94.7902 104.07 94.4535 104.204 94.1939 104.472C93.9424 104.732 93.7963 105.121 93.7558 105.64H96.5913C96.5832 105.186 96.4655 104.813 96.2384 104.521C96.0193 104.22 95.6745 104.07 95.2039 104.07ZM100.912 109.656H99.3788V100.407H100.912V109.656ZM108.52 106.346C108.52 107.441 108.236 108.289 107.668 108.89C107.1 109.482 106.329 109.778 105.355 109.778C104.755 109.778 104.22 109.644 103.749 109.376C103.279 109.109 102.909 108.719 102.642 108.208C102.374 107.697 102.24 107.076 102.24 106.346C102.24 105.251 102.52 104.411 103.08 103.827C103.648 103.235 104.418 102.939 105.392 102.939C106 102.939 106.54 103.072 107.011 103.34C107.481 103.6 107.85 103.985 108.118 104.496C108.386 104.999 108.52 105.616 108.52 106.346ZM103.81 106.346C103.81 107.044 103.932 107.583 104.175 107.965C104.427 108.346 104.828 108.537 105.38 108.537C105.932 108.537 106.329 108.346 106.572 107.965C106.824 107.583 106.95 107.044 106.95 106.346C106.95 105.648 106.824 105.113 106.572 104.74C106.329 104.366 105.927 104.18 105.368 104.18C104.824 104.18 104.427 104.366 104.175 104.74C103.932 105.113 103.81 105.648 103.81 106.346ZM113.33 102.939C114.101 102.939 114.721 103.227 115.192 103.803C115.662 104.371 115.898 105.218 115.898 106.346C115.898 107.474 115.654 108.33 115.167 108.914C114.689 109.49 114.064 109.778 113.293 109.778C112.806 109.778 112.413 109.689 112.113 109.51C111.813 109.332 111.573 109.125 111.395 108.89H111.297C111.322 109.044 111.342 109.214 111.358 109.401C111.383 109.579 111.395 109.745 111.395 109.9V112.577H109.861V103.06H111.103L111.322 103.936H111.395C111.573 103.661 111.817 103.425 112.125 103.231C112.433 103.036 112.835 102.939 113.33 102.939ZM112.892 104.18C112.348 104.18 111.963 104.342 111.736 104.667C111.516 104.991 111.403 105.482 111.395 106.139V106.334C111.395 107.04 111.5 107.583 111.711 107.965C111.93 108.338 112.332 108.524 112.916 108.524C113.395 108.524 113.748 108.33 113.975 107.94C114.21 107.543 114.328 107.003 114.328 106.322C114.328 105.64 114.21 105.113 113.975 104.74C113.748 104.366 113.387 104.18 112.892 104.18Z" fill="#07C1DE"/>
</g>
<defs>
<filter id="filter0_d" x="0.820704" y="0.267786" width="188.032" height="188.032" filterUnits="userSpaceOnUse" color-interpolation-filters="sRGB">
<feFlood flood-opacity="0" result="BackgroundImageFix"/>
<feColorMatrix in="SourceAlpha" type="matrix" values="0 0 0 0 0 0 0 0 0 0 0 0 0 0 0 0 0 0 127 0"/>
<feOffset dx="13.1623" dy="13.1623"/>
<feGaussianBlur stdDeviation="17.2363"/>
<feColorMatrix type="matrix" values="0 0 0 0 0 0 0 0 0 0 0 0 0 0 0 0 0 0 0.129 0"/>
<feBlend mode="normal" in2="BackgroundImageFix" result="effect1_dropShadow"/>
<feBlend mode="normal" in="SourceGraphic" in2="effect1_dropShadow" result="shape"/>
</filter>
</defs>
</svg>
