<svg width="300" height="300" viewBox="0 0 300 300" fill="none" xmlns="http://www.w3.org/2000/svg">
<g filter="url(#filter0_d)">
<rect x="34" y="34" width="190" height="190" rx="95" fill="white"/>
<path d="M159.332 98.532C156.335 83.4206 145.777 73.6562 132.435 73.6562H132.434C132.01 73.6562 131.581 73.6669 131.152 73.6855C119.511 74.2167 111.895 77.6977 107.189 84.6398C102.633 91.3548 100.823 101.178 101.318 116.491C101.411 119.411 100.832 123.088 100.219 126.978C98.9011 135.34 97.5358 143.986 102.135 149.261C104.498 151.97 108.1 153.344 112.844 153.344C113.937 153.344 115.115 153.272 116.347 153.129C122.684 152.39 125.09 149.092 127.419 145.904C129.982 142.392 132.889 138.412 142.291 134.668C157.705 128.526 161.931 111.633 159.332 98.532ZM141.118 131.827C122.121 139.393 126.76 148.831 115.982 150.085C114.851 150.216 113.805 150.278 112.845 150.278C94.9778 150.278 104.826 128.526 104.435 116.391C103.522 88.166 110.658 77.6898 131.298 76.7468C131.679 76.7295 132.058 76.7202 132.434 76.7202C159.466 76.7216 166.715 121.632 141.118 131.827Z" fill="#FFCC00"/>
<path d="M148.471 106.728C148.097 102.695 147.011 98.7608 145.265 95.1069C143.45 91.4586 140.928 87.9523 137.191 85.4793C135.34 84.2429 133.143 83.3264 130.784 83.005C128.432 82.6637 125.984 82.9413 123.782 83.6691C121.765 84.3464 119.758 85.2363 117.899 86.498C116.045 87.7531 114.359 89.4106 113.108 91.3895C111.894 93.387 111.137 95.6541 110.934 97.892C110.754 100.064 110.98 102.251 111.599 104.341C112.483 107.354 113.922 110.099 115.833 112.43C114.309 112.031 112.783 111.832 111.25 111.767L111.089 112.294C112.736 113.288 114.366 114.235 115.763 115.296C116.452 115.827 117.081 116.397 117.544 116.956C118.018 117.522 118.235 118.093 118.255 118.475C118.265 118.862 118.138 119.186 117.855 119.673C117.591 120.154 117.144 120.712 116.606 121.258C115.515 122.353 114.159 123.461 112.746 124.603C111.33 125.803 109.866 126.876 108.32 128.691C107.934 129.185 107.506 129.69 107.098 130.669C106.827 131.337 106.735 132.064 106.833 132.778C106.948 133.697 107.522 134.56 108.029 134.997C108.562 135.474 108.971 135.667 109.425 135.864C109.797 136.017 110.087 136.094 110.367 136.178C110.95 136.336 111.542 136.455 112.136 136.535C114.44 136.824 116.778 136.48 118.901 135.54C120.925 134.666 122.587 133.324 124.021 131.901C125.453 130.462 126.634 128.876 127.715 127.265C128.784 125.654 129.735 123.968 130.561 122.219C131.38 120.466 132.153 118.643 132.639 116.654C133.122 114.694 133.29 112.523 132.92 110.418C132.204 106.141 129.054 102.377 125.226 100.461C122.247 98.9332 118.822 98.4963 115.736 99.1032C116.09 97.3528 116.754 95.755 117.794 94.4309C119.625 91.9845 122.497 90.1822 125.757 88.7757C127.203 88.1356 128.724 87.7982 130.266 87.87C131.805 87.9483 133.359 88.4198 134.818 89.226C137.732 90.8702 140.155 93.6765 141.955 96.8029C143.785 99.936 145.052 103.456 145.691 107.084C146.343 110.706 146.376 114.484 145.441 118.07C144.524 121.64 142.525 125.007 139.455 127.322L139.774 127.777C141.485 126.741 142.995 125.404 144.23 123.83C145.464 122.251 146.411 120.454 147.095 118.572C148.461 114.794 148.811 110.715 148.471 106.728ZM118.552 101.733C120.168 102.36 121.643 103.151 122.934 104.121C125.559 106.049 127.249 108.664 128.386 111.584C128.69 112.315 128.941 113.086 129.133 113.887C129.249 114.28 129.315 114.71 129.398 115.098C129.468 115.597 129.517 115.911 129.553 116.372C129.68 118.073 129.485 119.872 128.884 121.55C127.7 124.918 125.146 127.813 122.098 129.545C119.328 131.119 116.31 131.885 113.791 131.528C114.661 130.771 115.691 129.925 116.671 129.056C118.095 127.768 119.567 126.394 120.85 124.603C121.486 123.701 122.101 122.701 122.523 121.454C122.939 120.228 123.038 118.607 122.485 117.212C121.949 115.811 120.948 114.871 120.01 114.221C119.349 113.763 118.636 113.385 117.887 113.092C116.6 109.961 115.735 106.747 115.48 103.641C115.408 102.688 115.414 101.753 115.488 100.844C116.555 101.082 117.575 101.366 118.552 101.733Z" fill="#FFCC00"/>
<path d="M107.064 169.148L103.734 182H101.196L99.162 174.62C99.09 174.38 99.012 174.074 98.928 173.702C98.844 173.318 98.766 172.946 98.694 172.586C98.622 172.226 98.574 171.962 98.55 171.794C98.526 171.962 98.478 172.226 98.406 172.586C98.346 172.934 98.268 173.3 98.172 173.684C98.088 174.068 98.01 174.392 97.938 174.656L95.958 182H93.402L90.09 169.148H92.394L94.158 176.474C94.242 176.786 94.32 177.14 94.392 177.536C94.476 177.932 94.554 178.328 94.626 178.724C94.698 179.108 94.752 179.444 94.788 179.732C94.824 179.432 94.878 179.084 94.95 178.688C95.022 178.292 95.1 177.908 95.184 177.536C95.268 177.152 95.346 176.828 95.418 176.564L97.434 169.148H99.666L101.718 176.582C101.802 176.846 101.886 177.176 101.97 177.572C102.054 177.956 102.132 178.34 102.204 178.724C102.276 179.108 102.33 179.444 102.366 179.732C102.402 179.432 102.45 179.09 102.51 178.706C102.582 178.322 102.66 177.932 102.744 177.536C102.828 177.14 102.912 176.786 102.996 176.474L104.76 169.148H107.064ZM111.827 172.064C113.135 172.064 114.167 172.454 114.923 173.234C115.691 174.014 116.075 175.1 116.075 176.492V177.644H109.631C109.655 178.532 109.901 179.222 110.369 179.714C110.837 180.194 111.485 180.434 112.313 180.434C112.937 180.434 113.501 180.374 114.005 180.254C114.509 180.122 115.025 179.936 115.553 179.696V181.514C115.073 181.742 114.575 181.91 114.059 182.018C113.543 182.126 112.925 182.18 112.205 182.18C111.257 182.18 110.411 182 109.667 181.64C108.935 181.268 108.359 180.71 107.939 179.966C107.531 179.222 107.327 178.298 107.327 177.194C107.327 175.526 107.741 174.254 108.569 173.378C109.397 172.502 110.483 172.064 111.827 172.064ZM111.827 173.738C111.215 173.738 110.717 173.936 110.333 174.332C109.961 174.716 109.745 175.292 109.685 176.06H113.879C113.867 175.388 113.693 174.836 113.357 174.404C113.033 173.96 112.523 173.738 111.827 173.738ZM124.585 182H122.317V168.32H124.585V182ZM128.259 168.482C128.607 168.482 128.901 168.572 129.141 168.752C129.393 168.92 129.519 169.226 129.519 169.67C129.519 170.114 129.393 170.426 129.141 170.606C128.901 170.786 128.607 170.876 128.259 170.876C127.911 170.876 127.611 170.786 127.359 170.606C127.119 170.426 126.999 170.114 126.999 169.67C126.999 169.226 127.119 168.92 127.359 168.752C127.611 168.572 127.911 168.482 128.259 168.482ZM129.393 172.244V182H127.125V172.244H129.393ZM138.575 179.174C138.575 180.158 138.221 180.908 137.513 181.424C136.817 181.928 135.815 182.18 134.507 182.18C133.823 182.18 133.235 182.132 132.743 182.036C132.263 181.94 131.795 181.79 131.339 181.586V179.66C131.819 179.888 132.347 180.08 132.923 180.236C133.511 180.392 134.063 180.47 134.579 180.47C135.203 180.47 135.653 180.374 135.929 180.182C136.205 179.99 136.343 179.732 136.343 179.408C136.343 179.216 136.289 179.048 136.181 178.904C136.073 178.748 135.857 178.58 135.533 178.4C135.221 178.22 134.753 177.998 134.129 177.734C133.505 177.494 132.983 177.248 132.563 176.996C132.155 176.732 131.843 176.426 131.627 176.078C131.423 175.73 131.321 175.28 131.321 174.728C131.321 173.852 131.663 173.192 132.347 172.748C133.043 172.292 133.967 172.064 135.119 172.064C135.719 172.064 136.283 172.124 136.811 172.244C137.351 172.364 137.891 172.544 138.431 172.784L137.711 174.458C137.255 174.266 136.811 174.104 136.379 173.972C135.947 173.84 135.503 173.774 135.047 173.774C134.051 173.774 133.553 174.056 133.553 174.62C133.553 174.824 133.613 174.998 133.733 175.142C133.865 175.286 134.087 175.442 134.399 175.61C134.723 175.766 135.179 175.958 135.767 176.186C136.343 176.414 136.841 176.654 137.261 176.906C137.681 177.146 138.005 177.446 138.233 177.806C138.461 178.166 138.575 178.622 138.575 179.174ZM144.178 180.362C144.454 180.362 144.724 180.338 144.988 180.29C145.264 180.23 145.516 180.164 145.744 180.092V181.784C145.504 181.892 145.192 181.982 144.808 182.054C144.424 182.138 144.022 182.18 143.602 182.18C143.05 182.18 142.546 182.09 142.09 181.91C141.634 181.718 141.274 181.394 141.01 180.938C140.746 180.482 140.614 179.846 140.614 179.03V173.954H139.3V172.964L140.74 172.172L141.46 170.102H142.882V172.244H145.654V173.954H142.882V179.012C142.882 179.468 143.002 179.81 143.242 180.038C143.482 180.254 143.794 180.362 144.178 180.362ZM151.274 172.064C152.582 172.064 153.614 172.454 154.37 173.234C155.138 174.014 155.522 175.1 155.522 176.492V177.644H149.078C149.102 178.532 149.348 179.222 149.816 179.714C150.284 180.194 150.932 180.434 151.76 180.434C152.384 180.434 152.948 180.374 153.452 180.254C153.956 180.122 154.472 179.936 155 179.696V181.514C154.52 181.742 154.022 181.91 153.506 182.018C152.99 182.126 152.372 182.18 151.652 182.18C150.704 182.18 149.858 182 149.114 181.64C148.382 181.268 147.806 180.71 147.386 179.966C146.978 179.222 146.774 178.298 146.774 177.194C146.774 175.526 147.188 174.254 148.016 173.378C148.844 172.502 149.93 172.064 151.274 172.064ZM151.274 173.738C150.662 173.738 150.164 173.936 149.78 174.332C149.408 174.716 149.192 175.292 149.132 176.06H153.326C153.314 175.388 153.14 174.836 152.804 174.404C152.48 173.96 151.97 173.738 151.274 173.738ZM162.669 172.064C163.761 172.064 164.613 172.346 165.225 172.91C165.849 173.474 166.161 174.386 166.161 175.646V182H163.893V176.096C163.893 174.632 163.293 173.9 162.093 173.9C161.181 173.9 160.557 174.188 160.221 174.764C159.885 175.34 159.717 176.162 159.717 177.23V182H157.449V172.244H159.195L159.519 173.522H159.645C159.957 173.018 160.383 172.652 160.923 172.424C161.475 172.184 162.057 172.064 162.669 172.064Z" fill="#FFCC00"/>
</g>
<defs>
<filter id="filter0_d" x="0" y="0" width="300" height="300" filterUnits="userSpaceOnUse" color-interpolation-filters="sRGB">
<feFlood flood-opacity="0" result="BackgroundImageFix"/>
<feColorMatrix in="SourceAlpha" type="matrix" values="0 0 0 0 0 0 0 0 0 0 0 0 0 0 0 0 0 0 127 0"/>
<feOffset dx="21" dy="21"/>
<feGaussianBlur stdDeviation="27.5"/>
<feColorMatrix type="matrix" values="0 0 0 0 0 0 0 0 0 0 0 0 0 0 0 0 0 0 0.129 0"/>
<feBlend mode="normal" in2="BackgroundImageFix" result="effect1_dropShadow"/>
<feBlend mode="normal" in="SourceGraphic" in2="effect1_dropShadow" result="shape"/>
</filter>
</defs>
</svg>
