<svg width="131" height="273" viewBox="0 0 131 273" fill="none" xmlns="http://www.w3.org/2000/svg">
<path fill-rule="evenodd" clip-rule="evenodd" d="M124.126 4.45579L117.39 0.632324L0.73877 69.0684V203.214L111.459 268.289L119.003 272.745L126.662 268.433L126.684 268.421L231.643 208.955L231.651 208.951L231.668 208.941L231.673 208.938L238.562 205.091V68.5599L230.895 64.2945L230.89 64.2913L230.88 64.2859L124.152 4.47085L124.147 4.46759L124.132 4.45935L124.126 4.45579ZM211.486 189.211L132.678 233.863V145.002L211.486 99.9655V189.211ZM117.589 31.8772L197.467 76.6375L119.112 121.406L41.2013 76.6964L117.589 31.8772ZM27.7926 187.689V100.325L105.624 144.988V233.432L27.7926 187.689Z" fill="rgba(165, 199, 125, 0.4)"/>
</svg>
